<svg xmlns="http://www.w3.org/2000/svg" width="40" height="40" viewBox="0 0 40 40">
    <g fill="none" fill-rule="evenodd">
        <rect width="40" height="40" fill="#FEB5B5" rx="5"/>
        <g fill="#F66A6A" transform="translate(8 8)">
            <path fill-rule="nonzero" d="M17.601 0a6.24 6.24 0 0 1 4.442 1.84 6.29 6.29 0 0 1 0 8.885L10.725 22.044a6.239 6.239 0 0 1-4.441 1.84l-.28-.006a6.239 6.239 0 0 1-4.163-1.834 6.29 6.29 0 0 1 0-8.885L13.16 1.84A6.24 6.24 0 0 1 17.6 0zM4.426 13.31L3.21 14.528a4.352 4.352 0 0 0 0 6.147 4.32 4.32 0 0 0 3.074 1.273l.231-.006a4.314 4.314 0 0 0 2.842-1.267l1.217-1.218-6.147-6.147zm7.516-7.59L5.72 11.943l5.839 5.839 6.22-6.221-5.838-5.84zm5.66-3.785a4.319 4.319 0 0 0-3.074 1.274L13.31 4.426l6.147 6.147 1.218-1.217a4.352 4.352 0 0 0 0-6.147 4.319 4.319 0 0 0-3.074-1.274z"/>
            <circle cx="12.027" cy="9.142" r="1"/>
            <circle cx="9.399" cy="11.58" r="1"/>
            <circle cx="14.601" cy="11.58" r="1"/>
            <circle cx="12.027" cy="14.113" r="1"/>
        </g>
    </g>
</svg>
