<svg xmlns="http://www.w3.org/2000/svg" width="40" height="40" viewBox="0 0 40 40">
    <g fill="none" fill-rule="evenodd">
        <rect width="40" height="40" fill="#CBE6E2" rx="5"/>
        <path fill="#97CEC5" fill-rule="nonzero" d="M21.918 9h-3.836c-.628 0-1.138.516-1.138 1.153v6.613h-6.806C9.51 16.767 9 17.284 9 17.92v4.16c0 .637.51 1.153 1.138 1.153h6.806v6.614c0 .637.51 1.153 1.138 1.153h3.836c.628 0 1.138-.516 1.138-1.153v-6.615h.505l6.3.001c.63 0 1.139-.516 1.139-1.153v-4.16c0-.637-.51-1.153-1.138-1.153h-6.807V10.152c0-.637-.509-1.153-1.137-1.153zm-.362 1.5v5.755l-.001 2.011H29.5v3.467h-7.945V29.5h-3.11l-.001-5.756v-2.012l-7.944.001v-3.466h7.944V10.5h3.112z"/>
    </g>
</svg>
