<svg xmlns="http://www.w3.org/2000/svg" width="40" height="40" viewBox="0 0 40 40">
    <g fill="none" fill-rule="evenodd">
        <rect width="40" height="40" fill="#DEECF4" rx="5"/>
        <path fill="#A8C7DD" fill-rule="nonzero" d="M18.357 13.906c-.497-.478-1.236-.722-2.247-.734h-3.728a.8.8 0 0 1-.778-.99l.746-3.07a.8.8 0 0 1 .777-.612h13.594a.8.8 0 0 1 .774 1.002l-.628 2.407a.8.8 0 0 1-.775.598h-2.087c.216.472.378.98.488 1.523h2.226a.8.8 0 0 1 .773 1.007l-.64 2.392a.8.8 0 0 1-.773.593h-1.603c-.292 1.415-.918 2.57-1.879 3.45-.887.813-2.087 1.41-3.594 1.797l6.19 7.337v.894H19.46l-7.391-8.66a.8.8 0 0 1-.192-.514l-.013-2.248a.8.8 0 0 1 .796-.805h3.284c1.346 0 2.238-.41 2.741-1.251H12.39a.8.8 0 0 1-.774-1.003l.491-1.87a1.5 1.5 0 0 1 1.451-1.119h4.92l-.12-.124zM26.462 9.5H13.285l-.65 2.672h3.48c1.861.022 3.131.749 3.707 2.17l.278.688h-6.543a.5.5 0 0 0-.484.373l-.425 1.619h7.483l-.205.65c-.543 1.722-1.912 2.601-3.982 2.601h-3.079l.012 1.974 7.045 8.253h3.873l-6.637-7.867.836-.162c1.729-.336 3.036-.919 3.928-1.737.88-.806 1.427-1.896 1.642-3.288l.065-.424h2.296l.533-1.992h-2.817l-.063-.427c-.13-.889-.409-1.663-.833-2.327l-.492-.77h3.685l.524-2.006zm-2.27 21.288h.5l-.25.212h-.225l-.025-.029v-.183z"/>
    </g>
</svg>
