<svg xmlns="http://www.w3.org/2000/svg" width="40" height="40" viewBox="0 0 40 40">
    <g fill="none" fill-rule="evenodd">
        <rect width="40" height="40" fill="#FFE6AA" rx="5"/>
        <path fill="#FFD07A" fill-rule="nonzero" d="M33.212 16.547c0 .774-.127 1.537-.373 2.27-1.155 5.23-11.15 11.557-11.576 11.827a.82.82 0 0 1-.87 0c-.114-.075-2.93-1.852-5.785-4.294a.814.814 0 0 1-.09-1.144.818.818 0 0 1 1.143-.092c2.129 1.819 4.28 3.289 5.173 3.88 3.001-1.956 9.628-6.936 10.44-10.608a5.787 5.787 0 0 0 .309-1.837 5.725 5.725 0 0 0-2.963-5.014c-2.334-1.295-5.459-.698-7.166 1.36-.307.372-.938.372-1.25 0-1.714-2.06-4.835-2.652-7.166-1.362a5.723 5.723 0 0 0-2.969 5.012c0 .595.1 1.188.288 1.76.12.536.351 1.06.645 1.603h4.734l1.626-3.737a.808.808 0 0 1 1.53.136l1.198 5.06 1.548-2.538a.808.808 0 0 1 .692-.389h2.939a.81.81 0 1 1 0 1.623h-2.483l-2.333 3.831a.809.809 0 0 1-1.48-.232l-1.093-4.61-.864 1.99a.808.808 0 0 1-.745.488h-9.46A.814.814 0 0 1 6 20.718c0-.446.367-.81.811-.81H9.19a7.047 7.047 0 0 1-.39-1.172 6.837 6.837 0 0 1-.349-2.19 7.343 7.343 0 0 1 3.806-6.434c2.723-1.507 6.326-1.033 8.576 1.081 2.244-2.114 5.844-2.588 8.572-1.081a7.35 7.35 0 0 1 3.807 6.435z"/>
    </g>
</svg>
