<svg xmlns="http://www.w3.org/2000/svg" width="18" height="18" viewBox="0 0 18 18">
    <path fill="#03C" d="M14.309 3.032c.321.086.573.337.66.66.085.321-.007.665-.242.9L10.318 9l4.412 4.413c.264.266.343.666.199 1.013-.145.347-.483.573-.859.574-.247 0-.485-.097-.66-.272L9 10.317l-4.41 4.411c-.175.175-.413.273-.66.272-.376 0-.714-.227-.859-.574-.144-.347-.065-.747.199-1.013L7.681 9 3.273 4.592c-.364-.364-.364-.955 0-1.319.365-.364.955-.364 1.32 0L9 7.681l4.407-4.408c.236-.235.58-.327.902-.241z"/>
</svg>
