<svg xmlns="http://www.w3.org/2000/svg" width="100%" height="100%" viewBox="0 0 18 18">
    <g fill="#0D7E51">
        <path d="M8 1.229c3.74 0 6.771 3.031 6.771 6.771 0 3.74-3.031 6.771-6.771 6.771-3.74 0-6.771-3.031-6.771-6.771C1.233 4.262 4.262 1.233 8 1.229M8 0C3.582 0 0 3.582 0 8s3.582 8 8 8 8-3.582 8-8-3.582-8-8-8z" transform="translate(1 1)"/>
        <path d="M6.042 11L3.638 8.253c-.213-.244-.176-.605.083-.806.258-.2.64-.166.854.078l1.62 1.859 4.882-4.03c.165-.132.393-.17.597-.102.204.07.353.236.391.438.039.201-.04.406-.205.538L6.042 11z" transform="translate(1 1)"/>
    </g>
</svg>
