<svg xmlns="http://www.w3.org/2000/svg" width="48" height="48" viewBox="0 0 48 48">
    <g fill="none" fill-rule="evenodd">
        <g>
            <g>
                <g>
                    <g>
                        <path d="M0 0L25.055 0 25.055 25.055 0 25.055z" transform="translate(-12 -76) translate(0 68) translate(12 8) translate(11 11)"/>
                        <path fill="#03C" fill-rule="nonzero" d="M3.967 4.385h17.121c.462 0 .835.374.835.835 0 .461-.373.835-.835.835H3.968c-.462 0-.836-.374-.836-.835 0-.461.374-.835.835-.835zm0 7.308h17.121c.462 0 .835.373.835.835 0 .461-.373.835-.835.835H3.968c-.462 0-.836-.374-.836-.835 0-.462.374-.835.835-.835zm0 7.307h17.121c.462 0 .835.374.835.836 0 .46-.373.835-.835.835H3.968c-.462 0-.836-.374-.836-.835 0-.462.374-.836.835-.836z" transform="translate(-12 -76) translate(0 68) translate(12 8) translate(11 11)"/>
                    </g>
                </g>
            </g>
        </g>
    </g>
</svg>
