<svg xmlns="http://www.w3.org/2000/svg" xmlns:xlink="http://www.w3.org/1999/xlink" width="250" height="342" viewBox="0 0 250 342">
    <defs>
        <path id="w2386l9bja" d="M0 0H270V378H0z"/>
    </defs>
    <g fill="none" fill-rule="evenodd">
        <g>
            <g transform="translate(-20 -150) translate(0 144)">
                <mask id="1dzfu6nvnb" fill="#fff">
                    <use xlink:href="#w2386l9bja"/>
                </mask>
                <g mask="url(#1dzfu6nvnb)" opacity=".7">
                    <g>
                        <g opacity=".2">
                            <g fill-rule="nonzero">
                                <path fill="#03C" stroke="#03C" d="M129.611 302.31C-34.939 243.195 4.023 30.006 4.023 30.006L129.611 0l125.615 30.005s38.91 213.189-125.615 272.306z" transform="translate(20 7) translate(44)"/>
                                <path stroke="#FFF" stroke-width="5" d="M129.611 280.2C-7.827 219.587 20.647 48.338 20.647 48.338L129.611 23.5l108.967 24.84s28.474 171.247-108.967 231.863v-.003z" transform="translate(20 7) translate(44)"/>
                                <g fill="#FFF">
                                    <path d="M99.362 39.268c-4.256-.354-8.511 0-12.767 0-1.063 0-1.773 0-2.837-.354-4.61-1.064-7.447-4.609-7.447-9.217V17.999c0-7.799-4.255-14.534-11.348-17.015-4.61-1.418-11.702-.71-13.475 0-7.093 2.836-11.703 9.57-11.703 17.015v11.698c0 14.18 6.029 25.168 17.731 33.322 1.773 1.063 3.192 3.19 4.256 4.962 3.546 4.963 5.32 10.28 5.32 16.661v13.116c0 4.963-4.256 8.862-9.221 8.862s-8.866-3.9-8.866-8.862V85.706c0-10.28-7.802-18.434-18.44-18.434H18.862c-4.965 0-8.511-2.836-9.22-7.798-1.064-4.609 2.837-9.571 7.447-10.28 2.482-.355 5.32 0 7.802 0h6.028v-9.926H17.444C9.287 39.623 2.549 46.003.776 54.156.422 55.22.422 59.12.422 59.12c.709 9.217 8.51 16.661 18.085 16.661H30.92c4.965 0 8.866 3.9 8.866 8.508v10.28c0 1.772 0 3.19.355 4.962 1.773 10.635 11.348 17.37 21.986 15.243 7.447-1.418 13.476-8.153 14.185-15.952.355-3.544 0-7.09 0-10.634 0-2.836 0-6.026-.354-8.862-1.773-10.635-6.738-19.497-15.604-25.878-1.418-1.063-2.482-2.126-3.9-3.19-4.61-4.963-7.093-10.989-7.448-17.724-.354-4.963-.354-9.926 0-15.243C49.36 11.618 54.68 7.72 60 9.137c4.255 1.063 7.092 4.608 7.092 9.217v11.698c0 9.925 7.802 18.078 17.731 18.078h12.412c4.965 0 9.22 4.254 9.22 8.862 0 4.963-3.9 8.862-8.865 9.217H85.532v9.217H96.88c1.064 0 2.482 0 3.546-.355 8.866-1.772 14.894-8.862 14.894-17.724 1.064-9.217-6.383-17.37-15.958-18.079" transform="translate(20 7) translate(44) translate(70.578 85)"/>
                                    <path d="M115.422 14.165c0 7.7-6.3 14-14 14s-14-6.3-14-14 6.3-14 14-14 14 6.3 14 14" transform="translate(20 7) translate(44) translate(70.578 85)"/>
                                </g>
                            </g>
                        </g>
                        <path fill="gray" fill-rule="nonzero" d="M7.416 229v-8.784h6.048c.24 0 .576-.012 1.008-.036.432-.024.816-.06 1.152-.108 1.536-.24 2.799-.75 3.789-1.53.99-.78 1.722-1.761 2.196-2.943.474-1.182.711-2.499.711-3.951s-.234-2.769-.702-3.951c-.468-1.182-1.197-2.163-2.187-2.943-.99-.78-2.259-1.29-3.807-1.53-.336-.06-.717-.099-1.143-.117-.426-.018-.765-.027-1.017-.027H2.52V229h4.896zm5.832-13.356H7.416v-7.992h5.832c.252 0 .528.012.828.036.3.024.576.072.828.144.66.18 1.17.483 1.53.909.36.426.609.9.747 1.422.138.522.207 1.017.207 1.485 0 .468-.069.963-.207 1.485-.138.522-.387.996-.747 1.422-.36.426-.87.729-1.53.909-.252.072-.528.12-.828.144-.3.024-.576.036-.828.036zM30.816 229v-8.784l5.463.001L40.536 229h5.544l-4.681-9.602.096-.042c.998-.458 1.81-1.095 2.438-1.91l.167-.227c1.08-1.542 1.62-3.399 1.62-5.571 0-1.452-.234-2.769-.702-3.951-.468-1.182-1.197-2.163-2.187-2.943-.99-.78-2.259-1.29-3.807-1.53-.336-.06-.717-.099-1.143-.117-.426-.018-.765-.027-1.017-.027H25.92V229h4.896zm5.832-13.356h-5.832v-7.992h5.832c.252 0 .528.012.828.036.3.024.576.072.828.144.66.18 1.17.483 1.53.909.36.426.609.9.747 1.422.138.522.207 1.017.207 1.485 0 .468-.069.963-.207 1.485-.138.522-.387.996-.747 1.422-.36.426-.87.729-1.53.909-.252.072-.528.12-.828.144-.3.024-.576.036-.828.036zm24.516 13.896c2.592 0 4.827-.564 6.705-1.692 1.878-1.128 3.324-2.706 4.338-4.734 1.014-2.028 1.521-4.386 1.521-7.074 0-2.688-.507-5.046-1.521-7.074-1.014-2.028-2.46-3.606-4.338-4.734-1.878-1.128-4.113-1.692-6.705-1.692-2.592 0-4.827.564-6.705 1.692-1.878 1.128-3.324 2.706-4.338 4.734-1.014 2.028-1.521 4.386-1.521 7.074 0 2.688.507 5.046 1.521 7.074 1.014 2.028 2.46 3.606 4.338 4.734 1.878 1.128 4.113 1.692 6.705 1.692zm.348-4.609l-.348.001c-1.644-.024-3.012-.402-4.104-1.134-1.092-.732-1.911-1.758-2.457-3.078-.546-1.32-.819-2.88-.819-4.68 0-1.8.273-3.372.819-4.716.546-1.344 1.365-2.382 2.457-3.114 1.092-.732 2.46-1.086 4.104-1.062 1.644.024 3.012.402 4.104 1.134 1.092.732 1.911 1.758 2.457 3.078.546 1.32.819 2.88.819 4.68 0 1.8-.273 3.372-.819 4.716-.546 1.344-1.365 2.382-2.457 3.114-1.092.732-2.46 1.086-4.104 1.062h.348zM87.516 229v-21.348h8.172v-4.572h-21.24v4.572h8.172V229h4.896zm27.972 0v-4.572h-12.024v-6.66h9.864v-4.572h-9.864v-5.544h12.024v-4.572h-16.92V229h16.92zm14.544.54c2.976 0 5.475-.738 7.497-2.214 2.022-1.476 3.447-3.474 4.275-5.994l-4.932-1.368c-.48 1.56-1.29 2.778-2.43 3.654-1.14.876-2.61 1.314-4.41 1.314-1.644 0-3.015-.366-4.113-1.098-1.098-.732-1.923-1.764-2.475-3.096s-.828-2.898-.828-4.698c0-1.8.276-3.366.828-4.698.552-1.332 1.377-2.364 2.475-3.096 1.098-.732 2.469-1.098 4.113-1.098 1.8 0 3.27.435 4.41 1.305 1.14.87 1.95 2.091 2.43 3.663l4.932-1.368c-.828-2.52-2.253-4.518-4.275-5.994-2.022-1.476-4.521-2.214-7.497-2.214-2.592 0-4.827.564-6.705 1.692-1.878 1.128-3.324 2.706-4.338 4.734-1.014 2.028-1.521 4.386-1.521 7.074 0 2.688.507 5.046 1.521 7.074 1.014 2.028 2.46 3.606 4.338 4.734 1.878 1.128 4.113 1.692 6.705 1.692zm26.64-.54v-21.348h8.172v-4.572h-21.24v4.572h8.172V229h4.896zM13.824 266v-10.548l8.856-15.372h-5.724l-5.616 9.756-5.616-9.756H0l8.856 15.372V266h4.968zm21.06.54c2.592 0 4.827-.564 6.705-1.692 1.878-1.128 3.324-2.706 4.338-4.734 1.014-2.028 1.521-4.386 1.521-7.074 0-2.688-.507-5.046-1.521-7.074-1.014-2.028-2.46-3.606-4.338-4.734-1.878-1.128-4.113-1.692-6.705-1.692-2.592 0-4.827.564-6.705 1.692-1.878 1.128-3.324 2.706-4.338 4.734-1.014 2.028-1.521 4.386-1.521 7.074 0 2.688.507 5.046 1.521 7.074 1.014 2.028 2.46 3.606 4.338 4.734 1.878 1.128 4.113 1.692 6.705 1.692zm.348-4.609l-.348.001c-1.644-.024-3.012-.402-4.104-1.134-1.092-.732-1.911-1.758-2.457-3.078-.546-1.32-.819-2.88-.819-4.68 0-1.8.273-3.372.819-4.716.546-1.344 1.365-2.382 2.457-3.114 1.092-.732 2.46-1.086 4.104-1.062 1.644.024 3.012.402 4.104 1.134 1.092.732 1.911 1.758 2.457 3.078.546 1.32.819 2.88.819 4.68 0 1.8-.273 3.372-.819 4.716-.546 1.344-1.365 2.382-2.457 3.114-1.092.732-2.46 1.086-4.104 1.062h.348zm26.364 4.609c2.088 0 3.924-.423 5.508-1.269 1.584-.846 2.82-2.037 3.708-3.573.888-1.536 1.332-3.342 1.332-5.418v-16.2h-4.968v16.164c0 .84-.141 1.608-.423 2.304-.282.696-.675 1.296-1.179 1.8s-1.095.894-1.773 1.17c-.678.276-1.413.414-2.205.414-.768 0-1.491-.135-2.169-.405-.678-.27-1.272-.657-1.782-1.161s-.909-1.104-1.197-1.8c-.288-.696-.432-1.47-.432-2.322V240.08l-4.968.036v16.164c0 2.076.444 3.882 1.332 5.418.888 1.536 2.124 2.727 3.708 3.573 1.584.846 3.42 1.269 5.508 1.269zM82.08 266v-8.784l5.463.001L91.8 266h5.544l-4.681-9.602.096-.042c.998-.458 1.81-1.095 2.438-1.91l.167-.227c1.08-1.542 1.62-3.399 1.62-5.571 0-1.452-.234-2.769-.702-3.951-.468-1.182-1.197-2.163-2.187-2.943-.99-.78-2.259-1.29-3.807-1.53-.336-.06-.717-.099-1.143-.117-.426-.018-.765-.027-1.017-.027H77.184V266h4.896zm5.832-13.356H82.08v-7.992h5.832c.252 0 .528.012.828.036.3.024.576.072.828.144.66.18 1.17.483 1.53.909.36.426.609.9.747 1.422.138.522.207 1.017.207 1.485 0 .468-.069.963-.207 1.485-.138.522-.387.996-.747 1.422-.36.426-.87.729-1.53.909-.252.072-.528.12-.828.144-.3.024-.576.036-.828.036zM7.416 303v-10.512H16.2v-4.896H7.416v-5.616H18.36v-4.896H2.52V303h4.896zm17.064 0l1.641-5.4h9.76l1.667 5.4h5.04l-7.92-25.92H27.36L19.44 303h5.04zm9.99-9.972h-6.959l3.453-11.36 3.506 11.36zM50.4 303v-15.48L57.924 303h1.728l7.524-15.48V303h4.572v-25.92h-4.392l-8.568 17.208-8.568-17.208h-4.392V303H50.4zm31.644 0v-25.92h-4.896V303h4.896zm21.816 0v-4.572H92.7V277.08h-4.896V303h16.056zm10.764 0v-10.548l8.856-15.372h-5.724l-5.616 9.756-5.616-9.756H100.8l8.856 15.372V303h4.968zm27.396 0l5.022-17.496L152.064 303h4.824l7.596-25.92h-5.148l-4.86 17.82-4.86-17.82-5.148.036-4.86 17.784-4.86-17.82H129.6l7.596 25.92h4.824zm30.6 0v-25.92h-4.896V303h4.896zm16.308 0v-21.348h8.172v-4.572h-21.24v4.572h8.172V303h4.896zm15.948 0v-10.692h11.592V303h4.896v-25.92h-4.896v10.656h-11.592V277.08h-4.896V303h4.896zM13.644 340.54c2.976 0 5.475-.738 7.497-2.214 2.022-1.476 3.447-3.474 4.275-5.994l-4.932-1.368c-.48 1.56-1.29 2.778-2.43 3.654-1.14.876-2.61 1.314-4.41 1.314-1.644 0-3.015-.366-4.113-1.098-1.098-.732-1.923-1.764-2.475-3.096s-.828-2.898-.828-4.698c0-1.8.276-3.366.828-4.698.552-1.332 1.377-2.364 2.475-3.096 1.098-.732 2.469-1.098 4.113-1.098 1.8 0 3.27.435 4.41 1.305 1.14.87 1.95 2.091 2.43 3.663l4.932-1.368c-.828-2.52-2.253-4.518-4.275-5.994-2.022-1.476-4.521-2.214-7.497-2.214-2.592 0-4.827.564-6.705 1.692-1.878 1.128-3.324 2.706-4.338 4.734-1.014 2.028-1.521 4.386-1.521 7.074 0 2.688.507 5.046 1.521 7.074 1.014 2.028 2.46 3.606 4.338 4.734 1.878 1.128 4.113 1.692 6.705 1.692zm32.148-.54v-4.572h-11.16V314.08h-4.896V340h16.056zm8.316 0v-25.92h-4.896V340h4.896zm10.368 0v-17.28L75.744 340h4.968v-25.92h-4.968v17.28l-11.268-17.28h-4.968V340h4.968zm26.532 0v-25.92h-4.896V340h4.896zm10.296 0v-11.808L111.636 340h6.192l-11.52-13.14 10.836-12.78h-5.976l-9.864 11.952V314.08h-4.896V340h4.896zm23.94 0v-11.808L135.576 340h6.192l-11.52-13.14 10.836-12.78h-5.976l-9.864 11.952V314.08h-4.896V340h4.896zm25.74-6.48v-19.44h-4.896v19.44h4.896zm0 6.48v-4.32h-4.896V340h4.896z" transform="translate(20 7)"/>
                    </g>
                </g>
            </g>
        </g>
    </g>
</svg>
