<svg xmlns="http://www.w3.org/2000/svg" width="18" height="18" viewBox="0 0 18 18">
    <g fill="#BB2E2E">
        <path d="M8 1.229c3.74 0 6.771 3.031 6.771 6.771 0 3.74-3.031 6.771-6.771 6.771-3.74 0-6.771-3.031-6.771-6.771C1.233 4.262 4.262 1.233 8 1.229M8 0C3.582 0 0 3.582 0 8s3.582 8 8 8 8-3.582 8-8-3.582-8-8-8z" transform="translate(1 1)"/>
        <path d="M5.429 4.66L8 7.23l2.571-2.57c.137-.138.338-.192.526-.141.187.05.334.197.384.384.05.188-.003.388-.14.526l-2.572 2.57 2.573 2.575c.155.156.2.389.116.591-.084.202-.281.335-.5.335-.145 0-.283-.057-.385-.159L8 8.77l-2.573 2.572c-.102.102-.24.16-.385.159-.219 0-.416-.133-.5-.335-.084-.202-.039-.435.116-.591L7.23 7.999l-2.57-2.57c-.213-.213-.213-.557 0-.77.212-.212.556-.212.769 0z" transform="translate(1 1)"/>
    </g>
</svg>
