<svg xmlns="http://www.w3.org/2000/svg" width="18" height="18" viewBox="0 0 18 18">
    <path fill="#F33" d="M13.327 8.589V7.084c.72-.288 1.19-.981 1.185-1.75 0-1.241-1.21-2.445-1.348-2.58l-.387-.375-.376.388c-.136.14-1.336 1.411-1.336 2.558-.029.782.45 1.495 1.187 1.771v1.48H9.536v-2.87c.721-.287 1.192-.981 1.187-1.752 0-1.24-1.21-2.447-1.348-2.579L8.988 1l-.376.386c-.136.143-1.335 1.411-1.335 2.558-.029.78.448 1.492 1.184 1.769v2.871h-2.97V7.092c.72-.287 1.19-.98 1.186-1.75 0-1.24-1.209-2.445-1.346-2.58l-.39-.383-.374.388c-.137.14-1.335 1.411-1.335 2.558-.028.78.448 1.492 1.185 1.77V8.61C3.035 8.797 2.003 9.966 2 11.35V17h14v-5.65c-.004-1.481-1.181-2.697-2.673-2.761zM12.14 5.334c0-.395.325-.947.656-1.382.306.39.645.93.645 1.382-.002.394-.278.736-.666.825-.389-.081-.66-.432-.635-.825zm-3.788-1.38c0-.394.324-.948.656-1.383.305.39.645.93.645 1.383-.004.394-.28.735-.667.823-.388-.08-.658-.43-.634-.823zm-4.045 1.38c0-.395.325-.947.645-1.382.306.39.645.93.645 1.382-.002.394-.277.735-.664.825-.385-.085-.651-.435-.626-.825zm10.618 10.6H3.075v-2.2h11.85v2.2zm0-3.265H3.075v-1.32c0-.942.77-1.705 1.72-1.705h8.416c.95 0 1.72.763 1.72 1.705l-.006 1.32z"/>
</svg>
