<svg xmlns="http://www.w3.org/2000/svg" width="18" height="18" viewBox="0 0 18 18">
    <path fill="#F33" d="M13.926 2.336h-1.03v-.76c0-.31-.252-.562-.564-.562-.31 0-.563.252-.563.563v.76H9.917v-.76c0-.311-.253-.563-.564-.563-.31 0-.563.252-.563.563v.76H6.924v-.76c0-.311-.252-.563-.563-.563-.312 0-.564.252-.564.563v.76H4.783c-.733-.001-1.436.29-1.955.808-.519.518-.81 1.221-.81 1.954v9.145C2.022 15.768 3.259 17 4.783 17h9.143c1.523 0 2.759-1.233 2.762-2.756V5.099c0-1.526-1.237-2.763-2.762-2.763zm0 13.544H4.783c-.82 0-1.513-.607-1.622-1.42h12.394c-.113.813-.81 1.417-1.63 1.413v.007zm1.636-2.546H3.145V5.099c.001-.904.734-1.636 1.638-1.636h1.014v.929c0 .31.252.563.564.563.31 0 .563-.252.563-.563v-.929H8.79v.929c0 .31.252.563.563.563.311 0 .564-.252.564-.563v-.929h1.852v.929c0 .31.252.563.563.563.312 0 .564-.252.564-.563v-.929h1.03c.903.001 1.634.733 1.636 1.636v8.235z"/>
</svg>
