<svg xmlns="http://www.w3.org/2000/svg" width="18" height="18" viewBox="0 0 18 18">
    <path fill="#F33" d="M15.495 12.937c-.35-2.355-1.946-4.338-4.174-5.188 1.303-.945 1.853-2.616 1.365-4.148C12.198 2.069 10.78 1.02 9.17 1 7.56.978 6.116 1.99 5.588 3.508 5.06 5.027 5.566 6.712 6.844 7.69c-2.313.806-3.987 2.827-4.344 5.246v3.429c0 .35.284.634.635.634h11.73c.35 0 .635-.284.635-.633v-3.341c0-.03-.001-.06-.005-.089zM6.65 4.73c.002-1.361 1.108-2.463 2.472-2.462 1.365 0 2.47 1.104 2.47 2.465-.001 1.361-1.107 2.464-2.471 2.464-1.365-.001-2.47-1.106-2.47-2.467zm7.58 11.003H3.77v-2.66c.395-2.576 2.617-4.48 5.23-4.48 2.613 0 4.835 1.904 5.23 4.48v2.66z"/>
</svg>
