<svg xmlns="http://www.w3.org/2000/svg" width="18" height="18" viewBox="0 0 18 18">
    <path fill="#F33" d="M14.41 5.267c0 .16-.063.315-.177.429-.114.114-.268.177-.43.177h-1.187C12.51 7.517 11.36 8.908 9.765 9.32l3.932 6.526c.173.287.08.66-.207.833-.287.173-.66.08-.833-.207L8.444 9.485H4.68c-.335 0-.606-.271-.606-.606 0-.335.271-.606.606-.606h4.284c1.277-.11 2.295-1.113 2.424-2.388H4.681c-.335 0-.606-.271-.606-.606 0-.335.271-.606.606-.606h6.703c-.119-1.233-1.067-2.224-2.293-2.398H4.68c-.288.001-.537-.202-.594-.485-.007-.04-.012-.08-.012-.12 0-.04.005-.077.012-.115.057-.283.306-.486.594-.485h9.123c.334 0 .606.272.606.606 0 .335-.272.606-.606.606h-2.248c.603.656.972 1.492 1.05 2.379h1.198c.334 0 .606.27.606.606z"/>
</svg>
