<svg xmlns="http://www.w3.org/2000/svg" width="18" height="18" viewBox="0 0 18 18">
    <g fill="none" fill-rule="evenodd">
        <g>
            <g>
                <g>
                    <g>
                        <g>
                            <path d="M0 0L16 0 16 16 0 16z" transform="translate(-62 -486) translate(54 477) translate(8 8) translate(0 1) translate(1 1)"/>
                            <path fill="#03C" fill-rule="nonzero" d="M3.926 10.667H1.333c-.368 0-.666-.299-.666-.667V6c0-.368.298-.667.666-.667h2.593l3.53-2.888c.099-.081.237-.098.353-.043.117.055.191.172.191.301v10.594c0 .129-.074.246-.19.301-.117.055-.255.038-.355-.043l-3.528-2.888h-.001zm9.011 2.756l-.944-.944C13.272 11.34 14.002 9.71 14 8c.002-1.8-.807-3.507-2.203-4.645l.947-.947C14.388 3.8 15.335 5.846 15.334 8c0 2.149-.925 4.081-2.397 5.423zm-2.362-2.362l-.948-.948c.656-.505 1.04-1.286 1.04-2.113 0-.953-.5-1.79-1.254-2.261l.96-.96C11.397 5.533 12 6.73 12 8c0 1.228-.553 2.327-1.425 3.06z" transform="translate(-62 -486) translate(54 477) translate(8 8) translate(0 1) translate(1 1)"/>
                        </g>
                    </g>
                </g>
            </g>
        </g>
    </g>
</svg>
