<svg xmlns="http://www.w3.org/2000/svg" width="31" height="31" viewBox="0 0 31 31">
    <g fill="none" fill-rule="evenodd">
        <path d="M0 0H31V31H0z"/>
        <circle cx="23.118" cy="10.391" r="7.766" fill="#FFF" fill-rule="nonzero"/>
        <path fill="#133CC0" fill-rule="nonzero" d="M18.552 16.217c-.268 0-.485.217-.485.484v.698c0 .76-.616 1.375-1.375 1.375-.76 0-1.376-.616-1.376-1.375v-1.292c1.264-.234 2.183-1.336 2.186-2.622v-1.537c-.002-.49-.399-.885-.888-.885h-.468c-.268 0-.485.217-.485.484 0 .268.217.485.485.485h.387v1.447c0 .94-.762 1.701-1.701 1.701-.94 0-1.702-.762-1.702-1.701v-1.444h.516c.268 0 .485-.217.485-.484 0-.268-.217-.485-.485-.485h-.597c-.488 0-.884.394-.888.882v1.53c.003 1.287.922 2.388 2.186 2.623v1.291c0 1.295 1.05 2.345 2.345 2.345 1.294 0 2.344-1.05 2.344-2.345v-.69c0-.268-.217-.485-.484-.485z"/>
        <circle cx="18.577" cy="15.881" r="1" fill="#F33" fill-rule="nonzero"/>
        <path fill="#133CC0" fill-rule="nonzero" d="M13.727 11.974c-.235-.002-.424-.194-.423-.429.001-.235.192-.424.427-.424s.426.192.426.426c-.002.236-.194.427-.43.427zM16.043 11.977c-.175.001-.333-.103-.4-.264-.067-.16-.03-.346.093-.47.123-.122.308-.159.47-.092.16.068.264.225.263.4-.002.234-.192.424-.427.426z"/>
        <path fill="#133CC0" fill-rule="nonzero" d="M28.985 22.682V7.772h-12.27l2.66-2.515c.095-.087.15-.209.154-.337.005-.13-.043-.254-.131-.348-.182-.183-.475-.193-.669-.022L15.5 7.572 12.27 4.55c-.119-.148-.315-.213-.499-.164-.184.048-.323.2-.355.388-.031.188.05.377.209.483l2.68 2.516H2.141v14.909h12.775v1.414h-2.203v.969h5.322v-.969h-2.15v-1.414h13.1zm-25.875-.97V8.743h24.906v12.97H3.11z"/>
    </g>
</svg>
