<svg xmlns="http://www.w3.org/2000/svg" width="32" height="31" viewBox="0 0 32 31">
    <g fill="none" fill-rule="evenodd" transform="translate(.5)">
        <path fill="#133CC0" fill-rule="nonzero" d="M6.026 17.567c-.126.003-.248-.044-.34-.13-.188-.189-.188-.495 0-.684l1.095-1.134c.191-.187.497-.187.688 0 .092.091.143.215.143.344 0 .13-.051.253-.143.344l-1.098 1.13c-.093.088-.218.135-.345.13zM5.586 12.432H5.57l-1.614-.048c-.267-.01-.476-.234-.469-.5.002-.13.056-.253.15-.342.095-.088.222-.134.351-.127l1.615.049c.267 0 .484.216.484.484 0 .267-.217.484-.484.484h-.017zM6.914 7.95c-.118.003-.233-.037-.323-.113L5.399 6.814c-.131-.116-.191-.293-.157-.464.034-.172.157-.312.323-.368.165-.057.348-.02.48.095L7.23 7.104c.203.175.228.48.055.685-.094.105-.23.164-.371.161z"/>
        <path d="M0 0H31V31H0z"/>
        <circle cx="23.076" cy="10.391" r="7.766" fill="#FFF" fill-rule="nonzero"/>
        <path fill="#133CC0" fill-rule="nonzero" d="M16.76 27.193h-2.387c-1.07 0-1.937-.868-1.937-1.938v-.067c-.639-.308-1.044-.955-1.043-1.664v-1.937c.01-1.475-.556-2.897-1.576-3.962-2.197-2.298-2.819-5.681-1.585-8.61 1.234-2.93 4.09-4.848 7.268-4.882h.058c2.112-.006 4.14.83 5.632 2.325 3.071 3.048 3.152 7.989.18 11.135-1.032 1.082-1.61 2.52-1.614 4.017v1.937c-.011.706-.425 1.343-1.066 1.64v.072c-.001 1.066-.864 1.93-1.93 1.934zm-1.244-22.09c-2.799.02-5.317 1.705-6.404 4.284-1.086 2.58-.532 5.559 1.409 7.576 1.194 1.247 1.856 2.91 1.847 4.637v1.937c0 .407.28.76.675.856l.368.087v.798c0 .535.433.969.968.969h2.38c.535 0 .97-.434.97-.97v-.813l.354-.087c.396-.096.675-.449.678-.856v-1.937c.015-1.742.697-3.412 1.906-4.666 2.608-2.764 2.538-7.103-.159-9.782-1.31-1.307-3.086-2.039-4.937-2.034h-.055z"/>
        <path fill="#133CC0" fill-rule="nonzero" d="M16.963 25.136h-2.584c-.267 0-.484-.217-.484-.485 0-.267.217-.484.484-.484h2.584c.267 0 .484.217.484.484 0 .268-.217.485-.484.485zM25.188 17.567c-.128.003-.252-.043-.346-.13l-1.101-1.12c-.122-.123-.168-.302-.122-.47.046-.167.177-.297.345-.34.168-.044.346.005.468.129l1.101 1.123c.189.19.189.496 0 .685-.095.084-.219.128-.346.123zM25.707 12.432c-.267 0-.484-.217-.484-.484 0-.268.217-.484.484-.484l1.615-.049c.129-.006.255.04.35.128.093.089.148.211.15.34.008.268-.203.492-.471.5l-1.615.05h-.029zM24.3 7.95c-.142.002-.277-.06-.369-.168-.17-.203-.145-.505.055-.678l1.201-1.027c.13-.125.319-.169.49-.112.172.057.297.205.326.383.029.178-.044.358-.189.466l-1.201 1.023c-.088.074-.199.114-.314.113z"/>
        <rect width="6.588" height="6.588" x="12.439" y="8.593" fill="#F33" fill-rule="nonzero" rx="3.294"/>
        <path fill="#FFF" fill-rule="nonzero" d="M14.002 12.355c-.17.014-.334-.068-.423-.214-.09-.145-.09-.328 0-.474.089-.145.253-.228.423-.213l3.458-.036c.246.005.445.2.455.446.002.12-.044.236-.127.322-.084.086-.198.135-.318.136l-3.459.033h-.01z"/>
        <path fill="#FFF" fill-rule="nonzero" d="M15.749 14.07c-.248-.002-.449-.202-.452-.45l-.033-3.458c-.002-.248.197-.452.446-.455.12-.005.237.04.323.125.086.084.134.2.132.32l.036 3.462c.002.249-.197.452-.446.455h-.006z"/>
    </g>
</svg>
