<svg xmlns="http://www.w3.org/2000/svg" width="32" height="32" viewBox="0 0 32 32">
    <g fill="none">
        <path fill="#40C351" d="M10.487 3.766c2.178-.99 4.637-1.329 7.015-1.011 2.415.317 4.727 1.351 6.573 2.939 1.772 1.492 3.124 3.47 3.87 5.657.856 2.488.923 5.243.192 7.754-.813 2.789-2.537 5.225-4.896 6.92-1.513 1.082-3.24 1.825-5.067 2.178-3.101.591-6.395.015-9.083-1.624-.17-.074-.332-.259-.532-.178L3.84 27.62l1.256-4.608c.073-.163-.074-.296-.148-.443-1.425-2.172-2.164-4.786-2.09-7.385.074-5.318 3.47-9.527 7.607-11.447"/>
        <path fill="#FCFCFC" d="M11.151 8.345c.347.007.576.318.71.59.442.96.797 1.95 1.218 2.918.088.2.148.42.074.635-.222.628-.739 1.078-1.152 1.58-.148.17-.133.414-.015.591 1.135 2.206 3.08 3.887 5.428 4.69.221.096.487.074.642-.118.443-.495.862-1.01 1.256-1.544.34-.443.635-.318 1.078-.133l2.836 1.366c.221.096.443.259.42.517.148 1.92-1.572 3.412-3.374 3.471-4.653-.34-7.828-2.924-10.118-5.908-.753-1.048-1.55-2.104-1.964-3.353-.391-1.093-.406-2.34.059-3.419.716-1.44 1.344-1.994 2.924-1.905l-.022.022zm-4.357-5.51C10.206.4 14.622-.531 18.758.296c2.678.53 5.168 1.761 7.215 3.567 2.897 2.54 4.746 6.068 5.184 9.896.294 2.528-.036 5.088-.96 7.46-1.093 2.805-3.028 5.272-5.48 7.015-2.362 1.686-5.152 2.67-8.05 2.843-2.899.178-5.79-.461-8.344-1.846L.052 31.37l2.178-7.975c.045-.096-.022-.178-.074-.251C.522 20.227-.126 16.86.31 13.545c.582-4.31 2.92-8.186 6.462-10.71m3.67.931C7.968 4.874 5.864 6.78 4.52 9.136c-1.064 1.845-1.655 3.95-1.699 6.077-.074 2.6.665 5.206 2.09 7.385.074.133.207.273.148.443L3.803 27.65c1.573-.398 3.146-.827 4.727-1.226.2-.073.369.09.531.178 2.724 1.643 5.958 2.224 9.084 1.632 1.827-.349 3.556-1.092 5.066-2.179 2.36-1.694 4.083-4.13 4.896-6.92.732-2.543.665-5.25-.192-7.754-.757-2.2-2.094-4.154-3.87-5.657-1.868-1.587-4.15-2.607-6.58-2.939-2.363-.317-4.83.022-7.015 1.012l-.008-.03z"/>
    </g>
</svg>
