<svg xmlns="http://www.w3.org/2000/svg" width="260" height="167" viewBox="0 0 260 167">
    <g fill="none" fill-rule="evenodd">
        <path fill="#FFE6B1" fill-rule="nonzero" d="M31.409 60.127c-13.116 28.173 6.866 61.785 7.969 63.58 16.103 26.27 42.413 33.12 50.566 35.251 22.875 5.963 41.037.383 62.15-5.93 12.29-3.675 30.665-9.387 49.256-25.04 12.041-10.14 23.653-19.924 28.917-37.604 6.484-21.772 1.696-49.921-15.608-67.237-13.266-13.3-29.412-15.757-37.942-16.953-32.733-4.53-39.477 14.425-88.691 18.866-9.067.822-17.314.945-30.118 7.182-10.02 4.885-21.047 16.172-26.5 27.885z"/>
        <g>
            <path fill="#F39E92" fill-rule="nonzero" d="M101.318 102.615L105.891 102.612 105.883 114.311 101.31 114.314z" transform="translate(39.629 29.192) rotate(-15.1 103.6 108.463)"/>
            <path fill="#E2E2E2" fill-rule="nonzero" d="M107.333 108.25s1.019 2.828 2.792 3.125c1.773.296 4.728.555 6.81.74 1.43.119 1.648 1.222 1.648 1.222l-16.251 4.555-2.084-7.465 7.085-2.178z" transform="translate(39.629 29.192)"/>
            <path fill="#CCC" fill-rule="nonzero" d="M102.335 117.881L118.583 113.326 118.974 114.496 102.612 119.121z" transform="translate(39.629 29.192)"/>
            <path fill="#204051" fill-rule="nonzero" d="M38.84 95.063s-2.408 3.3-1.765 9.731l.642 6.436c-4.85.511-9.605 1.7-14.127 3.533-7.14 2.962-15.483 7.24-15.483 7.24H72.45s-7.538-4.907-14.035-7.48c-3.764-1.492-8.498-2.442-11.814-2.978-2.408-.389-4.068-.56-4.068-.56s.502-2.837.687-6.19c.258-4.68.042-10.269-1.747-9.732-3.072.921-2.634 0-2.634 0z" transform="translate(39.629 29.192)"/>
            <path fill="#2D516A" fill-rule="nonzero" d="M31.49 1.274C27.52 3.496 8.487 14.701 2.858 37.489c-5.09 20.592 1.2 48.913 23.583 59.837 18.231 8.887 39.735 2.636 52.699-8.599 5.92-5.198 10.538-11.721 13.478-19.04l-3.369-12.96L40.65 1.492S36.739.585 34.257.826c-2.482.24-2.767.448-2.767.448z" transform="translate(39.629 29.192)"/>
            <path fill="#98CDC4" fill-rule="nonzero" d="M24.75 13.45c-11.081 22.588-9.766 47.316 3.615 62.883 1.877 2.181 17.66 19.974 37.305 15.05C79.613 87.886 92.38 74.773 90.697 63.18c-1.924-13.271-12.986-35.97-31.764-51.9C44.055-1.345 36.606 1.24 34.866 1.866c-5.891 2.125-8.842 8.253-10.117 11.582z" transform="translate(39.629 29.192)"/>
            <path fill="#0F202B" fill-rule="nonzero" d="M97.859 107.48c1.244-.56 6.323-2.049 11.15-2.963.248-.048-10.445-38.74-10.851-39.048-.739-.548-11.432 7.358-11.432 7.358s10.656 34.867 11.133 34.652z" transform="translate(39.629 29.192)"/>
            <path fill="#0F202B" fill-rule="nonzero" d="M63.424 81.24c9.234-3.93 25.05-8.92 27.45-9.735 4.75-1.604 6.745-1.54 7.487-3.166.872-1.915-4.026-9.943-5.016-9.74-10.194 2.09-17.766 6.192-24.462 9.74-4.539 2.41-8.846 5.238-12.864 8.446" transform="translate(39.629 29.192)"/>
            <path fill="#F39E92" fill-rule="nonzero" d="M56.606 22.759L72.89 12.435l-21.6-3.177-1.252-5.584L76.407 6.12c7.017.619 9.174 3.925 7.671 6.188l-20.58 20.514c-4.513.922-6.892-10.064-6.892-10.064z" transform="translate(39.629 29.192)"/>
            <path fill="#F39E92" fill-rule="nonzero" d="M51.734 9.091c-1.551.589-3.745 1.089-5.211 1.481-1.467.393-4.344.03-5.016-.74-.672-.77 3.29-.46 1.917-1.27C42.05 7.75 35.18 5.07 34.7 3.747c-.48-1.322 4.325 1.088 4.598.836-.683-.17-4.705-1.429-4.51-2.021.196-.593 4.296.803 5.094.703-.447-.115-4.802-1.281-3.949-2.155.854-.874 5.12.826 6.28.948.369.067-4.48-2.03-2.586-2.059 1.895-.03 8.606 3.177 11.417 4.04.395 1.581.827 3.514.69 5.051zM20.306 28.654l-5.289-1.381L29.211 12.93l-3.294-5.11L2.503 26.769c-5.289 4.688-.554 6.688-.554 6.688l12.887 5.276 5.47-10.08z" transform="translate(39.629 29.192)"/>
            <path fill="#ED6550" fill-rule="nonzero" d="M42.083 71.508s-8.95-24.62-9.88-25.55c-1.503-1.481-3.236-2.089-7.527-3.703-4.174-1.566-9.84-3.54-9.84-3.54l5.47-10.08s8.536 1.367 13.755.267c5.54-1.167 15.483-3.74 18.855-4.944 3.372-1.203 10.77-5.71 10.77-5.71l6.124 8.017s-6.748 6.477-7.756 8.888c-2.637 6.324 9.551 26.139 9.551 26.139l-6.648 8.928-22.874 1.288z" transform="translate(39.629 29.192)"/>
            <path fill="#F39E92" fill-rule="nonzero" d="M26.6 12.875c1.655.145 3.9.03 5.422.023 1.522-.008 4.188-1.152 4.628-2.081.44-.93-3.295.455-2.187-.7 1.108-1.156 6.992-5.6 7.096-7.006.103-1.407-3.871 2.221-4.2 2.055.606-.37 4.144-2.655 3.793-3.174-.35-.518-3.918 1.937-4.713 2.052.4-.233 4.277-2.537 3.217-3.148-1.06-.61-4.705 2.185-5.776 2.615-.34.163 3.767-3.17 1.935-2.685-1.832.485-7.424 5.403-9.898 6.995.033 1.633.136 3.629.683 5.054zM36 28.483c.546-.376.987-.886 1.282-1.48.624-1.649-.784-7.488-.784-7.488l7.816-1.63s2.445 7.444 2.955 7.444c1.662 0 .967 2.155-2.275 3.703C41.75 30.579 36 28.483 36 28.483z" transform="translate(39.629 29.192)"/>
            <path fill="#F39E92" fill-rule="nonzero" d="M113.08 78.98L117.655 78.975 117.642 90.669 113.067 90.674z" transform="translate(39.629 29.192) rotate(-30.51 115.361 84.824)"/>
            <path fill="#E2E2E2" fill-rule="nonzero" d="M119.79 85.139s1.515 2.592 3.325 2.57c1.81-.022 4.75-.304 6.83-.511 1.429-.14 1.846.907 1.846.907l-15.17 7.406-3.386-6.965 6.556-3.407z" transform="translate(39.629 29.192)"/>
            <path fill="#CCC" fill-rule="nonzero" d="M116.603 95.518L131.769 88.109 132.367 89.19 117.098 96.689z" transform="translate(39.629 29.192)"/>
            <path fill="#BC817D" fill-rule="nonzero" d="M36.402 19.093s.226.837.285 1.244c2.81 9.202 8.454 3.536 9.404 2.618-.536-1.444-1.77-5.014-1.77-5.014l-7.919 1.152z" transform="translate(39.629 29.192)"/>
            <path fill="#F39E92" fill-rule="nonzero" d="M32.428 12.594c.292 1.396 1.29 2.8 3.287 5.606 1.53 2.148 2.394 2.933 3.483 3.477.871.442 1.825.694 2.8.741 1.616.072 3.202-.455 4.454-1.481.765-.66 1.13-1.144 1.275-1.53.687-1.829.738-3.588.406-5.71-.337-2.03-.942-4.008-1.799-5.88-1.26-2.821-1.89-4.232-3.054-4.925-2.708-1.6-7.262-.196-9.5 2.822-2.109 2.818-1.496 6.191-1.352 6.88z" transform="translate(39.629 29.192)"/>
            <path fill="#242638" fill-rule="nonzero" d="M34.604 15.175s1.451-2.703.62-7.317c0 0 1.847-1.111 3.217-1.252 1.37-.14 3.17.66 5.784-.022 2.615-.681 3.107-3.77 3.694-5.554 0 0-4.344-.334-7.018-.197-2.674.137-6.153.37-7.524 1.822-1.37 1.452-1.396 1.7-1.396 1.7-.265.27-.512.559-.738.863-1.478 2.518-2.04 5.436 3.006 11.33l.355-1.373z" transform="translate(39.629 29.192)"/>
            <path fill="#F39E92" fill-rule="nonzero" d="M47.39 10.78s.835-1.085 1.478-.615.809 2.707-1.108 3.162c-.343-.802-.47-1.68-.37-2.547z" transform="translate(39.629 29.192)"/>
            <path fill="#242638" fill-rule="nonzero" d="M45.459 5.858s1.41 3.14 1.972 4.814c0 0-.413-4.903-1.352-6.025-.938-1.122-.62 1.211-.62 1.211z" transform="translate(39.629 29.192)"/>
            <path fill="#F39E92" fill-rule="nonzero" d="M35.409 15.094s-.484-2.285-2.608-.882c-.846.56-.255 3.137 2.42 2.885.007 0 .856-.43.188-2.003z" transform="translate(39.629 29.192)"/>
            <path fill="#172A3A" fill-rule="nonzero" d="M63.424 81.24c.89-.715 24.658-24.866 28.359-23.607.244.085 16.27 24.314 18.168 28.835.122.286 8.783-5.554 8.783-5.554S99.14 39.844 91.772 39.655c-4.802-.126-16.023 6.999-16.023 6.999-14.32 8.12-25.854 17.637-33.677 24.85" transform="translate(39.629 29.192)"/>
            <path fill="#152444" fill-rule="nonzero" d="M76.5 99.21c.101 0 .184-.083.184-.185s-.083-.185-.185-.185-.185.083-.185.185.083.185.185.185z" transform="translate(39.629 29.192)"/>
            <path fill="#DCE9F1" fill-rule="nonzero" d="M115.672 82.958l-.14.089-.48.315c-8.166-12.59-23.794-36.66-24.495-37.519-.872-1.066-2.623-.637-5.171.689-1.009.526-2.142 1.196-3.398 1.97-1.06.655-2.216 1.388-3.435 2.17l-2.272 1.44c-1.702 1.078-4.225 2.9-7.077 5.047-5.828 4.403-13.067 10.206-17.544 13.809-1.865 1.507-3.25 2.636-3.867 3.136l-.738-.34c.288-.238 1.525-1.245 3.353-2.722 4.407-3.562 12.244-9.839 18.468-14.534 2.836-2.137 5.34-3.94 7.043-5.018l2.268-1.44c1.193-.763 2.305-1.482 3.324-2.107 1.323-.822 2.516-1.526 3.583-2.081 2.9-1.508 4.875-1.911 6.039-.486.897 1.104 23.542 36.06 24.54 37.582z" transform="translate(39.629 29.192)"/>
            <path fill="#47AF9D" fill-rule="nonzero" d="M42.076 71.49c-4.71-2.681-10.272 1.51-10.342 1.555l-.222-.296c1.107-.803 2.324-1.441 3.613-1.896 2.496-.885 4.801-.837 6.751.118l.2.519zM67.173 87.135l-.34-.14c.403-.884.41-1.896.022-2.785-.93-2.048-3.412-2.963-3.442-2.963.04-.033.347-.192.395-.166.946.43 2.667 1.4 3.384 2.962.437.985.43 2.112-.019 3.092zM74.106 83.147h-.37c-.015-.97-.446-1.888-1.181-2.518-1.718-1.44-4.769-1.163-4.769-1.163l.909-.348c1.082 0 2.866.193 4.096 1.226.82.701 1.299 1.722 1.315 2.803z" transform="translate(39.629 29.192)"/>
            <path d="M86.416 17.115L85.308 17.115" transform="translate(39.629 29.192)"/>
            <path fill="#FFF" fill-rule="nonzero" d="M112.865 17.519L112.009 17.519" transform="translate(39.629 29.192)"/>
            <path fill="#FFF" d="M45.237 17.634l-4.033.766s.255 1.411 2.585.97c.86-.11 1.485-.87 1.434-1.736" transform="translate(39.629 29.192)"/>
        </g>
        <g fill-rule="nonzero" transform="translate(151.5 15.846)">
            <rect width="46.293" height="46.412" y="5.277" fill="#A8C7DD" rx="4"/>
            <rect width="2.455" height="10.56" x="17.597" fill="#87AEC6" rx="1.228"/>
            <rect width="2.455" height="10.56" x="26.235" fill="#87AEC6" rx="1.228"/>
            <rect width="2.455" height="10.56" x="8.953" fill="#87AEC6" rx="1.228"/>
            <rect width="2.455" height="10.56" x="34.873" fill="#87AEC6" rx="1.228"/>
            <path fill="#2C566B" d="M26.455 27.842c.004.299-.231.545-.529.556h-.308c-.272 1.276-1.393 2.19-2.695 2.196h-.875l3.778 3.787c.097.11.123.265.067.4-.057.135-.186.225-.332.232h-.415c-.178-.038-.342-.125-.473-.253l-4.596-4.582c-.15-.114-.283-.663.353-.663h2.518c.685-.019 1.284-.466 1.499-1.117h-4.042c-.305-.004-.55-.25-.554-.556 0-.146.059-.286.163-.388.104-.102.245-.158.39-.155h4.043c-.227-.663-.85-1.107-1.549-1.104H20.38c-.303 0-.548-.246-.548-.55 0-.303.245-.548.548-.548h5.546c.282.03.495.268.495.552 0 .284-.213.522-.495.552h-.824c.25.324.426.699.516 1.098h.308c.293.01.526.25.53.543z"/>
            <path fill="#2C566B" d="M23.137 17.188c-4.446.007-8.53 2.463-10.627 6.394-.05.09-.075.193-.076.296v.486h.964c.215-.006.412-.123.522-.309.225-.403.48-.79.762-1.155 2.67-3.572 7.287-5.085 11.547-3.783 4.259 1.301 7.25 5.138 7.479 9.596.035.322.307.564.63.562h.258c.347 0 .63-.283.63-.631-.343-6.437-5.659-11.476-12.089-11.456zm8.103 18.936c-2.798 3.336-7.346 4.618-11.469 3.233-4.122-1.384-6.982-5.155-7.21-9.508-.02-.315-.284-.559-.599-.555h-.258c-.348 0-.63.283-.63.631.246 4.792 3.297 8.985 7.774 10.681 4.477 1.697 9.53.577 12.877-2.854.502-.515.958-1.075 1.36-1.673.065-.101.1-.22.1-.34v-.468c0-.348-.281-.63-.63-.63-.203.007-.39.112-.503.283-.248.41-.519.803-.812 1.18v.02z"/>
            <path fill="#2C566B" d="M17.704 24.01c-.004.406-.332.733-.737.733H12.63c-.403 0-.73-.328-.73-.732v-4.45c-.002-.195.075-.383.212-.522s.324-.217.518-.217c.396.014.71.342.706.739v2.98c.003.405.332.731.736.731h2.871c.2-.007.394.068.537.208.144.139.225.33.225.53zM33.431 35.038l.58 4.418c.048.402-.231.768-.63.827-.402.053-.77-.23-.825-.631l-.39-2.954c-.053-.4-.42-.683-.819-.631l-2.852.378c-.4.053-.766-.23-.818-.63-.053-.403.228-.772.63-.828l4.3-.561c.395-.057.763.216.824.612z"/>
            <ellipse cx="43.625" cy="48.507" fill="#47B29F" rx="11.125" ry="11.153"/>
            <path fill="#FFF" d="M40.47 53.651l-3.582-4.266c-.33-.398-.277-.989.12-1.32.396-.33.985-.277 1.316.12l2.392 2.84 8.33-6.823c.402-.279.95-.201 1.26.178.31.38.276.935-.077 1.274l-9.758 7.997z"/>
        </g>
    </g>
</svg>
