<svg xmlns="http://www.w3.org/2000/svg" width="26" height="26" viewBox="0 0 26 26">
    <g fill="none" fill-rule="evenodd">
        <circle cx="13" cy="13" r="12.5" stroke="#47B29F"/>
        <path fill="#47B29F" fill-rule="nonzero" d="M20.407 18.608c-.149.154-.293.315-.437.473-.56.616-1.086 1.199-1.816 1.507-.367.1-.545.097-1.155-.015l-.21-.059c-.161-.046-.325-.09-.486-.139-3.005-.91-5.583-2.715-7.883-5.515-1.384-1.684-2.37-3.596-2.937-5.683-.105-.498-.107-.786-.007-1.284.334-.774.962-1.333 1.623-1.926.113-.1.225-.203.337-.303.362-.33.72-.32 1.094.034.737.696 1.472 1.433 2.248 2.248.398.418.137.835-.053 1.048-.33.366-.706.747-1.182 1.196-.508.479-.398.979-.217 1.313 1.152 2.134 2.844 3.84 5.175 5.215.342.203.86.325 1.38-.232.32-.342.686-.705 1.157-1.147.454-.425.74-.337 1.03-.073.794.722 1.58 1.499 2.334 2.309.352.374.352.671.005 1.033z"/>
    </g>
</svg>
