<svg xmlns="http://www.w3.org/2000/svg" width="97" height="20" viewBox="0 0 97 20">
    <g fill="none">
        <path fill="#010101" d="M35.996 14.24c-1.117 1.083-2.623 1.671-4.178 1.633-4.081 0-5.806-2.81-5.822-5.667-.016-2.857 1.853-5.792 5.822-5.792 1.515 0 2.968.604 4.035 1.68l-1.382 1.335c-.714-.68-1.667-1.052-2.653-1.037-2.653 0-3.798 1.977-3.781 3.814.016 1.837 1.067 3.723 3.781 3.723 1.03-.007 2.018-.407 2.764-1.117l1.414 1.429zM40.641 4.635L40.641 13.708 46.292 13.708 46.292 15.622 38.571 15.622 38.571 4.635zM49.339 15.622L49.339 4.635 51.396 4.635 51.396 15.622zM62.133 4.618L64.204 4.618 64.204 15.622 62.916 15.622 62.916 15.639 57.143 8.212 57.143 15.622 55.069 15.622 55.069 4.635 56.747 4.635 62.133 11.447zM67.69 15.622L67.69 4.635 69.747 4.635 69.747 15.622zM82.086 4.694L77.202 9.955 82.494 15.496 82.494 15.622 79.935 15.622 75.335 10.755 75.335 15.622 73.265 15.622 73.265 4.635 75.337 4.635 75.337 9.28 79.51 4.635 82.086 4.635zM93.939 4.694L89.055 9.955 94.347 15.496 94.347 15.622 91.788 15.622 87.188 10.755 87.188 15.622 85.116 15.622 85.116 4.635 87.188 4.635 87.188 9.28 91.363 4.635 93.939 4.635z"/>
        <path fill="#27A84A" d="M19.835 2.567c0 .97-.583 1.846-1.48 2.217-.896.372-1.928.167-2.614-.519-.686-.686-.891-1.718-.52-2.614C15.594.755 16.47.17 17.44.17c1.323.002 2.395 1.074 2.396 2.396"/>
        <path fill="#EF4323" d="M16.984 6.927c-.719-.041-1.429-.015-2.157-.02-.158.002-.316-.01-.472-.038-.748-.142-1.28-.81-1.25-1.571V3.333c0-1.313-.715-2.509-1.942-2.927-.757-.209-1.557-.212-2.316-.01-1.181.476-1.958 1.618-1.965 2.892v1.965c.022 2.406 1.02 4.286 3 5.67.288.228.535.504.73.816.592.82.917 1.801.93 2.812 0 .747.013 1.496 0 2.245-.005.853-.702 1.54-1.555 1.534-.853-.007-1.54-.703-1.534-1.557v-2.04c.012-.834-.312-1.637-.899-2.229-.586-.592-1.386-.924-2.22-.92h-2c-.823.041-1.536-.57-1.62-1.391-.084-.82.489-1.564 1.304-1.691.444-.033.889-.04 1.333-.024h.994v-1.56h-.35c-.652 0-1.305-.024-1.956.013-1.407.1-2.57 1.133-2.835 2.518-.027.286-.039.574-.035.861.142 1.589 1.467 2.81 3.062 2.823h2.106c.822 0 1.5.647 1.536 1.469.023.578 0 1.157 0 1.735-.01.287.002.574.033.859.223 1.552 1.567 2.694 3.134 2.665 1.568-.029 2.868-1.22 3.033-2.78.06-.612.015-1.224.025-1.824.02-.508-.002-1.016-.07-1.52-.25-1.77-1.208-3.361-2.652-4.413-.228-.161-.44-.345-.631-.548-.756-.826-1.21-1.884-1.286-3-.055-.858-.037-1.719 0-2.578.026-.456.254-.876.621-1.147s.836-.364 1.28-.255c.722.17 1.222.83 1.191 1.571v1.998c0 1.691 1.352 3.071 3.043 3.104.714.015 1.428 0 2.14 0 .849.007 1.537.689 1.552 1.537.009.843-.662 1.536-1.504 1.555-.625.017-1.251.01-1.878 0h-.25v1.566H16.636c.21.004.42-.013.626-.05 1.536-.273 2.63-1.643 2.558-3.2-.072-1.558-1.287-2.821-2.841-2.953"/>
        <path fill="#010101" d="M96.565 5.51c.012.41-.226.787-.602.952-.376.165-.815.085-1.109-.2-.294-.287-.385-.723-.23-1.104.155-.38.525-.628.935-.627.264-.006.52.095.708.279.19.184.297.436.298.7zm-1.765 0c-.006.207.072.407.216.555.145.147.343.23.55.229.416-.021.743-.366.743-.783 0-.417-.327-.761-.744-.782-.206-.001-.403.082-.547.229-.144.147-.223.346-.218.552zm.612.514h-.226v-.98c.124-.022.25-.032.377-.03.118-.008.236.016.341.072.062.054.096.134.094.216-.008.113-.092.206-.204.227v.012c.099.04.168.132.18.239.008.085.032.168.07.244H95.8c-.043-.077-.072-.161-.086-.248-.018-.109-.077-.156-.204-.156h-.108l.01.404zm0-.555h.098c.127 0 .227-.04.227-.142 0-.103-.066-.15-.204-.15-.042-.004-.085-.004-.127 0l.006.292z"/>
    </g>
</svg>
