<svg xmlns="http://www.w3.org/2000/svg" width="64" height="58" viewBox="0 0 64 58">
    <g fill="#CBCBCB">
        <path d="M41.179 5.285C39.303 2.021 35.806.004 32.016 0c-3.79-.004-7.291 2.007-9.174 5.267L1.412 42.051c-1.887 3.252-1.882 7.254.011 10.502 1.893 3.248 5.389 5.25 9.173 5.253H53.34c3.81.011 7.33-2.014 9.211-5.298 1.923-3.232 1.933-7.243.026-10.484L41.179 5.285zm18.856 45.79c-1.372 2.387-3.935 3.856-6.706 3.846H10.583c-2.74.021-5.278-1.423-6.641-3.78-1.4-2.37-1.406-5.303-.015-7.679L25.356 6.693c1.368-2.367 3.91-3.825 6.661-3.82 2.751.004 5.29 1.47 6.65 3.84l21.408 36.76c1.372 2.355 1.357 5.26-.04 7.602z"/>
        <path d="M33.804 48.371c.404-.392.628-.93.617-1.49v-.119c.034-.64-.202-1.266-.65-1.73-.445-.458-1.06-.716-1.702-.713-1.122-.023-2.115.71-2.408 1.78-.293 1.068.19 2.195 1.17 2.733.981.538 2.207.347 2.973-.463v.002zM33.48 33.609c0-.81 0-1.579.094-2.437.081-1.257.165-2.514.252-3.77.087-1.256.172-2.516.254-3.781.045-.82.108-1.654.172-2.464.063-.81.125-1.605.171-2.406.012-.388-.066-.773-.228-1.134-.47-.922-1.625-1.418-2.744-1.179-1.145.301-1.86 1.21-1.875 2.391.043.504.084 1.012.123 1.52.04.508.08 1.032.125 1.546v.022l.38 5.828c.126 1.962.255 3.924.382 5.906.007.328.164.64.437.864.273.225.638.343 1.012.328.785.001 1.426-.547 1.445-1.234z"/>
    </g>
</svg>
