<svg xmlns="http://www.w3.org/2000/svg" width="30" height="38" viewBox="0 0 30 38">
    <g fill="#FBC98E">
        <path d="M15 7.5c-4.953 0-9 4.27-9 9.497 0 2.733 1.133 5.363 3.043 7.14 1.425 1.503 1.295 4.714 1.263 4.748 0 .17.032.308.162.444.097.103.259.171.388.171h8.256c.161 0 .29-.068.388-.17.097-.103.162-.274.162-.445 0-.034-.162-3.245 1.262-4.748l.098-.103C22.899 22.224 24 19.661 24 16.997 24 11.77 19.953 7.5 15 7.5zm5.18 15.748c-.033.035-.097.103-.097.137-1.263 1.435-1.49 3.792-1.522 4.92h-7.155c-.032-1.128-.259-3.588-1.618-5.057-1.716-1.571-2.72-3.86-2.72-6.285 0-4.612 3.53-8.336 7.9-8.336 4.37 0 7.899 3.724 7.899 8.336 0 2.425-.971 4.714-2.687 6.285z"/>
        <path d="M14.584 9.5c-.31 0-.584.275-.584.584 0 .309.275.583.584.583 3.467 0 6.248 2.816 6.248 6.25 0 .308.275.583.584.583.31 0 .584-.275.584-.584.034-4.086-3.296-7.416-7.416-7.416zM18.627 30.5h-7.254C10.62 30.5 10 31.179 10 32s.62 1.5 1.373 1.5h7.222C19.379 33.464 20 32.821 20 32s-.62-1.5-1.373-1.5zm0 1.75h-7.254c-.131 0-.262-.107-.262-.286 0-.178.098-.285.262-.285h7.222c.13 0 .261.107.261.285 0 .179-.098.286-.229.286zM17.6 34.5h-5.2c-.767 0-1.4.679-1.4 1.5s.633 1.5 1.4 1.5h5.2c.767 0 1.4-.679 1.4-1.5 0-.857-.633-1.5-1.4-1.5zm0 1.75h-5.2c-.133 0-.267-.107-.267-.286 0-.178.1-.285.267-.285h5.2c.133 0 .267.107.267.285 0 .179-.134.286-.267.286zM15.5 5.5c.294 0 .5-.267.5-.567V1.067c0-.3-.235-.567-.5-.567s-.5.267-.5.567v3.866c0 .3.235.567.5.567zM24.77 2.599c-.244-.184-.55-.092-.704.123l-1.96 2.949c-.183.245-.122.583.123.737.092.061.184.092.276.092.184 0 .337-.092.429-.246l1.96-2.949c.183-.215.122-.553-.123-.706zM8.48 6.5c.093 0 .186-.03.28-.091.249-.152.31-.486.155-.729L6.987 2.735c-.156-.243-.498-.304-.747-.152s-.31.486-.155.729l1.928 2.945c.125.182.28.243.467.243zM3.74 10.418L.753 8.56c-.237-.136-.562-.034-.68.236-.149.27-.06.642.206.778l2.99 1.858c.088.034.147.068.236.068.177 0 .355-.101.444-.304.118-.27.03-.642-.207-.778zM29.948 8.796c-.118-.27-.443-.372-.679-.236l-3.01 1.858c-.236.136-.325.507-.207.778.089.203.266.304.443.304.088 0 .177-.034.236-.068l3.01-1.858c.236-.136.325-.507.207-.778z"/>
    </g>
</svg>
