<svg xmlns="http://www.w3.org/2000/svg" width="69" height="25" viewBox="0 0 69 25">
    <path fill="#F38B44" d="M4.614 24.02V.98H.262v23.04h4.352zm9.152 0v-9.344h7.808v-4.352h-7.808V5.332h9.728V.98H9.414v23.04h4.352zm21.312.48c1.632 0 3.152-.275 4.56-.824 1.408-.55 2.541-1.376 3.4-2.48s1.288-2.445 1.288-4.024c0-1.419-.336-2.565-1.008-3.44-.672-.875-1.448-1.515-2.328-1.92-.88-.405-1.89-.763-3.032-1.072l-4-1.088c-.939-.245-1.685-.55-2.24-.912-.555-.363-.832-.88-.832-1.552 0-.512.176-.965.528-1.36.352-.395.816-.699 1.392-.912.576-.213 1.2-.32 1.872-.32.736 0 1.432.133 2.088.4.656.267 1.221.661 1.696 1.184.475.523.797 1.157.968 1.904l4.704-.8c-.555-2.155-1.63-3.81-3.224-4.968C39.315 1.159 37.318.564 34.918.532c-1.621-.01-3.083.24-4.384.752-1.301.512-2.33 1.288-3.088 2.328-.757 1.04-1.136 2.307-1.136 3.8 0 1.333.285 2.416.856 3.248.57.832 1.221 1.44 1.952 1.824.73.384 1.533.699 2.408.944l5.984 1.76c.832.256 1.413.576 1.744.96.33.384.496.832.496 1.344 0 .608-.21 1.136-.632 1.584-.421.448-.968.787-1.64 1.016-.672.23-1.376.344-2.112.344-.864 0-1.667-.16-2.408-.48-.741-.32-1.373-.792-1.896-1.416-.523-.624-.89-1.368-1.104-2.232l-4.544.672c.235 1.536.79 2.87 1.664 4 .875 1.13 2.003 2 3.384 2.608 1.381.608 2.92.912 4.616.912zm22.656 0c1.739 0 3.307-.293 4.704-.88 1.397-.587 2.584-1.427 3.56-2.52s1.71-2.392 2.2-3.896l-4.384-1.216c-.437 1.419-1.168 2.51-2.192 3.272-1.024.763-2.32 1.144-3.888 1.144-1.44 0-2.65-.323-3.632-.968-.981-.645-1.72-1.557-2.216-2.736-.496-1.179-.744-2.579-.744-4.2s.248-3.021.744-4.2c.496-1.179 1.235-2.09 2.216-2.736.981-.645 2.192-.968 3.632-.968 1.568 0 2.864.381 3.888 1.144 1.024.763 1.755 1.853 2.192 3.272l4.384-1.216c-.49-1.504-1.224-2.803-2.2-3.896-.976-1.093-2.163-1.933-3.56-2.52C61.041.793 59.473.5 57.734.5c-2.272 0-4.25.499-5.936 1.496-1.685.997-2.979 2.403-3.88 4.216-.901 1.813-1.352 3.91-1.352 6.288 0 2.379.45 4.475 1.352 6.288.901 1.813 2.195 3.219 3.88 4.216 1.685.997 3.664 1.496 5.936 1.496z"/>
</svg>
