<svg xmlns="http://www.w3.org/2000/svg" width="90" height="115" viewBox="0 0 90 115">
	<g fill="none" fill-rule="evenodd">
		<path fill="#2E6B62" fill-rule="nonzero" d="M77.165 119H55.456l-1.134-7.035s-.543-.77-1.243 7.035H33.146c.277-6.35.57-5.086.879-8.924.168-2.1.342-3.73.543-4.764.076-.454.157-.91.244-1.358.695-3.85 1.541-7.503 2.355-10.648 1.569-6.063 3.001-10.23 3.001-10.23L46.903 83l3.957-.05 7.332-.086 11.396-.13s.5 1.013 1.265 2.745c.917 2.073 2.214 5.18 3.506 8.812.461 1.288.917 2.642 1.351 4.044 1.042 3.426 1.406 8.15 1.455 20.665z"/>
		<path stroke="#5B998E" stroke-linecap="round" d="M76.423 103.727c.45 0-13.573 4.257-16.23-15.159"/>
		<path stroke="#5B998E" d="M54.322 111.965L51.52 107.618 51.178 88.038"/>
		<path stroke="#027089" d="M35.798 104.474s7.665.74 11.667-16.436"/>
		<path fill="#E08485" fill-rule="nonzero" d="M29.87 52.504l-2.942 20.109-7.571 22.836 6.839 3.726s10.54-21.945 10.98-24.243c.44-2.298 2.334-16.79 2.334-16.79l-9.64-5.638z"/>
		<path fill="#64A79F" fill-rule="nonzero" d="M52.749 32.99s-14.84 2.52-17.042 3.336c-2.572.944.698 17.08 1.461 20.032.623 2.418.87 18.942.87 18.942l-.88 19.67s11.958 6.89 37.657.66c.312-.076-2.839-16.913-2.7-17.62.183-.934 1.5-11.596 4.835-21.053 1.37-3.876 6.39-15.72.848-18.413-5.451-2.65-17.723-5.662-17.723-5.662l-7.326.108z"/>
		<path fill="#F39E92" fill-rule="nonzero" d="M66.027 34.572c-.871-.536-1.65-1.211-2.306-1.998-1.3-1.904-1.316-9.769-1.316-9.769l-10.43.355s-.811 10.233-1.464 10.37c-2.11.512-.544 3.04 4.036 3.978 4.579.939 11.48-2.936 11.48-2.936z"/>
		<path fill="#BC817D" fill-rule="nonzero" d="M62.315 22.275v1.62c-.734 12.213-9.648 6.889-11.137 6.067.233-1.944.695-6.718.695-6.718l10.442-.97z"/>
		<path fill="#64A79F" fill-rule="nonzero" d="M78.343 39.246c6.576 2.59 11.02 22.531 11.02 22.531-4.137 2.614-8.864 4.166-13.754 4.516l-1.096-5.729 3.83-21.318zM35.467 36.594c-6.648 3.94-8.155 26.333-8.155 26.333s3.226 2.71 11.391 3.366l.807-9.995-4.043-19.704z"/>
		<path fill="#F39E92" fill-rule="nonzero" d="M75.534 64.685l-1.586 9.697-17.997 9.241.411 7.066 26.96-10.328c.553-.79.91-1.7 1.04-2.658l2.349-15.122c-3.87 1.734-11.177 2.104-11.177 2.104zM65.494 12.983c.06 1.845-.774 3.923-2.436 8.078-1.271 3.187-2.127 4.443-3.334 5.465-.968.822-2.098 1.43-3.317 1.786-2.027.578-4.196.385-6.09-.541-.809-.33-1.527-.85-2.094-1.515-1.429-2.1-2.035-4.296-2.268-7.077-.195-2.664-.037-5.343.471-7.965.715-3.95 1.093-5.925 2.338-7.153 2.928-2.852 9.12-2.489 12.882.628 3.556 2.938 3.816 7.38 3.848 8.294z"/>
		<path fill="#242638" fill-rule="nonzero" d="M63.322 16.967s-2.667-2.963-3.03-9.036c0 0-2.704-.822-4.45-.584-1.748.238-3.787 1.806-7.32 1.752-3.531-.054-5.084-3.796-6.36-5.862 0 0 5.409-1.757 8.8-2.406C54.354.18 58.838-.635 61.028.78c2.191 1.418 2.288 1.715 2.288 1.715.42.26.82.547 1.201.86 2.662 2.704 4.246 6.224-.319 15.206l-.876-1.595z"/>
		<path fill="#F39E92" fill-rule="nonzero" d="M46.01 15.42s-1.363-1.048-1.997-.302c-.635.746-.196 3.454 2.304 3.444.183-1.055.078-2.139-.307-3.143z"/>
		<path fill="#242638" fill-rule="nonzero" d="M46.935 8.753s-.867 4.387-1.08 6.627c0 0-1.044-6.283-.149-7.973.896-1.69 1.229 1.346 1.229 1.346z"/>
		<path fill="#F39E92" fill-rule="nonzero" d="M62.377 17.079s-.089-3.125 2.91-1.975c1.192.457 1.238 3.994-2.083 4.519-.005 0-1.166-.29-.827-2.544z"/>
		<path fill="#242638" fill-rule="nonzero" d="M62.59 14.628c-1.584 1.15-.941 3.886-2.07 6.73-.902 2.294-2.847 4.583-4.355 4.367-.723-.103-.691-.691-1.982-1.215-.427-.178-1.945-.793-3.344-.22-.951.393-1.162 1.079-1.756.97-.595-.107-.957-.9-1.232-1.457-1.15-2.272-1.659-4.857-1.788-8.3-.07-1.803 0-2.775 0-2.775-.269 2.35-.25 4.725.054 7.07.14 1.553.443 3.087.902 4.577.282.93.702 1.81 1.248 2.613.712 1.178 1.742 2.132 2.971 2.752 2.161.972 4.322.238 5.014 0 2.63-.896 3.97-2.903 5.235-4.803.864-1.29 1.788-3.125 1.702-4.566-.07-1.236-.54-1.62-.438-3.033.135-1.566.87-2.699.54-2.942-.178-.146-.615.173-.702.232z"/>
		<g fill-rule="nonzero" transform="translate(.211 47.518)">
			<path fill="#FFF" d="M26.519 62.05C-7.153 49.919.825 6.162.825 6.162L26.519 0l25.694 6.161s7.966 43.757-25.694 55.89z"/>
			<path fill="#F38B44" d="M26.518 57.808C-1.617 45.413 4.213 10.385 4.213 10.385l22.305-5.082 22.305 5.082s5.824 35.028-22.305 47.423z"/>
			<circle cx="42.428" cy="28.323" r="1.591" fill="#FFF"/>
			<circle cx="10.077" cy="28.323" r="1.591" fill="#FFF"/>
		</g>
		<path fill="#4EBD9E" fill-rule="nonzero" d="M15.928 80.366L15.928 80.366 15.891 80.329z"/>
		<path fill="#F39E92" fill-rule="nonzero" d="M57.87 83.8s-3.618-.59-5.684-.939c-1.86-.31-1.567-.065-1.795.91-.098.6-.266 1.186-.499 1.746-.249.546-9.581 4.838-9.316 5.597.266.758 5.77-.617 5.77-.617s-5.531 1.98-5.38 2.411c.152.431 6.204-.742 6.204-.742s-5.075 2.302-4.5 2.957c.574.654 7.136-1.691 7.136-1.691s-3.509 2.52-3.314 3.065c.196.546 12.64-7.636 12.64-7.636l-1.263-5.062z"/>
		<path fill="#FFF" fill-rule="nonzero" d="M29.523 65.532v7.452h7.474v5.662h-7.475l.001 7.453h-5.619v-7.453H16.43v-5.662h7.474v-7.452h5.62z"/>
	</g>
</svg>
