<svg xmlns="http://www.w3.org/2000/svg" xmlns:xlink="http://www.w3.org/1999/xlink" width="42" height="44" viewBox="0 0 42 44">
    <defs>
        <path id="prefix__a" d="M0 0.007L41.466 0.007 41.466 43.351 0 43.351z"/>
    </defs>
    <g fill="none" fill-rule="evenodd">
        <g transform="translate(0 .197)">
            <mask id="prefix__b" fill="#fff">
                <use xlink:href="#prefix__a"/>
            </mask>
            <path fill="#F38B44" d="M41.345.245c.05-.179-.164-.312-.304-.191-2.518 2.175-6.44 4.94-7.318 5.27-1.213.455-1.825-.207-2.825-.762-10.263-5.699-24.07-1.406-29.03 9.322-5.262 11.378 1.069 25.159 13.043 28.643 1.886.548 3.848.824 5.81.824 11.563 0 21.304-10.624 20.72-22.147-.047-.928-.169-1.852-.35-2.764-.203-1.022-.729-2.635-1.152-3.587-.932-2.098-1.496-3.759-.93-6.116.685-2.852 1.552-5.665 2.336-8.492" mask="url(#prefix__b)"/>
        </g>
        <path fill="#FFF" d="M17.612 6.494c-3.25-.26-6.892 1.568-9.316 3.589-2.338 1.949-4.671 5.063-4.915 8.198-.024.316.458.44.6.162.668-1.323 1.159-2.708 1.963-3.966.831-1.3 1.864-2.483 3.047-3.474 1.264-1.058 2.73-1.902 4.277-2.47 1.477-.542 2.96-.688 4.483-1.007.613-.13.419-.987-.14-1.032M34.85 30.908c-1.29 2.672-3.34 4.928-5.948 6.363-1.464.805-3.07 1.313-4.72 1.556-1.704.25-3.349.026-5.052.024-.306 0-.475.474-.166.613 3.14 1.416 7.344.51 10.283-.997 2.923-1.499 5.269-3.974 6.666-6.938.335-.71-.717-1.336-1.062-.62M9.956 26.644c.369-.496.51-1.115.424-1.859-.087-.743-.367-1.311-.84-1.705-.474-.394-1.05-.551-1.728-.472-.68.079-1.205.367-1.578.863s-.516 1.114-.43 1.853c.086.74.368 1.308.845 1.705s1.055.556 1.734.477c.679-.08 1.203-.367 1.573-.862m-1.412 2.245c-1.079.126-2.028-.13-2.848-.765-.82-.636-1.295-1.51-1.425-2.62-.13-1.112.133-2.071.789-2.88.655-.807 1.52-1.274 2.596-1.4 1.075-.125 2.023.13 2.843.766.82.636 1.295 1.51 1.425 2.62.13 1.112-.132 2.071-.784 2.879-.652.807-1.517 1.274-2.596 1.4M18.38 25.661c.37-.496.51-1.115.424-1.858-.087-.743-.367-1.311-.84-1.706-.473-.393-1.049-.55-1.728-.471-.679.078-1.204.367-1.578.862-.373.497-.516 1.114-.43 1.854.086.74.368 1.308.845 1.705.478.397 1.055.556 1.734.477.68-.08 1.203-.367 1.573-.863m-1.411 2.245c-1.08.126-2.029-.129-2.849-.765-.82-.636-1.295-1.51-1.424-2.62-.13-1.111.133-2.07.788-2.879.656-.808 1.52-1.274 2.596-1.4 1.076-.125 2.023.13 2.843.766.82.636 1.296 1.51 1.425 2.62.13 1.111-.131 2.07-.783 2.878-.652.808-1.517 1.274-2.596 1.4M23.004 22.933l1.244-.145c.378-.045.656-.176.833-.396.178-.22.247-.498.208-.834-.04-.335-.17-.59-.394-.763-.223-.173-.523-.238-.902-.194l-1.243.145.254 2.187zm3.422-.008c-.166.258-.424.478-.776.66-.352.183-.774.303-1.267.36l-1.244.145.348 2.98-1.511.176-.873-7.48 2.755-.322c.864-.101 1.556.038 2.074.415.519.378.812.86.88 1.446.069.585-.06 1.126-.386 1.62zM30.246 19.818c-.3.035-.536.14-.707.316-.172.175-.242.4-.21.67.032.272.126.477.283.614.158.137.355.234.594.29.238.055.496.1.776.132.278.032.56.08.841.14.283.061.546.147.79.256.245.109.452.286.622.53.17.245.276.553.32.924.071.615-.112 1.172-.55 1.672-.437.5-1.062.798-1.873.892-.81.095-1.489-.02-2.033-.344-.545-.324-.858-.832-.939-1.525l1.608-.188c.134.651.548.936 1.24.855.343-.04.605-.16.784-.363.18-.202.251-.451.217-.748-.035-.296-.194-.515-.479-.656-.284-.14-.619-.232-1.004-.274-.385-.041-.774-.1-1.167-.178-.393-.078-.74-.253-1.039-.526-.3-.273-.479-.659-.537-1.16-.08-.678.104-1.25.55-1.715.445-.464 1.055-.742 1.83-.832.776-.09 1.42.013 1.933.312.513.299.832.807.96 1.523l-1.651.193c-.062-.283-.195-.497-.4-.644-.206-.146-.459-.201-.759-.166M37.578 24.557c.028.243-.032.457-.181.64-.149.185-.343.29-.582.319-.24.027-.453-.03-.64-.176-.187-.144-.294-.338-.323-.581-.028-.243.032-.457.18-.64.15-.184.343-.29.583-.318.24-.028.453.03.64.175.186.145.294.339.323.581zm-1.727-1.482l-.816-5.51 1.607-.188.474 5.55-1.265.148z"/>
    </g>
</svg>
