<svg xmlns="http://www.w3.org/2000/svg" xmlns:xlink="http://www.w3.org/1999/xlink" width="40" height="42" viewBox="0 0 40 42">
    <defs>
        <path id="prefix__a" d="M0 0.007L39.581 0.007 39.581 41.381 0 41.381z"/>
    </defs>
    <g fill="none" fill-rule="evenodd">
        <g transform="translate(.06) translate(0 .188)">
            <mask id="prefix__b" fill="#fff">
                <use xlink:href="#prefix__a"/>
            </mask>
            <path fill="#F38B44" d="M39.466.234c.047-.17-.156-.298-.29-.183-2.404 2.076-6.147 4.717-6.986 5.031-1.157.435-1.742-.197-2.696-.727-9.797-5.44-22.977-1.342-27.712 8.898-5.021 10.86 1.021 24.015 12.452 27.341 1.8.524 3.672.787 5.546.787 11.036 0 20.334-10.141 19.777-21.14-.044-.886-.16-1.769-.334-2.639-.194-.976-.695-2.515-1.1-3.424-.889-2.003-1.428-3.588-.888-5.838.654-2.723 1.482-5.407 2.23-8.106" mask="url(#prefix__b)"/>
        </g>
        <path fill="#FFF" d="M16.811 6.199C13.71 5.95 10.233 7.696 7.92 9.625c-2.232 1.86-4.459 4.832-4.691 7.825-.024.302.437.42.571.155.64-1.263 1.107-2.585 1.875-3.786.793-1.241 1.779-2.37 2.909-3.316 1.206-1.01 2.606-1.816 4.082-2.358 1.41-.518 2.826-.656 4.28-.962.584-.123.399-.941-.134-.984M33.266 29.503c-1.231 2.55-3.188 4.704-5.678 6.073-1.398.77-2.93 1.254-4.506 1.486-1.626.24-3.196.025-4.821.023-.292 0-.454.452-.159.585 2.997 1.352 7.01.486 9.815-.952 2.79-1.43 5.03-3.793 6.363-6.622.32-.678-.684-1.276-1.014-.593M9.503 25.433c.353-.474.488-1.065.405-1.774-.083-.71-.35-1.252-.802-1.628-.452-.376-1.001-.526-1.65-.45-.647.075-1.15.35-1.505.823-.356.474-.493 1.063-.411 1.77.082.705.351 1.248.807 1.627.455.379 1.007.53 1.655.455.648-.076 1.148-.35 1.501-.823m-1.347 2.143c-1.03.12-1.936-.124-2.72-.73-.782-.608-1.235-1.441-1.36-2.502-.123-1.06.128-1.976.754-2.748.626-.77 1.451-1.216 2.478-1.336 1.026-.12 1.931.124 2.714.73.783.608 1.236 1.442 1.36 2.502.123 1.06-.126 1.976-.748 2.747-.622.771-1.448 1.216-2.478 1.337M17.544 24.495c.353-.474.488-1.065.405-1.774-.083-.71-.35-1.252-.801-1.628-.452-.376-1.002-.526-1.65-.45-.648.075-1.15.35-1.506.823-.356.474-.493 1.064-.41 1.77.082.705.35 1.248.806 1.627.456.379 1.007.53 1.655.455.649-.076 1.149-.35 1.501-.823m-1.347 2.143c-1.03.12-1.936-.124-2.719-.73-.783-.608-1.236-1.441-1.36-2.502-.123-1.06.128-1.976.753-2.747.626-.772 1.452-1.217 2.478-1.337 1.027-.12 1.931.124 2.714.73.783.608 1.237 1.442 1.36 2.502.124 1.06-.125 1.977-.747 2.747-.623.771-1.449 1.217-2.479 1.337M21.959 21.89l1.186-.138c.362-.042.627-.168.796-.378.17-.21.235-.475.198-.796-.037-.32-.163-.563-.375-.728-.213-.166-.5-.227-.862-.185l-1.187.138.244 2.087zm3.266-.007c-.158.247-.405.457-.74.63-.337.175-.74.289-1.21.344l-1.187.138.331 2.844-1.442.169-.833-7.141 2.63-.307c.824-.096 1.485.036 1.98.397.494.36.775.82.84 1.38.065.558-.058 1.074-.37 1.546zM28.871 18.917c-.286.033-.511.134-.675.302-.164.167-.23.38-.2.64.03.259.12.454.27.585.15.132.34.224.567.276.227.054.474.096.74.127.267.03.535.076.804.134.27.059.52.14.754.244.234.104.431.273.593.506.163.234.264.528.306.882.068.587-.107 1.12-.525 1.596-.418.478-1.014.762-1.788.852-.774.09-1.421-.02-1.94-.328-.521-.31-.82-.795-.897-1.457l1.535-.179c.128.622.523.893 1.184.816.327-.038.577-.153.748-.346.17-.193.24-.43.207-.714-.033-.283-.185-.492-.457-.626-.271-.134-.59-.221-.958-.261-.368-.04-.74-.097-1.115-.171-.375-.074-.705-.241-.991-.502-.286-.26-.457-.629-.513-1.106-.076-.648.1-1.194.525-1.638.425-.443 1.008-.708 1.748-.795.74-.086 1.354.013 1.844.298s.795.77.916 1.454l-1.575.184c-.06-.27-.187-.474-.383-.614s-.437-.193-.724-.16M35.87 23.441c.027.232-.031.436-.173.611-.142.176-.327.277-.556.304-.228.026-.432-.03-.61-.168-.179-.138-.281-.323-.309-.555-.027-.232.03-.435.173-.611.142-.175.327-.277.556-.303.228-.027.432.029.61.167s.281.323.308.555zm-1.649-1.415l-.779-5.26 1.535-.179.452 5.298-1.208.141z" transform="translate(.06)"/>
    </g>
</svg>
