<?xml version="1.0" encoding="UTF-8"?>
<svg width="28px" height="32px" viewBox="0 0 28 32" version="1.1" xmlns="http://www.w3.org/2000/svg" xmlns:xlink="http://www.w3.org/1999/xlink">
    <!-- Generator: sketchtool 63.1 (101010) - https://sketch.com -->
    <title>F09F7BCB-C141-4D5F-BCF2-585D306B49CD</title>
    <desc>Created with sketchtool.</desc>
    <g id="Page-1" stroke="none" stroke-width="1" fill="none" fill-rule="evenodd">
        <g id="Step-1" transform="translate(-35.000000, -214.000000)" fill-rule="nonzero">
            <g id="Group-3" transform="translate(20.000000, 202.000000)">
                <g id="Group-5-Copy-3" transform="translate(16.000000, 13.000000)">
                    <path d="M12.8376923,-0.257029703 L0.15262007,2.92589346 C0.15262007,2.92589346 -3.7104867,24.2542984 12.9222122,30.1671593 C18.4279886,28.1894668 21.6644911,24.4938066 23.5328007,20.4452174 C27.250931,12.3881044 25.5253842,2.92595202 25.4936955,2.764984 L12.8376923,-0.257029703 Z" id="Path" stroke="#06A163" stroke-width="0.5" fill="#FFFFFF"></path>
                    <path d="M12.8376983,27.7426904 C-0.775255265,21.7412528 2.04497892,4.78608798 2.04497892,4.78608798 L12.8376983,2.326823 L23.6304177,4.78608798 C23.6304177,4.78608798 26.4506519,21.7412528 12.8376983,27.7426904 Z" id="Path" fill="#06A163"></path>
                    <path d="M14.2036681,8.385392 L14.2028582,12.005392 L17.8341353,12.0054716 L17.8341353,14.7555895 L14.2028582,14.755392 L14.2036681,18.3756691 L11.4743254,18.3756691 L11.4738582,14.755392 L7.84385823,14.7555895 L7.84385823,12.0054716 L11.4738582,12.005392 L11.4743254,8.385392 L14.2036681,8.385392 Z" id="Combined-Shape" fill="#FFFFFF"></path>
                </g>
            </g>
        </g>
    </g>
</svg>