<svg xmlns="http://www.w3.org/2000/svg" width="99" height="97" viewBox="0 0 99 97">
    <g fill="none">
        <path fill="#149982" d="M70.111 90.533c2.76 0 5.032-2.263 5.032-5.011 0-2.749-2.273-5.012-5.032-5.012s-5.03 2.263-5.03 5.012c0 2.748 2.271 5.011 5.03 5.011zm0-2.586c-1.46 0-2.434-1.132-2.434-2.425 0-1.294 1.136-2.425 2.434-2.425 1.461 0 2.435 1.131 2.435 2.425 0 1.293-1.136 2.425-2.435 2.425zM63.457 10.67h6.492c.812 0 1.623-.808 1.623-1.617 0-.808-.811-1.616-1.623-1.616h-6.492c-.811 0-1.623.808-1.623 1.616 0 .809.812 1.617 1.623 1.617z"/>
        <path fill="#97CEC5" d="M6.492 71.133V77.6c0 .808.811 1.617 1.623 1.617.811 0 1.623-.809 1.623-1.617v-6.467c0-.808-.812-1.616-1.623-1.616-.812 0-1.623.808-1.623 1.616z"/>
        <path fill="#149982" d="M74.818 10.67h1.623c.811 0 1.623-.808 1.623-1.617 0-.808-.812-1.616-1.623-1.616h-1.623c-.811 0-1.623.808-1.623 1.616 0 .809.812 1.617 1.623 1.617z"/>
        <path fill="#97CEC5" d="M6.492 64.667v1.616c0 .809.811 1.617 1.623 1.617.811 0 1.623-.808 1.623-1.617v-1.616c0-.809-.812-1.617-1.623-1.617-.812 0-1.623.808-1.623 1.617zM13.146 90.533c0 .809.65 1.617 1.623 1.617.974 0 1.623-.808 1.623-1.617v-1.616c0-.809-.65-1.617-1.623-1.617-.974 0-1.623.808-1.623 1.617v1.616zM14.769 72.75c.974 0 1.623-.808 1.623-1.617v-1.616c0-.809-.65-1.617-1.623-1.617-.974 0-1.623.808-1.623 1.617v1.616c0 .809.811 1.617 1.623 1.617zM14.769 66.283c.974 0 1.623-.808 1.623-1.616V63.05c0-.808-.65-1.617-1.623-1.617-.974 0-1.623.809-1.623 1.617v1.617c0 .808.811 1.616 1.623 1.616zM13.146 84.067c0 .808.65 1.616 1.623 1.616.974 0 1.623-.808 1.623-1.616V82.45c0-.808-.65-1.617-1.623-1.617-.974 0-1.623.809-1.623 1.617v1.617zM14.769 59.817c.974 0 1.623-.809 1.623-1.617v-1.617c0-.808-.65-1.616-1.623-1.616-.974 0-1.623.808-1.623 1.616V58.2c0 .808.811 1.617 1.623 1.617zM14.769 53.35c.974 0 1.623-.808 1.623-1.617v-1.616c0-.809-.65-1.617-1.623-1.617-.974 0-1.623.808-1.623 1.617v1.616c0 .809.811 1.617 1.623 1.617zM13.146 77.6c0 .808.65 1.617 1.623 1.617.974 0 1.623-.809 1.623-1.617v-1.617c0-.808-.65-1.616-1.623-1.616-.974 0-1.623.808-1.623 1.616V77.6zM35.867 97h1.623c.812 0 1.623-.808 1.623-1.617 0-.808-.811-1.616-1.623-1.616h-1.623c-.811 0-1.623.808-1.623 1.616 0 .809.65 1.617 1.623 1.617z"/>
        <path fill="#149982" d="M42.359 97h1.623c.811 0 1.46-.485 1.623-1.293.811.485 1.623.97 2.597 1.131 0 .162.324.162.487.162h41.709c3.895 0 7.141-3.233 7.141-7.113V7.113C97.54 3.233 94.293 0 90.4 0H49.5c-3.895 0-7.141 3.233-7.141 7.113v36.699c-.487.323-.811.808-.811 1.455 0 .646.324 1.131.811 1.455v43.003c0 .808.162 1.617.325 2.263v.162s0 .162.162.162c0 .161 0 .161.162.323l.487.97h-1.298c-.812 0-1.623.808-1.623 1.617 0 .808.811 1.778 1.785 1.778zm3.246-59.817v-21.34h48.688v59.009H45.605v.646-38.315zm48.688-30.07V19.4H45.605V7.113c0-2.101 1.785-3.88 3.895-3.88h40.898c2.11 0 3.895 1.779 3.895 3.88zm-3.895 86.654H49.5c-1.298 0-2.434-.647-3.246-1.617-.162-.323-.324-.485-.487-.808-.162-.485-.324-.97-.324-1.455v-11.64H94.13v11.64c.162 2.101-1.623 3.88-3.733 3.88z"/>
        <path fill="#97CEC5" d="M4.869 92.958c-.65-.485-1.785-.485-2.272.324-.487.808-.487 1.616.162 2.101.487.485 1.136.809 1.785 1.132.812.323 1.786 0 2.11-.808.162-.162.162-.324.162-.647 0-.647-.324-1.293-.973-1.455-.325-.323-.65-.485-.974-.647zM1.785 54.643c-.974 0-1.623.809-1.623 1.617v1.617c0 .808.812 1.616 1.623 1.616.812 0 1.623-.808 1.623-1.616V56.26c0-.97-.649-1.617-1.623-1.617zM1.785 86.653c-.974 0-1.623.809-1.623 1.617v1.455c0 .97.812 1.617 1.623 1.617.812 0 1.623-.647 1.623-1.617v-1.617c0-.646-.649-1.455-1.623-1.455zM1.785 61.11c-.974 0-1.623.808-1.623 1.617v1.616c0 .809.812 1.617 1.623 1.617.812 0 1.623-.808 1.623-1.617v-1.616c0-.97-.649-1.617-1.623-1.617zM1.785 67.415c-.974 0-1.623.808-1.623 1.617v1.616c0 .809.812 1.617 1.623 1.617.812 0 1.623-.808 1.623-1.617v-1.616c0-.809-.649-1.617-1.623-1.617zM1.785 80.348c-.974 0-1.623.809-1.623 1.617v1.617c0 .808.812 1.616 1.623 1.616.812 0 1.623-.808 1.623-1.616v-1.617c0-.97-.649-1.617-1.623-1.617zM1.785 73.882c-.974 0-1.623.808-1.623 1.616v1.617c0 .808.812 1.617 1.623 1.617.812 0 1.623-.809 1.623-1.617v-1.617c0-.808-.649-1.616-1.623-1.616zM2.11 48.177c-.974-.162-1.785.485-1.948 1.293C0 49.793 0 50.278 0 50.763v.647c0 .808.811 1.617 1.623 1.617.811 0 1.623-.809 1.623-1.617v-.647-.646-.324c.324-.808-.325-1.455-1.136-1.616zM10.062 97h1.623c.974 0 1.623-.808 1.623-1.617 0-.808-.649-1.616-1.623-1.616h-1.623c-.973 0-1.623.808-1.623 1.616 0 .809.65 1.617 1.623 1.617zM16.392 97h1.623c.974 0 1.623-.808 1.623-1.617 0-.808-.65-1.616-1.623-1.616h-1.623c-.974 0-1.623.808-1.623 1.616 0 .809.811 1.617 1.623 1.617zM38.302 43.65h-1.623c-.812 0-1.623.808-1.623 1.617 0 .808.811 1.616 1.623 1.616h1.623c.811 0 1.623-.808 1.623-1.616 0-.809-.65-1.617-1.623-1.617zM22.884 97h1.623c.973 0 1.623-.808 1.623-1.617 0-.808-.65-1.616-1.623-1.616h-1.623c-.974 0-1.623.808-1.623 1.616 0 .809.811 1.617 1.623 1.617zM29.375 97h1.623c.812 0 1.623-.808 1.623-1.617 0-.808-.811-1.616-1.623-1.616h-1.623c-.811 0-1.623.808-1.623 1.616 0 .809.65 1.617 1.623 1.617zM12.497 43.65h-1.623c-.974 0-1.623.808-1.623 1.617 0 .808.649 1.616 1.623 1.616h1.623c.973 0 1.623-.808 1.623-1.616 0-.809-.65-1.617-1.623-1.617zM5.68 43.812c-.649.161-1.298.485-1.947.808-.812.485-.974 1.455-.65 2.263.487.809 1.461.97 2.273.647.324-.162.649-.323 1.136-.323.811-.162 1.298-.809 1.298-1.617v-.323c-.324-1.132-1.136-1.617-2.11-1.455zM31.81 43.65h-1.623c-.812 0-1.623.808-1.623 1.617 0 .808.811 1.616 1.623 1.616h1.623c.811 0 1.623-.808 1.623-1.616 0-.809-.65-1.617-1.623-1.617zM25.48 43.65h-1.623c-.973 0-1.623.808-1.623 1.617 0 .808.65 1.616 1.623 1.616h1.623c.812 0 1.623-.808 1.623-1.616 0-.809-.811-1.617-1.623-1.617zM18.989 43.65h-1.623c-.974 0-1.623.808-1.623 1.617 0 .808.649 1.616 1.623 1.616h1.623c.973 0 1.622-.808 1.622-1.616 0-.809-.811-1.617-1.622-1.617zM5.843 36.375c.973 0 1.623-.808 1.623-1.617 0-9.861 7.952-17.783 17.852-17.783h4.22l-6.979 6.952c-.65.646-.65 1.616 0 2.263.325.323.65.485 1.136.485.487 0 .812-.162 1.136-.485l9.738-9.7c.162-.162.324-.323.324-.485.163-.323.163-.808 0-1.293 0-.162-.162-.324-.324-.485l-9.738-9.7c-.649-.647-1.623-.647-2.272 0-.65.646-.65 1.616 0 2.263l6.979 6.952h-4.22c-11.685 0-21.098 9.376-21.098 21.016 0 .97.811 1.617 1.623 1.617z"/>
    </g>
</svg>
