<?xml version="1.0" encoding="UTF-8"?>
<svg width="27px" height="32px" viewBox="0 0 27 32" version="1.1" xmlns="http://www.w3.org/2000/svg" xmlns:xlink="http://www.w3.org/1999/xlink">
    <!-- Generator: sketchtool 63.1 (101010) - https://sketch.com -->
    <title>DDBA43E1-4827-4159-A9E7-BAB741DA681F</title>
    <desc>Created with sketchtool.</desc>
    <g id="Page-1" stroke="none" stroke-width="1" fill="none" fill-rule="evenodd">
        <g id="Step-1" transform="translate(-35.000000, -400.000000)" fill-rule="nonzero">
            <g id="Group-2" transform="translate(20.000000, 388.000000)">
                <g id="Group-5-Copy-2" transform="translate(16.000000, 13.000000)">
                    <path d="M14.2816847,2.40100327 L12.8651072,12.0837189 L9.21911899,23.0798711 L12.5122696,24.8742114 C12.5122696,24.8742114 17.5879034,14.3072531 17.7996059,13.200657 C18.0113084,12.094061 18.9234589,5.11578336 18.9234589,5.11578336 L14.2816847,2.40100327 Z" id="Path" fill="#E08485"></path>
                    <path d="M12.769414,29.8791518 C-3.44420408,24.0366849 0.39702448,2.96681666 0.39702448,2.96681666 L12.769414,-3.07098979e-14 L25.1418036,2.96681666 C25.1418036,2.96681666 28.9778413,24.0366849 12.769414,29.8791518 Z" id="Path" stroke="#3391FF" stroke-width="0.5" fill="#FFFFFF"></path>
                    <path d="M12.7691046,27.8361329 C-0.778547176,21.8678042 2.02862391,5.00078841 2.02862391,5.00078841 L12.7691046,2.55377366 L23.5095853,5.00078841 C23.5095853,5.00078841 26.3141595,21.8678042 12.7691046,27.8361329 Z" id="Path" fill="#3391FF"></path>
                    <path d="M9.21173678,8.68283043 L17.1102835,8.68283043 L17.1102835,9.90670419 L15.5855476,9.90670419 C15.8612908,10.267932 16.0550584,10.6846453 16.1534339,11.1279905 L17.1102835,11.1279905 L17.1102835,12.3518642 L16.156027,12.3518642 C15.8565945,13.7683213 14.606583,14.7838443 13.155824,14.7892619 L12.1808228,14.7892619 L17.0843526,19.6640572 L15.362542,19.6640572 L9.21173678,13.5550382 L9.19358516,13.5369259 L9.21173678,13.5369259 C9.36732207,13.5369259 10.48235,13.5550382 10.7001694,13.5550382 L13.1506378,13.5550382 C13.9269134,13.5593106 14.6199874,13.07053 14.8750415,12.3389269 L9.21173678,12.3389269 L9.21173678,11.1176406 L14.8750415,11.1176406 C14.620566,10.3841107 13.9259505,9.89393778 13.1480447,9.89894178 L9.21173678,9.89894178 L9.21173678,8.68283043 Z" id="Path" fill="#FFFFFF"></path>
                    <polygon id="Path" fill="#4EBD9E" points="7.56810432 15.8172532 7.56810432 15.8172532 7.5502279 15.7993768"></polygon>
                </g>
            </g>
        </g>
    </g>
</svg>