<?xml version="1.0" encoding="UTF-8"?>
<svg width="260px" height="166px" viewBox="0 0 260 166" version="1.1" xmlns="http://www.w3.org/2000/svg" xmlns:xlink="http://www.w3.org/1999/xlink">
    <!-- Generator: sketchtool 63.1 (101010) - https://sketch.com -->
    <title>D18B2E21-C4BD-481C-AEFE-4FC4318DCCE2</title>
    <desc>Created with sketchtool.</desc>
    <g id="Page-1" stroke="none" stroke-width="1" fill="none" fill-rule="evenodd">
        <g id="Pending-Download-&amp;-Share" transform="translate(-50.000000, -310.000000)">
            <g id="Illustration/Share" transform="translate(50.000000, 310.000000)">
                <g id="share-illustration">
                    <path d="M28.9659627,30.7618241 C63.839413,-4.72559531 113.344221,-0.635615911 151.353637,3.14265605 C191.393875,7.12873298 212.004348,20.5604898 219.560892,25.925636 C230.725686,33.9072355 245.923785,45.1098119 253.886493,67.0143436 C255.57727,71.6521725 267.327695,104.797063 251.00556,130.640444 C239.557396,148.719475 221.648387,153.659565 203.833835,158.580765 C159.439139,170.860149 142.436916,151.439831 102.113308,162.141786 C92.3162389,165.044126 82.0845784,166.198385 71.8871323,165.551676 C71.0559124,165.485557 56.9724037,164.408749 44.334084,159.024712 C13.5222761,145.923554 4.11437888,112.74088 2.21579722,104.900966 C-7.13542589,66.324809 23.2607721,36.6181457 28.9659627,30.7618241 Z" id="Path" fill="#FFFFFF" fill-rule="nonzero"></path>
                    <g id="UGqxi1" transform="translate(116.410272, 72.491429)" fill-rule="nonzero">
                        <g id="Group-5" transform="translate(0.903828, 0.266682)">
                            <path d="M22.8235132,53.0232558 L2.16656264,53.3245782 C0.951361853,53.3456457 -0.0176054046,54.3461474 0,55.5613998 L0.301476501,76.2119411 C0.322543498,77.4236023 1.32017592,78.3897004 2.53188879,78.3720953 L23.1824302,78.0642088 C23.7660279,78.059152 24.3235131,77.821568 24.7313541,77.4041024 C25.1391952,76.9866368 25.3637137,76.4237627 25.3553952,75.8402058 L25.0475163,55.1896644 C25.0264536,53.9795226 24.0337906,53.012606 22.8235132,53.0232558 L22.8235132,53.0232558 Z" id="Path" fill="#1DDF47"></path>
                            <path d="M20.7020579,65.4380243 C20.7143485,67.0665079 20.1019095,68.6377464 18.9907933,69.8283473 C18.107319,70.7918465 17.0095327,71.53395 15.7861779,71.9946673 C14.3494047,72.5779051 12.7860074,72.7788502 11.2484426,72.5779073 C11.011301,72.5394519 10.7677503,72.5779073 10.5306087,72.513815 C10.0712597,72.5086703 9.62223385,72.6501135 9.24876259,72.9175966 C8.69608518,73.2486822 8.09483743,73.4909115 7.46699645,73.6354304 C7.37085798,73.6354304 7.24267337,73.7123412 7.17858106,73.6354304 C7.11448876,73.5585196 7.21703645,73.4239258 7.28753799,73.3406058 C7.49987974,73.105121 7.6948076,72.8544994 7.87077798,72.5907258 C8.23610413,72.013895 8.17842106,71.6870243 7.60159029,71.347335 C6.89647851,70.9605978 6.25985829,70.4603962 5.71727646,69.8668027 C5.04400909,69.1337448 4.54647134,68.2570263 4.26238109,67.3031104 C3.93232551,66.197047 3.93232551,65.0186908 4.26238109,63.9126274 C4.50994893,63.118258 4.91786843,62.3831303 5.46090723,61.7527166 C6.27374547,60.7763726 7.30896778,60.009297 8.4796549,59.5158951 C9.28644922,59.1372145 10.1549004,58.9070749 11.0433472,58.8365167 C11.491348,58.7645503 11.9427102,58.7153496 12.3956949,58.6891044 C14.019218,58.7005695 15.6157935,59.1052112 17.0487964,59.8684028 C18.3278451,60.5558772 19.3773527,61.6031566 20.067544,62.8807412 C20.4479147,63.6821667 20.6636747,64.5517448 20.7020579,65.4380243 L20.7020579,65.4380243 Z" id="Path" fill="#FDFEFD"></path>
                            <path d="M57.6192268,26.5275753 L36.6930885,26.6109046 C35.4641961,26.6214335 34.4725516,27.6187935 34.4690855,28.8477261 L34.5588147,49.7738644 C34.5658655,51.004218 35.5652625,51.9978675 36.7956362,51.9978675 L57.7217745,51.9081383 C58.9521281,51.9010874 59.9457776,50.9016905 59.9457776,49.6713167 L59.8496391,28.7451784 C59.8479417,28.1553354 59.6119984,27.5903253 59.1937144,27.1744453 C58.7754304,26.7585653 58.2090699,26.5258823 57.6192268,26.5275753 L57.6192268,26.5275753 Z M49.3641377,48.4407444 C47.5901879,48.6425255 45.7944502,48.3705111 44.1598423,47.6524091 C43.4972864,47.3675371 42.7494615,47.3537311 42.0768423,47.6139537 C40.67963,48.1202829 39.2375531,48.5240644 37.5903808,49.0432121 C37.8659777,48.1971937 38.0326177,47.6075444 38.2313039,47.0371229 C39.0748948,45.2191975 39.1397158,43.1356643 38.4107624,41.2688153 C36.2572608,35.5774184 40.3976239,29.7706553 45.6147377,28.5080369 C49.3175607,27.4796626 53.2838983,28.6245909 55.8690683,31.4680654 C58.4542383,34.31154 59.2173958,38.3686677 57.8420897,41.9571193 C56.4667836,45.5455709 53.1875427,48.0534134 49.3641377,48.4407444 L49.3641377,48.4407444 Z" id="Shape" fill="#24A834"></path>
                            <path d="M58.1704207,36.3593445 C57.6090213,33.6210254 55.9541247,31.2305484 53.5887119,29.7411248 C51.223299,28.2517011 48.3523884,27.7924243 45.6403746,28.4695815 C40.4232608,29.7514277 36.2828978,35.5197353 38.4363993,41.2303599 C39.1653527,43.0972089 39.1005317,45.1807421 38.2569408,46.9986675 C38.0326177,47.5690891 37.8659777,48.1587383 37.6160177,49.0047567 C39.26319,48.485609 40.705267,48.0818275 42.1024793,47.5754983 C42.7750984,47.3152757 43.5229234,47.3290817 44.1854792,47.6139537 C45.8200871,48.3320557 47.6158248,48.6040701 49.3897746,48.402289 C52.1866671,48.0442932 54.7127464,46.5504378 56.3739589,44.2720302 C58.0351715,41.9936226 58.684926,39.1317177 58.1704207,36.3593445 Z M55.3631776,42.9864891 C53.0816761,46.4926918 48.5905507,47.8212824 44.7687192,46.1206029 C43.8291752,45.6098993 42.7044596,45.5695614 41.7307439,46.011646 C41.2543331,46.3100069 40.6712164,46.3849456 40.1348454,46.2167414 C40.2373931,46.0180552 40.3335316,45.8578245 40.4040331,45.6911845 C40.9167716,44.4413845 41.2115962,43.3646337 40.4424885,41.928966 C38.5197193,38.3269784 39.8015654,33.8276984 43.0895008,31.4370553 C46.4691604,28.9857616 51.1186877,29.3041854 54.1326053,32.1933446 C57.0960185,35.0215148 57.6139074,39.5638323 55.3631776,42.9864891 L55.3631776,42.9864891 Z" id="Shape" fill="#F4FAF5"></path>
                            <path d="M54.1133776,32.1933446 C51.09946,29.3041854 46.4499327,28.9857616 43.0702731,31.4370553 C39.7567008,33.8276984 38.4876731,38.3269784 40.4232608,41.928966 C41.1923685,43.3646337 40.8975439,44.4413845 40.3848054,45.6911845 C40.3143039,45.8578245 40.2181654,46.0180552 40.1156177,46.2167414 C40.6519887,46.3849456 41.2351054,46.3100069 41.7115162,46.011646 C42.6852319,45.5695614 43.8099476,45.6098993 44.7494915,46.1206029 C48.5306519,47.8058527 52.9759982,46.5285238 55.2857803,43.0930985 C57.5955624,39.6576732 57.1009161,35.0589779 54.1133776,32.1933446 L54.1133776,32.1933446 Z M53.2994053,41.3905906 C53.1199469,42.3199291 52.0944699,43.0633999 50.735713,43.0890368 C49.4196042,42.8836995 48.1641236,42.3937558 47.0568146,41.6533691 C45.5214984,40.6043353 44.2865493,39.1727664 43.4740546,37.5001876 C42.8492001,36.4224581 43.0055262,35.0624209 43.8586085,34.1545692 C44.6020792,33.3790522 45.4160515,33.5136461 45.8326515,34.4622122 C46.2492515,35.4107784 47.0183592,36.3849815 45.8326515,37.3591845 C45.5250085,37.6155537 45.8326515,37.9296061 46.0185192,38.1667476 C46.558809,38.9643156 47.2568202,39.6426952 48.0694731,40.1600183 C48.9411284,40.7176214 49.7166453,41.0188553 50.3639776,39.8972399 C50.4443534,39.7169705 50.6033053,39.5837884 50.7948617,39.5362123 C50.9864181,39.4886362 51.1892113,39.5319731 51.3445899,39.6536891 C51.4913481,39.7069009 51.6329393,39.7734058 51.7675992,39.8523753 C52.3764761,40.2946122 53.5429561,40.1600183 53.2994053,41.3905906 Z" id="Shape" fill="#24A834"></path>
                            <path d="M50.76135,43.0890368 C49.4463159,42.8873865 48.1909472,42.4018606 47.0824515,41.6661876 C45.5496424,40.6116331 44.3154656,39.1787516 43.4996915,37.5065968 C42.8785113,36.4313139 43.0319318,35.0765323 43.8778362,34.1673876 C44.6213069,33.3854615 45.4416885,33.4880092 45.8582885,34.4686215 C46.2748885,35.4492338 47.0439961,36.3913907 45.8582885,37.3655938 C45.5506454,37.621963 45.8582885,37.9360153 46.0441561,38.1731568 C46.5854672,38.9720808 47.2858694,39.6506636 48.1015192,40.1664276 C48.9731746,40.7240306 49.7422823,41.0316737 50.3896146,39.8972399 C50.4712672,39.7180228 50.6307805,39.586295 50.8222041,39.540003 C51.0136276,39.4937111 51.2157059,39.5379951 51.3702269,39.6600983 C51.5154864,39.7119934 51.6550752,39.7785665 51.7868269,39.8587845 C52.3636576,40.2946122 53.5301376,40.1600183 53.2865869,41.3969999 C53.1199469,42.3327476 52.1008792,43.0633999 50.76135,43.0890368 Z" id="Path" fill="#F4FAF5"></path>
                            <path d="M84.0124389,26.6878154 L63.2657591,26.6878154 C62.681604,26.6878154 62.1214674,26.9203054 61.7090091,27.3339663 C61.2965507,27.7476271 61.0656899,28.3084381 61.0673554,28.8925907 L61.0673554,49.6328613 C61.0639712,50.2175348 61.2942789,50.7793442 61.7071103,51.1933791 C62.1199416,51.6074141 62.6810782,51.8393563 63.2657591,51.8376462 L84.0124389,51.8376462 C84.5977039,51.8393455 85.1594905,51.6076061 85.5733371,51.1937596 C85.9871837,50.779913 86.2189231,50.2181263 86.2172237,49.6328613 L86.2172237,28.8925907 C86.2172237,27.6749269 85.2301027,26.6878154 84.0124389,26.6878154 L84.0124389,26.6878154 Z M75.7124851,35.1351815 C75.9560359,35.4940984 76.6418236,35.2569568 77.1353344,35.2569568 C79.2311528,35.2569568 79.2311528,35.2569568 79.0260574,37.3527753 C78.763279,39.9164676 78.763279,39.954923 76.3021344,39.9164676 C75.4432975,39.9164676 75.3087036,40.2369291 75.3215221,40.9868091 C75.3535682,44.1914245 75.3215221,47.3319475 75.3215221,50.5045167 C75.3215221,51.2928521 75.1292451,51.6197229 74.3152728,51.5428121 C73.1487929,51.4210367 71.6362144,52.0299136 70.8991529,51.2800336 C70.1620913,50.5301536 70.7453313,49.0880767 70.706876,47.9472337 C70.706876,47.1973537 70.706876,46.4154275 70.706876,45.6591383 C70.706876,44.0568306 70.706876,42.4545229 70.706876,40.845806 C70.706876,40.1471999 70.5210083,39.8972399 69.7967652,39.9228768 C68.2200944,39.9869691 68.3034144,40.179246 68.3034144,38.371843 C68.3034144,37.9872891 68.3034144,37.6091445 68.3034144,37.2309999 C68.3034144,35.4620522 68.3034144,35.4428245 70.0787713,35.2505476 C70.5081898,35.1992738 70.7196944,35.0710892 70.7196944,34.6096245 C70.7196944,33.9687015 70.7196944,33.3790522 70.7196944,32.7701753 C70.6939274,31.6046223 71.1328066,30.4766813 71.9395606,29.6350602 C72.7463145,28.7934392 73.8546881,28.3072564 75.0202882,28.2837138 C76.1547221,28.2132123 77.3147928,28.2837138 78.4492267,28.2837138 C79.0068297,28.2837138 79.2247436,28.4759907 79.1734697,29.0143661 C79.1734697,29.2515077 79.1734697,29.4758307 79.1734697,29.7129723 C79.1734697,30.5077169 79.4170205,31.5011476 79.0388759,32.0587507 C78.6607313,32.6163538 77.5455251,32.2317999 76.763599,32.3023015 C76.2444513,32.3471661 75.7124851,32.4048492 75.6099375,33.0137261 C75.4945713,33.7379692 75.3087036,34.539123 75.7124851,35.1351815 Z" id="Shape" fill="#4B68B2"></path>
                            <path d="M75.7124851,35.1351815 C75.9560359,35.4940984 76.6418236,35.2569568 77.1353344,35.2569568 C79.2311528,35.2569568 79.2311528,35.2569568 79.0260574,37.3527753 C78.763279,39.9164676 78.763279,39.954923 76.3021344,39.9164676 C75.4432975,39.9164676 75.3087036,40.2369291 75.3215221,40.9868091 C75.3535682,44.1914245 75.3215221,47.3319475 75.3215221,50.5045167 C75.3215221,51.2928521 75.1292451,51.6197229 74.3152728,51.5428121 C73.1487929,51.4210367 71.6362144,52.0299136 70.8991529,51.2800336 C70.1620913,50.5301536 70.7453313,49.0880767 70.706876,47.9472337 C70.706876,47.1973537 70.706876,46.4154275 70.706876,45.6591383 C70.706876,44.0568306 70.706876,42.4545229 70.706876,40.845806 C70.706876,40.1471999 70.5210083,39.8972399 69.7967652,39.9228768 C68.2200944,39.9869691 68.3034144,40.179246 68.3034144,38.371843 C68.3034144,37.9872891 68.3034144,37.6091445 68.3034144,37.2309999 C68.3034144,35.4620522 68.3034144,35.4428245 70.0787713,35.2505476 C70.5081898,35.1992738 70.7196944,35.0710892 70.7196944,34.6096245 C70.7196944,33.9687015 70.7196944,33.3790522 70.7196944,32.7701753 C70.6939274,31.6046223 71.1328066,30.4766813 71.9395606,29.6350602 C72.7463145,28.7934392 73.8546881,28.3072564 75.0202882,28.2837138 C76.1547221,28.2132123 77.3147928,28.2837138 78.4492267,28.2837138 C79.0068297,28.2837138 79.2247436,28.4759907 79.1734697,29.0143661 C79.1734697,29.2515077 79.1734697,29.4758307 79.1734697,29.7129723 C79.1734697,30.5077169 79.4170205,31.5011476 79.0388759,32.0587507 C78.6607313,32.6163538 77.5455251,32.2317999 76.763599,32.3023015 C76.2444513,32.3471661 75.7124851,32.4048492 75.6099375,33.0137261 C75.4945713,33.7379692 75.3087036,34.539123 75.7124851,35.1351815 Z" id="Path" fill="#FFFFFF"></path>
                            <path d="M72.4822329,0.967572497 L51.9342392,0.890652262 C51.356295,0.888959393 50.8013459,1.11691551 50.3914756,1.52438182 C49.9816054,1.93184813 49.7503888,2.48544672 49.7486915,3.06339094 L49.671771,23.6113846 C49.6682276,24.8159402 50.6399698,25.7962819 51.8445099,25.8033415 L72.3925036,25.88029 C72.9732556,25.883661 73.5314835,25.655784 73.9439441,25.2469309 C74.3564046,24.8380779 74.5891767,24.2818734 74.5908698,23.7011139 L74.66779,3.15312017 C74.6694894,2.5729547 74.4397758,2.01605864 74.0295351,1.60581792 C73.6192944,1.19557719 73.0623983,0.965863604 72.4822329,0.967572497 Z" id="Path" fill="#2EB0E2"></path>
                            <path d="M72.7386021,8.15232013 C71.181159,9.09447705 71.1619313,10.6647386 70.8799252,12.2285909 C69.0532944,22.40004 58.2986053,25.3675138 51.2099961,20.8810523 C53.5226277,21.1409977 55.8477103,20.5133399 57.7153653,19.1249231 C56.5600832,19.0079039 55.4804117,18.4963614 54.6581622,17.676437 C54.2864268,17.2534278 53.7224145,16.8304185 53.8890545,16.2471785 C54.0108299,15.7985324 54.7158453,16.2471785 55.1709007,15.8690339 C54.3134931,15.4825074 53.5551846,14.9061052 52.9533069,14.1834062 C52.3930262,13.4443848 52.0811581,12.5469227 52.0624238,11.619714 C52.6072084,11.703034 53.0750822,11.7735355 53.5493653,11.8568555 L53.651913,11.7543078 C52.1906084,10.1007263 51.5176392,8.3125509 52.7546207,5.98600015 C53.2224945,6.48592015 53.5814115,6.95379399 54.0364669,7.34475706 C55.941669,9.0754386 58.3085578,10.2154641 60.8494791,10.6262832 C61.6762699,10.7672863 62.0351868,10.6967847 62.0351868,9.66489858 C62.0269641,8.06251337 62.8874184,6.58141114 64.2835031,5.79486581 C65.6795878,5.00832049 67.3922046,5.03977065 68.7584698,5.87704323 C69.6314869,6.51858712 70.7948468,6.60328569 71.7515806,6.09495707 C71.9887221,5.99240938 72.4410582,5.87704323 72.5078698,5.9347263 C72.3989129,6.79356322 71.6874883,7.2486186 71.1298852,7.85749552 C71.8797652,8.03054475 72.4117313,7.52421552 73.1295652,7.5818986 C73.0585051,7.82241055 72.9052421,8.0625909 72.7386021,8.15232013 Z" id="Path" fill="#FFFFFF"></path>
                            <path d="M63.957956,55.4203967 L65.7525406,55.4203967 C65.7525406,55.4716705 65.8230421,55.4588521 65.8614975,55.4588521 C68.1706109,55.6404058 70.3658991,56.5364418 72.1425436,58.0225444 C74.0476782,59.5451846 75.3124106,61.7270195 75.6868482,64.1369505 C75.695822,64.3543495 75.7324353,64.5697218 75.7958051,64.7778735 L75.7958051,66.3865904 C75.7381221,66.3865904 75.7573498,66.457092 75.7509405,66.4955474 C75.5227413,68.9579633 74.3431866,71.234297 72.4630052,72.8406858 C69.4058021,75.5005165 65.8550883,76.2375781 61.9390483,75.3402858 C61.7972046,75.2960573 61.6432083,75.3147235 61.5160391,75.3915596 C60.4136514,76.0324827 59.3048545,76.6093134 58.1960576,77.2181904 C57.9909622,77.3271473 57.9909622,77.3271473 57.9909622,77.1028242 L57.9909622,73.6290212 C58.0041311,73.5017564 57.944674,73.3778874 57.8371407,73.3085596 C57.4538327,73.0236324 57.0957334,72.7062749 56.7667991,72.3599935 C54.7555744,70.3825044 53.7250279,67.6148179 53.9531469,64.8035105 C54.1009736,62.647446 54.9910336,60.6091407 56.4719745,59.0352028 C58.2246607,57.1018362 60.607694,55.8546624 63.1952575,55.5165351 C63.4520633,55.5100441 63.7075724,55.4778371 63.957956,55.4203967 L63.957956,55.4203967 Z M57.817913,68.9502827 C57.9268699,68.9502827 57.9973714,68.8990089 58.0742822,68.8541443 C59.7150453,67.9611248 61.3493991,67.0681053 62.9773437,66.1750858 C63.0254456,66.1360802 63.0878718,66.1193834 63.1490233,66.1291676 C63.2101748,66.1389519 63.2642749,66.1742929 63.2978052,66.2263597 C64.1310052,67.123652 64.9706145,68.0145351 65.8038145,68.9054181 C65.9063621,69.014375 65.957636,69.0464212 66.0730021,68.9054181 L71.6490329,62.9768797 C71.6874883,62.9448336 71.7515806,62.9127874 71.7195344,62.8358766 C71.6874883,62.7589659 71.5593036,62.8935597 71.4888021,62.9320151 C69.8993129,63.8122161 68.3119601,64.6924171 66.7267437,65.5726181 C66.6797192,65.6114006 66.6182492,65.6280099 66.5580919,65.6181883 C66.4979345,65.6083667 66.4449391,65.5730691 66.4126914,65.5213443 C65.5602637,64.624052 64.6950175,63.7331689 63.8489991,62.8358766 C63.7464514,62.7269197 63.6951775,62.6948736 63.5734022,62.8358766 C61.6591786,64.8782848 59.7406822,66.9164202 57.817913,68.9502827 Z M75.0010605,53.2028029 L54.3505192,53.5104459 C53.7618639,53.512072 53.1984515,53.7497115 52.7864456,54.1701503 C52.3744397,54.590589 52.1482628,55.1587001 52.1585623,55.7472675 L52.4597961,76.3978088 C52.4681272,76.9865499 52.7122827,77.5473426 53.1375649,77.9545533 C53.562847,78.361764 54.1337065,78.5813539 54.7222545,78.5641288 L75.3792051,78.2564857 C75.9611031,78.2514291 76.5169582,78.0145204 76.9235973,77.5982567 C77.3302364,77.181993 77.5540796,76.620749 77.5457616,76.0388919 L77.2378821,55.3819413 C77.2294444,54.7971787 76.9890245,54.2397255 76.5695255,53.8322466 C76.1500265,53.4247676 75.5858214,53.2006509 75.0010605,53.2092121 L75.0010605,53.2028029 Z" id="Shape" fill="#007BFE"></path>
                            <path d="M63.957956,55.4203967 L65.7525406,55.4203967 C65.7525406,55.4716705 65.8230421,55.4588521 65.8614975,55.4588521 C68.1706109,55.6404058 70.3658991,56.5364418 72.1425436,58.0225444 C74.0476782,59.5451846 75.3124106,61.7270195 75.6868482,64.1369505 C75.695822,64.3543495 75.7324353,64.5697218 75.7958051,64.7778735 L75.7958051,66.3865904 C75.7381221,66.3865904 75.7573498,66.457092 75.7509405,66.4955474 C75.5227413,68.9579633 74.3431866,71.234297 72.4630052,72.8406858 C69.4058021,75.5005165 65.8550883,76.2375781 61.9390483,75.3402858 C61.7972046,75.2960573 61.6432083,75.3147235 61.5160391,75.3915596 C60.4136514,76.0324827 59.3048545,76.6093134 58.1960576,77.2181904 C57.9909622,77.3271473 57.9909622,77.3271473 57.9909622,77.1028242 L57.9909622,73.6290212 C58.0041311,73.5017564 57.944674,73.3778874 57.8371407,73.3085596 C57.4538327,73.0236324 57.0957334,72.7062749 56.7667991,72.3599935 C54.7555744,70.3825044 53.7250279,67.6148179 53.9531469,64.8035105 C54.1009736,62.647446 54.9910336,60.6091407 56.4719745,59.0352028 C58.2246607,57.1018362 60.607694,55.8546624 63.1952575,55.5165351 C63.4520633,55.5100441 63.7075724,55.4778371 63.957956,55.4203967 L63.957956,55.4203967 Z M57.817913,68.9502827 C57.9268699,68.9502827 57.9973714,68.8990089 58.0742822,68.8541443 C59.7150453,67.9611248 61.3493991,67.0681053 62.9773437,66.1750858 C63.0254456,66.1360802 63.0878718,66.1193834 63.1490233,66.1291676 C63.2101748,66.1389519 63.2642749,66.1742929 63.2978052,66.2263597 C64.1310052,67.123652 64.9706145,68.0145351 65.8038145,68.9054181 C65.9063621,69.014375 65.957636,69.0464212 66.0730021,68.9054181 L71.6490329,62.9768797 C71.6874883,62.9448336 71.7515806,62.9127874 71.7195344,62.8358766 C71.6874883,62.7589659 71.5593036,62.8935597 71.4888021,62.9320151 C69.8993129,63.8122161 68.3119601,64.6924171 66.7267437,65.5726181 C66.6797192,65.6114006 66.6182492,65.6280099 66.5580919,65.6181883 C66.4979345,65.6083667 66.4449391,65.5730691 66.4126914,65.5213443 C65.5602637,64.624052 64.6950175,63.7331689 63.8489991,62.8358766 C63.7464514,62.7269197 63.6951775,62.6948736 63.5734022,62.8358766 C61.6591786,64.8782848 59.7406822,66.9164202 57.817913,68.9502827 Z" id="Shape" fill="#FFFFFF"></path>
                            <path d="M49.1654515,53.0938366 L28.3867255,53.0938366 C27.8002821,53.0921436 27.237182,53.3234761 26.821302,53.7369522 C26.4054219,54.1504283 26.1708291,54.7121779 26.1691317,55.2986213 L26.1691317,76.0837565 C26.1726642,77.3059961 27.1644809,78.2949411 28.3867255,78.2949411 L49.1654515,78.2949411 C49.7513065,78.2949411 50.3130732,78.0617758 50.7267335,77.646913 C51.1403938,77.2320502 51.3719299,76.669609 51.3702363,76.0837565 L51.3702363,55.2986213 C51.3719357,54.7133563 51.1401963,54.1515697 50.7263497,53.7377231 C50.3125031,53.3238765 49.7507165,53.0921371 49.1654515,53.0938366 L49.1654515,53.0938366 Z" id="Path" fill="#0378B8"></path>
                            <path d="M32.3796763,56.0036367 C33.4555171,56.0581777 34.3004182,56.9453238 34.3024455,58.0225444 C34.2906813,58.544438 34.0720079,59.0402664 33.6945612,59.4008843 C33.3171144,59.7615022 32.8118344,59.957349 32.289947,59.9453136 C31.2110834,59.9529259 30.3219911,59.1007607 30.2838578,58.0225444 C30.2888018,57.4751959 30.5137003,56.9528411 30.9079156,56.5730924 C31.3021309,56.1933437 31.8325254,55.9881227 32.3796763,56.0036367 L32.3796763,56.0036367 Z" id="Path" fill="#FFFFFF"></path>
                            <path d="M33.3602886,73.0521904 C32.3860855,72.9432335 31.1106486,73.4559719 30.4953624,72.847095 C29.8800763,72.2382181 30.3351317,70.9243258 30.3030855,69.9693504 C30.2646301,69.097695 30.3030855,68.2196304 30.3030855,67.3351566 C30.3030855,65.7713043 30.3351317,64.2010428 30.3030855,62.6435997 C30.3030855,61.874492 30.540227,61.6821779 31.290107,61.6821779 C34.3537193,61.6821779 34.3537193,61.6373505 34.3537193,64.6625074 C34.3537193,67.1108335 34.3537193,69.5527504 34.3537193,72.0010766 C34.3537193,72.7509566 34.2127162,73.1483289 33.3602886,73.0521904 Z" id="Path" fill="#FFFFFF"></path>
                            <path d="M46.9670854,73.0201442 C46.0826115,73.0201442 45.2045469,73.0521904 44.3264823,73.0201442 C43.7945162,73.0201442 43.9932023,72.5074058 43.9867931,72.1997627 C43.9867931,70.7128212 43.9867931,69.2194704 43.9867931,67.7133012 C43.9881324,67.1781664 43.9409381,66.6440126 43.84579,66.1174028 C43.7940348,65.1872922 43.0078127,64.4694373 42.0768423,64.5022766 C41.1143847,64.3892068 40.2311386,65.047422 40.0643439,66.0020366 C39.7695193,67.1813351 39.9489777,68.3606335 39.9105223,69.5463412 C39.9105223,69.9693504 39.9105223,70.3923596 39.9105223,70.8281873 C39.8528393,71.5396119 40.26303,72.5522704 39.7310639,72.8983689 C39.0068208,73.3726519 37.9492977,73.0201442 37.0455962,73.0457812 C36.5841316,73.0457812 36.6161778,72.6996827 36.6161778,72.4048581 C36.6161778,69.0784673 36.6161778,65.7520766 36.6161778,62.4128674 C36.6161778,61.9385843 36.7635901,61.6950336 37.2571008,61.7334889 C37.6838658,61.7632179 38.112182,61.7632179 38.538947,61.7334889 C39.455467,61.6373505 40.122027,61.7655351 39.7502916,63.0730182 C41.3974639,61.4643013 43.2112762,61.5155751 45.0379069,61.9834489 C46.4799838,62.3615936 47.1209069,63.5152551 47.2683192,64.8932397 C47.5375069,67.4120674 47.3516392,69.9501227 47.3836854,72.4689504 C47.34523,72.7060919 47.3580484,73.013735 46.9670854,73.0201442 Z" id="Path" fill="#FFFFFF"></path>
                        </g>
                    </g>
                    <g id="Group-6" transform="translate(59.910272, 7.875566)" fill-rule="nonzero">
                        <path d="M6.15007046,134.845695 C6.08973231,135.167499 5.84837974,136.454713 5.34556187,139.019084 C5.13437837,140.125283 5.05392751,140.43703 5.27516737,140.728664 C5.73775981,141.332046 7.08531169,141.311933 7.90993299,140.728664 C8.15551747,140.538879 8.35779325,140.298891 8.50325807,140.024719 C9.37816116,138.445871 8.16134192,137.28939 8.4026945,134.523892 C8.48314536,133.588651 8.6842725,132.934988 8.29207457,132.593071 C7.87931422,132.312633 7.33717033,132.312633 6.92440997,132.593071 C6.43164846,132.914875 6.41153575,133.437805 6.15007046,134.845695 Z" id="Path" fill="#FEB574"></path>
                        <path d="M4.82263129,139.47162 C4.41500893,140.238751 4.41500893,141.15824 4.82263129,141.925371 C4.9916084,142.329146 5.27030568,142.677518 5.62713988,142.931007 C6.46181753,143.494163 7.44734055,143.172359 8.64404708,143.001401 L12.6062519,143.071796 C16.7695838,143.152247 18.1070793,143.212585 18.3383755,142.609203 C18.4155794,142.34508 18.3592949,142.059905 18.1875302,141.84492 C17.8053886,141.352159 16.9304855,141.492948 16.4276676,141.492948 C15.4220319,141.492948 15.5427082,141.251595 11.399489,139.853761 C10.3915523,139.458189 9.34745923,139.161802 8.28201821,138.968802 C6.90429726,138.838069 5.4561818,138.636942 4.82263129,139.47162 Z" id="Path" fill="#381B0B"></path>
                        <path d="M17.4835852,20.1529401 C18.6071144,20.5258597 19.5459181,21.3135916 20.1082944,22.3552823 C20.2475923,23.1088365 20.3282847,23.8720524 20.349647,24.6380755 C20.4085283,25.3260574 20.1985979,25.5050025 20.229597,25.9321152 C20.2991904,26.8909895 20.8502162,27.6442106 21.1354672,28.019907 C21.2058617,28.1104142 21.3981882,28.4356023 21.307681,28.6166168 C21.2171738,28.7976312 20.840786,28.7755728 20.7224519,28.7755728 C20.6041178,28.7755728 20.4117042,28.7712383 20.3077305,28.7712383 C20.0261524,28.9120273 20.5028687,29.4069785 20.6436577,30.7846994 C20.7844467,32.1624204 20.6093694,32.1203818 20.3881815,32.4920905 C20.1669935,32.8637993 18.7205171,33.3468809 18.2176993,33.4373881 C17.6413687,33.549396 17.0513587,33.5731321 16.4678931,33.5077826 C15.5062604,33.5517218 14.5535191,33.306531 13.7325639,32.8038376 C11.9525886,31.6775256 8.70438522,28.198026 9.59940102,24.034694 C9.74019002,23.3408054 10.2832333,20.7864906 12.4755192,19.7607422 C14.4465653,18.8053882 16.4880058,19.7104604 17.4835852,20.1529401 Z" id="Path" fill="#FFAA7A"></path>
                        <path d="M14.2856635,134.845695 C14.2253254,135.167499 13.9839728,136.454713 13.481155,139.019084 C13.2699714,140.125283 13.1895206,140.43703 13.4107605,140.728664 C13.8733529,141.332046 15.2209048,141.311933 16.0455261,140.728664 C16.2911106,140.538879 16.4933863,140.298891 16.6388512,140.024719 C17.5137542,138.445871 16.296935,137.28939 16.5282312,134.523892 C16.6086821,133.588651 16.8198656,132.934988 16.4276676,132.593071 C16.0149073,132.312633 15.4727634,132.312633 15.0600031,132.593071 C14.5672415,132.914875 14.5471288,133.437805 14.2856635,134.845695 Z" id="Path" fill="#FEB574"></path>
                        <path d="M12.9582244,139.47162 C12.4710697,140.216999 12.4710697,141.179992 12.9582244,141.925371 C13.4479558,142.553474 14.1762181,142.950377 14.9694958,143.021514 C15.5551495,143.122475 16.1537611,143.122475 16.7394147,143.021514 C18.0603779,142.96646 19.3834456,142.989967 20.7016195,143.091908 C24.2917391,143.272923 25.7297982,143.836079 26.2828978,143.091908 C26.5099518,142.725316 26.5099518,142.261794 26.2828978,141.895202 C25.951038,141.442666 25.1766985,141.543229 24.5230353,141.543229 C23.5173996,141.543229 23.6280195,141.301877 19.4948566,139.904043 C18.48692,139.508471 17.4428269,139.212084 16.3773859,139.019084 C15.0398903,138.838069 13.5917749,138.636942 12.9582244,139.47162 Z" id="Path" fill="#4E270F"></path>
                        <path d="M3.42479762,65.7283515 C2.20797838,67.2468615 2.10741481,70.2637687 1.92640038,76.2975831 C1.83869194,80.2925204 1.99653896,84.2890726 2.39904917,88.2646483 C2.59011996,90.3764833 2.78119075,91.8849369 2.86164161,92.6089947 C3.67620655,99.2461905 3.53541755,102.142421 4.33992614,114.913995 C4.842744,122.727785 5.5969708,132.743917 4.54105328,134.946259 C4.46060243,135.127273 3.95778456,136.10274 4.33992614,136.565333 C4.561166,136.836854 4.99358936,136.786572 5.5969708,136.76646 C6.09719076,136.756879 6.59753812,136.777027 7.09536805,136.826798 C8.76472336,137.017869 8.85523058,136.977643 9.10663951,136.907249 C10.6754313,136.464769 10.3636842,130.732645 10.3234587,130.058869 C10.1022189,125.855312 10.554755,121.641698 10.3234587,117.438141 C9.31782302,99.9300228 11.5704471,92.2067404 11.7011797,86.4243349 C11.7011797,86.1528133 11.7011797,85.2577975 11.9123632,85.2276284 C12.1235467,85.1974593 12.385012,86.1327005 12.4654629,86.4243349 C13.0173234,88.3598343 13.1239023,90.3951464 12.7772099,92.3776984 C12.525801,93.5542923 12.6364209,99.7087829 12.8677172,112.017764 C13.0990134,124.739056 14.3359453,132.693635 13.1492952,135.489302 C12.9129236,135.918652 12.8797571,136.43089 13.0587879,136.887136 C13.6822821,138.023504 16.8198656,138.023504 17.5439233,136.796629 C17.728543,136.417508 17.7609309,135.982071 17.6344305,135.57981 C17.0612182,133.387524 18.3484319,126.529088 20.068069,112.953006 C21.2245501,103.821833 22.0793405,96.8628338 22.5922147,87.8925631 C22.5922147,87.8925631 22.8335673,83.5079913 21.1843247,71.0582209 C20.7921267,68.0413137 20.5004924,66.4624656 19.1730532,65.0244065 C15.6533281,61.1929344 6.84395911,61.4845687 3.42479762,65.7283515 Z" id="Path" fill="#1F1F1F"></path>
                        <path d="M39.3058806,37.0375641 C40.4242057,33.9370146 42.1779542,31.1042997 44.4547355,28.7209565 C46.7449955,26.3024801 49.7089785,24.6277947 52.9624138,23.9140177 C56.2468293,23.3175574 59.6361649,23.808305 62.6165169,25.3118514 C65.5928804,26.787462 68.2062036,28.9028457 70.2694048,31.5065675 C72.4338826,34.0856765 73.8279808,37.2223975 74.2919477,40.5572891 C74.4991868,42.2482671 74.2128006,43.9630915 73.4673264,45.4949606 C72.6779103,46.988567 71.5729721,48.2925312 70.2291794,49.3163764 C67.5681896,51.3768664 64.3627677,52.6142921 61.0074997,52.8763268 C59.2837826,53.0564431 57.5438001,52.7571661 55.979321,52.0114801 C54.4630059,51.1705829 53.2757056,49.8415154 52.6104413,48.2403461 C51.336581,45.1307643 50.8129248,41.7648947 51.081875,38.415285 C51.2398261,35.0883434 51.9430726,31.8099235 53.163541,28.7109002 C54.3321153,25.5304862 56.3492885,22.7307889 58.9962282,20.6155325 C59.701259,20.1305168 60.4484317,19.7098114 61.2287396,19.3584879 C61.611736,19.1711012 62.0126707,19.0228564 62.4254461,18.9160081 C62.830754,18.7807675 63.2438057,18.6699488 63.662378,18.5841483 C64.4983383,18.4290975 65.3463803,18.3483316 66.1965801,18.3427958 C67.0327887,18.323971 67.869322,18.3609263 68.7006131,18.4534157 C72.0292673,18.8355573 75.1769072,19.7607422 78.3848852,20.2937291 C81.5593631,20.9314299 84.8226829,20.9927449 88.0188755,20.4747435 C88.8133277,20.3339545 89.5876672,20.0825456 90.3620067,19.8914748 C91.1363463,19.700404 91.8704603,19.3082061 92.6246871,19.0165717 C94.1262469,18.3778536 95.5372354,17.1282974 96.8483572,16.1569056 C99.4738184,14.2215864 101.747666,12.2747326 103.545891,9.55353946 L103.626342,9.60382125 C101.914655,12.4233376 99.708817,14.4826147 97.1299352,16.5390471 C95.8229982,17.5604969 94.4082771,18.8575247 92.8962088,19.5395023 C92.1319256,19.8512494 91.3776988,20.2233346 90.593303,20.4747435 C89.8089071,20.7261525 89.0043985,20.9574487 88.1898336,21.1284068 C84.918036,21.7218 81.5661755,21.7218 78.294378,21.1284068 C75.0260618,20.6457016 71.8381965,19.7909112 68.6402749,19.4892205 C67.8463885,19.3922002 67.0463129,19.3552219 66.2468619,19.3786006 C65.4607549,19.3817494 64.6765341,19.455796 63.9037306,19.5998404 C63.5185715,19.6789615 63.1389777,19.7830978 62.7673622,19.9115875 C62.3880282,19.9994374 62.0201822,20.131052 61.6712193,20.3037855 C60.9660979,20.6255203 60.2927224,21.0127112 59.6599478,21.4602665 C57.1598382,23.4571325 55.2540129,26.1002479 54.149064,29.1030981 C52.9405142,32.0952665 52.2272366,35.2642572 52.037229,38.4856795 C51.7469867,41.6937152 52.2154943,44.9250393 53.4048936,47.9185427 C53.9865485,49.3769044 55.051649,50.591119 56.4218008,51.3578169 C57.8425583,52.0350167 59.4207293,52.3131085 60.987387,52.1623255 C64.2065939,51.920959 67.2839198,50.738986 69.8369814,48.7632767 C71.1185122,47.8132852 72.1730111,46.5904787 72.9242831,45.1832135 C73.6373412,43.759734 73.9170643,42.158319 73.7287917,40.5774018 C73.2926119,37.3638144 71.9653544,34.3365524 69.8973196,31.8384273 C67.9032975,29.2388063 65.3495151,27.1215385 62.4254461,25.6437112 C59.5097167,24.1531892 56.1881406,23.6519524 52.9624138,24.2157085 C49.761492,24.8890935 46.8363109,26.507577 44.5653555,28.8617455 C42.2797207,31.2089999 40.5089476,34.0073009 39.3662187,37.0777895 L39.3058806,37.0375641 Z" id="Path" fill="#F38B44"></path>
                        <path d="M30.959104,38.6264685 L32.4977267,36.4844644 C32.8860011,35.89686 33.6329926,35.6618514 34.2877583,35.9213084 C35.3738449,36.4140699 42.0713788,37.7515654 42.0713788,37.7515654 C42.0713788,37.7515654 43.4692125,37.992918 42.5943094,39.3605826 C41.7194063,40.7282472 37.5661308,46.8324561 37.5661308,46.8324561 L36.8722421,47.1844286 L28.3243384,44.4490994 C28.3243384,44.4490994 26.9566738,44.0971269 27.9723659,42.7596314 C28.988058,41.4221358 30.959104,38.6264685 30.959104,38.6264685 Z" id="Path" stroke="#48646D" fill="#D5E9F0"></path>
                        <path d="M16.6690202,36.8062678 C17.7752195,36.4643517 19.6155329,38.3046651 20.4602669,39.963964 C20.717496,40.5364268 20.9293318,41.1282222 21.0938175,41.7338829 C22.4715384,45.9072712 22.6424965,46.4905399 23.1050889,46.5709908 C23.5676814,46.6514417 24.2816827,45.7162004 25.66946,43.8356616 C26.4035741,42.8300259 27.9120277,40.7181908 27.9120277,40.7181908 C28.2916161,40.1003501 28.7515189,39.5356165 29.2796923,39.0387792 C30.1344827,38.2946087 31.52226,37.5202692 32.0552469,37.9426362 C32.2028877,38.0784386 32.2774915,38.2761384 32.2563741,38.4756231 C32.2563741,38.978441 31.4518655,38.9985537 30.7579768,39.7024987 C30.0640882,40.4064438 29.8730174,41.1606706 30.0540318,41.3115159 C30.2350463,41.4623613 30.6574133,41.0399943 30.9289349,41.2411214 C31.0449836,41.3485844 31.0980851,41.5078889 31.0697239,41.6634884 C30.9993294,42.1663063 30.11437,42.4076589 29.7020593,42.5786169 C28.5556346,43.031153 28.1131549,44.0468451 27.2483081,45.4145097 C25.4180511,48.3006843 24.3017954,50.0504904 22.8637363,50.4426884 C20.5206051,51.0561262 17.2321762,48.0794444 15.9550189,44.9016355 C14.5873543,41.5025867 15.2309611,37.2386912 16.6690202,36.8062678 Z" id="Path" fill="#E8956B"></path>
                        <path d="M4.46060243,42.6389551 C2.71079625,44.298254 4.26953164,45.8368767 3.38457219,52.4539598 C2.66597958,56.3811002 2.17574714,60.3466106 1.91634402,64.3305178 C1.85600588,65.6680134 1.80572409,67.6189467 2.99237426,68.3530608 C3.99800999,68.9463859 5.20477287,68.3530608 6.32102853,68.0714828 C12.7470409,66.2311694 17.9361212,71.1889535 20.8021831,68.725146 C21.2979305,68.1989733 21.6660875,67.565881 21.8782133,66.8747763 C23.1151453,64.0187708 22.4815948,61.8465976 22.0793405,57.1502787 C21.6770862,52.4539598 22.1597913,53.2785811 21.7877061,51.7299021 C21.5564099,50.7242664 20.2591398,45.4346224 15.1303976,42.8400822 C12.0933776,41.2914032 6.91435361,40.3058802 4.46060243,42.6389551 Z" id="Path" fill="#A64807"></path>
                        <path d="M14.8186505,38.1739324 C16.2730508,37.7373116 17.8493883,38.0540876 19.0222078,39.0186664 C19.6760111,39.6572327 20.0972878,40.4962458 20.2189144,41.4020231 C20.2189144,41.4020231 22.039115,48.5621496 25.5387274,53.1780176 C25.7277416,53.4165824 25.9684353,53.6091374 26.2426724,53.7411736 C26.7253776,53.9825262 27.469548,54.0931461 29.2092978,53.4394829 C30.2677435,53.0168348 31.2789162,52.4842839 32.226205,51.8505784 C33.3382723,51.2742762 34.3339032,50.4968657 35.1626614,49.5577289 C35.5224468,49.0154951 35.8353279,48.443562 36.0979026,47.8481482 C37.3348345,45.394397 37.7370888,44.127296 38.1091741,44.2077468 C38.4812593,44.2881977 38.4510902,44.7507901 38.4712029,45.112819 C38.4913156,45.4748479 38.3706393,45.7664822 38.4712029,45.7966513 C38.5717665,45.8268204 38.8332318,45.3441152 38.9136826,45.2133826 C39.3497044,44.2679733 39.9002234,43.3797125 40.5528689,42.5685606 C40.8042778,42.327208 41.3473211,41.7841647 41.6490118,41.9350101 C42.1618861,42.186419 41.6490118,44.1775778 41.3976029,45.1429881 C41.0422294,46.244099 40.534486,47.2900503 39.8891493,48.2504025 C39.3159369,49.1152492 38.4510902,50.2616739 34.3480964,53.7612863 C33.5033624,54.485344 32.3368249,55.4608107 30.7479205,56.6172918 C28.2438875,58.4274361 27.2382518,58.819634 26.1622215,58.7190705 C25.4031988,58.6132 24.6816174,58.3231865 24.0604429,57.8743364 C22.2492755,56.7089502 20.6983613,55.1820016 19.504913,53.3892011 C16.4880058,49.2660946 14.9896086,47.194485 14.8991013,46.943076 C13.9089784,44.1083584 13.880703,41.0263388 14.8186505,38.1739324 Z" id="Path" fill="#FFAA7A"></path>
                        <path d="M10.8866148,17.9103724 C10.2832333,18.1014432 6.40147939,19.4489951 5.55674537,22.5362968 C4.96342029,24.6883572 6.37131032,25.8046129 5.41595637,27.8661662 C4.94330758,28.8718019 4.561166,28.6907875 2.46944367,31.0942569 C0.377721349,33.4977263 0.246988704,34.3122912 0.226875989,34.5938692 C0.126312416,36.0017592 1.12189179,36.2933936 1.35318801,37.9627489 C1.59454059,39.7829496 0.498397637,40.0645276 0.0860869865,42.4478843 C-0.215603733,44.2479723 0.33749592,44.4591558 0.790032,49.0448547 C1.08166636,52.0617619 0.870482858,52.2126073 1.21239901,52.6852561 C3.22367047,55.5312052 13.6923385,54.4149495 17.2020072,48.6627131 C19.1227714,45.4748479 18.5395027,41.5729812 18.0366848,38.2845524 C17.1316127,32.250738 14.5169598,29.7165359 16.0254134,27.2225593 C17.3126271,25.1408933 20.1686326,25.1509497 20.6513377,22.7374239 C20.8065254,21.8725144 20.6572728,20.980552 20.2289707,20.2132782 C18.8512498,17.4678927 14.2253254,16.8142295 10.8866148,17.9103724 Z" id="Path" fill="#000000"></path>
                        <polygon id="Path" fill="#FFB684" points="102.982735 16.4019188 112.928473 -1.59872116e-13 86.2087312 10.2675408"></polygon>
                        <polygon id="Path" fill="#F38B44" points="94.2839861 19.137248 96.6874555 14.1090693 112.928473 -1.59872116e-13 92.5042343 12.5480719"></polygon>
                        <polygon id="Path" fill="#EA701D" points="94.2839861 19.137248 99.4127283 15.1046487 96.6874555 14.1090693"></polygon>
                    </g>
                    <line x1="49.0708571" y1="151.2256" x2="210.929143" y2="151.2256" id="Path" stroke="#B2C1EF"></line>
                </g>
            </g>
        </g>
    </g>
</svg>