<svg xmlns="http://www.w3.org/2000/svg" width="63" height="42" viewBox="0 0 63 42">
    <g fill="none">
        <path fill="#F66A6A" d="M52.194 4c4.944 0 9.011 3.117 10.356 7.942 1.873 6.721-1.749 17.139-17.534 26.218L43.56 39l-1.467-.83c-15.852-9.02-19.51-19.43-17.65-26.165 1.34-4.839 5.403-7.964 10.362-7.964 2.974 0 5.962 1.145 8.674 3.32C46.198 5.16 49.198 4 52.194 4zM40.122 23.342c-.512.01-.977.3-1.206.753-.23.453-.186.994.113 1.405 1.088 1.556 2.907 1.946 4.356 1.946 1.45 0 3.268-.39 4.356-1.946.437-.62.282-1.471-.345-1.903-.627-.431-1.49-.279-1.926.341-.304.434-1.232.781-2.085.781s-1.78-.347-2.084-.78c-.265-.385-.709-.61-1.18-.597zm-2.027-8.167c-.89 0-1.61.712-1.61 1.59 0 .88.72 1.592 1.61 1.592.89 0 1.61-.713 1.61-1.591 0-.879-.72-1.59-1.61-1.59zm10.58 0c-.889 0-1.61.712-1.61 1.59 0 .88.721 1.592 1.61 1.592.89 0 1.61-.713 1.61-1.591 0-.879-.72-1.59-1.61-1.59zM54.05 8.07c-.194.395-.024.869.382 1.06 2.53 1.182 3.992 3.926 3.814 7.158-.023.44.32.813.769.835.014.002.028.002.044.002.429 0 .789-.328.81-.752.215-3.887-1.601-7.21-4.735-8.676-.403-.19-.89-.022-1.084.373z"/>
        <path fill="#47B29F" d="M18.27.005c-.34.028-.657.18-.89.428-4.12 4.314-10.021 6.274-16.03 6.42C.6 6.868 0 7.477 0 8.223c0 16.831 7.422 29.57 17.983 32.812.262.079.542.079.804 0C29.348 37.793 36.77 25.055 36.77 8.222c0-.745-.6-1.354-1.35-1.37-6.009-.145-11.91-2.105-16.03-6.42-.288-.304-.7-.462-1.12-.427z"/>
        <path fill="#FFF" d="M18.385 3.243c4.291 3.947 9.9 5.817 15.556 6.206-.357 15.123-7.055 25.908-15.556 28.79-8.5-2.882-15.198-13.667-15.555-28.79 5.655-.39 11.264-2.26 15.555-6.206z"/>
        <path fill="#47B29F" d="M13.1 15.07c-.89 0-1.61.715-1.61 1.598 0 .882.72 1.598 1.61 1.598.888 0 1.608-.716 1.608-1.598 0-.883-.72-1.598-1.609-1.598zM23.67 15.07c-.888 0-1.608.715-1.608 1.598 0 .882.72 1.598 1.609 1.598.888 0 1.609-.716 1.609-1.598 0-.883-.72-1.598-1.61-1.598zM15.125 23.273c-.512.01-.976.302-1.205.757-.23.455-.186.998.113 1.412 1.087 1.562 2.904 1.954 4.352 1.954 1.448 0 3.265-.392 4.352-1.954.436-.623.282-1.479-.345-1.912-.626-.433-1.488-.28-1.924.342-.303.436-1.23.785-2.083.785-.852 0-1.78-.349-2.083-.785-.264-.386-.708-.612-1.177-.599z"/>
    </g>
</svg>
