<svg xmlns="http://www.w3.org/2000/svg" width="16" height="16" viewBox="0 0 16 16">
    <g fill="none">
        <path fill="#27A84A" d="M15.98 2.016c0 .784-.472 1.492-1.197 1.792-.725.301-1.56.135-2.114-.42-.555-.554-.72-1.389-.42-2.113.3-.725 1.008-1.197 1.793-1.197 1.07.001 1.936.868 1.937 1.938"/>
        <path fill="#EF4323" d="M13.674 5.54c-.581-.032-1.155-.011-1.745-.016-.127.003-.255-.007-.38-.03-.606-.114-1.036-.655-1.012-1.27v-1.59c0-1.06-.578-2.028-1.57-2.366C8.355.1 7.708.097 7.094.26 6.14.644 5.511 1.568 5.505 2.598v1.59c.018 1.945.825 3.465 2.426 4.584.233.184.433.408.59.66.48.663.742 1.456.753 2.274 0 .604.01 1.21 0 1.815-.005.69-.568 1.245-1.258 1.24-.69-.005-1.245-.568-1.24-1.258v-1.65c.01-.674-.253-1.324-.727-1.802-.474-.48-1.12-.747-1.795-.745H2.637c-.666.034-1.242-.46-1.31-1.124-.068-.664.395-1.265 1.054-1.368.359-.026.719-.032 1.078-.02h.804v-1.26H3.98c-.528 0-1.056-.02-1.582.01C1.26 5.624.32 6.46.106 7.58c-.022.232-.032.464-.028.697.114 1.284 1.185 2.272 2.475 2.282h1.703c.665 0 1.213.523 1.243 1.188.018.467 0 .936 0 1.403-.008.232 0 .464.026.694.18 1.255 1.267 2.179 2.534 2.156 1.268-.024 2.32-.988 2.453-2.248.048-.495.012-.99.02-1.475.017-.411-.002-.822-.056-1.23-.204-1.43-.977-2.717-2.146-3.567-.184-.131-.355-.28-.51-.444-.611-.668-.978-1.523-1.04-2.426-.044-.693-.029-1.39 0-2.084.022-.369.206-.709.503-.928.297-.219.676-.295 1.034-.206.584.138.989.67.964 1.27v1.616c0 1.367 1.094 2.483 2.46 2.51.578.012 1.156 0 1.731 0 .686.005 1.243.557 1.255 1.243.007.681-.535 1.242-1.217 1.257-.505.013-1.011.008-1.518 0h-.203v1.266h1.604c.17.003.34-.01.507-.04 1.241-.221 2.126-1.328 2.068-2.588-.058-1.26-1.041-2.281-2.298-2.387"/>
    </g>
</svg>
