<svg xmlns="http://www.w3.org/2000/svg" xmlns:xlink="http://www.w3.org/1999/xlink" width="128" height="42" viewBox="0 0 128 42">
    <defs>
        <linearGradient id="prefix__b" x1="50%" x2="50%" y1="0%" y2="100%">
            <stop offset="0%" stop-color="#257CB0"/>
            <stop offset="28.6%" stop-color="#4A93B5"/>
            <stop offset="76.7%" stop-color="#78BCBB"/>
            <stop offset="100%" stop-color="#89CFBD"/>
        </linearGradient>
        <linearGradient id="prefix__e" x1=".001%" x2="100.001%" y1="49.999%" y2="49.999%">
            <stop offset="0%" stop-color="#52C1AD"/>
            <stop offset="100%" stop-color="#DEE89A"/>
        </linearGradient>
        <linearGradient id="prefix__h" x1="50%" x2="50%" y1="0%" y2="100%">
            <stop offset="0%" stop-color="#EC413D"/>
            <stop offset="16.7%" stop-color="#DA4452"/>
            <stop offset="57.5%" stop-color="#B0487A"/>
            <stop offset="86.2%" stop-color="#954A92"/>
            <stop offset="100%" stop-color="#8A4A9D"/>
        </linearGradient>
        <linearGradient id="prefix__k" x1="50.001%" x2="50.001%" y1=".001%" y2="99.997%">
            <stop offset="0%" stop-color="#F58879"/>
            <stop offset="11.9%" stop-color="#F69079"/>
            <stop offset="71.3%" stop-color="#FCB877"/>
            <stop offset="100%" stop-color="#FEC874"/>
        </linearGradient>
        <path id="prefix__a" d="M18.015 9.718l-5.73-3.258L1.23.174C.616-.175.005.037.005.766v25.61c0 .546.437.782.97.479l11.31-6.431 5.73-3.258 5.509-3.132c.646-.368.584-.872.039-1.161-.546-.29-5.548-3.155-5.548-3.155z"/>
        <path id="prefix__d" d="M18.015 9.718l-5.73-3.258L1.23.174C.616-.175.005.037.005.766v25.61c0 .546.437.782.97.479l11.31-6.431 5.73-3.258 5.509-3.132c.646-.368.584-.872.039-1.161-.546-.29-5.548-3.155-5.548-3.155z"/>
        <path id="prefix__g" d="M18.015 9.718l-5.73-3.258L1.23.174C.616-.175.005.037.005.766v25.61c0 .546.437.782.97.479l11.31-6.431 5.73-3.258 5.509-3.132c.646-.368.584-.872.039-1.161-.546-.29-5.548-3.155-5.548-3.155z"/>
        <path id="prefix__j" d="M18.015 9.718l-5.73-3.258L1.23.174C.616-.175.005.037.005.766v25.61c0 .546.437.782.97.479l11.31-6.431 5.73-3.258 5.509-3.132c.646-.368.584-.872.039-1.161-.546-.29-5.548-3.155-5.548-3.155z"/>
    </defs>
    <g fill="none" fill-rule="evenodd">
        <path fill="#000" fill-rule="nonzero" d="M128 36.324c0 3.134-2.533 5.676-5.657 5.676H5.658C2.534 42 0 39.458 0 36.324V5.676C0 2.542 2.534 0 5.658 0h116.685C125.467 0 128 2.542 128 5.676v30.648z"/>
        <g transform="translate(10 9)">
            <mask id="prefix__c" fill="#fff">
                <use xlink:href="#prefix__a"/>
            </mask>
            <path fill="url(#prefix__b)" fill-rule="nonzero" d="M0.005 -0.421L0.005 27.306 14.202 13.442z" mask="url(#prefix__c)"/>
        </g>
        <g transform="translate(10 9)">
            <mask id="prefix__f" fill="#fff">
                <use xlink:href="#prefix__d"/>
            </mask>
            <path fill="url(#prefix__e)" fill-rule="nonzero" d="M18.015 9.718L12.284 6.46 0.005 -0.522 0.005 -0.421 14.202 13.442z" mask="url(#prefix__f)"/>
        </g>
        <g transform="translate(10 9)">
            <mask id="prefix__i" fill="#fff">
                <use xlink:href="#prefix__g"/>
            </mask>
            <path fill="url(#prefix__h)" fill-rule="nonzero" d="M0.005 27.306L0.005 27.406 12.284 20.424 18.015 17.166 14.202 13.442z" mask="url(#prefix__i)"/>
        </g>
        <g transform="translate(10 9)">
            <mask id="prefix__l" fill="#fff">
                <use xlink:href="#prefix__j"/>
            </mask>
            <path fill="url(#prefix__k)" fill-rule="nonzero" d="M18.015 9.718L14.202 13.442 18.015 17.166 24.564 13.442z" mask="url(#prefix__l)"/>
        </g>
        <path fill="#F9F9F9" fill-rule="nonzero" d="M100.024 27.906c-.539 0-1.031-.103-1.477-.309-.445-.206-.82-.524-1.122-.952h-.09c.06.502.09.977.09 1.426v3.534h-1.253V19.163h1.02l.173 1.175h.06c.323-.47.698-.81 1.126-1.018.428-.21.92-.314 1.473-.314 1.098 0 1.946.39 2.542 1.168.597.778.896 1.87.896 3.274 0 1.41-.304 2.506-.91 3.288-.607.78-1.45 1.17-2.528 1.17zm-.181-7.795c-.846 0-1.458.243-1.836.729-.378.485-.571 1.258-.582 2.319v.29c0 1.206.194 2.07.582 2.59.388.52 1.01.778 1.866.778.716 0 1.276-.3 1.682-.9.405-.6.608-1.429.608-2.484 0-1.07-.203-1.893-.608-2.464-.406-.573-.977-.858-1.712-.858zm6.523 7.638h-1.254V15.56h1.254v12.19zm7.21 0l-.25-1.222h-.06c-.413.539-.825.903-1.235 1.093-.41.191-.923.286-1.537.286-.821 0-1.465-.219-1.93-.658-.467-.438-.7-1.062-.7-1.872 0-1.734 1.338-2.643 4.012-2.727l1.406-.047v-.532c0-.674-.14-1.172-.42-1.493-.28-.322-.727-.482-1.34-.482-.691 0-1.472.22-2.343.658l-.385-.995c.408-.23.854-.41 1.341-.54.486-.131.973-.196 1.462-.196.987 0 1.718.227 2.194.681.476.455.714 1.183.714 2.186v5.86h-.93zm-2.833-.916c.78 0 1.393-.222 1.84-.666.445-.443.668-1.065.668-1.865v-.775l-1.255.054c-.997.037-1.715.198-2.157.483-.44.284-.66.727-.66 1.328 0 .47.136.828.411 1.073.275.245.659.368 1.153.368zm4.49-7.67h1.345l1.813 4.897c.398 1.118.645 1.924.74 2.42h.061c.066-.266.203-.721.412-1.367.209-.645.893-2.628 2.05-5.95H123l-3.559 9.778c-.352.966-.764 1.652-1.235 2.057-.471.405-1.05.607-1.734.607-.382 0-.76-.045-1.133-.133V30.43c.277.062.587.094.93.094.86 0 1.475-.502 1.843-1.505l.46-1.222-3.339-8.634zm-38.44.798c.398.341 1.23 1.06 1.23 2.425 0 1.328-.728 1.958-1.456 2.55-.225.233-.485.485-.485.88s.26.611.45.773l.625.502c.762.664 1.454 1.276 1.454 2.515 0 1.688-1.576 3.394-4.555 3.394-2.511 0-3.723-1.239-3.723-2.569 0-.646.31-1.561 1.333-2.19 1.073-.683 2.53-.772 3.308-.827-.243-.323-.52-.665-.52-1.22 0-.305.087-.485.174-.702-.192.018-.382.036-.555.036-1.835 0-2.874-1.419-2.874-2.819 0-.826.364-1.743 1.108-2.406.987-.844 2.165-.989 3.1-.989h3.568l-1.109.647h-1.073zm-1.23 7.975c-.139-.02-.226-.02-.398-.02-.156 0-1.092.038-1.819.29-.38.142-1.49.573-1.49 1.849 0 1.275 1.196 2.192 3.05 2.192 1.66 0 2.545-.828 2.545-1.94 0-.918-.572-1.401-1.888-2.371zm.502-3.413c.398-.414.432-.988.432-1.312 0-1.293-.744-3.304-2.181-3.304-.451 0-.935.233-1.213.593-.294.377-.381.861-.381 1.329 0 1.203.675 3.197 2.165 3.197.433 0 .9-.216 1.178-.503zM65.89 27.648c-2.75 0-4.22-2.224-4.22-4.232 0-2.35 1.85-4.357 4.48-4.357 2.54 0 4.131 2.061 4.131 4.232 0 2.115-1.572 4.357-4.391 4.357zm2.16-1.452c.416-.575.52-1.291.52-1.991 0-1.579-.726-4.59-2.87-4.59-.57 0-1.141.233-1.556.61-.675.627-.796 1.416-.796 2.188 0 1.774.847 4.696 2.94 4.696.674 0 1.366-.34 1.763-.913zm-11.532 1.452c-2.75 0-4.22-2.224-4.22-4.232 0-2.35 1.85-4.357 4.48-4.357 2.54 0 4.131 2.061 4.131 4.232 0 2.115-1.573 4.357-4.391 4.357zm2.161-1.452c.415-.575.52-1.291.52-1.991 0-1.579-.728-4.59-2.872-4.59-.57 0-1.14.233-1.556.61-.674.627-.795 1.416-.795 2.188 0 1.774.847 4.696 2.94 4.696.674 0 1.366-.34 1.763-.913zm-7.702 1.17l-2.486.596c-1.008.162-1.912.306-2.868.306-4.798 0-6.623-3.66-6.623-6.527C39 18.244 41.59 15 46.023 15c.94 0 1.843.144 2.66.378 1.303.38 1.912.847 2.294 1.118l-1.443 1.424-.608.144.434-.721c-.59-.595-1.67-1.694-3.72-1.694-2.747 0-4.816 2.164-4.816 5.318 0 3.389 2.365 6.58 6.154 6.58 1.113 0 1.686-.234 2.208-.451v-2.902l-2.625.144 1.39-.776h3.686l-.451.45c-.123.11-.14.146-.175.289-.018.162-.034.686-.034.866v2.2zM82.664 26.24c-.57-.05-.689-.149-.689-.795v-9.362l.01-.107c.069-.579.241-.678.776-.976h-2.467L79 15.596h1.319v.007l-.001-.006V25.81c0 .33-.068.38-.466.876h3.054l.638-.363c-.293-.034-.587-.05-.88-.083zm7.018.152c-.187.099-.376.214-.564.296-.566.246-1.148.312-1.663.312-.547 0-1.404-.034-2.278-.641-1.216-.822-1.747-2.235-1.747-3.467 0-2.546 2.159-3.794 3.923-3.794.617 0 1.251.147 1.765.46.856.541 1.078 1.248 1.198 1.626l-4.025 1.561-1.319.099c.428 2.086 1.9 3.3 3.529 3.3.873 0 1.507-.294 2.09-.573l-.909.82zm-1.61-4.896c.326-.115.497-.214.497-.444 0-.656-.77-1.413-1.696-1.413-.686 0-1.97.51-1.97 2.284 0 .28.034.575.052.872l3.118-1.3zm3.264-2.286v1.084h-.138V19.21h-.374v-.112h.885v.112h-.373zm1.54 1.084V19.2h-.006l-.348 1.094h-.107l-.351-1.094h-.005v1.094h-.124v-1.196h.213l.318.967h.004l.313-.967H93v1.196h-.123z"/>
        <path fill="#F9F9FA" fill-rule="nonzero" d="M42.403 11.895h-.859c0-.13-.081-.494-.244-1.094h-1.24c-.168.59-.252.955-.252 1.094H39c0-.076.209-.7.627-1.872.417-1.171.626-1.817.626-1.935h1.014c0 .11.19.747.568 1.908.378 1.16.568 1.793.568 1.899zm-1.24-1.653c-.306-1.005-.459-1.55-.459-1.631h-.043c0 .076-.158.62-.475 1.631h.977zm4.7 1.653H45.2c0-.08-.246-.502-.738-1.266-.515-.805-.808-1.356-.88-1.652h-.043c.045.426.068.812.068 1.158 0 .481.012 1.068.037 1.76h-.66c.027-.604.04-1.268.04-1.991 0-.712-.013-1.317-.04-1.816h.797c0 .103.22.516.663 1.237.47.766.74 1.285.81 1.558h.04c-.043-.434-.064-.824-.064-1.17 0-.527-.013-1.07-.038-1.625h.671c-.025.483-.037 1.089-.037 1.816 0 .732.012 1.396.037 1.99zm3.89-2.036c0 .554-.163 1.038-.489 1.45-.326.414-.782.62-1.369.62-.264 0-.63-.011-1.095-.035.024-.588.035-1.252.035-1.99 0-.71-.011-1.315-.035-1.817h.47c.077 0 .191-.003.344-.008.151-.006.25-.009.297-.009.646 0 1.114.176 1.405.526.291.351.436.772.436 1.263zm-.733.126c0-.374-.1-.69-.3-.946-.2-.256-.507-.384-.918-.384-.077 0-.183.008-.317.026.018.39.027.797.027 1.222 0 .466.009.928.026 1.386.115.026.232.038.349.038.385 0 .67-.13.855-.39.185-.26.278-.578.278-.952zm4.319 1.91h-.795c-.207-.69-.366-1.116-.477-1.278-.111-.162-.29-.243-.537-.243-.104 0-.203.001-.298.003 0 .501.008 1.007.025 1.518h-.746c.023-.59.035-1.253.035-1.991 0-.71-.012-1.315-.035-1.816h.464c.054 0 .166-.003.337-.009.17-.006.328-.009.473-.009.821 0 1.232.306 1.232.918 0 .486-.234.824-.703 1.015v.044c.18.054.34.208.475.46.136.253.319.715.55 1.388zm-1.006-2.69c0-.388-.23-.582-.687-.582-.168 0-.317.013-.446.04.02.303.03.696.03 1.182.098.004.181.005.25.005.568 0 .853-.215.853-.646zm4.852.716c0 .598-.168 1.094-.504 1.488-.337.394-.753.591-1.248.591-.472 0-.868-.18-1.186-.542-.319-.362-.478-.822-.478-1.379 0-.598.168-1.094.505-1.488.336-.394.752-.591 1.248-.591.472 0 .867.18 1.186.54.318.362.477.821.477 1.38zm-.74.085c0-.408-.096-.738-.287-.992-.192-.253-.428-.38-.709-.38-.26 0-.483.128-.665.383-.182.256-.274.578-.274.968 0 .405.096.735.288.99.193.254.428.382.708.382.26 0 .483-.129.665-.385.182-.256.274-.579.274-.966zm2.258 1.889h-.76c.023-.605.035-1.268.035-1.991 0-.712-.012-1.317-.035-1.816h.76c-.024.491-.035 1.096-.035 1.816 0 .734.011 1.398.035 1.99zm3.89-2.036c0 .554-.164 1.038-.49 1.45-.325.414-.781.62-1.368.62-.265 0-.63-.011-1.095-.035.023-.588.035-1.252.035-1.99 0-.71-.012-1.315-.035-1.817h.47c.077 0 .191-.003.343-.008.152-.006.252-.009.298-.009.646 0 1.114.176 1.405.526.29.351.436.772.436 1.263zm-.733.126c0-.374-.1-.69-.3-.946-.201-.256-.507-.384-.919-.384-.077 0-.182.008-.316.026.017.39.026.797.026 1.222 0 .466.01.928.027 1.386.115.026.232.038.349.038.384 0 .67-.13.854-.39.186-.26.279-.578.279-.952zm5.892 1.91h-.859c0-.13-.081-.494-.244-1.094h-1.24c-.168.59-.252.955-.252 1.094h-.808c0-.076.21-.7.627-1.872.417-1.171.626-1.817.626-1.935h1.015c0 .11.19.747.567 1.908.379 1.16.568 1.793.568 1.899zm-1.24-1.653c-.306-1.005-.459-1.55-.459-1.631h-.043c0 .076-.158.62-.474 1.631h.976zm4.37-1.158c0 .466-.159.81-.476 1.033-.318.222-.707.333-1.169.333-.084 0-.144-.002-.18-.006 0 .367.01.85.03 1.45h-.754c.023-.563.035-1.226.035-1.99 0-.702-.012-1.308-.035-1.816h.466c.067 0 .194-.003.381-.009.188-.006.35-.009.489-.009.34 0 .627.084.861.252.234.167.352.421.352.762zm-.692.161c0-.417-.254-.625-.762-.625-.127 0-.261.014-.403.043.02.369.03.786.03 1.252.045.004.097.006.155.006.653 0 .98-.225.98-.676zm3.91-.16c0 .465-.158.81-.475 1.032-.318.222-.708.333-1.17.333-.083 0-.143-.002-.18-.006 0 .367.01.85.03 1.45h-.754c.023-.563.035-1.226.035-1.99 0-.702-.012-1.308-.035-1.816h.467c.066 0 .193-.003.381-.009.188-.006.35-.009.488-.009.34 0 .627.084.862.252.234.167.352.421.352.762zm-.692.16c0-.417-.254-.625-.762-.625-.127 0-.261.014-.402.043.02.369.03.786.03 1.252.044.004.096.006.155.006.653 0 .98-.225.98-.676zm5.955.676c0 .598-.168 1.094-.505 1.488-.336.394-.752.591-1.248.591-.472 0-.867-.18-1.186-.542-.318-.362-.477-.822-.477-1.379 0-.598.168-1.094.504-1.488.337-.394.753-.591 1.248-.591.472 0 .868.18 1.186.54.318.362.478.821.478 1.38zm-.74.085c0-.408-.097-.738-.288-.992-.191-.253-.428-.38-.708-.38-.262 0-.483.128-.666.383-.182.256-.274.578-.274.968 0 .405.097.735.289.99.192.254.428.382.707.382.261 0 .483-.129.665-.385.183-.256.274-.579.274-.966zM83 11.895h-.663c0-.08-.246-.502-.738-1.266-.515-.805-.808-1.356-.88-1.652h-.043c.045.426.068.812.068 1.158 0 .481.012 1.068.037 1.76h-.66c.026-.604.04-1.268.04-1.991 0-.712-.013-1.317-.04-1.816h.797c0 .103.22.516.662 1.237.471.766.741 1.285.81 1.558h.041c-.043-.434-.064-.824-.064-1.17 0-.527-.013-1.07-.038-1.625H83c-.025.483-.037 1.089-.037 1.816 0 .732.012 1.396.037 1.99z"/>
    </g>
</svg>
