<svg xmlns="http://www.w3.org/2000/svg" width="18" height="18" viewBox="0 0 18 18">
    <g fill="none" fill-rule="evenodd">
        <g>
            <g>
                <g>
                    <g>
                        <path fill="#03C" fill-rule="nonzero" d="M8.115 9l4.293 4.293c.26.251.364.623.273.973-.092.35-.365.622-.715.714-.35.091-.721-.013-.972-.273L5.287 9l5.707-5.707c.25-.26.623-.364.972-.273.35.092.623.365.715.714.091.35-.013.722-.273.973L8.115 9z" transform="translate(-320 -332) translate(24 175) translate(296 157) rotate(-90 9 9)"/>
                        <path d="M0 0H18V18H0z" transform="translate(-320 -332) translate(24 175) translate(296 157)"/>
                    </g>
                </g>
            </g>
        </g>
    </g>
</svg>
