<svg xmlns="http://www.w3.org/2000/svg" width="48" height="48" viewBox="0 0 48 48">
    <g fill="none">
        <path stroke="#03C" stroke-width="2" d="M20 1c-5.247 0-9.997 2.127-13.435 5.565C3.127 10.003 1 14.753 1 20s2.127 9.997 5.565 13.435C10.003 36.873 14.753 39 20 39s9.997-2.127 13.435-5.565C36.873 29.997 39 25.247 39 20s-2.127-9.997-5.565-13.435C29.997 3.127 25.247 1 20 1z" transform="translate(4 4)"/>
        <path fill="#03C" d="M26.672 22.485c-.963.002-1.92-.15-2.835-.451-.437-.14-.916-.04-1.26.266l-1.787 1.353c-1.923-.96-3.48-2.52-4.436-4.444l1.306-1.74c.34-.34.463-.842.317-1.3-.302-.916-.455-1.875-.454-2.839 0-.705-.57-1.276-1.276-1.277H13.33c-.704.001-1.274.571-1.276 1.275.01 8.07 6.549 14.61 14.619 14.619.703-.001 1.273-.571 1.274-1.275v-2.911c0-.704-.57-1.275-1.274-1.276z" transform="translate(4 4)"/>
    </g>
</svg>
