<svg xmlns="http://www.w3.org/2000/svg" width="98" height="20" viewBox="0 0 98 20">
    <g fill="none">
        <g fill="#010101">
            <path d="M10 9.827c-1.117 1.082-2.622 1.67-4.177 1.632C1.74 11.46.016 8.65 0 5.792-.016 2.935 1.853 0 5.823 0 7.338 0 8.79.604 9.857 1.68L8.476 3.014c-.715-.68-1.667-1.052-2.653-1.036-2.654 0-3.798 1.977-3.782 3.814.016 1.837 1.067 3.722 3.782 3.722 1.03-.007 2.017-.406 2.763-1.116L10 9.827zM14.645.22L14.645 9.294 20.296 9.294 20.296 11.208 12.576 11.208 12.576.22zM23.343 11.208L23.343.22 25.4.22 25.4 11.208zM36.137.204L38.208.204 38.208 11.208 36.921 11.208 36.921 11.224 31.147 3.798 31.147 11.208 29.074 11.208 29.074.22 30.751.22 36.137 7.033zM41.694 11.208L41.694.22 43.751.22 43.751 11.208zM56.09.28L51.206 5.541 56.498 11.082 56.498 11.208 53.939 11.208 49.339 6.341 49.339 11.208 47.269 11.208 47.269.22 49.341.22 49.341 4.865 53.514.22 56.09.22zM67.943.28L63.059 5.541 68.351 11.082 68.351 11.208 65.792 11.208 61.192 6.341 61.192 11.208 59.121 11.208 59.121.22 61.192.22 61.192 4.865 65.367.22 67.943.22zM70.57 1.096c.011.41-.227.787-.603.952-.376.165-.814.085-1.109-.201-.294-.287-.385-.723-.23-1.103s.525-.628.935-.628c.264-.005.52.095.708.28.19.184.297.436.298.7zm-1.766 0c-.006.206.072.406.216.554.145.148.343.23.55.23.416-.022.743-.366.743-.783 0-.417-.327-.761-.744-.783-.206 0-.403.082-.547.23-.144.147-.223.346-.218.552zm.612.514h-.226V.63c.124-.022.25-.032.377-.03.119-.009.237.016.341.071.062.055.097.134.094.217-.008.113-.092.206-.204.226v.013c.1.04.168.132.18.238.008.086.032.169.071.245h-.245c-.043-.077-.072-.161-.086-.249-.018-.108-.077-.155-.204-.155h-.108l.01.404zm0-.555h.098c.127 0 .227-.04.227-.143 0-.102-.065-.149-.204-.149-.042-.004-.085-.004-.127 0l.006.292z" transform="translate(26.496 4)"/>
        </g>
        <g>
            <path fill="#27A84A" d="M19.666 2.396c.001.97-.583 1.845-1.48 2.217-.895.372-1.927.167-2.613-.52-.686-.686-.892-1.717-.52-2.614C15.425.583 16.3 0 17.27 0c1.323.001 2.395 1.073 2.396 2.396" transform="translate(.669)"/>
            <path fill="#F33" d="M16.815 6.755c-.718-.04-1.428-.014-2.157-.02-.158.003-.316-.01-.471-.037-.749-.142-1.281-.81-1.251-1.571V3.16c0-1.312-.715-2.508-1.941-2.926-.758-.209-1.557-.212-2.317-.01C7.497.7 6.72 1.842 6.713 3.115v1.966c.023 2.406 1.02 4.285 3 5.669.288.228.535.505.73.816.592.82.917 1.802.931 2.813 0 .747.013 1.496 0 2.244-.006.854-.703 1.54-1.556 1.534-.853-.006-1.54-.703-1.533-1.556v-2.04c.011-.834-.313-1.637-.9-2.23-.586-.591-1.385-.923-2.219-.92h-2c-.824.042-1.536-.57-1.62-1.39C1.46 9.2 2.033 8.458 2.85 8.33c.443-.033.888-.041 1.332-.025h.995v-1.56h-.35c-.653 0-1.306-.024-1.957.013C1.464 6.86.3 7.893.036 9.278c-.028.286-.04.573-.035.86.142 1.59 1.466 2.81 3.061 2.823h2.106c.823 0 1.5.648 1.537 1.47.022.577 0 1.157 0 1.734-.01.287.001.574.033.86.223 1.551 1.566 2.694 3.134 2.665 1.567-.03 2.868-1.22 3.033-2.78.06-.612.014-1.224.024-1.824.021-.508-.002-1.017-.069-1.52-.251-1.77-1.208-3.361-2.653-4.413-.228-.161-.44-.345-.63-.549-.757-.825-1.21-1.883-1.286-3-.055-.857-.037-1.718 0-2.577.026-.456.253-.876.62-1.147.368-.271.837-.365 1.28-.256.722.171 1.222.83 1.191 1.572v1.998c0 1.69 1.353 3.07 3.043 3.104.715.014 1.429 0 2.141 0 .848.006 1.537.688 1.551 1.537.01.843-.661 1.536-1.504 1.555-.624.016-1.25.01-1.877 0h-.251v1.565H16.468c.21.004.42-.012.627-.049 1.535-.273 2.63-1.643 2.558-3.2-.072-1.559-1.288-2.822-2.842-2.953" transform="translate(.669)"/>
        </g>
    </g>
</svg>
