<svg xmlns="http://www.w3.org/2000/svg" width="18" height="18" viewBox="0 0 18 18">
    <g fill="#03C">
        <path d="M13.347 2.67L11.157.405c-.283-.225-.637-.345-1-.339h-8.77c-.755 0-1.37.485-1.37 1.08v13.685c0 .595.615 1.082 1.37 1.082h10.965c.755 0 1.37-.487 1.37-1.082V3.41c-.007-.291-.145-.563-.375-.742zm-2.86-1.44l2.058 2.124h-2.044c-.01-.012-.016-.027-.015-.042V1.229zm2.182 13.532c-.093.065-.204.097-.317.093H1.387c-.113.004-.224-.028-.318-.093V1.208c.094-.063.205-.095.318-.09h8.047v2.198c-.01.591.461 1.079 1.052 1.09h2.183v10.356z" transform="translate(2 1)"/>
        <path d="M7.827 11.274h-4.67c-.246-.055-.422-.274-.422-.527s.176-.472.423-.526h4.67c.246.054.422.273.422.526s-.176.472-.423.527zM8.97 9.293H3.159c-.26-.033-.446-.266-.421-.527-.025-.26.161-.493.42-.526h5.814c.259.033.445.266.42.526.025.26-.161.494-.42.527zM8.97 7.312H3.159c-.26-.033-.446-.266-.421-.527-.025-.26.161-.493.42-.526h5.814c.259.033.445.266.42.526.025.26-.161.494-.42.527z" transform="translate(2 1)"/>
    </g>
</svg>
