<svg xmlns="http://www.w3.org/2000/svg" width="86" height="77" viewBox="0 0 86 77">
    <g fill="none" fill-rule="evenodd">
        <g>
            <g>
                <g>
                    <g>
                        <g fill-rule="nonzero">
                            <g>
                                <path fill="#1DDF47" d="M11.945 28.039l-10.811.16c-.636.01-1.143.54-1.134 1.182l.158 10.92c.01.64.533 1.152 1.167 1.142l10.808-.162c.305-.003.597-.129.81-.35.214-.22.332-.518.327-.826l-.16-10.92c-.012-.64-.531-1.152-1.165-1.146z" transform="translate(-238 -529) matrix(-1 0 0 1 324 529) translate(0 .605) translate(35.888 34.23) matrix(-1 0 0 1 46.473 .141)"/>
                                <path fill="#FDFEFD" d="M10.835 34.604c.006.861-.314 1.692-.896 2.321-.462.51-1.037.902-1.677 1.146-.752.308-1.57.415-2.375.308-.124-.02-.251 0-.376-.033-.24-.003-.475.072-.67.213-.29.175-.604.303-.933.38-.05 0-.117.04-.151 0-.033-.041.02-.112.057-.156.111-.125.213-.257.305-.397.192-.305.161-.478-.14-.657-.37-.205-.703-.47-.987-.783-.352-.388-.613-.851-.761-1.356-.173-.585-.173-1.208 0-1.793.13-.42.343-.809.627-1.142.425-.516.967-.922 1.58-1.183.422-.2.877-.322 1.342-.36.234-.037.47-.063.708-.077.85.006 1.685.22 2.435.624.67.363 1.219.917 1.58 1.593.199.423.312.883.332 1.352z" transform="translate(-238 -529) matrix(-1 0 0 1 324 529) translate(0 .605) translate(35.888 34.23) matrix(-1 0 0 1 46.473 .141)"/>
                                <path fill="#24A834" d="M30.156 14.028l-10.952.044c-.643.005-1.162.533-1.164 1.183l.047 11.066c.004.65.527 1.176 1.17 1.176l10.953-.048c.644-.004 1.164-.532 1.164-1.183l-.05-11.065c-.001-.312-.125-.611-.344-.831-.219-.22-.515-.343-.824-.342zm-4.32 11.588c-.929.106-1.869-.038-2.724-.417-.347-.15-.738-.158-1.09-.02-.732.267-1.486.48-2.348.755.144-.447.231-.759.335-1.06.442-.962.476-2.064.094-3.05-1.127-3.01 1.04-6.081 3.77-6.749 1.938-.544 4.014.062 5.367 1.565 1.353 1.504 1.753 3.65 1.033 5.547-.72 1.898-2.436 3.224-4.437 3.429z" transform="translate(-238 -529) matrix(-1 0 0 1 324 529) translate(0 .605) translate(35.888 34.23) matrix(-1 0 0 1 46.473 .141)"/>
                                <path fill="#F4FAF5" d="M30.445 19.227c-.294-1.448-1.16-2.712-2.398-3.5-1.238-.787-2.74-1.03-4.16-.672-2.73.678-4.898 3.728-3.77 6.748.38.987.347 2.089-.095 3.05-.117.302-.204.613-.335 1.06.862-.274 1.617-.487 2.348-.755.352-.138.744-.13 1.09.02.856.38 1.796.524 2.724.417 1.464-.189 2.786-.979 3.655-2.184.87-1.205 1.21-2.718.94-4.184zm-1.47 3.504c-1.194 1.854-3.544 2.557-5.544 1.658-.492-.27-1.08-.292-1.59-.058-.25.158-.555.197-.836.109.054-.106.104-.19.141-.278.269-.661.423-1.23.02-1.99-1.006-1.905-.335-4.284 1.386-5.548 1.769-1.296 4.202-1.128 5.78.4 1.55 1.495 1.821 3.897.643 5.707z" transform="translate(-238 -529) matrix(-1 0 0 1 324 529) translate(0 .605) translate(35.888 34.23) matrix(-1 0 0 1 46.473 .141)"/>
                                <path fill="#24A834" d="M28.321 17.024c-1.577-1.528-4.01-1.696-5.78-.4-1.734 1.264-2.398 3.643-1.385 5.548.403.76.249 1.329-.02 1.99-.037.088-.087.172-.14.278.28.088.585.049.835-.109.51-.234 1.098-.212 1.59.058 1.978.89 4.305.215 5.514-1.601 1.209-1.817.95-4.249-.614-5.764zm-.426 4.863c-.094.492-.63.885-1.341.899-.69-.109-1.346-.368-1.926-.76-.803-.554-1.45-1.311-1.875-2.196-.327-.57-.245-1.289.201-1.769.39-.41.815-.339 1.033.163.218.501.621 1.016 0 1.532-.16.135 0 .301.098.427.282.421.648.78 1.073 1.054.456.295.862.454 1.2-.14.043-.095.126-.165.226-.19.1-.025.207-.002.288.062.077.028.151.063.222.105.318.234.929.163.801.813z" transform="translate(-238 -529) matrix(-1 0 0 1 324 529) translate(0 .605) translate(35.888 34.23) matrix(-1 0 0 1 46.473 .141)"/>
                                <path fill="#F4FAF5" d="M26.567 22.786c-.688-.107-1.345-.364-1.926-.753-.802-.557-1.448-1.315-1.875-2.2-.325-.568-.244-1.284.198-1.765.39-.414.819-.36 1.037.16.218.518.62 1.016 0 1.531-.161.136 0 .302.097.427.283.423.65.781 1.077 1.054.456.295.859.458 1.197-.142.043-.095.127-.165.227-.19.1-.024.206 0 .287.064.076.028.149.063.218.105.302.23.912.16.785.814-.088.495-.621.881-1.322.895z" transform="translate(-238 -529) matrix(-1 0 0 1 324 529) translate(0 .605) translate(35.888 34.23) matrix(-1 0 0 1 46.473 .141)"/>
                                <path fill="#4B68B2" d="M43.97 14.113H33.11c-.305 0-.599.123-.814.341-.216.219-.337.516-.336.824v10.968c-.002.31.119.606.335.825.216.22.51.342.815.34H43.97c.306.002.6-.12.816-.34.217-.218.338-.516.337-.825V15.278c0-.643-.516-1.165-1.153-1.165zm-4.344 4.467c.127.19.486.064.744.064 1.097 0 1.097 0 .99 1.108-.138 1.356-.138 1.376-1.426 1.356-.45 0-.52.17-.513.566.017 1.695 0 3.355 0 5.033 0 .417-.1.59-.527.549-.61-.064-1.402.258-1.788-.139-.385-.397-.08-1.16-.1-1.762v-1.21-2.546c0-.369-.097-.501-.477-.488-.825.034-.781.136-.781-.82v-.603c0-.936 0-.946.93-1.047.224-.028.334-.095.334-.34v-.972c-.013-.616.217-1.213.639-1.658.422-.445 1.002-.702 1.612-.714.594-.038 1.201 0 1.795 0 .292 0 .406.101.379.386v.37c0 .42.127.945-.07 1.24-.198.295-.782.091-1.191.129-.272.023-.55.054-.604.376-.06.383-.158.806.054 1.122z" transform="translate(-238 -529) matrix(-1 0 0 1 324 529) translate(0 .605) translate(35.888 34.23) matrix(-1 0 0 1 46.473 .141)"/>
                                <path fill="#FFF" d="M39.626 18.58c.127.19.486.064.744.064 1.097 0 1.097 0 .99 1.108-.138 1.356-.138 1.376-1.426 1.356-.45 0-.52.17-.513.566.017 1.695 0 3.355 0 5.033 0 .417-.1.59-.527.549-.61-.064-1.402.258-1.788-.139-.385-.397-.08-1.16-.1-1.762v-1.21-2.546c0-.369-.097-.501-.477-.488-.825.034-.781.136-.781-.82v-.603c0-.936 0-.946.93-1.047.224-.028.334-.095.334-.34v-.972c-.013-.616.217-1.213.639-1.658.422-.445 1.002-.702 1.612-.714.594-.038 1.201 0 1.795 0 .292 0 .406.101.379.386v.37c0 .42.127.945-.07 1.24-.198.295-.782.091-1.191.129-.272.023-.55.054-.604.376-.06.383-.158.806.054 1.122z" transform="translate(-238 -529) matrix(-1 0 0 1 324 529) translate(0 .605) translate(35.888 34.23) matrix(-1 0 0 1 46.473 .141)"/>
                                <path fill="#2EB0E2" d="M37.935.512L27.181.47c-.303 0-.593.12-.808.335-.214.216-.335.508-.336.814l-.04 10.866c-.002.637.506 1.155 1.137 1.159l10.754.04c.304.002.596-.118.812-.334.216-.217.338-.51.339-.818l.04-10.866c0-.306-.12-.6-.334-.818-.215-.217-.506-.338-.81-.337z" transform="translate(-238 -529) matrix(-1 0 0 1 324 529) translate(0 .605) translate(35.888 34.23) matrix(-1 0 0 1 46.473 .141)"/>
                                <path fill="#FFF" d="M38.07 4.311c-.816.498-.826 1.329-.974 2.156-.956 5.378-6.584 6.947-10.294 4.575 1.21.137 2.427-.194 3.404-.929-.604-.062-1.17-.332-1.6-.766-.194-.223-.49-.447-.402-.755.064-.238.433 0 .67-.2-.448-.205-.845-.51-1.16-.892-.293-.39-.456-.865-.466-1.355.285.044.53.08.778.125l.054-.054c-.765-.875-1.117-1.82-.47-3.05.245.264.433.511.671.718.997.915 2.236 1.518 3.566 1.735.432.075.62.037.62-.508-.004-.848.446-1.63 1.177-2.047.73-.416 1.627-.399 2.342.044.457.339 1.066.384 1.567.115.124-.054.36-.115.395-.085-.057.454-.429.695-.72 1.017.392.092.67-.176 1.046-.146-.037.128-.118.255-.205.302z" transform="translate(-238 -529) matrix(-1 0 0 1 324 529) translate(0 .605) translate(35.888 34.23) matrix(-1 0 0 1 46.473 .141)"/>
                                <path fill="#007BFE" d="M33.474 29.306h.939c0 .028.037.02.057.02 1.208.097 2.357.57 3.287 1.356.997.806 1.66 1.96 1.855 3.234.005.115.024.229.057.339v.85c-.03 0-.02.038-.023.058-.12 1.302-.737 2.506-1.721 3.355-1.6 1.407-3.458 1.797-5.508 1.322-.074-.023-.155-.013-.221.027-.577.34-1.158.644-1.738.966-.107.058-.107.058-.107-.06v-1.838c.007-.067-.025-.133-.08-.17-.201-.15-.389-.318-.561-.5-1.053-1.047-1.592-2.51-1.473-3.997.078-1.14.544-2.218 1.319-3.05.917-1.022 2.164-1.682 3.518-1.86.135-.004.269-.021.4-.052zm-3.214 7.155c.057 0 .094-.027.134-.05.859-.473 1.714-.945 2.566-1.417.026-.021.058-.03.09-.025.032.005.06.024.078.052.436.474.876.945 1.312 1.416.053.058.08.075.14 0l2.919-3.135c.02-.017.054-.034.037-.074-.017-.04-.084.03-.121.05l-2.492 1.397c-.025.02-.057.03-.089.024-.031-.005-.059-.024-.076-.051-.446-.475-.899-.946-1.341-1.42-.054-.058-.08-.075-.145 0-1.001 1.08-2.006 2.158-3.012 3.233zm8.993-8.327l-10.808.162c-.308.001-.603.127-.818.35-.216.222-.334.522-.329.833l.158 10.92c.004.312.132.608.355.824.222.215.52.331.829.322l10.811-.163c.305-.002.596-.128.808-.348.213-.22.33-.517.326-.824l-.161-10.924c-.005-.31-.13-.604-.35-.82-.22-.215-.515-.333-.82-.329v-.003z" transform="translate(-238 -529) matrix(-1 0 0 1 324 529) translate(0 .605) translate(35.888 34.23) matrix(-1 0 0 1 46.473 .141)"/>
                                <path fill="#FFF" d="M33.474 29.306h.939c0 .028.037.02.057.02 1.208.097 2.357.57 3.287 1.356.997.806 1.66 1.96 1.855 3.234.005.115.024.229.057.339v.85c-.03 0-.02.038-.023.058-.12 1.302-.737 2.506-1.721 3.355-1.6 1.407-3.458 1.797-5.508 1.322-.074-.023-.155-.013-.221.027-.577.34-1.158.644-1.738.966-.107.058-.107.058-.107-.06v-1.838c.007-.067-.025-.133-.08-.17-.201-.15-.389-.318-.561-.5-1.053-1.047-1.592-2.51-1.473-3.997.078-1.14.544-2.218 1.319-3.05.917-1.022 2.164-1.682 3.518-1.86.135-.004.269-.021.4-.052zm-3.214 7.155c.057 0 .094-.027.134-.05.859-.473 1.714-.945 2.566-1.417.026-.021.058-.03.09-.025.032.005.06.024.078.052.436.474.876.945 1.312 1.416.053.058.08.075.14 0l2.919-3.135c.02-.017.054-.034.037-.074-.017-.04-.084.03-.121.05l-2.492 1.397c-.025.02-.057.03-.089.024-.031-.005-.059-.024-.076-.051-.446-.475-.899-.946-1.341-1.42-.054-.058-.08-.075-.145 0-1.001 1.08-2.006 2.158-3.012 3.233z" transform="translate(-238 -529) matrix(-1 0 0 1 324 529) translate(0 .605) translate(35.888 34.23) matrix(-1 0 0 1 46.473 .141)"/>
                                <path fill="#0378B8" d="M25.732 28.076H14.857c-.307 0-.602.122-.82.34-.217.219-.34.516-.34.826v10.991c.001.647.52 1.17 1.16 1.17h10.875c.306 0 .6-.124.817-.343.216-.22.337-.517.337-.827v-10.99c0-.31-.12-.607-.337-.826-.217-.22-.511-.342-.817-.34z" transform="translate(-238 -529) matrix(-1 0 0 1 324 529) translate(0 .605) translate(35.888 34.23) matrix(-1 0 0 1 46.473 .141)"/>
                                <path fill="#FFF" d="M16.947 29.615c.563.029 1.005.498 1.006 1.067-.006.276-.12.539-.318.73-.198.19-.462.294-.735.287-.565.004-1.03-.446-1.05-1.017.002-.289.12-.565.326-.766.207-.2.484-.31.77-.301zM17.46 38.63c-.51-.057-1.178.214-1.5-.108-.322-.322-.084-1.017-.1-1.522-.02-.46 0-.925 0-1.393 0-.827.016-1.657 0-2.48 0-.408.124-.51.516-.51 1.604 0 1.604-.023 1.604 1.577v3.88c0 .397-.074.607-.52.556zM24.581 38.613c-.463 0-.922.017-1.382 0-.278 0-.174-.27-.178-.434v-2.372c.001-.283-.024-.565-.073-.844-.028-.492-.439-.871-.926-.854-.504-.06-.966.288-1.054.793-.154.624-.06 1.247-.08 1.874v.678c-.03.376.184.912-.094 1.095-.379.25-.933.064-1.405.078-.242 0-.225-.183-.225-.34v-5.283c0-.25.077-.38.335-.36.224.017.448.017.671 0 .48-.05.829.018.634.71.862-.852 1.811-.824 2.767-.577.755.2 1.09.81 1.168 1.539.14 1.332.043 2.674.06 4.006-.02.125-.013.288-.218.291z" transform="translate(-238 -529) matrix(-1 0 0 1 324 529) translate(0 .605) translate(35.888 34.23) matrix(-1 0 0 1 46.473 .141)"/>
                            </g>
                        </g>
                        <g fill-rule="nonzero">
                            <path fill="#FEB574" d="M3.219 71.307c-.032.17-.158.85-.421 2.207-.11.585-.153.75-.037.904.242.319.947.308 1.379 0 .128-.1.234-.228.31-.373.458-.834-.179-1.446-.052-2.908.042-.495.147-.84-.058-1.021-.216-.149-.5-.149-.716 0-.258.17-.268.446-.405 1.19z" transform="translate(-238 -529) matrix(-1 0 0 1 324 529) translate(0 .605) translate(6.317 .061)"/>
                            <path fill="#381B0B" d="M2.524 73.753c-.213.406-.213.892 0 1.298.088.213.234.397.421.531.437.298.953.128 1.579.038l2.074.037c2.179.042 2.879.074 3-.245.04-.14.01-.29-.08-.404-.2-.26-.657-.186-.92-.186-.527 0-.463-.128-2.632-.867-.527-.21-1.074-.366-1.631-.468-.722-.069-1.48-.175-1.811.266z" transform="translate(-238 -529) matrix(-1 0 0 1 324 529) translate(0 .605) translate(6.317 .061)"/>
                            <path fill="#FFAA7A" d="M9.15 10.657c.588.197 1.08.614 1.374 1.165.073.398.115.802.126 1.207.031.363-.079.458-.062.684.036.507.324.905.474 1.104.036.048.137.22.09.316-.048.095-.245.084-.307.084l-.217-.003c-.147.075.103.336.176 1.065.074.729-.018.706-.133.903-.116.196-.873.452-1.136.5-.302.059-.61.072-.916.037-.504.023-1.002-.106-1.432-.372-.931-.596-2.631-2.436-2.163-4.637.074-.367.358-1.718 1.505-2.26 1.032-.506 2.1-.027 2.621.207z" transform="translate(-238 -529) matrix(-1 0 0 1 324 529) translate(0 .605) translate(6.317 .061)"/>
                            <path fill="#FEB574" d="M7.477 71.307c-.032.17-.158.85-.421 2.207-.11.585-.153.75-.037.904.242.319.947.308 1.379 0 .128-.1.234-.228.31-.373.458-.834-.179-1.446-.058-2.908.042-.495.153-.84-.052-1.021-.216-.149-.5-.149-.716 0-.258.17-.268.446-.405 1.19z" transform="translate(-238 -529) matrix(-1 0 0 1 324 529) translate(0 .605) translate(6.317 .061)"/>
                            <path fill="#4E270F" d="M6.782 73.753c-.255.394-.255.903 0 1.298.256.332.637.542 1.053.58.306.053.62.053.926 0 .691-.03 1.384-.017 2.074.036 1.879.096 2.631.394 2.92 0 .12-.193.12-.439 0-.632-.173-.24-.578-.187-.92-.187-.527 0-.469-.127-2.632-.866-.528-.21-1.074-.366-1.632-.468-.7-.096-1.457-.202-1.79.239z" transform="translate(-238 -529) matrix(-1 0 0 1 324 529) translate(0 .605) translate(6.317 .061)"/>
                            <path fill="#1F1F1F" d="M1.792 34.757c-.636.803-.689 2.399-.784 5.59-.046 2.112.037 4.225.248 6.328.1 1.116.2 1.914.242 2.297.426 3.51.352 5.041.773 11.795.264 4.132.658 9.428.106 10.593-.042.096-.306.612-.106.856.116.144.342.117.658.106.262-.005.524.006.784.032.874.101.922.08 1.053.043.821-.234.658-3.265.637-3.621-.116-2.223.121-4.452 0-6.674-.526-9.259.653-13.343.721-16.4 0-.144 0-.617.11-.633.111-.016.248.478.29.632.289 1.024.345 2.1.163 3.149-.131.622-.073 3.876.048 10.385.12 6.727.768 10.934.147 12.412-.124.227-.141.498-.047.74.326.6 1.968.6 2.347-.049.097-.2.114-.43.047-.643-.3-1.16.374-4.786 1.274-11.965.605-4.829 1.053-8.509 1.321-13.252 0 0 .126-2.319-.737-8.902-.205-1.596-.358-2.43-1.052-3.19-1.843-2.027-6.453-1.873-8.243.371z" transform="translate(-238 -529) matrix(-1 0 0 1 324 529) translate(0 .605) translate(6.317 .061)"/>
                            <path fill="#03C" fill-opacity=".7" d="M20.571 19.586c.586-1.64 1.504-3.138 2.695-4.398 1.199-1.28 2.75-2.165 4.453-2.542 1.719-.316 3.493-.056 5.053.739 1.557.78 2.925 1.899 4.005 3.276 1.133 1.364 1.862 3.022 2.105 4.786.109.894-.041 1.8-.431 2.61-.414.79-.992 1.48-1.695 2.022-1.393 1.09-3.07 1.744-4.827 1.882-.902.095-1.812-.063-2.631-.457-.794-.445-1.415-1.148-1.763-1.994-.667-1.645-.941-3.425-.8-5.196.082-1.76.45-3.493 1.09-5.132.61-1.681 1.666-3.162 3.052-4.28.369-.257.76-.48 1.168-.665.2-.1.41-.178.627-.234.212-.072.428-.13.647-.176.437-.082.881-.124 1.326-.127.438-.01.876.01 1.31.058 1.743.202 3.39.692 5.07.973 1.66.338 3.369.37 5.041.096.416-.074.821-.207 1.227-.308.405-.101.79-.309 1.184-.463.786-.338 1.524-.999 2.21-1.512 1.375-1.024 2.565-2.053 3.506-3.492l.042.027c-.896 1.49-2.05 2.58-3.4 3.667-.684.54-1.425 1.226-2.216 1.587-.4.164-.795.361-1.205.494-.41.133-.832.255-1.258.346-1.713.314-3.467.314-5.18 0-1.71-.255-3.378-.708-5.052-.867-.415-.051-.834-.07-1.252-.059-.412.002-.822.041-1.227.117-.201.042-.4.097-.595.165-.198.047-.39.116-.573.208-.37.17-.722.375-1.053.611-1.308 1.056-2.306 2.454-2.884 4.042-.633 1.582-1.006 3.258-1.105 4.961-.152 1.697.093 3.405.715 4.988.305.772.862 1.414 1.58 1.82.743.357 1.569.504 2.389.425 1.685-.128 3.295-.753 4.632-1.798.67-.502 1.222-1.149 1.615-1.893.374-.753.52-1.6.421-2.436-.228-1.699-.923-3.3-2.005-4.62-1.044-1.375-2.38-2.495-3.91-3.277-1.526-.788-3.265-1.053-4.953-.755-1.675.356-3.206 1.212-4.395 2.457-1.196 1.241-2.123 2.721-2.72 4.345l-.033-.021z" transform="translate(-238 -529) matrix(-1 0 0 1 324 529) translate(0 .605) translate(6.317 .061)"/>
                            <path fill="#D5E9F0" stroke="#48646D" d="M16.203 20.426l.805-1.133c.204-.31.594-.435.937-.298.569.26 4.074.968 4.074.968s.731.128.274.851c-.458.723-2.632 3.951-2.632 3.951l-.363.186-4.474-1.446s-.716-.186-.184-.894c.531-.707 1.563-2.185 1.563-2.185z" transform="translate(-238 -529) matrix(-1 0 0 1 324 529) translate(0 .605) translate(6.317 .061)"/>
                            <path fill="#E8956B" d="M8.724 19.463c.579-.18 1.542.793 1.984 1.67.135.303.246.616.332.936.72 2.207.81 2.515 1.052 2.558.243.042.616-.452 1.343-1.447.384-.531 1.173-1.648 1.173-1.648.199-.327.44-.625.716-.888.447-.394 1.174-.803 1.453-.58.077.072.116.177.105.282 0 .266-.421.277-.784.649-.363.372-.463.77-.369.85.095.08.316-.143.458-.037.061.057.089.141.074.224-.037.266-.5.393-.716.484-.6.239-.831.776-1.284 1.5-.958 1.526-1.542 2.45-2.295 2.658-1.226.325-2.947-1.25-3.616-2.93-.715-1.797-.379-4.052.374-4.28z" transform="translate(-238 -529) matrix(-1 0 0 1 324 529) translate(0 .605) translate(6.317 .061)"/>
                            <path fill="#335CD6" d="M2.335 22.548c-.916.877-.1 1.69-.564 5.19-.376 2.076-.632 4.173-.768 6.28-.032.707-.058 1.74.563 2.127.526.314 1.158 0 1.742-.149 3.363-.973 6.08 1.649 7.58.346.259-.278.451-.613.562-.978.648-1.51.316-2.66.106-5.143-.21-2.483.042-2.047-.153-2.866-.121-.532-.8-3.329-3.484-4.701-1.59-.819-4.3-1.34-5.584-.106z" transform="translate(-238 -529) matrix(-1 0 0 1 324 529) translate(0 .605) translate(6.317 .061)"/>
                            <path fill="#FFAA7A" d="M7.756 20.186c.76-.23 1.586-.063 2.2.447.342.338.562.782.626 1.26 0 0 .953 3.787 2.784 6.228.1.126.225.228.369.297.252.128.642.187 1.552-.159.554-.224 1.083-.505 1.58-.84.581-.305 1.102-.716 1.536-1.213.188-.286.352-.589.49-.904.647-1.297.857-1.967 1.052-1.925.195.043.18.287.19.479.01.191-.053.345 0 .361.052.016.19-.239.231-.308.228-.5.517-.97.858-1.399.132-.127.416-.414.574-.335.268.133 0 1.186-.132 1.697-.186.582-.452 1.135-.79 1.643-.3.457-.752 1.064-2.9 2.914-.441.383-1.052.899-1.883 1.51-1.311.958-1.837 1.165-2.4 1.112-.398-.056-.775-.21-1.1-.447-.948-.616-1.76-1.424-2.385-2.372-1.579-2.18-2.363-3.275-2.41-3.408-.518-1.5-.533-3.13-.042-4.638z" transform="translate(-238 -529) matrix(-1 0 0 1 324 529) translate(0 .605) translate(6.317 .061)"/>
                            <path fill="#000" d="M5.698 9.471c-.316.101-2.348.814-2.79 2.446-.31 1.138.427 1.729-.073 2.819-.248.531-.448.436-1.543 1.707C.198 17.713.13 18.144.12 18.293c-.053.745.468.9.59 1.782.126.962-.448 1.111-.664 2.372-.158.951.132 1.063.368 3.488.153 1.595.043 1.675.222 1.925 1.052 1.505 6.531.915 8.368-2.127 1.005-1.686.7-3.75.437-5.488-.474-3.19-1.842-4.53-1.053-5.85.674-1.1 2.169-1.095 2.421-2.371.081-.458.003-.93-.22-1.335-.722-1.452-3.143-1.798-4.89-1.218z" transform="translate(-238 -529) matrix(-1 0 0 1 324 529) translate(0 .605) translate(6.317 .061)"/>
                            <path fill="#446ADB" d="M53.898 8.673L59.103 0 45.119 5.43z" transform="translate(-238 -529) matrix(-1 0 0 1 324 529) translate(0 .605) translate(6.317 .061)"/>
                            <path fill="#03C" d="M49.345 10.12L50.603 7.461 59.103 0 48.414 6.635z" transform="translate(-238 -529) matrix(-1 0 0 1 324 529) translate(0 .605) translate(6.317 .061)"/>
                            <path fill="#193A9C" d="M49.345 10.12L52.03 7.987 50.603 7.461z" transform="translate(-238 -529) matrix(-1 0 0 1 324 529) translate(0 .605) translate(6.317 .061)"/>
                        </g>
                        <path stroke="#B2C1EF" d="M0.644 75.865L85.356 75.865" transform="translate(-238 -529) matrix(-1 0 0 1 324 529) translate(0 .605)"/>
                    </g>
                </g>
            </g>
        </g>
    </g>
</svg>
