<svg xmlns="http://www.w3.org/2000/svg" width="18" height="18" viewBox="0 0 18 18">
    <g fill="none" fill-rule="evenodd">
        <g fill="#03C" fill-rule="nonzero">
            <g>
                <g>
                    <path d="M13.987 2.229c.985.001 1.783.8 1.784 1.784v9.974c-.001.985-.8 1.783-1.784 1.784H4.013c-.985-.001-1.783-.8-1.784-1.784V4.013c.001-.985.8-1.783 1.784-1.784h9.974m0-1.229H4.013C2.35 1 1 2.35 1 4.013v9.974C1 15.65 2.35 17 4.013 17h9.974C15.65 17 17 15.65 17 13.987V4.013C17 2.35 15.65 1 13.987 1z" transform="translate(-40 -585) translate(40 583) translate(0 2)"/>
                    <g stroke="#03C" stroke-width=".3">
                        <path d="M6.708 5.792c-.443-.001-.863.187-1.152.516L3.538 5.069c.202-.468.194-.998-.022-1.46L5.63 2.482c.496.506 1.288.597 1.89.215.6-.38.842-1.127.574-1.778-.267-.651-.967-1.026-1.67-.892C5.72.16 5.213.764 5.213 1.466c0 .149.022.297.068.44L3.117 3.058c-.732-.688-1.894-.667-2.6.049-.705.715-.687 1.855.04 2.549.727.694 1.889.681 2.6-.029l2.078 1.273c-.034.126-.05.255-.05.385 0 .825.681 1.494 1.523 1.494.841 0 1.523-.669 1.523-1.494S7.55 5.792 6.708 5.792zm0-5.122c.448 0 .811.356.811.796 0 .44-.363.796-.811.796-.449 0-.812-.356-.812-.796 0-.44.364-.795.812-.796h0zM1.842 5.494C1.202 5.491.686 4.98.689 4.353c.003-.628.523-1.134 1.163-1.132.64.003 1.156.513 1.154 1.14-.004.628-.524 1.135-1.164 1.133zM6.708 8.11c-.464 0-.84-.37-.84-.824 0-.455.376-.824.84-.824.464 0 .84.369.84.824 0 .455-.376.824-.84.824h0z" transform="translate(-40 -585) translate(40 583) translate(0 2) translate(4.884 4.61)"/>
                    </g>
                </g>
            </g>
        </g>
    </g>
</svg>
