<svg xmlns="http://www.w3.org/2000/svg" width="48" height="48" viewBox="0 0 48 48">
    <g fill="none" fill-rule="evenodd">
        <rect width="19.466" height="19.466" x="18.809" y="18.234" fill="#E5EAF9" stroke="#03C" rx="3"/>
        <path fill="#03C" fill-rule="nonzero" d="M28.701 32.557c1.107 0 2.036-.09 2.787-.271.75-.18 1.352-.428 1.804-.742.452-.314.78-.668.982-1.062.202-.394.303-.804.303-1.23 0-.32-.055-.604-.167-.854-.112-.25-.264-.476-.455-.679.287-.245.53-.537.726-.878.197-.34.296-.724.296-1.15 0-.404-.099-.782-.296-1.133-.197-.352-.5-.636-.91-.855-.41-.218-.94-.327-1.589-.327-.755 0-1.373.173-1.852.52-.479.345-.718.837-.718 1.476 0 .437.109.812.327 1.126.218.314.524.583.918.806h-3.37v1.357h3.322c.437 0 .814-.02 1.134-.063.32-.043.601-.107.846-.192.128.16.192.367.192.623 0 .553-.338 1.027-1.014 1.42-.676.395-1.743.592-3.202.592-1.192 0-2.153-.157-2.882-.471-.73-.315-1.267-.722-1.613-1.222-.346-.5-.545-1.033-.598-1.597.202.107.423.192.662.256.24.064.503.096.79.096.927 0 1.63-.23 2.108-.687.48-.458.719-1.043.719-1.757 0-.691-.216-1.245-.647-1.66-.43-.415-1.014-.623-1.748-.623-.66 0-1.251.157-1.773.471-.521.314-.931.77-1.23 1.365-.297.597-.446 1.326-.446 2.188 0 1 .24 1.89.718 2.667.48.777 1.209 1.386 2.188 1.828.98.442 2.209.662 3.688.662zm3.928-5.572c-.49-.202-.867-.413-1.133-.63-.266-.22-.4-.488-.4-.807 0-.256.094-.469.28-.639.186-.17.45-.255.79-.255.415 0 .727.106.934.319.208.213.312.468.312.766 0 .277-.075.52-.224.727-.149.207-.335.38-.559.519zm-7.712-.176c-.245 0-.466-.037-.663-.112-.197-.074-.37-.165-.519-.271.107-.564.312-.998.615-1.301.304-.304.695-.455 1.174-.455.277 0 .505.085.686.255.181.17.272.415.272.734 0 .33-.125.605-.375.823-.25.218-.647.327-1.19.327z"/>
        <g stroke="#03C" transform="translate(9.225 9.8)">
            <rect width="19.466" height="19.466" x=".5" y=".5" fill="#FFF" rx="3"/>
            <path fill="#03C" fill-rule="nonzero" stroke-width=".2" d="M13.345 14.824V6.797h1.577V5.671h-4.154v1.126h1.225v3.338H9.698c-.29-.32-.666-.507-1.126-.564.413-.112.741-.328.985-.647.244-.32.366-.719.366-1.197 0-.639-.22-1.146-.661-1.521-.442-.376-1.066-.563-1.873-.563-.517 0-1 .089-1.45.267h0v1.253c.412-.225.877-.338 1.393-.338.817 0 1.225.352 1.225 1.057 0 .347-.12.62-.359.816-.239.197-.589.296-1.049.296h0-.45v1.183h.52c1.09 0 1.634.399 1.634 1.197 0 .488-.155.842-.465 1.063-.31.22-.68.33-1.112.33-.573 0-1.15-.15-1.732-.45h0v1.268c.544.225 1.136.338 1.774.338.91 0 1.615-.221 2.113-.662.497-.441.746-1.019.746-1.732 0-.113-.005-.197-.014-.254h1.83v3.549h1.352z"/>
        </g>
    </g>
</svg>
