<svg xmlns="http://www.w3.org/2000/svg" width="18" height="18" viewBox="0 0 18 18">
    <g fill="none" fill-rule="evenodd">
        <g fill="#03C" fill-rule="nonzero">
            <g>
                <g>
                    <g>
                        <path d="M12.987 1.229c.985.001 1.783.8 1.784 1.784v9.974c-.001.985-.8 1.783-1.784 1.784H3.013c-.985-.001-1.783-.8-1.784-1.784V3.013c.001-.985.8-1.783 1.784-1.784h9.974m0-1.229H3.013C1.35 0 0 1.35 0 3.013v9.974C0 14.65 1.35 16 3.013 16h9.974C14.65 16 16 14.65 16 12.987V3.013C16 1.35 14.65 0 12.987 0z" transform="translate(-31 -550) translate(31 548) translate(0 2) translate(1 1)"/>
                        <path d="M5.904 5.198c.088 0 .174.018.254.052l4.49 1.991c.236.12.383.353.383.606 0 .254-.147.486-.384.606l-4.494 2c-.08.035-.166.053-.254.053-.366-.018-.648-.312-.631-.659v-3.99c-.017-.347.265-.641.631-.66m0-1.197C4.833 4.018 3.983 4.849 4 5.856v3.991c-.017 1.008.833 1.838 1.899 1.857.272 0 .54-.057.786-.168l4.497-1.993c.682-.317 1.114-.972 1.114-1.69s-.432-1.373-1.114-1.69L6.69 4.168C6.444 4.058 6.176 4 5.904 4H5.9z" transform="translate(-31 -550) translate(31 548) translate(0 2) translate(1 1)"/>
                    </g>
                </g>
            </g>
        </g>
    </g>
</svg>
