<?xml version="1.0" encoding="UTF-8"?>
<svg width="51px" height="48px" viewBox="0 0 51 48" version="1.1" xmlns="http://www.w3.org/2000/svg" xmlns:xlink="http://www.w3.org/1999/xlink">
    <!-- Generator: Sketch 63.1 (92452) - https://sketch.com -->
    <title>Group 10</title>
    <desc>Created with Sketch.</desc>
    <defs>
        <linearGradient x1="50%" y1="-2.48949813e-15%" x2="50%" y2="100%" id="linearGradient-1">
            <stop stop-color="#FEB5B5" stop-opacity="0.6" offset="0%"></stop>
            <stop stop-color="#FFD07A" offset="100%"></stop>
        </linearGradient>
        <circle id="path-2" cx="23" cy="23" r="23"></circle>
        <linearGradient x1="49.7340409%" y1="1.60752141%" x2="49.7340409%" y2="101.232699%" id="linearGradient-4">
            <stop stop-color="#130027" offset="0%"></stop>
            <stop stop-color="#130017" offset="100%"></stop>
        </linearGradient>
        <linearGradient x1="50%" y1="1.44292164%" x2="50%" y2="100%" id="linearGradient-5">
            <stop stop-color="#C08355" offset="0%"></stop>
            <stop stop-color="#ED9F6A" offset="100%"></stop>
        </linearGradient>
    </defs>
    <g id="Page-1" stroke="none" stroke-width="1" fill="none" fill-rule="evenodd">
        <g id="Group-10">
            <g id="Avatar/AdultFemale" transform="translate(1.000000, 1.000000)">
                <g id="Adult-Female" transform="translate(23.000000, 23.000000) scale(-1, 1) translate(-23.000000, -23.000000) ">
                    <g id="Group-16-+-Combined-Shape-2-Mask">
                        <mask id="mask-3" fill="white">
                            <use xlink:href="#path-2"></use>
                        </mask>
                        <g id="Mask" fill-rule="nonzero">
                            <use fill="#FFFFFF" xlink:href="#path-2"></use>
                            <use fill="url(#linearGradient-1)" xlink:href="#path-2"></use>
                        </g>
                        <g id="Group-16" mask="url(#mask-3)">
                            <g transform="translate(6.900000, 5.673333)">
                                <path d="M27.2166667,18.7833333 C28.4602,14.6525333 29.2268667,7.59 23.9966667,2.76 C19.9992667,-0.930733333 10.051,-1.63913333 6.29433333,6.41086667 C5.67333333,7.75406667 5.67333333,10.1966667 7.36,10.12 C8.0224,10.0893333 8.43333333,12.19 8.81666667,13.4933333 C8.28,18.7833333 3.49906667,18.8814667 1.07333333,22.9233333 C-1.91666667,27.9066667 1.76333333,35.2666667 10.58,35.2666667 C19.3966667,35.2666667 24.4505333,27.968 27.2166667,18.7833333 Z" id="Combined-Shape" fill="url(#linearGradient-4)" fill-rule="nonzero"></path>
                                <path d="M30.2066667,30.8844 C30.9559556,32.3288 31.5181778,35.6806667 31.8933333,40.94 L0.306666667,40.94 C0.6808,35.6806667 1.24302222,32.3288 1.99333333,30.8844 C3.11777778,28.7193333 7.82,26.2445333 16.1,23.46 C24.38,26.2445333 29.0822222,28.7193333 30.2066667,30.8844 Z" id="Rectangle" fill="#FFE6B1" fill-rule="evenodd"></path>
                                <g id="Mask-6" stroke-width="1" fill="none" fill-rule="evenodd" transform="translate(6.593333, 6.900000)">
                                    <path d="M13.1866667,18.4 C13.2004667,19.9655333 11.4202667,21.8024667 9.43613333,21.8024667 C8.23553333,21.8024667 6.26673333,21.436 5.82666667,18.4 L5.82666667,15.0266667 C5.43931623,15.0873871 5.04700028,15.1104947 4.6552,15.0956667 C0.9752,15.0956667 -0.4048,9.7382 0.306666667,3.22 C0.374133333,3.22 2.26626667,-0.438533333 2.36593333,0.115 C2.71246667,2.03626667 6.78806667,4.9588 12.42,4.83 C16.1782,2.57446667 17.02,9.44993333 13.1866667,9.50666667 L13.1866667,18.4 Z" id="path-20-2" fill="url(#linearGradient-5)"></path>
                                </g>
                                <path d="M12.42,21.9266667 C14.4644444,21.5688889 16.2533333,20.8788889 17.7866667,19.8566667 C16.5099111,22.0544444 14.7210222,23.1533333 12.42,23.1533333 L12.42,21.9266667 Z" id="Path-2" fill="#A85832" fill-rule="nonzero" opacity="0.78"></path>
                            </g>
                        </g>
                        <path d="M11.6502667,39.56 C20.2553333,37.2692 24.2236,30.9733333 24.2236,30.9733333 C24.2236,30.9733333 28.4985333,32.7688667 29.2866667,33.2733333 C30.0533333,33.7333333 32.9666667,35.42 33.4266667,37.4133333 C33.7333333,38.7422222 34.04,39.9177778 34.3466667,40.94 L26.0666667,48.9133333 L13.6956163,47.4776642 L8.89026667,46.92 L7.58386667,43.8042667 C7.78933333,41.7588 9.1172,40.3266667 11.6502667,39.56 Z" id="Combined-Shape-2" fill="#F66A6A" mask="url(#mask-3)" transform="translate(20.965267, 39.943333) scale(-1, 1) translate(-20.965267, -39.943333) "></path>
                    </g>
                    <path d="M16,44.2 C16.3883299,42.6211154 17.2356819,41.6190057 18.5420561,41.1936709 C24.3738318,39.2949367 30.2056075,35.1810127 32,31.7" id="Path-15" stroke="#FFD07A" stroke-width="0.5" transform="translate(24.000000, 37.950000) scale(-1, 1) translate(-24.000000, -37.950000) "></path>
                </g>
            </g>
            <g id="Selected-Avatar-Copy-3">
                <circle id="Oval" stroke="#47B29F" stroke-width="2" cx="24" cy="24" r="23"></circle>
                <g id="Icon/DoneGreen" transform="translate(36.000000, 1.000000)">
                    <g id="Icon/Loading">
                        <circle id="Oval" fill="#FFFFFF" cx="7.5" cy="7.5" r="7.5"></circle>
                        <path d="M7.5,15 C3.35786438,15 0,11.6421356 0,7.5 C0,3.35786438 3.35786438,0 7.5,0 C11.6421356,0 15,3.35786438 15,7.5 C15,11.6421356 11.6421356,15 7.5,15 Z M4.62781398,7.76602291 C4.4431392,7.95520707 4.44679476,8.25827962 4.63597892,8.44295441 L6.44909432,10.2128526 L10.3640211,6.39124157 C10.5532052,6.20656679 10.5568608,5.90349423 10.372186,5.71431007 C10.1875112,5.52512592 9.88443868,5.52147035 9.69525452,5.70614514 L6.44909432,8.87493025 L5.30474548,7.75785797 C5.11556132,7.57318319 4.81248877,7.57683875 4.62781398,7.76602291 Z" id="Mask" fill="#47B29F"></path>
                    </g>
                </g>
            </g>
        </g>
    </g>
</svg>