<?xml version="1.0" encoding="UTF-8"?>
<svg width="46px" height="46px" viewBox="0 0 46 46" version="1.1" xmlns="http://www.w3.org/2000/svg" xmlns:xlink="http://www.w3.org/1999/xlink">
    <!-- Generator: Sketch 63.1 (92452) - https://sketch.com -->
    <title>Icon/Member Copy 5</title>
    <desc>Created with Sketch.</desc>
    <defs>
        <linearGradient x1="50%" y1="-2.48949813e-15%" x2="50%" y2="100%" id="linearGradient-1">
            <stop stop-color="#FEB5B5" stop-opacity="0.6" offset="0%"></stop>
            <stop stop-color="#FFD07A" offset="100%"></stop>
        </linearGradient>
        <circle id="path-2" cx="23" cy="23" r="23"></circle>
        <linearGradient x1="50%" y1="1.44292164%" x2="50%" y2="100%" id="linearGradient-4">
            <stop stop-color="#C08355" offset="0%"></stop>
            <stop stop-color="#ED9F6A" offset="100%"></stop>
        </linearGradient>
        <linearGradient x1="50%" y1="0%" x2="50%" y2="100%" id="linearGradient-5">
            <stop stop-color="#130027" offset="0%"></stop>
            <stop stop-color="#130017" offset="100%"></stop>
        </linearGradient>
    </defs>
    <g id="Page-1" stroke="none" stroke-width="1" fill="none" fill-rule="evenodd">
        <g id="Avatar/AdultMale">
            <g id="Adult-Male">
                <mask id="mask-3" fill="white">
                    <use xlink:href="#path-2"></use>
                </mask>
                <g id="Mask">
                    <use fill="#FFFFFF" xlink:href="#path-2"></use>
                    <use fill="url(#linearGradient-1)" xlink:href="#path-2"></use>
                </g>
                <g id="Group-12" mask="url(#mask-3)">
                    <g transform="translate(5.000000, 5.000000)">
                        <path d="M23.4333333,21.9130435 L23.4333333,25.2608696 C23.4333333,25.4818502 21.7888889,25.9268156 18.5,26.5957657 C15.2111111,26.0210753 13.5666667,25.5761099 13.5666667,25.2608696 C13.5666667,24.3661517 13.5852287,19.874158 13.5666667,15.7025026 C11.3571394,12.8756152 11.3571394,11.1086957 13.1041667,9.2826087 C14.2688515,8.06521739 18.9966293,7.15217391 27.2875,6.54347826 C27.9095613,12.4488357 28.2692835,16.2024589 28.3666667,17.8043478 C28.4254118,18.7706664 29.0604167,21.9130435 26.59375,21.9130435 C25.6691836,21.9130435 24.6157113,21.9130435 23.4333333,21.9130435 Z" id="Mask" fill="url(#linearGradient-4)" fill-rule="evenodd"></path>
                        <path d="M23.4333333,21.6274328 L23.4333333,23.4591801 C20.1291356,22.878247 18.2277467,21.6527232 17.7291667,19.7826087 C19.1680556,20.7463768 21.0180556,21.3550725 23.2791667,21.6086957 C23.3308134,21.6144887 23.3822099,21.6207405 23.4333333,21.6274328 Z" id="Combined-Shape" fill="#A85832" fill-rule="evenodd" style="mix-blend-mode: multiply;"></path>
                        <path d="M34.6875,32.1555397 C35.6659679,34.1192731 36.4368013,37.3656499 37,41.8946702 L0,41.8946702 C0.563468031,37.3651424 1.33430136,34.1187656 2.3125,32.1555397 C2.96248613,30.8510301 6.30276391,28.9433319 12.3333333,26.4324453 L24.6666667,26.4314168 C30.6985234,28.9455945 34.0388011,30.8536354 34.6875,32.1555397 Z" id="Combined-Shape" fill="#00365D" fill-rule="nonzero"></path>
                        <polygon id="Combined-Shape" fill="#3D80B0" fill-rule="evenodd" points="18.5 26.6291173 16.9583333 29.3695652 12.1791667 26.4782609 13.5666667 24.5 18.5 26.2988581 23.4333333 24.5 24.8208333 26.4782609 20.0416667 29.3695652"></polygon>
                        <path d="M15.5739721,11.1399493 C15.0836627,10.7243174 14.4880021,10.4445332 13.6459588,10.8763798 C11.6496012,11.9002231 12.9745387,15.8466206 15.2085936,15.7696141 C15.9789574,15.7430601 15.6260035,17.2594254 13.5666667,18.2608696 C13.5666667,16.6630435 11.1,12.7065217 10.8848768,9.10418925 C8.40208333,8.19194102 9.01875,4.54175286 10.7234667,4.54175286 C10.450812,1.19521528 15.8791667,-0.532608696 17.98108,1.38721274 C20.11875,-1.14130435 25.5145833,0.152173913 25.8404491,2.34574641 C29.5506674,0.390657431 31.9895833,6.01086957 28.5154463,8.19194102 C27.0859197,9.08940124 23.7416667,9.43140229 18.9143233,9.43140229 C16.5977469,9.43140229 17.9299822,14.7833789 18.6541667,16.5108696 C19.5791667,18.7173913 24.74375,19.0217391 26.3625,18.7934783 C27.6265886,18.6152284 28.2895833,18.1086957 28.3666667,17.8043478 C29.5229167,20.8478261 28.0583218,22.673913 25.7458333,22.673913 C21.8145833,22.673913 17.8833333,21.5326087 17.2666667,18.7173913 C16.775889,16.4768845 16.8027865,12.8611287 15.5739721,11.1399493 Z" id="Combined-Shape" fill="url(#linearGradient-5)" fill-rule="nonzero"></path>
                    </g>
                </g>
            </g>
        </g>
    </g>
</svg>