<?xml version="1.0" encoding="UTF-8"?>
<svg width="51px" height="48px" viewBox="0 0 51 48" version="1.1" xmlns="http://www.w3.org/2000/svg" xmlns:xlink="http://www.w3.org/1999/xlink">
    <!-- Generator: Sketch 63.1 (92452) - https://sketch.com -->
    <title>Group 12</title>
    <desc>Created with Sketch.</desc>
    <defs>
        <linearGradient x1="50%" y1="-2.48949813e-15%" x2="50%" y2="100%" id="linearGradient-1">
            <stop stop-color="#FEB5B5" stop-opacity="0.6" offset="0%"></stop>
            <stop stop-color="#FFD07A" offset="100%"></stop>
        </linearGradient>
        <circle id="path-2" cx="23" cy="23" r="23"></circle>
        <filter x="-173.8%" y="-125.9%" width="447.6%" height="351.7%" filterUnits="objectBoundingBox" id="filter-4">
            <feOffset dx="0" dy="7" in="SourceAlpha" result="shadowOffsetOuter1"></feOffset>
            <feGaussianBlur stdDeviation="6" in="shadowOffsetOuter1" result="shadowBlurOuter1"></feGaussianBlur>
            <feColorMatrix values="0 0 0 0 0   0 0 0 0 0   0 0 0 0 0.145098039  0 0 0 0.04 0" type="matrix" in="shadowBlurOuter1" result="shadowMatrixOuter1"></feColorMatrix>
            <feMerge>
                <feMergeNode in="shadowMatrixOuter1"></feMergeNode>
                <feMergeNode in="SourceGraphic"></feMergeNode>
            </feMerge>
        </filter>
        <linearGradient x1="50%" y1="1.44292164%" x2="50%" y2="100%" id="linearGradient-5">
            <stop stop-color="#C08355" offset="0%"></stop>
            <stop stop-color="#ED9F6A" offset="100%"></stop>
        </linearGradient>
        <path d="M12.9308073,19.3048872 C12.9482561,20.5939257 14.0767606,21.5704642 16.316321,22.2049604 C13.6177231,24.0462767 10.9191253,25.5193298 8.22052741,25.5193298 C5.52192955,25.5193298 2.8233317,24.0462767 0.12473384,22.2049604 C2.34911242,21.5698169 3.4773811,20.621693 3.50953988,19.3605886 C3.50888128,19.1357681 3.49375143,14.1963966 3.48366333,12.0414566 C1.37403663,9.47603959 2.14898608,6.46835341 2.8101406,6.54336152 C3.62128055,6.63538552 10.6429807,0.383986892 11.9898374,0.0641258639 C13.336694,-0.255735165 16.7579097,0.777715548 17.3466947,3.66053854 C17.9354797,6.54336152 18.1815872,13.809781 15.9483304,16.7108681 C15.3128199,17.5364207 14.296909,17.8573137 12.9308073,17.6775591 C12.9295758,18.0797784 12.9295758,18.622221 12.9308073,19.3048872 Z" id="path-6"></path>
        <path d="M33.75,5.57380206 C34.7020229,7.45837502 35.4520229,10.5738866 36,14.9203367 L0,14.9203367 C0.548239165,10.5733995 1.29823916,7.45788798 2.25,5.57380206 C3.20176084,3.68971614 6.45672454,1.8739048 12.0148911,0.126368048 C13.621894,3.33896172 22.4411647,3.33860714 23.9806204,0.125380981 C29.5415173,1.87308874 32.7979771,3.6892291 33.75,5.57380206 Z" id="path-8"></path>
    </defs>
    <g id="Page-1" stroke="none" stroke-width="1" fill="none" fill-rule="evenodd">
        <g id="Group-12">
            <g id="Avatar/KidMale" transform="translate(1.000000, 1.000000)">
                <g id="Kid_Male" transform="translate(23.000000, 23.000000) scale(-1, 1) translate(-23.000000, -23.000000) ">
                    <mask id="mask-3" fill="white">
                        <use xlink:href="#path-2"></use>
                    </mask>
                    <g id="Mask">
                        <use fill="#FFFFFF" xlink:href="#path-2"></use>
                        <use fill="url(#linearGradient-1)" xlink:href="#path-2"></use>
                    </g>
                    <g id="Group-10" mask="url(#mask-3)">
                        <g transform="translate(11.000000, 8.000000)" id="Group-11">
                            <g>
                                <g transform="translate(10.500000, 14.500000) scale(-1, 1) translate(-10.500000, -14.500000) " id="Group-2">
                                    <g>
                                        <g id="Group-14" filter="url(#filter-4)">
                                            <g id="Path-48" transform="translate(0.766423, 2.333333)">
                                                <mask id="mask-7" fill="white">
                                                    <use xlink:href="#path-6"></use>
                                                </mask>
                                                <use id="Combined-Shape" fill="url(#linearGradient-5)" xlink:href="#path-6"></use>
                                                <path d="M13.0291971,17.7333333 C10.7810219,17.4740741 8.94160584,16.8518519 7.51094891,15.8666667 C8.73722628,17.9407407 10.5766423,19.1851852 13.0291971,19.6 L13.0291971,17.7333333 Z" fill="#A85832" fill-rule="nonzero" mask="url(#mask-7)"></path>
                                            </g>
                                            <path d="M3.12097139,15.70491 C2.09875568,13.1907697 -1.99765833,8.07068692 1.5332733,4.88448509 C2.72020193,-1.03274688 9.27816365,-0.377823035 13.654963,0.987692035 C16.5966124,1.90545552 18.8179215,3.71872218 19.292874,2.35320711 C22.2601955,4.88448509 20.7742143,7.3600957 18.8179215,8.07068692 C17.0425264,8.71557 14.0402605,9.36034004 8.93592107,8.75344446 C8.02408063,8.64502848 8.21503894,11.5008595 7.72774258,11.8096573 C6.99679804,12.272854 6.4293539,9.36034004 4.42528083,10.2348417 C2.42120777,11.1093433 3.6103984,15.1643044 5.76170654,15.1643044 C6.50353693,15.1643044 6.87445213,17.2499827 4.87151007,18.236188 C3.41770354,18.9669738 3.78517267,17.3385135 3.12097139,15.70491 Z" id="Path-22" fill="#000000"></path>
                                        </g>
                                    </g>
                                </g>
                            </g>
                        </g>
                    </g>
                    <g id="Group-21" mask="url(#mask-3)">
                        <g transform="translate(5.000000, 31.000000)">
                            <mask id="mask-9" fill="white">
                                <use xlink:href="#path-8"></use>
                            </mask>
                            <use id="Combined-Shape" stroke="none" fill="#00365D" fill-rule="nonzero" xlink:href="#path-8"></use>
                            <path d="M38.1355932,10.990099 L38.1355932,12.1782178 L-1.52542373,12.1782178 L-1.52542373,10.990099 L38.1355932,10.990099 Z M38.1355932,8.01980198 L38.1355932,9.20792079 L-1.52542373,9.20792079 L-1.52542373,8.01980198 L38.1355932,8.01980198 Z M38.1355932,5.04950495 L38.1355932,6.23762376 L-1.52542373,6.23762376 L-1.52542373,5.04950495 L38.1355932,5.04950495 Z" id="Combined-Shape" stroke="none" fill="#3D80B0" fill-rule="nonzero" mask="url(#mask-9)"></path>
                        </g>
                    </g>
                </g>
            </g>
            <g id="Selected-Avatar-Copy">
                <circle id="Oval" stroke="#47B29F" stroke-width="2" cx="24" cy="24" r="23"></circle>
                <g id="Icon/DoneGreen" transform="translate(36.000000, 1.000000)">
                    <g id="Icon/Loading">
                        <circle id="Oval" fill="#FFFFFF" cx="7.5" cy="7.5" r="7.5"></circle>
                        <path d="M7.5,15 C3.35786438,15 0,11.6421356 0,7.5 C0,3.35786438 3.35786438,0 7.5,0 C11.6421356,0 15,3.35786438 15,7.5 C15,11.6421356 11.6421356,15 7.5,15 Z M4.62781398,7.76602291 C4.4431392,7.95520707 4.44679476,8.25827962 4.63597892,8.44295441 L6.44909432,10.2128526 L10.3640211,6.39124157 C10.5532052,6.20656679 10.5568608,5.90349423 10.372186,5.71431007 C10.1875112,5.52512592 9.88443868,5.52147035 9.69525452,5.70614514 L6.44909432,8.87493025 L5.30474548,7.75785797 C5.11556132,7.57318319 4.81248877,7.57683875 4.62781398,7.76602291 Z" id="Mask" fill="#47B29F"></path>
                    </g>
                </g>
            </g>
        </g>
    </g>
</svg>