<?xml version="1.0" encoding="UTF-8"?>
<svg width="51px" height="48px" viewBox="0 0 51 48" version="1.1" xmlns="http://www.w3.org/2000/svg" xmlns:xlink="http://www.w3.org/1999/xlink">
    <!-- Generator: Sketch 63.1 (92452) - https://sketch.com -->
    <title>Group 11</title>
    <desc>Created with Sketch.</desc>
    <defs>
        <linearGradient x1="50%" y1="-2.48949813e-15%" x2="50%" y2="100%" id="linearGradient-1">
            <stop stop-color="#FEB5B5" stop-opacity="0.6" offset="0%"></stop>
            <stop stop-color="#FFD07A" offset="100%"></stop>
        </linearGradient>
        <circle id="path-2" cx="23" cy="23" r="23"></circle>
        <linearGradient x1="50%" y1="1.44292164%" x2="50%" y2="100%" id="linearGradient-4">
            <stop stop-color="#C08355" offset="0%"></stop>
            <stop stop-color="#ED9F6A" offset="100%"></stop>
        </linearGradient>
    </defs>
    <g id="Page-1" stroke="none" stroke-width="1" fill="none" fill-rule="evenodd">
        <g id="Group-11">
            <g id="Avatar/KidFemale" transform="translate(1.000000, 1.000000)">
                <g id="Kid_Female" transform="translate(23.000000, 23.000000) scale(-1, 1) translate(-23.000000, -23.000000) ">
                    <mask id="mask-3" fill="white">
                        <use xlink:href="#path-2"></use>
                    </mask>
                    <g id="Mask" transform="translate(23.000000, 23.000000) scale(-1, 1) translate(-23.000000, -23.000000) ">
                        <use fill="#FFFFFF" xlink:href="#path-2"></use>
                        <use fill="url(#linearGradient-1)" xlink:href="#path-2"></use>
                    </g>
                    <path d="M37.2912621,36.2212389 C38.0507012,37.6253687 38.6202805,40.8849558 39,46 L7,46 C7.37971953,40.8849558 7.94929881,37.6253687 8.70873786,36.2212389 C9.84789644,34.1150442 14.6116505,31.7079646 23,29 C31.3883495,31.7079646 36.1521036,34.1150442 37.2912621,36.2212389 Z" id="Rectangle" fill="#F66A6A" fill-rule="nonzero" mask="url(#mask-3)" transform="translate(23.000000, 37.500000) scale(-1, 1) translate(-23.000000, -37.500000) "></path>
                    <path d="M22.5,41.8333333 C22.7761424,41.8333333 23,42.0945006 23,42.4166667 C23,42.7388328 22.7761424,43 22.5,43 C22.2238576,43 22,42.7388328 22,42.4166667 C22,42.0945006 22.2238576,41.8333333 22.5,41.8333333 Z M22.5,38.9166667 C22.7761424,38.9166667 23,39.1778339 23,39.5 C23,39.8221661 22.7761424,40.0833333 22.5,40.0833333 C22.2238576,40.0833333 22,39.8221661 22,39.5 C22,39.1778339 22.2238576,38.9166667 22.5,38.9166667 Z M22.5,36 C22.7761424,36 23,36.2611672 23,36.5833333 C23,36.9054994 22.7761424,37.1666667 22.5,37.1666667 C22.2238576,37.1666667 22,36.9054994 22,36.5833333 C22,36.2611672 22.2238576,36 22.5,36 Z" id="Combined-Shape" fill="#FFFFFF" fill-rule="nonzero" mask="url(#mask-3)" transform="translate(22.500000, 39.500000) scale(-1, 1) translate(-22.500000, -39.500000) "></path>
                    <path d="M34.7594958,30 L9.4284521,26.9810306 C8.17959544,20.4429806 9.66087413,13.2482845 13.8722882,11.5477068 C15.819143,5.25684953 23.3966907,5.768539 25.5444225,6.28139743 C32.8534835,8.02673346 35.9251746,17.9831891 34.7594958,30 Z" id="Combined-Shape" fill="#000000" mask="url(#mask-3)" transform="translate(22.000000, 18.000000) scale(-1, 1) translate(-22.000000, -18.000000) "></path>
                    <path d="M15.5950904,30.9073643 L15.5950904,21.5419157 C11.6579413,21.4835082 12.4258146,14.7157453 16.3818671,16.7811459 C17.0899661,17.0933275 18.8995526,16.2348281 18.2701312,14.1276021 C22.5187254,17.2494184 28.4391279,11.7704903 28.8129391,15.1421924 C29.5486049,21.7777498 28.1252117,27.2316717 24.3506887,27.2320631 C23.9800848,27.2321015 23.6190114,27.2445279 23.1481468,27.1611849 L23.1481468,30.9073643 C21.9160742,31.6357881 20.6840016,32 19.451929,32 C18.2198564,32 16.9342436,31.6357881 15.5950904,30.9073643 Z" id="Mask" fill="url(#linearGradient-4)" mask="url(#mask-3)" transform="translate(21.000000, 23.000000) scale(-1, 1) translate(-21.000000, -23.000000) "></path>
                    <path d="M25,26.8837209 L25,28 C22.8571429,28 21.1904762,27 20,25 C21.4285714,25.9302326 23.0952381,26.5581395 25,26.8837209 Z" id="Path-2" fill="#A85832" mask="url(#mask-3)" transform="translate(22.500000, 26.500000) scale(-1, 1) translate(-22.500000, -26.500000) "></path>
                    <path d="M22.9947742,31.5316768 C24.0749564,31.4856077 26.7894737,30.9870291 26.7894737,29.9099019 L26.7894737,29 C27.0790584,29 27.9082214,29.6101908 28.3346186,30.1267606 C30.0203757,32.1690141 28.150519,34 26.6256388,34 C24.70143,34 23.4266108,32.5659826 23,31.876014 C22.5733892,32.5659826 21.29857,34 19.3743612,34 C17.849481,34 15.9796243,32.1690141 17.6653814,30.1267606 C18.0917786,29.6101908 18.9209416,29 19.2105263,29 L19.2105263,29.9099019 C19.2105263,30.9870292 21.8536097,31.4856078 22.9947748,31.5316768 L22.9947742,31.5316768 Z" id="Combined-Shape" fill="#FFFFFF" fill-rule="nonzero" mask="url(#mask-3)" transform="translate(23.000000, 31.500000) scale(-1, 1) translate(-23.000000, -31.500000) "></path>
                </g>
            </g>
            <g id="Selected-Avatar-Copy-2">
                <circle id="Oval" stroke="#47B29F" stroke-width="2" cx="24" cy="24" r="23"></circle>
                <g id="Icon/DoneGreen" transform="translate(36.000000, 1.000000)">
                    <g id="Icon/Loading">
                        <circle id="Oval" fill="#FFFFFF" cx="7.5" cy="7.5" r="7.5"></circle>
                        <path d="M7.5,15 C3.35786438,15 0,11.6421356 0,7.5 C0,3.35786438 3.35786438,0 7.5,0 C11.6421356,0 15,3.35786438 15,7.5 C15,11.6421356 11.6421356,15 7.5,15 Z M4.62781398,7.76602291 C4.4431392,7.95520707 4.44679476,8.25827962 4.63597892,8.44295441 L6.44909432,10.2128526 L10.3640211,6.39124157 C10.5532052,6.20656679 10.5568608,5.90349423 10.372186,5.71431007 C10.1875112,5.52512592 9.88443868,5.52147035 9.69525452,5.70614514 L6.44909432,8.87493025 L5.30474548,7.75785797 C5.11556132,7.57318319 4.81248877,7.57683875 4.62781398,7.76602291 Z" id="Mask" fill="#47B29F"></path>
                    </g>
                </g>
            </g>
        </g>
    </g>
</svg>