<svg xmlns="http://www.w3.org/2000/svg" viewBox="0 0 61 36">
    <g fill="none" fill-rule="evenodd">
        <path fill="#FCC86C" fill-rule="nonzero" d="M30.968 1.223h29.809v29.681H30.968z"/>
        <path fill="#8A1002" fill-rule="nonzero" d="M30.968 30.904V1.32C48.17 1.223 60.84 15.234 60.84 30.904H30.968z"/>
        <path fill="#8A1002" fill-rule="nonzero" d="M30.968 17.787v13.117l1.851-12.957z"/>
        <path fill="#FCC86C" fill-rule="nonzero" d="M41.915 23.947l16.053-5.873-14.617 9.256zM36.33 19L46.51 5.532l-7.053 15.542z"/>
        <path fill="#8A1002" fill-rule="nonzero" d="M43.351 27.234l-12.383 3.67 10.947-6.957z"/>
        <path fill="#FCC86C" fill-rule="nonzero" d="M36.33 19l-5.362 11.904 1.851-13.021z"/>
        <path fill="#8A1002" fill-rule="nonzero" d="M39.394 21.074l-8.426 9.83L36.33 19z"/>
        <path fill="#FCC86C" fill-rule="nonzero" d="M41.915 23.947l-10.947 6.957 8.49-9.83zM43.926 30.904H30.968l12.383-3.638z"/>
        <g fill-rule="nonzero">
            <path fill="#8A1002" d="M1.096 1.223h29.872v29.681H1.096z"/>
            <path fill="#FCC86C" d="M30.968 30.904V1.255c-16.947-.032-29.777 13.34-29.872 29.65h29.872z"/>
            <path fill="#8A1002" d="M30.968 17.82V1.35l-1.915 16.564z"/>
            <path fill="#FCC86C" d="M30.968 17.82v13.084l-1.947-12.99z"/>
            <path fill="#8A1002" d="M19.99 23.851L3.648 18.904l14.745 8.426zM25.479 19L15.043 5.723l7.276 15.383z"/>
            <path fill="#FCC86C" d="M18.394 27.266l12.574 3.638L19.99 23.82z"/>
            <path fill="#8A1002" d="M25.447 19.032l5.521 11.872-1.947-12.99z"/>
            <path fill="#FCC86C" d="M22.383 21.074l8.585 9.83L25.447 19z"/>
            <path fill="#8A1002" d="M20.085 23.82l10.883 7.084-8.649-9.861zM17.915 30.904h13.053l-12.574-3.638z"/>
        </g>
        <path fill="#8A1002" fill-rule="nonzero" d="M1.096 30.904h59.713v5.362H1.096z"/>
        <path fill="#FCC86C" fill-rule="nonzero" d="M30.968 17.787V1.351l1.883 16.596z"/>
        <path fill="#FCC86C" d="M55.734 31.798l-.32 2.49h.607l-.287-2.49zm-49.436 0l-.32 2.457h.607l-.287-2.457zm-.351-.51h.766l.67 4.627h-.574l-.128-1.181h-.734l-.16 1.18h-.542l.702-4.627zm4.691.478v3.67h.128c.191 0 .32-.032.383-.096.064-.063.096-.191.096-.414v-2.65c0-.19-.032-.35-.096-.414s-.192-.096-.383-.096h-.128zm-.574-.479h.606c.447 0 .766.096.894.256.16.16.223.51.223 1.02v2.043c0 .511-.064.862-.223 1.022-.16.16-.447.255-.894.255h-.606v-4.596zm5.042 0h.575v4.628h-.575v-4.628zm3.766 0h1.66v.479h-.543v4.117h-.574v-4.117h-.543v-.479zm4.628 0h.574l.383 2.043h.032l.351-2.043h.543l-.67 2.681v1.915h-.575v-1.915l-.638-2.68zm5.713.51l-.32 2.458h.607l-.287-2.457zm-.351-.51h.766l.67 4.628h-.575l-.127-1.181h-.734l-.16 1.18h-.574l.734-4.627zM37 33.745v1.723h.128c.191 0 .319-.032.383-.096.063-.063.095-.223.095-.446v-.639c0-.223-.032-.35-.095-.415-.064-.063-.192-.095-.383-.095H37v-.032zm0-1.979v1.5h.128c.16 0 .287-.032.35-.096.065-.064.096-.191.096-.415v-.478c0-.192-.031-.351-.095-.415s-.192-.096-.351-.096H37zm-.543-.479h.766c.351 0 .575.064.734.192.128.127.192.319.192.606v.734c0 .224-.032.383-.128.479a.569.569 0 0 1-.415.191c.192.032.351.096.447.192.096.096.128.287.128.479v.957c0 .287-.064.479-.192.606-.127.128-.383.16-.734.16h-.798v-4.596zm5.139 0h.574v4.628h-.574v-4.628zm4.372.479v1.564h.128c.191 0 .287-.032.35-.096.065-.064.097-.223.097-.415v-.542c0-.224-.032-.351-.096-.415s-.192-.096-.351-.096h-.128zm-.574-.479h.766c.35 0 .574.064.734.192.127.127.223.319.223.606v.734a.989.989 0 0 1-.128.51.667.667 0 0 1-.478.192c.223.032.415.096.51.192.096.096.128.319.128.574v1.596h-.575v-1.628c0-.223-.031-.383-.095-.415-.064-.063-.192-.095-.351-.095H46v2.138h-.543v-4.596h-.063zm5.01 0h.575v4.117h.798v.479h-1.373v-4.596zm4.979 0h.766l.67 4.628h-.574l-.128-1.181h-.734l-.16 1.18h-.542l.702-4.627z"/>
    </g>
</svg>
