<svg xmlns="http://www.w3.org/2000/svg" viewBox="0 0 233 48">
    <g fill="none" fill-rule="nonzero">
        <path fill="#010101" d="M86.464 34.178a13.938 13.938 0 0 1-10.034 3.918c-9.805 0-13.947-6.744-13.986-13.601-.04-6.857 4.451-13.9 13.986-13.9a13.649 13.649 0 0 1 9.691 4.03l-3.318 3.204a9.049 9.049 0 0 0-6.373-2.489c-6.373 0-9.123 4.747-9.084 9.155.04 4.408 2.564 8.934 9.084 8.934a9.72 9.72 0 0 0 6.637-2.68l3.397 3.429zM97.622 11.123V32.9h13.574v4.594H92.65v-26.37zM118.515 37.494v-26.37h4.941v26.37zM149.246 11.084h4.976v26.41h-3.093v.04L137.26 19.708v17.785h-4.98v-26.37h4.029l12.936 16.349zM162.595 37.494v-26.37h4.941v26.37zM197.175 11.265l-11.73 12.627 12.71 13.298v.304h-6.147l-11.05-11.682v11.682h-4.97v-26.37h4.975V22.27l10.025-11.148h6.187zM225.647 11.265l-11.731 12.627 12.711 13.298v.304h-6.147l-11.05-11.682v11.682h-4.975v-26.37h4.975V22.27l10.03-11.148h6.187z"/>
        <path fill="#27A84A" d="M47.644 6.162a5.755 5.755 0 0 1-3.553 5.32 5.764 5.764 0 0 1-6.28-1.246 5.751 5.751 0 0 1-1.248-6.274A5.76 5.76 0 0 1 41.89.412a5.758 5.758 0 0 1 5.755 5.75"/>
        <path fill="#EF4323" d="M40.796 16.624c-1.726-.098-3.432-.035-5.182-.05a5.824 5.824 0 0 1-1.132-.087 3.694 3.694 0 0 1-3.005-3.772V7.998c0-3.149-1.716-6.02-4.662-7.023-1.82-.501-3.74-.51-5.564-.025a7.528 7.528 0 0 0-4.72 6.94v4.717c.053 5.775 2.45 10.286 7.205 13.607a7.746 7.746 0 0 1 1.755 1.96 11.812 11.812 0 0 1 2.236 6.748c0 1.793.03 3.59 0 5.388a3.71 3.71 0 0 1-3.738 3.681 3.71 3.71 0 0 1-3.684-3.735v-4.898c.027-2-.75-3.927-2.16-5.348a7.464 7.464 0 0 0-5.33-2.21H8.01a3.723 3.723 0 0 1-.76-7.396 29.114 29.114 0 0 1 3.201-.058h2.388v-3.742H12c-1.57 0-3.138-.059-4.702.03A7.469 7.469 0 0 0 .49 22.677a18.812 18.812 0 0 0-.083 2.066 7.439 7.439 0 0 0 7.353 6.774h5.06a3.695 3.695 0 0 1 3.69 3.527c.054 1.386 0 2.777 0 4.163-.023.688.004 1.378.079 2.062a7.464 7.464 0 0 0 7.528 6.397 7.463 7.463 0 0 0 7.286-6.671c.142-1.47.035-2.939.06-4.379.05-1.219-.007-2.44-.168-3.649a15.852 15.852 0 0 0-6.372-10.59 10.047 10.047 0 0 1-1.515-1.317 11.843 11.843 0 0 1-3.089-7.2c-.132-2.057-.088-4.124 0-6.186a3.689 3.689 0 0 1 4.564-3.365 3.718 3.718 0 0 1 2.863 3.772v4.795a7.453 7.453 0 0 0 7.31 7.45c1.715.034 3.43 0 5.142 0a3.753 3.753 0 0 1 3.725 3.688 3.695 3.695 0 0 1-3.612 3.732c-1.5.04-3.006.024-4.51 0h-.603v3.757H39.962a7.678 7.678 0 0 0 1.505-.118 7.456 7.456 0 0 0 6.145-7.682 7.458 7.458 0 0 0-6.826-7.085"/>
        <path fill="#010101" d="M231.956 13.224a2.423 2.423 0 0 1-4.11 1.802 2.418 2.418 0 0 1 1.693-4.153 2.369 2.369 0 0 1 2.417 2.351zm-4.24 0a1.826 1.826 0 0 0 1.838 1.881 1.882 1.882 0 0 0 0-3.756 1.834 1.834 0 0 0-1.839 1.875zm1.47 1.235h-.544v-2.351c.3-.054.603-.079.907-.074.283-.02.567.039.819.172a.666.666 0 0 1 .225.519.598.598 0 0 1-.49.544v.029a.7.7 0 0 1 .431.573c.02.205.079.404.172.588h-.588a1.816 1.816 0 0 1-.206-.598c-.044-.26-.187-.372-.49-.372h-.26l.024.97zm0-1.332h.235c.304 0 .545-.098.545-.343 0-.245-.157-.358-.49-.358a1.364 1.364 0 0 0-.305 0l.015.7z"/>
    </g>
</svg>
