<?xml version="1.0" encoding="UTF-8"?>
<svg viewBox="0 0 81 20" version="1.1" xmlns="http://www.w3.org/2000/svg" xmlns:xlink="http://www.w3.org/1999/xlink">
    <!-- Generator: Sketch 59.1 (86144) - https://sketch.com -->
    <title>Logo/Religare</title>
    <desc>Created with Sketch.</desc>
    <g id="Page-1" stroke="none" stroke-width="1" fill="none" fill-rule="evenodd">
        <g id="Logos" transform="translate(-236.000000, -359.000000)" fill="#196E35">
            <g id="Logo/Religare" transform="translate(236.500000, 359.000000)">
                <g id="religare-[Converted]-01" transform="translate(0.000000, 0.153846)">
                    <path d="M9.48690229,10.1920998 L9.64656965,10.2719335 L9.81954262,10.3384615 L10.0058212,10.391684 L10.2054054,10.4316008 L10.4182952,10.4715177 L10.631185,10.4981289 L10.8573805,10.5114345 L11.0968815,10.5247401 L11.3363825,10.5247401 L11.5758836,10.5247401 L11.8286902,10.5247401 L12.0814969,10.5247401 L12.6004158,10.4981289 L13.1326403,10.4715177 L13.3987526,10.4582121 L13.6648649,10.4449064 L13.9309771,10.4449064 L14.1970894,10.4449064 L14.4632017,10.4449064 L14.7293139,10.4449064 L14.9954262,10.4582121 L15.2615385,10.4848233 L15.5143451,10.5114345 L15.7671518,10.5513514 L16.0066528,10.5912682 L16.2461538,10.6577963 L16.4856549,10.7243243 L16.7118503,10.804158 L16.9380457,10.8972973 L17.1509356,11.0170478 L17.4037422,11.1634096 L17.6299376,11.3230769 L17.8428274,11.4960499 L18.029106,11.6823285 L18.1887734,11.8686071 L18.3351351,12.0681913 L18.4681913,12.2677755 L18.5746362,12.4806653 L18.6677755,12.6935551 L18.7476091,12.9197505 L18.8008316,13.1326403 L18.8407484,13.3588358 L18.8673597,13.5850312 L18.8673597,13.797921 L18.8540541,14.0108108 L18.8407484,14.2237006 L18.8008316,14.4232848 L18.7476091,14.622869 L18.6810811,14.8091476 L18.6012474,14.9954262 L18.5081081,15.1683992 L18.4016632,15.3280665 L18.2819127,15.4744283 L18.1488565,15.6074844 L18.0024948,15.7272349 L17.8428274,15.8336798 L17.6698545,15.9268191 L17.4835759,16.0066528 L17.2839917,16.0598753 L17.0711019,16.0997921 L16.8582121,16.1130977 L16.6320166,16.1130977 L16.552183,16.1130977 L16.4723493,16.1130977 L16.3925156,16.1130977 L16.3126819,16.1130977 L16.2461538,16.1264033 L16.1796258,16.1397089 L16.1130977,16.1530146 L16.0598753,16.1796258 L16.0066528,16.206237 L15.9401247,16.2328482 L15.8869023,16.2594595 L15.8336798,16.2860707 L15.7804574,16.3259875 L15.7405405,16.3525988 L15.7006237,16.3925156 L15.6607069,16.4324324 L15.62079,16.4723493 L15.5808732,16.5122661 L15.554262,16.552183 L15.5143451,16.6054054 L15.4877339,16.6586279 L15.4611227,16.7118503 L15.4345114,16.7783784 L15.4079002,16.8316008 L15.3945946,16.8981289 L15.381289,16.964657 L15.3679834,17.031185 L15.3546778,17.0977131 L15.3546778,17.1775468 L15.3546778,17.2573805 L15.3546778,17.3372141 L15.3546778,17.4170478 L15.3546778,17.6432432 L15.3413721,17.8561331 L15.3014553,18.0690229 L15.2482328,18.2686071 L15.1683992,18.4548857 L15.0752599,18.6278586 L14.968815,18.787526 L14.8490644,18.9338877 L14.7160083,19.0669439 L14.5696466,19.1866944 L14.4099792,19.3064449 L14.2370062,19.3995842 L14.0507277,19.4794179 L13.8644491,19.5459459 L13.6648649,19.5991684 L13.4652807,19.6390852 L13.2523909,19.6656965 L13.039501,19.6790021 L12.8266112,19.6656965 L12.6004158,19.6390852 L12.387526,19.5991684 L12.1746362,19.5459459 L11.9617464,19.4661123 L11.7488565,19.372973 L11.5359667,19.2665281 L11.3363825,19.1334719 L11.1367983,18.9871102 L10.9505198,18.8141372 L10.7642412,18.6278586 L10.5912682,18.4149688 L10.4316008,18.1887734 L10.2852391,17.9359667 L10.1654886,17.7230769 L10.0723493,17.4968815 L9.99251559,17.2706861 L9.92598753,17.031185 L9.87276507,16.791684 L9.83284823,16.552183 L9.79293139,16.2993763 L9.76632017,16.033264 L9.75301455,15.7671518 L9.73970894,15.5010395 L9.73970894,15.2349272 L9.73970894,14.968815 L9.73970894,14.7027027 L9.73970894,14.4365904 L9.75301455,14.1704782 L9.76632017,13.9043659 L9.79293139,13.3721414 L9.81954262,12.8532225 L9.81954262,12.6004158 L9.81954262,12.3476091 L9.81954262,12.1081081 L9.81954262,11.8686071 L9.80623701,11.629106 L9.79293139,11.4029106 L9.76632017,11.1767152 L9.72640333,10.9638254 L9.68648649,10.7642412 L9.63326403,10.5779626 L9.56673597,10.4049896 L9.48690229,10.1920998 L9.48690229,10.1920998 Z M9.48690229,10.1920998 L9.40706861,10.3517672 L9.34054054,10.5247401 L9.28731809,10.7110187 L9.24740125,10.9106029 L9.20748441,11.1101871 L9.18087318,11.3363825 L9.16756757,11.562578 L9.15426195,11.802079 L9.15426195,12.04158 L9.15426195,12.2810811 L9.15426195,12.5338877 L9.15426195,12.7866944 L9.18087318,13.3056133 L9.20748441,13.8378378 L9.22079002,14.1039501 L9.23409563,14.3700624 L9.23409563,14.6361746 L9.23409563,14.9022869 L9.23409563,15.1683992 L9.23409563,15.4345114 L9.22079002,15.7006237 L9.20748441,15.966736 L9.18087318,16.2328482 L9.14095634,16.4856549 L9.1010395,16.7251559 L9.03451143,16.964657 L8.96798337,17.204158 L8.88814969,17.4303534 L8.78170478,17.6964657 L8.66195426,17.9093555 L8.51559252,18.1621622 L8.35592516,18.3883576 L8.18295218,18.6012474 L7.9966736,18.787526 L7.81039501,18.960499 L7.61081081,19.1068607 L7.41122661,19.2399168 L7.1983368,19.3463617 L6.98544699,19.439501 L6.77255717,19.5193347 L6.55966736,19.5725572 L6.33347193,19.612474 L6.12058212,19.6390852 L5.90769231,19.6523909 L5.69480249,19.6390852 L5.48191268,19.612474 L5.28232848,19.5725572 L5.08274428,19.5193347 L4.8964657,19.4528067 L4.71018711,19.372973 L4.53721414,19.2798337 L4.39085239,19.1600832 L4.24449064,19.0403326 L4.11143451,18.9072765 L3.99168399,18.7609148 L3.88523909,18.6012474 L3.79209979,18.4282744 L3.71226611,18.2419958 L3.65904366,18.0424116 L3.61912682,17.8295218 L3.60582121,17.616632 L3.60582121,17.3904366 L3.60582121,17.3106029 L3.60582121,17.2307692 L3.60582121,17.1509356 L3.60582121,17.0711019 L3.59251559,17.0045738 L3.57920998,16.9380457 L3.56590437,16.8715177 L3.55259875,16.8049896 L3.52598753,16.7517672 L3.4993763,16.6852391 L3.47276507,16.6320166 L3.44615385,16.5787942 L3.41954262,16.5255717 L3.37962578,16.4856549 L3.33970894,16.445738 L3.2997921,16.4058212 L3.25987526,16.3659044 L3.21995842,16.3259875 L3.18004158,16.2993763 L3.12681913,16.2594595 L3.07359667,16.2328482 L3.02037422,16.206237 L2.96715177,16.1796258 L2.91392931,16.1530146 L2.84740125,16.1264033 L2.78087318,16.1130977 L2.71434511,16.0997921 L2.64781705,16.0864865 L2.56798337,16.0864865 L2.48814969,16.0864865 L2.40831601,16.0864865 L2.32848233,16.0864865 L2.1022869,16.0864865 L1.88939709,16.0731809 L1.67650728,16.033264 L1.47692308,15.9800416 L1.29064449,15.9002079 L1.11767152,15.8070686 L0.958004158,15.7006237 L0.811642412,15.5808732 L0.678586279,15.447817 L0.558835759,15.3014553 L0.439085239,15.1417879 L0.345945946,14.968815 L0.266112266,14.7825364 L0.1995842,14.5962578 L0.146361746,14.3966736 L0.106444906,14.1970894 L0.0798336798,13.9841996 L0.0665280665,13.7713098 L0.0798336798,13.55842 L0.106444906,13.3322245 L0.146361746,13.1060291 L0.212889813,12.8931393 L0.279417879,12.6669439 L0.372557173,12.4540541 L0.479002079,12.2411642 L0.612058212,12.04158 L0.758419958,11.8419958 L0.931392931,11.6557173 L1.11767152,11.4694387 L1.33056133,11.2964657 L1.55675676,11.1367983 L1.80956341,10.9904366 L2.02245322,10.8706861 L2.24864865,10.7775468 L2.47484407,10.6977131 L2.71434511,10.631185 L2.95384615,10.564657 L3.20665281,10.5247401 L3.45945946,10.4848233 L3.71226611,10.4582121 L3.97837838,10.4316008 L4.24449064,10.4182952 L4.51060291,10.4182952 L4.77671518,10.4182952 L5.04282744,10.4182952 L5.30893971,10.4182952 L5.58835759,10.4316008 L5.85446985,10.4449064 L6.38669439,10.4715177 L6.90561331,10.4981289 L7.15841996,10.4981289 L7.41122661,10.4981289 L7.65072765,10.4981289 L7.89022869,10.4981289 L8.12972973,10.4848233 L8.35592516,10.4715177 L8.56881497,10.4449064 L8.78170478,10.4049896 L8.98128898,10.3650728 L9.16756757,10.3118503 L9.34054054,10.2453222 L9.48690229,10.1920998 L9.48690229,10.1920998 Z M9.48690229,10.1920998 L9.64656965,10.1122661 L9.81954262,10.045738 L10.0058212,9.97920998 L10.2054054,9.93929314 L10.4182952,9.8993763 L10.631185,9.87276507 L10.8573805,9.84615385 L11.0968815,9.83284823 L11.3363825,9.83284823 L11.5758836,9.83284823 L11.8286902,9.83284823 L12.0814969,9.83284823 L12.6004158,9.85945946 L13.1326403,9.88607069 L13.3987526,9.8993763 L13.6648649,9.91268191 L13.9309771,9.91268191 L14.1970894,9.91268191 L14.4632017,9.91268191 L14.7293139,9.91268191 L14.9954262,9.8993763 L15.2615385,9.88607069 L15.5143451,9.85945946 L15.7671518,9.81954262 L16.0066528,9.77962578 L16.2461538,9.71309771 L16.4856549,9.64656965 L16.7118503,9.56673597 L16.9380457,9.47359667 L17.1509356,9.35384615 L17.4037422,9.20748441 L17.6299376,9.04781705 L17.8428274,8.87484407 L18.029106,8.68856549 L18.1887734,8.5022869 L18.3351351,8.3027027 L18.4681913,8.1031185 L18.5746362,7.89022869 L18.6677755,7.67733888 L18.7476091,7.45114345 L18.8008316,7.23825364 L18.8407484,7.01205821 L18.8673597,6.7991684 L18.8673597,6.58627859 L18.8540541,6.37338877 L18.8407484,6.16049896 L18.8008316,5.96091476 L18.7476091,5.76133056 L18.6810811,5.57505198 L18.6012474,5.38877339 L18.5081081,5.21580042 L18.4016632,5.05613306 L18.2819127,4.90977131 L18.1488565,4.77671518 L18.0024948,4.65696466 L17.8428274,4.55051975 L17.6698545,4.45738046 L17.4835759,4.37754678 L17.2839917,4.32432432 L17.0711019,4.28440748 L16.8582121,4.27110187 L16.6320166,4.27110187 L16.552183,4.27110187 L16.4723493,4.27110187 L16.3925156,4.27110187 L16.3126819,4.27110187 L16.2461538,4.25779626 L16.1796258,4.24449064 L16.1130977,4.23118503 L16.0598753,4.21787942 L16.0066528,4.2045738 L15.9401247,4.17796258 L15.8869023,4.15135135 L15.8336798,4.12474012 L15.7804574,4.0981289 L15.7405405,4.05821206 L15.7006237,4.01829522 L15.6607069,3.97837838 L15.62079,3.93846154 L15.5808732,3.8985447 L15.554262,3.85862786 L15.5143451,3.80540541 L15.4877339,3.75218295 L15.4611227,3.6989605 L15.4345114,3.64573805 L15.4079002,3.57920998 L15.3945946,3.52598753 L15.381289,3.45945946 L15.3679834,3.39293139 L15.3546778,3.32640333 L15.3546778,3.24656965 L15.3546778,3.16673597 L15.3546778,3.08690229 L15.3546778,3.00706861 L15.3546778,2.78087318 L15.3413721,2.56798337 L15.3014553,2.36839917 L15.2482328,2.16881497 L15.1683992,1.98253638 L15.0752599,1.80956341 L14.968815,1.64989605 L14.8490644,1.5035343 L14.7160083,1.37047817 L14.5696466,1.25072765 L14.4099792,1.13097713 L14.2370062,1.03783784 L14.0507277,0.958004158 L13.8644491,0.891476091 L13.6648649,0.838253638 L13.4652807,0.798336798 L13.2523909,0.771725572 L13.039501,0.758419958 L12.8266112,0.771725572 L12.6004158,0.785031185 L12.387526,0.824948025 L12.1746362,0.878170478 L11.9617464,0.958004158 L11.7488565,1.05114345 L11.5359667,1.15758836 L11.3363825,1.29064449 L11.1367983,1.43700624 L10.9505198,1.60997921 L10.7642412,1.7962578 L10.5912682,2.00914761 L10.4316008,2.23534304 L10.2852391,2.48814969 L10.1654886,2.7010395 L10.0723493,2.92723493 L9.99251559,3.15343035 L9.92598753,3.39293139 L9.87276507,3.63243243 L9.83284823,3.88523909 L9.79293139,4.13804574 L9.76632017,4.39085239 L9.75301455,4.65696466 L9.73970894,4.92307692 L9.73970894,5.18918919 L9.73970894,5.45530146 L9.73970894,5.72141372 L9.73970894,5.98752599 L9.75301455,6.26694387 L9.76632017,6.53305613 L9.79293139,7.06528067 L9.81954262,7.58419958 L9.81954262,7.83700624 L9.81954262,8.08981289 L9.81954262,8.32931393 L9.81954262,8.56881497 L9.80623701,8.80831601 L9.79293139,9.03451143 L9.76632017,9.26070686 L9.72640333,9.47359667 L9.68648649,9.67318087 L9.63326403,9.85945946 L9.56673597,10.045738 L9.48690229,10.1920998 L9.48690229,10.1920998 Z M9.48690229,10.1920998 L9.40706861,10.0191268 L9.34054054,9.83284823 L9.28731809,9.64656965 L9.24740125,9.44698545 L9.20748441,9.23409563 L9.18087318,9.00790021 L9.16756757,8.78170478 L9.15426195,8.54220374 L9.15426195,8.3027027 L9.15426195,8.06320166 L9.15426195,7.81039501 L9.15426195,7.55758836 L9.18087318,7.03866944 L9.20748441,6.50644491 L9.22079002,6.24033264 L9.23409563,5.96091476 L9.23409563,5.69480249 L9.23409563,5.42869023 L9.23409563,5.16257796 L9.23409563,4.8964657 L9.22079002,4.63035343 L9.20748441,4.36424116 L9.18087318,4.11143451 L9.14095634,3.85862786 L9.1010395,3.60582121 L9.03451143,3.36632017 L8.96798337,3.12681913 L8.88814969,2.9006237 L8.7950104,2.67442827 L8.67525988,2.46153846 L8.52889813,2.20873181 L8.36923077,1.98253638 L8.1962578,1.76964657 L8.00997921,1.58336798 L7.82370062,1.41039501 L7.62411642,1.26403326 L7.42453222,1.13097713 L7.21164241,1.02453222 L6.9987526,0.931392931 L6.78586279,0.851559252 L6.57297297,0.798336798 L6.34677755,0.758419958 L6.13388773,0.745114345 L5.92099792,0.731808732 L5.70810811,0.745114345 L5.4952183,0.771725572 L5.2956341,0.811642412 L5.0960499,0.864864865 L4.90977131,0.931392931 L4.72349272,1.01122661 L4.55051975,1.1043659 L4.39085239,1.22411642 L4.24449064,1.34386694 L4.11143451,1.47692308 L3.99168399,1.62328482 L3.88523909,1.78295218 L3.79209979,1.95592516 L3.71226611,2.14220374 L3.65904366,2.34178794 L3.61912682,2.54137214 L3.60582121,2.75426195 L3.60582121,2.98045738 L3.60582121,3.06029106 L3.60582121,3.14012474 L3.60582121,3.21995842 L3.60582121,3.2997921 L3.59251559,3.36632017 L3.57920998,3.43284823 L3.56590437,3.4993763 L3.55259875,3.55259875 L3.52598753,3.61912682 L3.4993763,3.67234927 L3.47276507,3.72557173 L3.44615385,3.77879418 L3.41954262,3.83201663 L3.37962578,3.87193347 L3.33970894,3.91185031 L3.2997921,3.95176715 L3.25987526,3.99168399 L3.21995842,4.03160083 L3.18004158,4.07151767 L3.12681913,4.0981289 L3.07359667,4.12474012 L3.02037422,4.15135135 L2.96715177,4.17796258 L2.91392931,4.19126819 L2.84740125,4.2045738 L2.78087318,4.21787942 L2.71434511,4.23118503 L2.64781705,4.24449064 L2.56798337,4.24449064 L2.48814969,4.24449064 L2.40831601,4.24449064 L2.32848233,4.24449064 L2.1022869,4.24449064 L1.88939709,4.25779626 L1.67650728,4.2977131 L1.47692308,4.35093555 L1.29064449,4.43076923 L1.11767152,4.52390852 L0.958004158,4.63035343 L0.811642412,4.75010395 L0.678586279,4.88316008 L0.558835759,5.02952183 L0.439085239,5.18918919 L0.345945946,5.36216216 L0.266112266,5.58835759 L0.1995842,5.77463617 L0.146361746,5.97422037 L0.106444906,6.17380457 L0.0798336798,6.38669439 L0.0665280665,6.5995842 L0.0798336798,6.81247401 L0.106444906,7.02536383 L0.146361746,7.25155925 L0.212889813,7.46444906 L0.279417879,7.69064449 L0.372557173,7.9035343 L0.479002079,8.11642412 L0.612058212,8.31600832 L0.758419958,8.51559252 L0.931392931,8.7018711 L1.11767152,8.88814969 L1.33056133,9.06112266 L1.55675676,9.22079002 L1.80956341,9.36715177 L2.02245322,9.48690229 L2.24864865,9.58004158 L2.47484407,9.65987526 L2.71434511,9.72640333 L2.95384615,9.79293139 L3.20665281,9.83284823 L3.45945946,9.87276507 L3.71226611,9.8993763 L3.97837838,9.91268191 L4.24449064,9.92598753 L4.51060291,9.92598753 L4.77671518,9.92598753 L5.04282744,9.92598753 L5.30893971,9.92598753 L5.58835759,9.91268191 L5.85446985,9.8993763 L6.38669439,9.87276507 L6.90561331,9.84615385 L7.15841996,9.84615385 L7.41122661,9.84615385 L7.65072765,9.84615385 L7.89022869,9.84615385 L8.12972973,9.85945946 L8.35592516,9.88607069 L8.56881497,9.91268191 L8.78170478,9.95259875 L8.98128898,9.99251559 L9.16756757,10.0590437 L9.34054054,10.1255717 L9.48690229,10.1920998 L9.48690229,10.1920998 Z M29.5517672,2.12889813 L35.7920998,2.12889813 L35.7920998,4.24449064 L32.239501,4.24449064 L32.239501,6.4 L35.5525988,6.4 L35.5525988,8.74178794 L32.239501,8.74178794 L32.239501,11.1367983 L35.7920998,11.1367983 L35.7920998,13.3588358 L29.5517672,13.3588358 L29.5517672,2.12889813 L29.5517672,2.12889813 Z M21.0893971,2.12889813 L25.0012474,2.12889813 L25.1742204,2.12889813 L25.3471933,2.14220374 L25.5068607,2.15550936 L25.6665281,2.18212058 L25.8261954,2.1954262 L25.9858628,2.22203742 L26.1322245,2.26195426 L26.2785863,2.3018711 L26.424948,2.34178794 L26.5580042,2.3950104 L26.6910603,2.44823285 L26.8241164,2.51476091 L26.9438669,2.58128898 L27.0636175,2.64781705 L27.183368,2.72765073 L27.2898129,2.80748441 L27.3962578,2.88731809 L27.4893971,2.98045738 L27.5825364,3.08690229 L27.6623701,3.19334719 L27.7422037,3.31309771 L27.8087318,3.43284823 L27.8752599,3.55259875 L27.9417879,3.68565489 L27.9950104,3.83201663 L28.0482328,3.97837838 L28.0881497,4.12474012 L28.1280665,4.28440748 L28.1679834,4.44407484 L28.1945946,4.61704782 L28.2079002,4.79002079 L28.2212058,4.97629938 L28.2212058,5.10935551 L28.2212058,5.24241164 L28.2212058,5.36216216 L28.2079002,5.48191268 L28.1945946,5.6016632 L28.181289,5.72141372 L28.1679834,5.84116424 L28.1546778,5.96091476 L28.1280665,6.06735967 L28.1014553,6.17380457 L28.0748441,6.28024948 L28.0482328,6.38669439 L28.0216216,6.47983368 L27.9817048,6.58627859 L27.9417879,6.67941788 L27.9018711,6.77255717 L27.8619543,6.86569647 L27.8087318,6.94553015 L27.7555094,7.02536383 L27.7022869,7.10519751 L27.6357588,7.18503119 L27.5825364,7.26486486 L27.5160083,7.33139293 L27.4494802,7.397921 L27.3829522,7.46444906 L27.3031185,7.53097713 L27.2232848,7.5975052 L27.1434511,7.65072765 L27.0636175,7.7039501 L26.9704782,7.75717256 L26.8773389,7.7970894 L26.770894,7.85031185 L26.9305613,7.9035343 L27.0769231,7.95675676 L27.2099792,8.00997921 L27.3297297,8.07650728 L27.4494802,8.14303534 L27.5559252,8.22286902 L27.6490644,8.3027027 L27.7422037,8.38253638 L27.7821206,8.43575884 L27.8220374,8.47567568 L27.8619543,8.51559252 L27.9018711,8.56881497 L27.9284823,8.62203742 L27.9550936,8.67525988 L27.9817048,8.72848233 L28.008316,8.78170478 L28.0216216,8.83492723 L28.0482328,8.9014553 L28.0615385,8.95467775 L28.0748441,9.00790021 L28.0881497,9.07442827 L28.1014553,9.14095634 L28.1014553,9.20748441 L28.1014553,9.27401247 L28.2212058,12.0149688 L28.2212058,12.1613306 L28.2212058,12.3076923 L28.2345114,12.4274428 L28.247817,12.5338877 L28.2611227,12.627027 L28.2877339,12.7068607 L28.3143451,12.7866944 L28.354262,12.8532225 L28.3941788,12.9064449 L28.4340956,12.9463617 L28.4740125,12.9862786 L28.5139293,13.0128898 L28.5538462,13.039501 L28.593763,13.0528067 L28.6336798,13.0661123 L28.6735967,13.0661123 L28.6735967,13.4253638 L26.2918919,13.4253638 L26.1721414,13.4253638 L26.0523909,13.4120582 L25.9459459,13.3987526 L25.8528067,13.385447 L25.772973,13.3588358 L25.7064449,13.3322245 L25.6798337,13.3189189 L25.6532225,13.3056133 L25.6266112,13.2790021 L25.6,13.2656965 L25.5866944,13.2390852 L25.5733888,13.212474 L25.5600832,13.1858628 L25.5467775,13.1459459 L25.5201663,13.0661123 L25.4935551,12.972973 L25.4802495,12.8665281 L25.4669439,12.7467775 L25.4536383,12.6137214 L25.4536383,12.4673597 L25.4536383,10.1122661 L25.4536383,9.97920998 L25.4403326,9.85945946 L25.427027,9.73970894 L25.4004158,9.63326403 L25.3738046,9.54012474 L25.3338877,9.44698545 L25.3072765,9.40706861 L25.2806653,9.36715177 L25.2540541,9.32723493 L25.2274428,9.28731809 L25.2008316,9.24740125 L25.1742204,9.22079002 L25.1343035,9.19417879 L25.0943867,9.16756757 L25.0544699,9.14095634 L25.014553,9.11434511 L24.9613306,9.08773389 L24.9081081,9.07442827 L24.8548857,9.06112266 L24.8016632,9.04781705 L24.7351351,9.03451143 L24.6819127,9.02120582 L24.5488565,9.00790021 L24.4024948,9.00790021 L23.777131,9.00790021 L23.777131,13.3987526 L21.0627859,13.3987526 L21.0627859,2.12889813 L21.0893971,2.12889813 Z M36.8432432,2.12889813 L39.5309771,2.12889813 L39.5309771,11.150104 L42.7243243,11.150104 L42.7243243,13.3721414 L36.8432432,13.3721414 L36.8432432,2.12889813 L36.8432432,2.12889813 Z M43.8419958,2.12889813 L46.5430353,2.12889813 L46.5430353,13.385447 L43.8419958,13.385447 L43.8419958,2.12889813 L43.8419958,2.12889813 Z M53.0095634,12.4274428 L52.9962578,12.4806653 L52.9829522,12.5471933 L52.956341,12.6004158 L52.9297297,12.6536383 L52.9031185,12.7201663 L52.8632017,12.7733888 L52.8232848,12.8266112 L52.783368,12.8798337 L52.7301455,12.9330561 L52.6769231,12.9862786 L52.610395,13.039501 L52.5438669,13.0927235 L52.4640333,13.1459459 L52.3841996,13.1858628 L52.2910603,13.2390852 L52.197921,13.2790021 L52.1047817,13.3189189 L52.0116424,13.3588358 L51.9185031,13.3987526 L51.8253638,13.4386694 L51.7322245,13.4785863 L51.6390852,13.5051975 L51.5326403,13.5318087 L51.439501,13.55842 L51.3330561,13.5850312 L51.2399168,13.5983368 L51.1334719,13.6116424 L51.027027,13.624948 L50.9205821,13.6382536 L50.8141372,13.6515593 L50.7076923,13.6515593 L50.5613306,13.6515593 L50.5214137,13.6515593 L50.4814969,13.6515593 L50.4282744,13.6515593 L50.375052,13.6515593 L50.2553015,13.6382536 L50.1355509,13.624948 L50.0158004,13.5983368 L49.8960499,13.5717256 L49.7762994,13.5451143 L49.6565489,13.5051975 L49.5367983,13.4652807 L49.4303534,13.4253638 L49.3239085,13.3721414 L49.2174636,13.3189189 L49.1110187,13.2523909 L49.0045738,13.1858628 L48.8981289,13.1193347 L48.791684,13.039501 L48.6852391,12.9596674 L48.5920998,12.8798337 L48.5388773,12.8266112 L48.4856549,12.7866944 L48.445738,12.7334719 L48.4058212,12.6802495 L48.3259875,12.5738046 L48.2461538,12.4540541 L48.1663202,12.3343035 L48.0997921,12.2012474 L48.0465696,12.0548857 L47.9933472,11.9085239 L47.9401247,11.7488565 L47.9002079,11.5891892 L47.8602911,11.4162162 L47.8336798,11.2299376 L47.8203742,11.043659 L47.8070686,10.8440748 L47.793763,10.6444906 L47.793763,10.4316008 L47.793763,4.94968815 L47.793763,4.76340956 L47.8070686,4.57713098 L47.8203742,4.404158 L47.8469854,4.23118503 L47.8735967,4.07151767 L47.9135135,3.91185031 L47.9534304,3.75218295 L48.0066528,3.60582121 L48.0598753,3.45945946 L48.1264033,3.31309771 L48.1929314,3.18004158 L48.2727651,3.04698545 L48.3525988,2.92723493 L48.445738,2.80748441 L48.5388773,2.7010395 L48.6453222,2.59459459 L48.6985447,2.54137214 L48.7517672,2.48814969 L48.8049896,2.43492723 L48.8715177,2.3950104 L48.9380457,2.34178794 L49.0045738,2.3018711 L49.0711019,2.26195426 L49.1376299,2.22203742 L49.2839917,2.14220374 L49.4303534,2.06237006 L49.5900208,1.995842 L49.7496881,1.92931393 L49.9226611,1.87609148 L50.1089397,1.83617464 L50.2952183,1.7962578 L50.4948025,1.76964657 L50.7076923,1.74303534 L50.9205821,1.72972973 L51.1467775,1.71642412 L51.3862786,1.71642412 L51.5858628,1.71642412 L51.785447,1.72972973 L51.9850312,1.74303534 L52.1713098,1.76964657 L52.3575884,1.7962578 L52.5438669,1.83617464 L52.7168399,1.87609148 L52.8765073,1.91600832 L53.0361746,1.96923077 L53.195842,2.02245322 L53.3422037,2.08898129 L53.4885655,2.15550936 L53.6216216,2.23534304 L53.7546778,2.31517672 L53.8744283,2.40831601 L53.9941788,2.5014553 L54.1006237,2.60790021 L54.2070686,2.71434511 L54.3002079,2.83409563 L54.3933472,2.95384615 L54.4731809,3.08690229 L54.5530146,3.21995842 L54.6195426,3.36632017 L54.6727651,3.51268191 L54.7259875,3.67234927 L54.7659044,3.83201663 L54.8058212,3.99168399 L54.845738,4.16465696 L54.8723493,4.33762994 L54.8989605,4.52390852 L54.9122661,4.71018711 L54.9122661,4.90977131 L54.9122661,5.89438669 L52.1713098,5.89438669 L52.1713098,4.44407484 L52.1713098,4.36424116 L52.1580042,4.28440748 L52.1313929,4.21787942 L52.1047817,4.15135135 L52.0648649,4.08482328 L52.024948,4.03160083 L51.9717256,3.99168399 L51.9185031,3.95176715 L51.8519751,3.91185031 L51.785447,3.87193347 L51.7189189,3.84532225 L51.6523909,3.83201663 L51.5858628,3.81871102 L51.5193347,3.80540541 L51.439501,3.80540541 L51.3596674,3.80540541 L51.3596674,3.80540541 L51.3330561,3.80540541 L51.3064449,3.80540541 L51.2931393,3.80540541 L51.2133056,3.81871102 L51.1334719,3.83201663 L51.0536383,3.84532225 L50.9738046,3.87193347 L50.8939709,3.8985447 L50.8274428,3.93846154 L50.7476091,3.97837838 L50.6810811,4.01829522 L50.614553,4.07151767 L50.5613306,4.12474012 L50.5081081,4.19126819 L50.4681913,4.25779626 L50.44158,4.32432432 L50.4282744,4.404158 L50.4149688,4.48399168 L50.4149688,4.56382536 L50.4149688,10.6444906 L50.4149688,10.7509356 L50.4282744,10.8573805 L50.44158,10.9106029 L50.4548857,10.9638254 L50.4681913,11.0037422 L50.4814969,11.043659 L50.4948025,11.0835759 L50.5214137,11.1234927 L50.5480249,11.1634096 L50.5746362,11.2033264 L50.6012474,11.2432432 L50.6278586,11.2831601 L50.6677755,11.3097713 L50.6943867,11.3496881 L50.7609148,11.4162162 L50.8407484,11.4694387 L50.9072765,11.5093555 L50.9871102,11.5492723 L51.0669439,11.5758836 L51.1467775,11.6024948 L51.2266112,11.629106 L51.3064449,11.6424116 L51.3197505,11.6424116 L51.3463617,11.6424116 L51.372973,11.6424116 L51.3995842,11.6424116 L51.439501,11.6424116 L51.4661123,11.6424116 L51.4927235,11.6424116 L51.5060291,11.6424116 L51.5858628,11.629106 L51.6523909,11.6024948 L51.7322245,11.5758836 L51.7987526,11.5359667 L51.8652807,11.4960499 L51.9318087,11.4561331 L51.9983368,11.4162162 L52.0648649,11.3629938 L52.1313929,11.2964657 L52.1846154,11.2299376 L52.2245322,11.1634096 L52.2644491,11.0968815 L52.2910603,11.0170478 L52.3176715,10.9372141 L52.3309771,10.8573805 L52.3309771,10.7642412 L52.3309771,9.31392931 L51.3995842,9.31392931 L51.3995842,7.3047817 L54.9388773,7.3047817 L54.9388773,13.3455301 L53.1426195,13.3455301 L53.0095634,12.4274428 L53.0095634,12.4274428 Z M58.3983368,2.12889813 L61.4852391,2.12889813 L63.9866944,13.385447 L61.245738,13.385447 L60.8997921,11.1634096 L58.8773389,11.1634096 L58.5313929,13.385447 L55.843659,13.385447 L58.3983368,2.12889813 L58.3983368,2.12889813 Z M64.8781705,2.12889813 L68.8033264,2.12889813 L68.9762994,2.12889813 L69.1492723,2.14220374 L69.3089397,2.15550936 L69.4686071,2.18212058 L69.6282744,2.1954262 L69.7746362,2.22203742 L69.9209979,2.26195426 L70.0673597,2.3018711 L70.2004158,2.34178794 L70.3467775,2.3950104 L70.4798337,2.44823285 L70.5995842,2.51476091 L70.7193347,2.58128898 L70.8390852,2.64781705 L70.9455301,2.72765073 L71.0519751,2.80748441 L71.15842,2.88731809 L71.2515593,2.98045738 L71.3446985,3.08690229 L71.4378378,3.19334719 L71.5176715,3.31309771 L71.5975052,3.43284823 L71.6640333,3.55259875 L71.7305613,3.68565489 L71.7837838,3.83201663 L71.8370062,3.97837838 L71.8769231,4.12474012 L71.9168399,4.28440748 L71.9434511,4.44407484 L71.9700624,4.61704782 L71.9966736,4.79002079 L72.0099792,4.97629938 L72.0099792,5.10935551 L72.0099792,5.24241164 L71.9966736,5.36216216 L71.983368,5.48191268 L71.9700624,5.6016632 L71.9567568,5.72141372 L71.9434511,5.84116424 L71.9168399,5.96091476 L71.8902287,6.06735967 L71.8636175,6.17380457 L71.8370062,6.28024948 L71.810395,6.38669439 L71.7704782,6.47983368 L71.7305613,6.58627859 L71.7039501,6.67941788 L71.6640333,6.77255717 L71.6108108,6.86569647 L71.570894,6.94553015 L71.5176715,7.02536383 L71.4644491,7.10519751 L71.4112266,7.18503119 L71.3446985,7.26486486 L71.2781705,7.33139293 L71.2116424,7.397921 L71.1451143,7.46444906 L71.0652807,7.53097713 L70.985447,7.5975052 L70.9056133,7.65072765 L70.8257796,7.7039501 L70.7326403,7.75717256 L70.639501,7.7970894 L70.5463617,7.85031185 L70.6927235,7.9035343 L70.8390852,7.95675676 L70.9721414,8.00997921 L71.0918919,8.07650728 L71.2116424,8.14303534 L71.3180873,8.22286902 L71.4112266,8.3027027 L71.5043659,8.38253638 L71.5442827,8.43575884 L71.5841996,8.47567568 L71.6108108,8.51559252 L71.6507277,8.56881497 L71.6773389,8.62203742 L71.7039501,8.67525988 L71.7305613,8.72848233 L71.7438669,8.78170478 L71.7704782,8.83492723 L71.7970894,8.9014553 L71.810395,8.95467775 L71.8237006,9.00790021 L71.8370062,9.07442827 L71.8370062,9.14095634 L71.8503119,9.20748441 L71.8503119,9.27401247 L71.9700624,12.0149688 L71.9700624,12.1613306 L71.983368,12.3076923 L71.9966736,12.4274428 L72.0099792,12.5338877 L72.0365904,12.627027 L72.0632017,12.7068607 L72.0898129,12.7866944 L72.1297297,12.8532225 L72.1696466,12.9064449 L72.2095634,12.9463617 L72.2494802,12.9862786 L72.2893971,13.0128898 L72.3293139,13.039501 L72.3692308,13.0528067 L72.4091476,13.0661123 L72.4490644,13.0661123 L72.4490644,13.4253638 L70.0540541,13.4253638 L69.9343035,13.4253638 L69.8278586,13.4120582 L69.7347193,13.3987526 L69.64158,13.385447 L69.5617464,13.3588358 L69.4952183,13.3322245 L69.4686071,13.3189189 L69.4419958,13.3056133 L69.4153846,13.2790021 L69.3887734,13.2656965 L69.3754678,13.2390852 L69.3488565,13.212474 L69.3355509,13.1858628 L69.3222453,13.1459459 L69.2956341,13.0661123 L69.2690229,12.972973 L69.2424116,12.8665281 L69.229106,12.7467775 L69.229106,12.6137214 L69.229106,12.4673597 L69.229106,10.1122661 L69.2158004,9.97920998 L69.2024948,9.85945946 L69.1891892,9.73970894 L69.162578,9.63326403 L69.1359667,9.54012474 L69.0960499,9.44698545 L69.0827443,9.40706861 L69.0561331,9.36715177 L69.0295218,9.32723493 L69.0029106,9.28731809 L68.9762994,9.24740125 L68.9496881,9.22079002 L68.9097713,9.19417879 L68.8698545,9.16756757 L68.8299376,9.14095634 L68.7900208,9.11434511 L68.750104,9.08773389 L68.6968815,9.07442827 L68.643659,9.06112266 L68.5904366,9.04781705 L68.5372141,9.03451143 L68.4706861,9.02120582 L68.3376299,9.00790021 L68.1912682,9.00790021 L67.5925156,9.00790021 L67.5925156,13.3987526 L64.8781705,13.3987526 L64.8781705,2.12889813 L64.8781705,2.12889813 Z M73.3405405,2.12889813 L79.5808732,2.12889813 L79.5808732,4.24449064 L76.0282744,4.24449064 L76.0282744,6.4 L79.3413721,6.4 L79.3413721,8.74178794 L76.0282744,8.74178794 L76.0282744,11.1367983 L79.5808732,11.1367983 L79.5808732,13.3588358 L73.3405405,13.3588358 L73.3405405,2.12889813 L73.3405405,2.12889813 Z M58.1588358,0.479002079 L58.2519751,0.665280665 L58.3451143,0.824948025 L58.4515593,0.944698545 L58.5580042,1.05114345 L58.6644491,1.13097713 L58.770894,1.1975052 L58.8906445,1.23742204 L59.010395,1.26403326 L59.1301455,1.27733888 L59.249896,1.27733888 L59.3696466,1.26403326 L59.4893971,1.23742204 L59.6091476,1.21081081 L59.7288981,1.17089397 L59.8486486,1.13097713 L59.9683992,1.07775468 L60.2079002,0.971309771 L60.4340956,0.864864865 L60.5538462,0.824948025 L60.6602911,0.785031185 L60.766736,0.745114345 L60.8731809,0.718503119 L60.9663202,0.705197505 L61.0594595,0.705197505 L61.1525988,0.718503119 L61.245738,0.745114345 L61.3255717,0.785031185 L61.4054054,0.838253638 L61.4719335,0.918087318 L61.5251559,1.02453222 L61.5650728,0.997920998 L61.6182952,0.958004158 L61.6715177,0.918087318 L61.7114345,0.891476091 L61.6182952,0.705197505 L61.5251559,0.545530146 L61.418711,0.412474012 L61.3122661,0.306029106 L61.2058212,0.226195426 L61.0993763,0.15966736 L60.9796258,0.11975052 L60.8598753,0.0931392931 L60.7401247,0.0798336798 L60.6203742,0.0798336798 L60.5006237,0.0931392931 L60.3808732,0.11975052 L60.2611227,0.15966736 L60.1413721,0.1995842 L60.0216216,0.23950104 L59.9018711,0.292723493 L59.6623701,0.399168399 L59.4361746,0.505613306 L59.3164241,0.558835759 L59.2099792,0.598752599 L59.1035343,0.638669439 L58.9970894,0.665280665 L58.9039501,0.678586279 L58.8108108,0.678586279 L58.7176715,0.665280665 L58.6378378,0.638669439 L58.5580042,0.598752599 L58.4781705,0.532224532 L58.4116424,0.452390852 L58.3451143,0.345945946 L58.3051975,0.372557173 L58.2519751,0.412474012 L58.1987526,0.452390852 L58.1588358,0.479002079 L58.1588358,0.479002079 Z M68.2045738,6.98544699 L68.2577963,6.98544699 L68.3110187,6.98544699 L68.3509356,6.98544699 L68.3908524,6.97214137 L68.4440748,6.95883576 L68.4839917,6.94553015 L68.5239085,6.93222453 L68.5638254,6.91891892 L68.6569647,6.87900208 L68.7367983,6.82577963 L68.8299376,6.75925156 L68.9097713,6.67941788 L68.9496881,6.63950104 L68.989605,6.5995842 L69.0295218,6.54636175 L69.0561331,6.49313929 L69.0827443,6.43991684 L69.1093555,6.38669439 L69.1359667,6.32016632 L69.162578,6.25363825 L69.1758836,6.18711019 L69.2024948,6.12058212 L69.2158004,6.04074844 L69.229106,5.96091476 L69.2424116,5.88108108 L69.2424116,5.8012474 L69.2557173,5.72141372 L69.2557173,5.62827443 L69.2557173,5.30893971 L69.229106,5.18918919 L69.2024948,5.06943867 L69.1758836,4.96299376 L69.1492723,4.85654886 L69.1226611,4.76340956 L69.0827443,4.68357588 L69.0428274,4.6037422 L69.0162162,4.53721414 L68.9762994,4.47068607 L68.9363825,4.404158 L68.8964657,4.35093555 L68.8432432,4.31101871 L68.8033264,4.27110187 L68.750104,4.23118503 L68.6968815,4.2045738 L68.643659,4.17796258 L68.5372141,4.13804574 L68.4174636,4.0981289 L68.2977131,4.07151767 L68.164657,4.04490644 L68.0316008,4.03160083 L67.8852391,4.01829522 L67.7388773,4.01829522 L67.57921,4.01829522 L67.57921,7.01205821 L68.2045738,7.01205821 L68.2045738,6.98544699 Z M60.5405405,9.1010395 L59.8486486,4.11143451 L59.1035343,9.1010395 L60.5405405,9.1010395 L60.5405405,9.1010395 Z M24.4158004,6.98544699 L24.4690229,6.98544699 L24.5089397,6.98544699 L24.5621622,6.98544699 L24.602079,6.97214137 L24.6419958,6.95883576 L24.6952183,6.94553015 L24.7351351,6.93222453 L24.775052,6.91891892 L24.8681913,6.87900208 L24.9480249,6.82577963 L25.0278586,6.75925156 L25.1076923,6.67941788 L25.1476091,6.63950104 L25.187526,6.5995842 L25.2274428,6.54636175 L25.2673597,6.49313929 L25.2939709,6.43991684 L25.3205821,6.38669439 L25.3471933,6.32016632 L25.360499,6.25363825 L25.3871102,6.18711019 L25.4004158,6.12058212 L25.4137214,6.04074844 L25.427027,5.96091476 L25.427027,5.88108108 L25.4403326,5.8012474 L25.4403326,5.72141372 L25.4403326,5.62827443 L25.4403326,5.30893971 L25.4137214,5.18918919 L25.3871102,5.06943867 L25.360499,4.96299376 L25.3338877,4.85654886 L25.3072765,4.76340956 L25.2673597,4.68357588 L25.2274428,4.6037422 L25.187526,4.53721414 L25.1476091,4.47068607 L25.1476091,4.39085239 L25.1076923,4.33762994 L25.0677755,4.2977131 L25.014553,4.25779626 L24.9613306,4.21787942 L24.9081081,4.19126819 L24.8548857,4.16465696 L24.7484407,4.12474012 L24.6286902,4.08482328 L24.5089397,4.05821206 L24.3758836,4.03160083 L24.2295218,4.01829522 L24.0831601,4.0049896 L23.9367983,4.0049896 L23.777131,4.0049896 L23.777131,6.9987526 L24.4158004,6.9987526 L24.4158004,6.98544699 Z M62.3767152,14.9954262 L62.3767152,18.6278586 L61.6981289,18.6278586 L61.6981289,18.2686071 L61.6582121,18.3351351 L61.6182952,18.3883576 L61.5783784,18.44158 L61.5384615,18.4814969 L61.4985447,18.5214137 L61.4586279,18.5613306 L61.4054054,18.5879418 L61.3654886,18.614553 L61.3122661,18.6411642 L61.2590437,18.6677755 L61.2058212,18.6810811 L61.1525988,18.6943867 L61.0993763,18.7076923 L61.0328482,18.7209979 L60.9796258,18.7209979 L60.9130977,18.7209979 L60.8598753,18.7209979 L60.7933472,18.7209979 L60.7401247,18.7076923 L60.6869023,18.6943867 L60.6336798,18.6810811 L60.5804574,18.6677755 L60.5272349,18.6544699 L60.4740125,18.6278586 L60.4340956,18.6012474 L60.3808732,18.5746362 L60.3409563,18.5480249 L60.2744283,18.4948025 L60.2345114,18.4548857 L60.1945946,18.4149688 L60.1546778,18.375052 L60.1147609,18.3351351 L60.0748441,18.2819127 L60.0482328,18.2286902 L60.0216216,18.1754678 L59.9950104,18.1222453 L59.9683992,18.0690229 L59.9417879,18.0024948 L59.9151767,17.9359667 L59.8885655,17.8694387 L59.8619543,17.8029106 L59.8486486,17.7363825 L59.835343,17.6698545 L59.8220374,17.6033264 L59.8087318,17.5234927 L59.8087318,17.443659 L59.8087318,17.3638254 L59.8087318,17.2839917 L59.8087318,17.204158 L59.8087318,17.1243243 L59.8087318,17.0444906 L59.8220374,16.964657 L59.835343,16.8981289 L59.8486486,16.8316008 L59.8619543,16.7650728 L59.8885655,16.6985447 L59.9151767,16.6320166 L59.9417879,16.5787942 L59.9683992,16.5122661 L59.9950104,16.4590437 L60.0216216,16.4058212 L60.0482328,16.3525988 L60.0748441,16.2993763 L60.1147609,16.2461538 L60.1546778,16.206237 L60.1945946,16.1530146 L60.2345114,16.1130977 L60.2744283,16.0731809 L60.3143451,16.033264 L60.3675676,15.9933472 L60.42079,15.966736 L60.4740125,15.9401247 L60.5272349,15.9135135 L60.5671518,15.8869023 L60.6203742,15.8735967 L60.6735967,15.8602911 L60.7268191,15.8469854 L60.7800416,15.8336798 L60.833264,15.8336798 L60.8997921,15.8336798 L60.9663202,15.8336798 L61.0328482,15.8469854 L61.0860707,15.8469854 L61.1392931,15.8602911 L61.1925156,15.8735967 L61.245738,15.8869023 L61.2989605,15.9135135 L61.352183,15.9401247 L61.4054054,15.966736 L61.4586279,15.9933472 L61.4985447,16.033264 L61.5384615,16.0731809 L61.5783784,16.1130977 L61.6182952,16.1530146 L61.6582121,16.206237 L61.6848233,16.2594595 L61.6848233,14.9821206 L62.3767152,14.9821206 L62.3767152,14.9954262 Z M60.5139293,17.2706861 L60.5139293,17.3638254 L60.5272349,17.4569647 L60.5405405,17.5367983 L60.5538462,17.616632 L60.5804574,17.6964657 L60.6070686,17.7629938 L60.6336798,17.8295218 L60.6735967,17.8827443 L60.7135135,17.9359667 L60.7534304,17.9758836 L60.8066528,18.0158004 L60.8598753,18.0424116 L60.9130977,18.0690229 L60.9663202,18.0823285 L61.0328482,18.0956341 L61.0993763,18.0956341 L61.1659044,18.0956341 L61.2324324,18.0823285 L61.2856549,18.0690229 L61.352183,18.0424116 L61.4054054,18.0158004 L61.4586279,17.9758836 L61.4985447,17.9359667 L61.5384615,17.8960499 L61.5783784,17.8295218 L61.6049896,17.7629938 L61.6316008,17.6964657 L61.6582121,17.616632 L61.6715177,17.5367983 L61.6848233,17.4569647 L61.6981289,17.3638254 L61.6981289,17.2706861 L61.6981289,17.1775468 L61.6848233,17.0977131 L61.6715177,17.0178794 L61.6582121,16.9380457 L61.6316008,16.8715177 L61.6049896,16.8049896 L61.5783784,16.7384615 L61.5384615,16.6852391 L61.4985447,16.6453222 L61.4586279,16.5920998 L61.4054054,16.552183 L61.352183,16.5255717 L61.2989605,16.4989605 L61.2324324,16.4856549 L61.1659044,16.4723493 L61.0993763,16.4723493 L61.0328482,16.4723493 L60.9663202,16.4856549 L60.9130977,16.4989605 L60.8598753,16.5255717 L60.8066528,16.552183 L60.766736,16.5920998 L60.7268191,16.6320166 L60.6869023,16.6719335 L60.6469854,16.7251559 L60.6070686,16.791684 L60.5804574,16.8582121 L60.5538462,16.9247401 L60.5405405,17.0045738 L60.5272349,17.0844075 L60.5139293,17.1642412 L60.5139293,17.2706861 L60.5139293,17.2706861 Z M56.7484407,18.6278586 L56.7484407,15.9534304 L57.4536383,15.9534304 L57.4536383,16.2727651 L57.4935551,16.2195426 L57.5334719,16.1796258 L57.5733888,16.1397089 L57.6133056,16.0997921 L57.6532225,16.0598753 L57.6931393,16.0199584 L57.7463617,15.9933472 L57.7995842,15.966736 L57.8528067,15.9401247 L57.9060291,15.9268191 L57.9592516,15.9135135 L58.012474,15.9002079 L58.0656965,15.8869023 L58.1189189,15.8735967 L58.185447,15.8735967 L58.2519751,15.8735967 L58.35842,15.8735967 L58.4515593,15.8869023 L58.5446985,15.9002079 L58.6245322,15.9268191 L58.7043659,15.9534304 L58.7841996,15.9933472 L58.8507277,16.033264 L58.9039501,16.0864865 L58.9571726,16.1530146 L58.9970894,16.2195426 L59.0370062,16.2993763 L59.0636175,16.37921 L59.0902287,16.4723493 L59.1035343,16.5654886 L59.1168399,16.6719335 L59.1301455,16.791684 L59.1301455,18.6278586 L58.4116424,18.6278586 L58.4116424,17.0045738 L58.4116424,16.9380457 L58.4116424,16.8715177 L58.4116424,16.8182952 L58.3983368,16.7650728 L58.3850312,16.7118503 L58.35842,16.6719335 L58.3451143,16.6320166 L58.3185031,16.5920998 L58.2918919,16.5654886 L58.2652807,16.5388773 L58.2253638,16.5255717 L58.185447,16.4989605 L58.1455301,16.4856549 L58.1056133,16.4723493 L58.0523909,16.4723493 L57.9991684,16.4723493 L57.9326403,16.4723493 L57.8794179,16.4723493 L57.8261954,16.4856549 L57.772973,16.5122661 L57.7197505,16.5255717 L57.6798337,16.552183 L57.6399168,16.5787942 L57.6,16.618711 L57.5600832,16.6586279 L57.5334719,16.6985447 L57.5068607,16.7384615 L57.4802495,16.791684 L57.4669439,16.8449064 L57.4536383,16.8981289 L57.4403326,16.964657 L57.4403326,17.031185 L57.4403326,18.6278586 L56.7484407,18.6278586 L56.7484407,18.6278586 Z M55.2182952,15.6607069 L55.2182952,15.0087318 L55.9367983,15.0087318 L55.9367983,15.6607069 L55.2182952,15.6607069 L55.2182952,15.6607069 Z M55.2182952,18.6278586 L55.2182952,15.9534304 L55.9367983,15.9534304 L55.9367983,18.6278586 L55.2182952,18.6278586 L55.2182952,18.6278586 Z M51.9717256,14.9954262 L52.6636175,14.9954262 L52.6636175,16.2727651 L52.6902287,16.2195426 L52.7301455,16.1663202 L52.7700624,16.1264033 L52.8099792,16.0864865 L52.849896,16.0465696 L52.8898129,16.0199584 L52.9297297,15.9800416 L52.9829522,15.9534304 L53.0361746,15.9268191 L53.0893971,15.9135135 L53.1426195,15.8869023 L53.2091476,15.8735967 L53.2623701,15.8602911 L53.3155925,15.8469854 L53.3821206,15.8469854 L53.4486486,15.8469854 L53.5018711,15.8469854 L53.5550936,15.8469854 L53.608316,15.8602911 L53.6615385,15.8735967 L53.7147609,15.8869023 L53.7679834,15.9002079 L53.8212058,15.9268191 L53.8744283,15.9534304 L53.9276507,15.9800416 L53.9808732,16.0066528 L54.02079,16.0465696 L54.0607069,16.0864865 L54.1006237,16.1264033 L54.1405405,16.1663202 L54.1804574,16.2195426 L54.2203742,16.2594595 L54.2602911,16.3126819 L54.3002079,16.3659044 L54.3268191,16.4191268 L54.3534304,16.4723493 L54.3800416,16.5255717 L54.4066528,16.5920998 L54.433264,16.6453222 L54.4598753,16.7118503 L54.4731809,16.7783784 L54.4864865,16.8449064 L54.4997921,16.9114345 L54.5130977,16.9779626 L54.5264033,17.0577963 L54.5264033,17.1376299 L54.5264033,17.2174636 L54.5264033,17.2972973 L54.5264033,17.377131 L54.5264033,17.4569647 L54.5264033,17.5367983 L54.5130977,17.616632 L54.4997921,17.6831601 L54.4864865,17.7496881 L54.4731809,17.8162162 L54.4598753,17.8827443 L54.433264,17.9492723 L54.4066528,18.0158004 L54.3800416,18.0823285 L54.3534304,18.1355509 L54.3268191,18.1887734 L54.3002079,18.2419958 L54.2602911,18.2952183 L54.2203742,18.3484407 L54.1804574,18.3883576 L54.1405405,18.4282744 L54.1006237,18.4681913 L54.0607069,18.5081081 L54.02079,18.5480249 L53.9675676,18.5746362 L53.9276507,18.6012474 L53.8744283,18.6278586 L53.8212058,18.6544699 L53.7679834,18.6677755 L53.7147609,18.6810811 L53.6615385,18.6943867 L53.608316,18.7076923 L53.5550936,18.7209979 L53.4885655,18.7209979 L53.435343,18.7209979 L53.368815,18.7209979 L53.3155925,18.7209979 L53.2490644,18.7076923 L53.195842,18.6943867 L53.1426195,18.6810811 L53.0893971,18.6677755 L53.0361746,18.6411642 L52.9829522,18.614553 L52.9430353,18.5879418 L52.9031185,18.5613306 L52.8632017,18.5214137 L52.8232848,18.4814969 L52.783368,18.44158 L52.7434511,18.3883576 L52.7035343,18.3351351 L52.6636175,18.2686071 L52.6636175,18.6278586 L51.9850312,18.6278586 L51.9850312,14.9954262 L51.9717256,14.9954262 Z M53.8345114,17.2706861 L53.8345114,17.1775468 L53.8345114,17.0977131 L53.8212058,17.0178794 L53.8079002,16.9380457 L53.781289,16.8715177 L53.7546778,16.8049896 L53.7280665,16.7384615 L53.6881497,16.6852391 L53.6482328,16.6453222 L53.608316,16.6054054 L53.5550936,16.5654886 L53.5018711,16.5388773 L53.4486486,16.5122661 L53.3954262,16.4989605 L53.3288981,16.4856549 L53.2623701,16.4856549 L53.195842,16.4856549 L53.1293139,16.4989605 L53.0627859,16.5122661 L53.0095634,16.5388773 L52.956341,16.5654886 L52.9031185,16.6054054 L52.8632017,16.6586279 L52.8232848,16.6985447 L52.783368,16.7517672 L52.7567568,16.8182952 L52.7301455,16.8848233 L52.7035343,16.9513514 L52.6902287,17.031185 L52.6769231,17.1110187 L52.6636175,17.1908524 L52.6636175,17.2839917 L52.6636175,17.377131 L52.6769231,17.4702703 L52.6902287,17.550104 L52.7035343,17.6299376 L52.7301455,17.7097713 L52.7567568,17.7762994 L52.783368,17.8428274 L52.8232848,17.9093555 L52.8632017,17.9492723 L52.9031185,17.9891892 L52.956341,18.029106 L53.0095634,18.0557173 L53.0627859,18.0823285 L53.1293139,18.0956341 L53.195842,18.1089397 L53.2623701,18.1089397 L53.3288981,18.1089397 L53.3954262,18.0956341 L53.4486486,18.0823285 L53.5018711,18.0557173 L53.5550936,18.029106 L53.5950104,17.9891892 L53.6349272,17.9492723 L53.6748441,17.8960499 L53.7147609,17.8428274 L53.7546778,17.7762994 L53.781289,17.7097713 L53.8079002,17.6299376 L53.8212058,17.550104 L53.8345114,17.4702703 L53.8345114,17.377131 L53.8345114,17.2706861 L53.8345114,17.2706861 Z M49.3372141,18.6411642 L49.2839917,18.6411642 L49.2307692,18.6411642 L49.1775468,18.6411642 L49.1110187,18.6411642 L49.0577963,18.6411642 L49.0045738,18.6411642 L48.964657,18.6411642 L48.9380457,18.6411642 L48.8449064,18.6411642 L48.7517672,18.6411642 L48.6719335,18.6278586 L48.5920998,18.614553 L48.5255717,18.5879418 L48.4723493,18.5613306 L48.4191268,18.5347193 L48.37921,18.4948025 L48.3392931,18.4548857 L48.3126819,18.4016632 L48.2860707,18.3351351 L48.2594595,18.2686071 L48.2461538,18.1887734 L48.2328482,18.0956341 L48.2195426,18.0024948 L48.2195426,17.8960499 L48.2195426,16.445738 L47.8602911,16.445738 L47.8602911,15.9401247 L48.2195426,15.9401247 L48.2195426,15.208316 L48.9247401,15.208316 L48.9247401,15.9401247 L49.3372141,15.9401247 L49.3372141,16.445738 L48.9247401,16.445738 L48.9247401,17.9226611 L48.9247401,17.9758836 L48.9380457,18.0158004 L48.9513514,18.0424116 L48.964657,18.0690229 L48.9912682,18.0823285 L49.031185,18.0956341 L49.0844075,18.1089397 L49.1509356,18.1089397 L49.3239085,18.1089397 L49.3239085,18.6411642 L49.3372141,18.6411642 Z M46.6760915,18.2952183 L46.6494802,18.3484407 L46.6095634,18.3883576 L46.5696466,18.4282744 L46.5297297,18.4681913 L46.4898129,18.5081081 L46.4365904,18.5480249 L46.383368,18.5746362 L46.3301455,18.6012474 L46.2769231,18.6278586 L46.210395,18.6544699 L46.1571726,18.6677755 L46.0906445,18.6810811 L46.0241164,18.6943867 L45.9575884,18.7076923 L45.8910603,18.7076923 L45.8245322,18.7076923 L45.7313929,18.7076923 L45.6382536,18.6943867 L45.55842,18.6810811 L45.4785863,18.6544699 L45.4120582,18.6278586 L45.3455301,18.5879418 L45.2923077,18.5480249 L45.2390852,18.4948025 L45.1858628,18.4282744 L45.1459459,18.3617464 L45.1060291,18.2952183 L45.0794179,18.2153846 L45.0528067,18.1355509 L45.039501,18.0424116 L45.0261954,17.9492723 L45.0261954,17.8561331 L45.0261954,17.7629938 L45.039501,17.6831601 L45.0528067,17.6033264 L45.0794179,17.5234927 L45.1060291,17.4569647 L45.1459459,17.3904366 L45.1858628,17.3372141 L45.2390852,17.2839917 L45.2923077,17.2307692 L45.3588358,17.1908524 L45.4253638,17.1509356 L45.5051975,17.1110187 L45.5983368,17.0844075 L45.6914761,17.0577963 L45.797921,17.031185 L45.9176715,17.0178794 L45.9841996,17.0045738 L46.0507277,16.9912682 L46.1305613,16.9779626 L46.210395,16.964657 L46.3168399,16.9513514 L46.4099792,16.9247401 L46.4898129,16.8981289 L46.556341,16.8715177 L46.5829522,16.8582121 L46.6095634,16.8316008 L46.6361746,16.8182952 L46.6494802,16.791684 L46.6627859,16.7650728 L46.6760915,16.7384615 L46.6760915,16.7118503 L46.6760915,16.6852391 L46.6760915,16.6453222 L46.6760915,16.6054054 L46.6760915,16.5787942 L46.6627859,16.552183 L46.6494802,16.5255717 L46.622869,16.4989605 L46.6095634,16.4723493 L46.5829522,16.4590437 L46.556341,16.445738 L46.5297297,16.4324324 L46.4898129,16.4191268 L46.449896,16.4058212 L46.4099792,16.4058212 L46.3567568,16.4058212 L46.3035343,16.4058212 L46.2503119,16.4058212 L46.1704782,16.4058212 L46.1305613,16.4058212 L46.0773389,16.4058212 L46.037422,16.4191268 L45.9975052,16.4324324 L45.9575884,16.445738 L45.9176715,16.4590437 L45.8910603,16.4856549 L45.8644491,16.5122661 L45.8378378,16.5388773 L45.8112266,16.5654886 L45.797921,16.5920998 L45.7846154,16.618711 L45.7846154,16.6586279 L45.7846154,16.6985447 L45.7713098,16.7384615 L45.7713098,16.7783784 L45.1060291,16.7783784 L45.1060291,16.7251559 L45.1060291,16.618711 L45.1193347,16.5255717 L45.1326403,16.4856549 L45.1459459,16.445738 L45.1592516,16.4058212 L45.1858628,16.3659044 L45.1991684,16.3259875 L45.212474,16.2860707 L45.2390852,16.2461538 L45.2656965,16.206237 L45.2923077,16.1663202 L45.3189189,16.1397089 L45.3455301,16.0997921 L45.385447,16.0731809 L45.4253638,16.0465696 L45.4652807,16.0199584 L45.5051975,15.9933472 L45.5451143,15.9800416 L45.6382536,15.9401247 L45.7446985,15.9002079 L45.8378378,15.8735967 L45.9442827,15.8602911 L46.0640333,15.8469854 L46.1837838,15.8469854 L46.3168399,15.8469854 L46.449896,15.8602911 L46.5696466,15.8735967 L46.6760915,15.9002079 L46.7825364,15.9268191 L46.8756757,15.966736 L46.9555094,16.0066528 L47.035343,16.0465696 L47.1018711,16.0997921 L47.1683992,16.1530146 L47.1950104,16.1796258 L47.2216216,16.206237 L47.2349272,16.2461538 L47.2615385,16.2860707 L47.2748441,16.3259875 L47.2881497,16.3659044 L47.3014553,16.4058212 L47.3147609,16.445738 L47.3280665,16.5255717 L47.3280665,16.618711 L47.3280665,18.1355509 L47.3280665,18.2153846 L47.3413721,18.2819127 L47.3546778,18.3484407 L47.3679834,18.3883576 L47.3945946,18.4282744 L47.4212058,18.4548857 L47.447817,18.4814969 L47.4877339,18.5081081 L47.4877339,18.6278586 L46.7426195,18.6278586 L46.7293139,18.5879418 L46.7160083,18.5480249 L46.7027027,18.5081081 L46.6893971,18.4681913 L46.6893971,18.4282744 L46.6760915,18.3883576 L46.6760915,18.3484407 L46.6760915,18.2952183 L46.6760915,18.2952183 Z M46.6760915,17.3106029 L46.5829522,17.3505198 L46.4898129,17.3904366 L46.383368,17.4170478 L46.2769231,17.443659 L46.1837838,17.4702703 L46.1039501,17.4835759 L46.0640333,17.4968815 L46.0507277,17.4968815 L45.9575884,17.5234927 L45.8910603,17.5634096 L45.8511435,17.5767152 L45.8245322,17.5900208 L45.797921,17.616632 L45.7713098,17.6299376 L45.7446985,17.6432432 L45.7313929,17.6698545 L45.7180873,17.6964657 L45.7047817,17.7230769 L45.6914761,17.7496881 L45.6914761,17.7762994 L45.6914761,17.8162162 L45.6914761,17.8561331 L45.6914761,17.8960499 L45.6914761,17.9359667 L45.7047817,17.962578 L45.7180873,17.9891892 L45.7313929,18.0158004 L45.7446985,18.0424116 L45.7713098,18.0690229 L45.797921,18.0956341 L45.8245322,18.1089397 L45.8511435,18.1222453 L45.8777547,18.1355509 L45.9176715,18.1488565 L45.9442827,18.1621622 L45.9841996,18.1621622 L46.0241164,18.1621622 L46.0640333,18.1621622 L46.1305613,18.1621622 L46.1970894,18.1488565 L46.2636175,18.1355509 L46.3301455,18.1222453 L46.383368,18.0956341 L46.4365904,18.0690229 L46.4898129,18.029106 L46.5297297,17.9891892 L46.5696466,17.9492723 L46.5962578,17.9093555 L46.622869,17.8561331 L46.6494802,17.8029106 L46.6760915,17.7363825 L46.6893971,17.6831601 L46.6893971,17.616632 L46.6893971,17.550104 L46.6893971,17.3106029 L46.6760915,17.3106029 Z M41.9659044,18.6278586 L41.9659044,15.0087318 L42.6711019,15.0087318 L42.6711019,16.2461538 L42.7110187,16.206237 L42.7509356,16.1663202 L42.7908524,16.1264033 L42.8307692,16.0864865 L42.8706861,16.0598753 L42.9106029,16.033264 L42.9638254,16.0066528 L43.0170478,15.9933472 L43.0702703,15.966736 L43.1234927,15.9401247 L43.1767152,15.9268191 L43.2299376,15.9135135 L43.2964657,15.9002079 L43.3496881,15.8869023 L43.4029106,15.8869023 L43.4694387,15.8869023 L43.5226611,15.8869023 L43.5758836,15.8869023 L43.629106,15.8869023 L43.6823285,15.9002079 L43.7355509,15.9135135 L43.7887734,15.9268191 L43.8419958,15.9401247 L43.8819127,15.966736 L43.9351351,15.9933472 L43.975052,16.0066528 L44.0149688,16.033264 L44.0548857,16.0598753 L44.0948025,16.0864865 L44.1347193,16.1130977 L44.1746362,16.1530146 L44.2012474,16.1929314 L44.2411642,16.2461538 L44.2677755,16.2993763 L44.2943867,16.3525988 L44.3209979,16.4191268 L44.3343035,16.4989605 L44.3476091,16.5920998 L44.3476091,16.7118503 L44.3476091,16.8449064 L44.3476091,16.8848233 L44.3476091,18.6278586 L43.6424116,18.6278586 L43.6424116,17.2307692 L43.6424116,17.1110187 L43.6424116,17.0045738 L43.6424116,16.9114345 L43.629106,16.8316008 L43.6158004,16.7517672 L43.6024948,16.6985447 L43.5891892,16.6453222 L43.562578,16.6054054 L43.5359667,16.5787942 L43.5093555,16.552183 L43.4694387,16.5388773 L43.4295218,16.5255717 L43.3762994,16.4989605 L43.3230769,16.4856549 L43.2698545,16.4856549 L43.2033264,16.4856549 L43.150104,16.4856549 L43.0835759,16.4856549 L43.0303534,16.4989605 L42.977131,16.5255717 L42.9239085,16.5388773 L42.8706861,16.5654886 L42.8307692,16.5920998 L42.7908524,16.6320166 L42.7642412,16.6719335 L42.7376299,16.7118503 L42.7110187,16.7517672 L42.6977131,16.8049896 L42.6844075,16.8582121 L42.6711019,16.9114345 L42.6711019,16.9779626 L42.6711019,17.0444906 L42.6711019,18.6278586 L41.9659044,18.6278586 L41.9659044,18.6278586 Z M41.3671518,18.6411642 L41.3139293,18.6411642 L41.2474012,18.6411642 L41.1808732,18.6411642 L41.1143451,18.6411642 L41.047817,18.6411642 L41.0079002,18.6411642 L40.9679834,18.6411642 L40.9413721,18.6411642 L40.8482328,18.6411642 L40.7550936,18.6411642 L40.6752599,18.6278586 L40.5954262,18.614553 L40.5288981,18.5879418 L40.4623701,18.5613306 L40.4091476,18.5347193 L40.3692308,18.4948025 L40.3293139,18.4548857 L40.3027027,18.4016632 L40.2760915,18.3351351 L40.2494802,18.2686071 L40.2361746,18.1887734 L40.222869,18.0956341 L40.222869,18.0024948 L40.222869,17.8960499 L40.222869,16.445738 L39.8636175,16.445738 L39.8636175,15.9401247 L40.222869,15.9401247 L40.222869,15.208316 L40.9280665,15.208316 L40.9280665,15.9401247 L41.3405405,15.9401247 L41.3405405,16.445738 L40.9280665,16.445738 L40.9280665,17.9226611 L40.9280665,17.9758836 L40.9413721,18.0158004 L40.9546778,18.0424116 L40.981289,18.0690229 L41.0079002,18.0823285 L41.047817,18.0956341 L41.1010395,18.1089397 L41.1675676,18.1089397 L41.3405405,18.1089397 L41.3405405,18.6411642 L41.3671518,18.6411642 Z M35.1002079,17.7496881 L35.8054054,17.7496881 L35.8054054,17.8029106 L35.8054054,17.8428274 L35.818711,17.8827443 L35.8320166,17.9226611 L35.8453222,17.962578 L35.8719335,18.0024948 L35.8985447,18.029106 L35.9251559,18.0557173 L35.9650728,18.0823285 L36.0049896,18.1089397 L36.0449064,18.1222453 L36.0981289,18.1355509 L36.1513514,18.1488565 L36.2045738,18.1621622 L36.2711019,18.1621622 L36.3376299,18.1621622 L36.4440748,18.1621622 L36.5239085,18.1488565 L36.5638254,18.1355509 L36.6037422,18.1222453 L36.643659,18.1089397 L36.6702703,18.0956341 L36.6968815,18.0823285 L36.7234927,18.0557173 L36.7367983,18.029106 L36.750104,18.0024948 L36.7634096,17.9758836 L36.7767152,17.9492723 L36.7767152,17.9226611 L36.7767152,17.8827443 L36.7767152,17.8694387 L36.7767152,17.8428274 L36.7634096,17.8162162 L36.750104,17.789605 L36.7367983,17.7762994 L36.7101871,17.7629938 L36.6835759,17.7363825 L36.6569647,17.7230769 L36.5904366,17.6831601 L36.5239085,17.6565489 L36.4307692,17.6299376 L36.3376299,17.6033264 L36.2577963,17.5900208 L36.1779626,17.5767152 L36.1114345,17.5634096 L36.0582121,17.550104 L35.9251559,17.5101871 L35.8054054,17.4702703 L35.6989605,17.4303534 L35.6058212,17.3904366 L35.5259875,17.3505198 L35.4461538,17.3106029 L35.3796258,17.2706861 L35.3130977,17.2307692 L35.2731809,17.1775468 L35.233264,17.1243243 L35.1933472,17.0711019 L35.166736,17.0045738 L35.1401247,16.9380457 L35.1268191,16.8715177 L35.1135135,16.791684 L35.1135135,16.7118503 L35.1135135,16.6054054 L35.1268191,16.5122661 L35.1401247,16.4723493 L35.1534304,16.4324324 L35.166736,16.3925156 L35.1800416,16.3525988 L35.2066528,16.3126819 L35.2199584,16.2727651 L35.2465696,16.2328482 L35.2731809,16.1929314 L35.2997921,16.1530146 L35.3264033,16.1264033 L35.3663202,16.0864865 L35.406237,16.0598753 L35.4860707,16.0066528 L35.5659044,15.9534304 L35.6590437,15.9135135 L35.752183,15.8735967 L35.8586279,15.8469854 L35.9650728,15.8336798 L36.0848233,15.8203742 L36.2045738,15.8203742 L36.3376299,15.8203742 L36.4573805,15.8336798 L36.577131,15.8469854 L36.6835759,15.8735967 L36.7900208,15.9135135 L36.8831601,15.9534304 L36.9230769,15.9800416 L36.9629938,16.0066528 L37.0029106,16.033264 L37.0428274,16.0598753 L37.0827443,16.0864865 L37.1226611,16.1130977 L37.162578,16.1530146 L37.1891892,16.1929314 L37.2158004,16.2328482 L37.2424116,16.2727651 L37.2690229,16.3126819 L37.2956341,16.3525988 L37.3089397,16.3925156 L37.3355509,16.4324324 L37.3488565,16.4723493 L37.3621622,16.5122661 L37.3887734,16.618711 L37.402079,16.7251559 L36.7101871,16.7251559 L36.7101871,16.6852391 L36.6968815,16.6453222 L36.6835759,16.6054054 L36.6702703,16.5654886 L36.6569647,16.5388773 L36.6303534,16.5122661 L36.6037422,16.4856549 L36.577131,16.4590437 L36.5372141,16.4324324 L36.4972973,16.4191268 L36.4573805,16.4058212 L36.4174636,16.3925156 L36.3775468,16.37921 L36.3243243,16.3659044 L36.2711019,16.3659044 L36.2178794,16.3659044 L36.1247401,16.3659044 L36.0449064,16.37921 L36.0049896,16.3925156 L35.9650728,16.4058212 L35.9384615,16.4191268 L35.9118503,16.4324324 L35.8852391,16.4590437 L35.9251559,16.4989605 L35.9118503,16.5255717 L35.8985447,16.552183 L35.8852391,16.5654886 L35.8719335,16.5920998 L35.8719335,16.618711 L35.8719335,16.6453222 L35.8719335,16.6719335 L35.8719335,16.6985447 L35.8852391,16.7118503 L35.8985447,16.7384615 L35.9118503,16.7517672 L35.9384615,16.7650728 L35.9650728,16.7783784 L35.991684,16.791684 L36.0715177,16.8316008 L36.164657,16.8715177 L36.2711019,16.9114345 L36.3908524,16.9380457 L36.4440748,16.9513514 L36.4972973,16.964657 L36.5372141,16.9779626 L36.577131,16.9912682 L36.7101871,17.0178794 L36.8299376,17.0577963 L36.9363825,17.0977131 L37.0295218,17.1376299 L37.1093555,17.1775468 L37.1891892,17.2174636 L37.2557173,17.2573805 L37.3089397,17.2972973 L37.3488565,17.3505198 L37.3887734,17.4037422 L37.4286902,17.4569647 L37.4553015,17.5234927 L37.4819127,17.5900208 L37.4952183,17.6565489 L37.5085239,17.7363825 L37.5085239,17.8162162 L37.5085239,17.8694387 L37.5085239,17.9226611 L37.5085239,17.9758836 L37.4952183,18.029106 L37.4819127,18.0823285 L37.4686071,18.1355509 L37.4553015,18.1754678 L37.4419958,18.2153846 L37.4153846,18.2553015 L37.3887734,18.2952183 L37.3621622,18.3351351 L37.3355509,18.375052 L37.3089397,18.4149688 L37.2690229,18.4548857 L37.229106,18.4814969 L37.1891892,18.5081081 L37.1492723,18.5347193 L37.1093555,18.5613306 L37.0694387,18.5879418 L37.0162162,18.614553 L36.9629938,18.6278586 L36.9097713,18.6544699 L36.8565489,18.6677755 L36.8033264,18.6810811 L36.6835759,18.7076923 L36.5505198,18.7343035 L36.4174636,18.7476091 L36.2711019,18.7476091 L36.1380457,18.7476091 L36.0182952,18.7343035 L35.8985447,18.7076923 L35.7787942,18.6810811 L35.7255717,18.6544699 L35.6723493,18.6411642 L35.6191268,18.614553 L35.57921,18.5879418 L35.5392931,18.5613306 L35.4993763,18.5347193 L35.4594595,18.5081081 L35.4195426,18.4814969 L35.3796258,18.4548857 L35.3397089,18.4149688 L35.2997921,18.375052 L35.2731809,18.3351351 L35.2465696,18.2952183 L35.2199584,18.2553015 L35.1933472,18.2153846 L35.1800416,18.1754678 L35.166736,18.1355509 L35.1534304,18.0956341 L35.1401247,18.0557173 L35.1268191,18.0024948 L35.1135135,17.962578 L35.1135135,17.9093555 L35.1135135,17.8561331 L35.1135135,17.8029106 L35.1135135,17.7496881 L35.1002079,17.7496881 Z M33.8494802,17.8162162 L34.5546778,17.8162162 L34.5147609,17.9226611 L34.4748441,18.0158004 L34.4349272,18.1089397 L34.3817048,18.1887734 L34.3151767,18.2686071 L34.2486486,18.3484407 L34.1821206,18.4149688 L34.1022869,18.4814969 L34.0224532,18.5347193 L33.9293139,18.5879418 L33.8361746,18.6278586 L33.7430353,18.6677755 L33.649896,18.6943867 L33.5434511,18.7209979 L33.4370062,18.7343035 L33.3172557,18.7343035 L33.237422,18.7343035 L33.170894,18.7343035 L33.1043659,18.7209979 L33.0378378,18.7076923 L32.9713098,18.6943867 L32.9047817,18.6810811 L32.8382536,18.6677755 L32.7850312,18.6411642 L32.7318087,18.614553 L32.6785863,18.5879418 L32.6253638,18.5480249 L32.5721414,18.5081081 L32.5322245,18.4681913 L32.4790021,18.4282744 L32.4390852,18.3883576 L32.3991684,18.3484407 L32.3592516,18.2952183 L32.3326403,18.2286902 L32.2927235,18.1754678 L32.2661123,18.1222453 L32.239501,18.0690229 L32.2128898,18.0024948 L32.1862786,17.9359667 L32.1596674,17.8694387 L32.1463617,17.8029106 L32.1330561,17.7363825 L32.1197505,17.6565489 L32.1064449,17.5900208 L32.0931393,17.5101871 L32.0931393,17.4303534 L32.0931393,17.3505198 L32.0931393,17.2706861 L32.0931393,17.1908524 L32.0931393,17.1110187 L32.0931393,17.031185 L32.1064449,16.9513514 L32.1197505,16.8848233 L32.1330561,16.8182952 L32.1463617,16.7517672 L32.1596674,16.6852391 L32.1862786,16.618711 L32.2128898,16.552183 L32.239501,16.4989605 L32.2661123,16.4324324 L32.3060291,16.37921 L32.3459459,16.3259875 L32.3858628,16.2727651 L32.4257796,16.2195426 L32.4656965,16.1796258 L32.5056133,16.1397089 L32.5455301,16.0997921 L32.5987526,16.0598753 L32.6519751,16.0199584 L32.7051975,15.9933472 L32.75842,15.966736 L32.824948,15.9401247 L32.8781705,15.9135135 L32.9313929,15.9002079 L32.997921,15.8869023 L33.0644491,15.8735967 L33.1309771,15.8602911 L33.1975052,15.8469854 L33.2640333,15.8469854 L33.3438669,15.8469854 L33.4237006,15.8469854 L33.5035343,15.8469854 L33.5700624,15.8602911 L33.6365904,15.8735967 L33.7031185,15.8869023 L33.7696466,15.9135135 L33.8361746,15.9268191 L33.8893971,15.9534304 L33.9559252,15.9800416 L34.0091476,16.0066528 L34.0623701,16.033264 L34.1155925,16.0731809 L34.168815,16.1130977 L34.2087318,16.1530146 L34.2486486,16.1929314 L34.2885655,16.2328482 L34.3284823,16.2727651 L34.3683992,16.3259875 L34.408316,16.37921 L34.4349272,16.4324324 L34.4615385,16.4989605 L34.4881497,16.552183 L34.5147609,16.6054054 L34.5413721,16.6719335 L34.5546778,16.7384615 L34.581289,16.8049896 L34.5945946,16.8715177 L34.6079002,16.9513514 L34.6212058,17.031185 L34.6212058,17.1110187 L34.6212058,17.1908524 L34.6212058,17.2706861 L34.6212058,17.3372141 L34.6212058,17.377131 L34.6212058,17.4170478 L34.6212058,17.4569647 L32.8515593,17.4569647 L32.8515593,17.5367983 L32.8648649,17.6033264 L32.8781705,17.6698545 L32.8914761,17.7363825 L32.9047817,17.789605 L32.9313929,17.8428274 L32.9580042,17.8827443 L32.997921,17.9226611 L33.0378378,17.962578 L33.0777547,18.0024948 L33.1176715,18.029106 L33.1575884,18.0557173 L33.2108108,18.0690229 L33.2640333,18.0823285 L33.3305613,18.0823285 L33.3970894,18.0823285 L33.4769231,18.0823285 L33.5567568,18.0690229 L33.5966736,18.0557173 L33.6365904,18.0424116 L33.6632017,18.029106 L33.6898129,18.0024948 L33.7164241,17.9758836 L33.7430353,17.962578 L33.7696466,17.9359667 L33.7829522,17.9093555 L33.8095634,17.8827443 L33.8361746,17.8561331 L33.8627859,17.8162162 L33.8494802,17.8162162 L33.8494802,17.8162162 Z M32.8116424,17.0045738 L33.8627859,17.0045738 L33.8627859,16.9380457 L33.8494802,16.8715177 L33.8361746,16.8182952 L33.8095634,16.7650728 L33.7829522,16.7118503 L33.7696466,16.6719335 L33.7430353,16.6320166 L33.7164241,16.5920998 L33.6765073,16.552183 L33.6365904,16.5255717 L33.5966736,16.4989605 L33.5567568,16.4856549 L33.5035343,16.4723493 L33.4503119,16.4590437 L33.3970894,16.445738 L33.3438669,16.445738 L33.2640333,16.445738 L33.2108108,16.4590437 L33.1575884,16.4723493 L33.1176715,16.4856549 L33.0777547,16.4989605 L33.0378378,16.5255717 L32.997921,16.552183 L32.9580042,16.5787942 L32.9313929,16.618711 L32.9047817,16.6586279 L32.8781705,16.6985447 L32.8648649,16.7517672 L32.8382536,16.8049896 L32.824948,16.8582121 L32.8116424,16.9247401 L32.8116424,17.0045738 L32.8116424,17.0045738 Z M31.4012474,15.9534304 L31.4012474,18.6278586 L30.7093555,18.6278586 L30.7093555,18.3085239 L30.6694387,18.3617464 L30.6295218,18.4016632 L30.589605,18.44158 L30.5496881,18.4814969 L30.5097713,18.5214137 L30.4698545,18.5613306 L30.416632,18.5879418 L30.3634096,18.614553 L30.3101871,18.6411642 L30.2569647,18.6544699 L30.2037422,18.6677755 L30.1505198,18.6810811 L30.0839917,18.6943867 L30.0307692,18.7076923 L29.9642412,18.7076923 L29.8977131,18.7076923 L29.7912682,18.7076923 L29.6981289,18.6943867 L29.6049896,18.6810811 L29.5251559,18.6544699 L29.4453222,18.614553 L29.3654886,18.5746362 L29.2989605,18.5347193 L29.245738,18.4814969 L29.1925156,18.4282744 L29.1525988,18.3617464 L29.1126819,18.2819127 L29.0860707,18.202079 L29.0594595,18.1089397 L29.0328482,18.0158004 L29.0195426,17.9093555 L29.0195426,17.789605 L29.0195426,15.966736 L29.7247401,15.966736 L29.7247401,17.5634096 L29.7247401,17.6299376 L29.7247401,17.6964657 L29.7380457,17.7496881 L29.7513514,17.8029106 L29.764657,17.8561331 L29.7779626,17.8960499 L29.7912682,17.9359667 L29.8045738,17.9758836 L29.831185,18.0024948 L29.8577963,18.029106 L29.8977131,18.0557173 L29.9376299,18.0823285 L29.9775468,18.0956341 L30.0174636,18.0956341 L30.0706861,18.1089397 L30.1239085,18.1089397 L30.177131,18.1089397 L30.2303534,18.1089397 L30.2835759,18.0956341 L30.3367983,18.0823285 L30.3767152,18.0557173 L30.4299376,18.029106 L30.4698545,18.0024948 L30.5097713,17.962578 L30.5496881,17.9226611 L30.5762994,17.8827443 L30.6029106,17.8428274 L30.6162162,17.789605 L30.6295218,17.7363825 L30.6428274,17.6831601 L30.6428274,17.616632 L30.6428274,17.550104 L30.6428274,15.966736 L31.4012474,15.966736 L31.4012474,15.9534304 Z M27.4893971,18.6278586 L27.4893971,15.0087318 L28.1945946,15.0087318 L28.1945946,18.6278586 L27.4893971,18.6278586 L27.4893971,18.6278586 Z M25.9991684,18.2952183 L25.9592516,18.3484407 L25.9193347,18.3883576 L25.8794179,18.4282744 L25.839501,18.4681913 L25.7995842,18.5081081 L25.7463617,18.5480249 L25.6931393,18.5746362 L25.6399168,18.6012474 L25.5866944,18.6278586 L25.5334719,18.6544699 L25.4802495,18.6677755 L25.427027,18.6810811 L25.360499,18.6943867 L25.2939709,18.7076923 L25.2274428,18.7076923 L25.1609148,18.7076923 L25.0677755,18.7076923 L24.9746362,18.6943867 L24.8948025,18.6810811 L24.8149688,18.6544699 L24.7484407,18.6278586 L24.6819127,18.5879418 L24.6153846,18.5480249 L24.5621622,18.4948025 L24.5089397,18.4282744 L24.4690229,18.3617464 L24.429106,18.2952183 L24.4024948,18.2153846 L24.3758836,18.1355509 L24.362578,18.0424116 L24.3492723,17.9492723 L24.3492723,17.8561331 L24.3492723,17.7629938 L24.362578,17.6831601 L24.3758836,17.6033264 L24.4024948,17.5234927 L24.429106,17.4569647 L24.4690229,17.3904366 L24.5089397,17.3372141 L24.5621622,17.2839917 L24.6153846,17.2307692 L24.6819127,17.1908524 L24.7484407,17.1509356 L24.8282744,17.1110187 L24.9214137,17.0844075 L25.0278586,17.0577963 L25.1343035,17.031185 L25.2540541,17.0178794 L25.3072765,17.0045738 L25.3738046,16.9912682 L25.4536383,16.9779626 L25.5467775,16.964657 L25.6532225,16.9513514 L25.7463617,16.9247401 L25.8261954,16.8981289 L25.8927235,16.8715177 L25.9193347,16.8582121 L25.9459459,16.8316008 L25.9592516,16.8182952 L25.9725572,16.791684 L25.9858628,16.7650728 L25.9991684,16.7384615 L25.9991684,16.7118503 L25.9991684,16.6852391 L25.9991684,16.6453222 L25.9991684,16.6054054 L25.9991684,16.5787942 L25.9858628,16.552183 L25.9725572,16.5255717 L25.9592516,16.4989605 L25.9326403,16.4723493 L25.9060291,16.4590437 L25.8794179,16.445738 L25.8528067,16.4324324 L25.8128898,16.4191268 L25.772973,16.4058212 L25.7330561,16.4058212 L25.6798337,16.4058212 L25.6266112,16.4058212 L25.5733888,16.4058212 L25.5201663,16.4058212 L25.4669439,16.4058212 L25.4137214,16.4058212 L25.3738046,16.4191268 L25.3338877,16.4324324 L25.2939709,16.445738 L25.2673597,16.4590437 L25.2274428,16.4856549 L25.2008316,16.5122661 L25.1742204,16.5388773 L25.1609148,16.5654886 L25.1476091,16.5920998 L25.1343035,16.618711 L25.1209979,16.6586279 L25.1209979,16.6985447 L25.1209979,16.7384615 L25.1209979,16.7783784 L24.4557173,16.7783784 L24.4557173,16.7251559 L24.4557173,16.618711 L24.4690229,16.5255717 L24.4823285,16.4856549 L24.4956341,16.445738 L24.5089397,16.4058212 L24.5355509,16.3659044 L24.5488565,16.3259875 L24.5754678,16.2860707 L24.602079,16.2461538 L24.6286902,16.206237 L24.6553015,16.1663202 L24.6819127,16.1397089 L24.7085239,16.0997921 L24.7484407,16.0731809 L24.7883576,16.0465696 L24.8282744,16.0199584 L24.8681913,15.9933472 L24.9081081,15.9800416 L25.0012474,15.9401247 L25.0943867,15.9002079 L25.2008316,15.8735967 L25.3205821,15.8602911 L25.4403326,15.8469854 L25.5600832,15.8469854 L25.6931393,15.8469854 L25.8261954,15.8602911 L25.9459459,15.8735967 L26.0523909,15.9002079 L26.1588358,15.9268191 L26.2519751,15.966736 L26.3318087,16.0066528 L26.4116424,16.0465696 L26.4781705,16.0997921 L26.5446985,16.1530146 L26.5713098,16.1796258 L26.597921,16.206237 L26.6245322,16.2461538 L26.6378378,16.2860707 L26.6644491,16.3259875 L26.6777547,16.3659044 L26.6910603,16.4058212 L26.7043659,16.445738 L26.7176715,16.5255717 L26.7176715,16.618711 L26.7176715,18.1355509 L26.7176715,18.2153846 L26.7309771,18.2819127 L26.7442827,18.3484407 L26.7575884,18.3883576 L26.7841996,18.4282744 L26.8108108,18.4548857 L26.8507277,18.4814969 L26.8906445,18.5081081 L26.8906445,18.6278586 L26.0790021,18.6278586 L26.0656965,18.5879418 L26.0523909,18.5480249 L26.0390852,18.5081081 L26.0257796,18.4681913 L26.012474,18.4282744 L25.9991684,18.3883576 L25.9991684,18.3484407 L25.9991684,18.2952183 L25.9991684,18.2952183 Z M25.9858628,17.3106029 L25.8927235,17.3505198 L25.7995842,17.3904366 L25.6931393,17.4170478 L25.5866944,17.443659 L25.4935551,17.4702703 L25.4137214,17.4835759 L25.3738046,17.4968815 L25.360499,17.4968815 L25.2673597,17.5234927 L25.2008316,17.5634096 L25.1609148,17.5767152 L25.1343035,17.5900208 L25.1076923,17.616632 L25.0943867,17.6299376 L25.0810811,17.6432432 L25.0677755,17.6698545 L25.0544699,17.6964657 L25.0411642,17.7230769 L25.0278586,17.7496881 L25.0278586,17.7762994 L25.0278586,17.8162162 L25.0278586,17.8561331 L25.0278586,17.8960499 L25.0278586,17.9359667 L25.0411642,17.962578 L25.0544699,17.9891892 L25.0677755,18.0158004 L25.0943867,18.0424116 L25.1076923,18.0690229 L25.1209979,18.0956341 L25.1476091,18.1089397 L25.1742204,18.1222453 L25.2008316,18.1355509 L25.2407484,18.1488565 L25.2673597,18.1621622 L25.3072765,18.1621622 L25.3471933,18.1621622 L25.3871102,18.1621622 L25.4536383,18.1621622 L25.5201663,18.1488565 L25.5866944,18.1355509 L25.6399168,18.1222453 L25.6931393,18.0956341 L25.7463617,18.0690229 L25.7995842,18.029106 L25.839501,17.9891892 L25.8794179,17.9492723 L25.9193347,17.9093555 L25.9459459,17.8561331 L25.9725572,17.8029106 L25.9858628,17.7363825 L25.9991684,17.6831601 L25.9991684,17.616632 L25.9991684,17.550104 L25.9991684,17.3106029 L25.9858628,17.3106029 Z M22.2869023,18.6278586 L21.0494802,15.0087318 L21.8744283,15.0087318 L22.6461538,17.7230769 L23.431185,15.0087318 L24.2428274,15.0087318 L23.018711,18.6278586 L22.2869023,18.6278586 L22.2869023,18.6278586 Z" id="Shape"></path>
                </g>
            </g>
        </g>
    </g>
</svg>