<svg id="Layer_1" data-name="Layer 1" xmlns="http://www.w3.org/2000/svg" viewBox="0 0 1024 350.96"><defs><style>.cls-1{fill:#145ab1;}.cls-2{fill:#f5fafb;}.cls-3{fill:#d90f15;}</style></defs><path class="cls-1" d="M0,0H1024V351H0ZM625,153c2,1.9,3.26,2.95,4.39,4.08q34.13,34.44,68.2,68.91c3.7,3.75,7.65,5.85,12.91,3.69,5.08-2.09,5.63-6.41,5.62-11.15q-.08-42,0-84V121.35H696.34v73.07c-2.2-2-3.52-3.18-4.77-4.41q-33.86-33.64-67.76-67.25a15.29,15.29,0,0,0-7.07-4.23c-7.12-1.42-11.38,3-11.4,11.3q-.08,47.73,0,95.48a26.19,26.19,0,0,0,.46,3.32H625ZM185.25,192.79c15.65-4.73,24.43-14.36,26.38-30.06,2.38-19.3-7.62-35.6-25.3-39.9a72.37,72.37,0,0,0-15.83-1.73c-15.67-.23-31.33-.13-47-.09-9.07,0-12.39,3.32-12.4,12.33q0,45.24,0,90.48c0,1.62.15,3.23.25,5.06H131V194.49c9.86,0,19.16-.1,28.45.11,1.34,0,2.94,1.33,3.89,2.47,8,9.63,15.77,19.38,23.71,29,1,1.22,2.45,2.87,3.74,2.92,7.73.27,15.48.13,24.51.13Zm754.81-9.28c-.42-7-.46-13.13-1.21-19.2-1.66-13.31-5.58-25.79-15.93-35.15-19.7-17.79-57.51-14-73.35,8-15.12,21.05-15.33,44.15-5.54,67.42,5.72,13.59,16.49,22.21,30.84,25.39,19.31,4.28,37.72,1.37,54.77-8.95,1.92-1.16,3.66-2.61,5.64-4-3.65-5.59-7-10.68-10.42-16-11.71,9.17-24.37,13.21-38.63,12.56-15.06-.67-28.35-14.56-27.94-30.07Zm-616.18.1c0-5.75.38-10.75-.07-15.66-1.35-14.36-5.22-27.65-15.8-38.4-16.95-17.23-64.51-17.61-79.81,17.23-7.72,17.59-8,35.61-1.45,53.54,6.18,17.05,18.45,27.47,36.42,30.42,18.59,3.06,36.11-.23,52.17-10.35,1.49-.95,2.84-2.14,4.47-3.38l-10.36-15.94c-8.58,6.49-17.51,10.61-27.63,12.14-21.53,3.26-38.08-9-39.23-29.6ZM573.51,225c.74,1.5,3.25,3.79,4.43,3.86,6.56.37,12,.12,19.17.12-1.08-2.42-1.76-4.09-2.54-5.7q-22.68-46.43-45.43-92.82c-2.56-5.2-5.16-10.56-8.71-15.06-7.91-10-22.19-10.12-30.47-.37a55.67,55.67,0,0,0-7,11.43c-9.62,19.37-19.08,38.83-28.57,58.27-7.08,14.49-14.12,29-21.74,44.63l5.51-.13,11.85-.05c3.79.16,5.51-1.36,7.09-4.64l47.66-97.91h0M829.11,121c-10.6,0-20.58-.11-30.55,0-8.65.11-17.43-.4-25.91.93-26.95,4.22-44.35,26.46-43.34,54.36,1.06,29.57,17.47,49.62,44.43,51.85,18,1.48,36.25.5,54.38.6.27,0,.54-.33.9-.56V210.73c-8.19,0-16,0-23.81,0s-15.66.12-23.48-.12c-18.81-.58-30.34-10.74-32.41-29.31-2.61-23.46,8.23-42.76,36.47-42,12.65.34,25.32.07,38,.06,1.76,0,3.51-.15,5.35-.23ZM357,210.49V120.8c-5.93,0-11.25-.18-16.52.16-1.09.07-2.75,2-2.93,3.25-.42,2.93-.11,6-.11,9q0,42.23.05,84.45c0,7.39,3.62,11.39,10.29,11.41,21,.07,42,0,63,0a23.08,23.08,0,0,0,3-.39V210.49Zm87.52,18.45V121.17H425.4V228.94Z"/><path class="cls-2" d="M605.34,129.83c0-8.34,4.28-12.72,11.4-11.3a15.29,15.29,0,0,1,7.07,4.23q34,33.51,67.76,67.25c1.25,1.23,2.57,2.38,4.77,4.41V121.35h19.72v13.21q0,42,0,84c0,4.74-.54,9.06-5.62,11.15-5.26,2.16-9.21.06-12.91-3.69q-34-34.51-68.2-68.91C628.22,156,627,154.92,625,153v75.61h-19.6"/><path class="cls-2" d="M185.25,192.79l30,36.36c-9,0-16.78.14-24.51-.13-1.29-.05-2.74-1.7-3.74-2.92-7.94-9.65-15.75-19.4-23.71-29-.95-1.14-2.55-2.43-3.89-2.47-9.29-.21-18.59-.11-28.45-.11v34.39H111.35c-.1-1.83-.25-3.44-.25-5.06q0-45.24,0-90.48c0-9,3.33-12.31,12.4-12.33,15.67,0,31.33-.14,47,.09a72.37,72.37,0,0,1,15.83,1.73c17.68,4.3,27.68,20.6,25.3,39.9C209.68,178.43,200.9,188.06,185.25,192.79ZM131.09,176c14.8,0,29.07,0,43.35,0a21.91,21.91,0,0,0,5.86-1.06c9-2.64,12.4-8.44,11.68-19.8-.55-8.7-4.93-14-14-14.62-12.76-.83-25.59-.58-38.38-.77-2.78,0-5.55,0-8.53,0Z"/><path class="cls-2" d="M940.06,183.51H858.29c-.41,15.51,12.88,29.4,27.94,30.07,14.26.65,26.92-3.39,38.63-12.56,3.45,5.31,6.77,10.4,10.42,16-2,1.43-3.72,2.88-5.64,4-17,10.32-35.46,13.23-54.77,8.95-14.35-3.18-25.12-11.8-30.84-25.39-9.79-23.27-9.58-46.37,5.54-67.42,15.84-22,53.65-25.82,73.35-8,10.35,9.36,14.27,21.84,15.93,35.15C939.6,170.38,939.64,176.53,940.06,183.51Zm-81.88-18c19.46,0,38.57,0,57.68,0,1,0,1.94-.17,2.89-.26.47-15.29-9.65-27.67-23.34-28.76C874.89,134.86,860.81,145.59,858.18,165.53Z"/><path class="cls-2" d="M323.88,183.61H242.59c1.15,20.64,17.7,32.86,39.23,29.6,10.12-1.53,19.05-5.65,27.63-12.14L319.81,217c-1.63,1.24-3,2.43-4.47,3.38-16.06,10.12-33.58,13.41-52.17,10.35-18-3-30.24-13.37-36.42-30.42-6.51-17.93-6.27-35.95,1.45-53.54,15.3-34.84,62.86-34.46,79.81-17.23,10.58,10.75,14.45,24,15.8,38.4C324.26,172.86,323.88,177.86,323.88,183.61ZM243.2,165.13h60.47c-2.45-21.19-12.58-30.12-32.07-28.62C255.9,137.71,242.83,150.85,243.2,165.13Z"/><path class="cls-2" d="M597.11,229l-19.17-.12c-2.09,0-3.69-2.36-4.43-3.86-14.65-29.88-43.81-89.71-43.81-89.71l-5-8.66h0c-15,30.8-32.77,67-47.66,97.91-1.58,3.28-3.3,4.8-7.09,4.64s-11.85.05-11.85.05l-5.51.13c7.62-15.64,14.66-30.14,21.74-44.63,9.49-19.44,18.95-38.9,28.57-58.27A55.67,55.67,0,0,1,510,115c8.28-9.75,22.56-9.66,30.47.37,3.55,4.5,6.15,9.86,8.71,15.06"/><path class="cls-2" d="M829.11,121v18.15c-1.84.08-3.59.23-5.35.23-12.65,0-25.32.28-38-.06-28.24-.78-39.08,18.52-36.47,42,2.07,18.57,13.6,28.73,32.41,29.31,7.82.24,15.65.11,23.48.12s15.62,0,23.81,0v17.48c-.36.23-.63.56-.9.56-18.13-.1-36.36.88-54.38-.6-27-2.23-43.37-22.28-44.43-51.85-1-27.9,16.39-50.14,43.34-54.36,8.48-1.33,17.26-.82,25.91-.93C808.53,120.89,818.51,121,829.11,121Z"/><path class="cls-2" d="M347.76,229c-6.67,0-10.27-4-10.29-11.41q-.09-42.23-.05-84.45c0-3-.31-6,.11-9,.18-1.25,1.84-3.18,2.93-3.25,5.27-.34,10.59-.16,16.52-.16v89.69h56.71V229"/><path class="cls-2" d="M444.5,228.94H425.4V121.17h19.1Z"/><path class="cls-1" d="M131.09,176V139.7c3,0,5.75,0,8.53,0,12.79.19,25.62-.06,38.38.77,9.05.59,13.43,5.92,14,14.62.72,11.36-2.66,17.16-11.68,19.8a21.91,21.91,0,0,1-5.86,1.06C160.16,176,145.89,176,131.09,176Z"/><path class="cls-1" d="M858.18,165.53c2.63-19.94,16.71-30.67,37.23-29,13.69,1.09,23.81,13.47,23.34,28.76-1,.09-1.92.26-2.89.26C896.75,165.54,877.64,165.53,858.18,165.53Z"/><path class="cls-1" d="M243.2,165.13c-.37-14.28,12.7-27.42,28.4-28.62,19.49-1.5,29.62,7.43,32.07,28.62Z"/><polyline class="cls-3" points="490.63 229.27 511.17 229.27 525.95 196.21 541.73 229.27 561.26 229.27 526.2 155.63"/></svg>