<svg xmlns="http://www.w3.org/2000/svg" width="18" height="18" fill="none" viewBox="0 0 18 18">
    <path fill="#03C" d="M5.5 8.158c-.414 0-.823-.08-1.205-.234-.383-.155-.73-.382-1.022-.668-.293-.286-.525-.625-.683-.999-.159-.373-.24-.774-.24-1.178 0-.404.081-.805.24-1.178.158-.374.39-.713.683-1 .292-.285.64-.512 1.022-.667C4.677 2.08 5.086 2 5.5 2c.835 0 1.637.324 2.227.902.591.577.923 1.36.923 2.177s-.332 1.6-.923 2.177c-.59.578-1.392.902-2.227.902zm7.35 2.737c-.743 0-1.455-.289-1.98-.802-.525-.513-.82-1.21-.82-1.935 0-.726.295-1.422.82-1.935.525-.514 1.237-.802 1.98-.802.743 0 1.455.288 1.98.802.525.513.82 1.209.82 1.935s-.295 1.422-.82 1.935c-.525.513-1.237.802-1.98.802zm0 .684c.835 0 1.637.324 2.227.902.591.577.923 1.36.923 2.177V15H9.7v-.342c0-.817.332-1.6.923-2.177.59-.578 1.392-.902 2.227-.902zM5.5 8.842c.46 0 .915.089 1.34.26.424.172.81.424 1.135.742.325.318.583.695.759 1.11.175.415.266.86.266 1.31V15H2v-2.737c0-.907.369-1.777 1.025-2.419.657-.641 1.547-1.002 2.475-1.002z"/>
</svg>
