<svg xmlns="http://www.w3.org/2000/svg" width="18" height="18" fill="none" viewBox="0 0 18 18">
    <path fill="#03C" d="M3.72 9.818c.05.007.1.011.15.01h8.466l-.184.084c-.18.083-.345.195-.485.333l-2.375 2.308c-.313.29-.365.756-.125 1.106.146.193.372.317.618.338.248.02.492-.063.67-.23l4.293-4.171c.336-.327.336-.855 0-1.18l-4.293-4.172c-.174-.17-.416-.258-.663-.242-.247.016-.474.134-.625.325-.24.349-.188.815.124 1.105l2.37 2.313c.127.123.271.226.43.305l.257.113H3.917c-.44-.016-.824.282-.906.701-.074.454.243.88.71.954z"/>
</svg>
