<svg xmlns="http://www.w3.org/2000/svg" width="60" height="60" fill="none" viewBox="0 0 60 60">
    <path fill="#BB2E2E" d="M30 58C14.536 58 2 45.464 2 30S14.536 2 30 2s28 12.536 28 28-12.536 28-28 28zm0-5.6c5.94 0 11.638-2.36 15.84-6.56 4.2-4.202 6.56-9.9 6.56-15.84 0-5.94-2.36-11.638-6.56-15.84C41.637 9.96 35.94 7.6 30 7.6c-5.94 0-11.638 2.36-15.84 6.56C9.96 18.363 7.6 24.06 7.6 30c0 5.94 2.36 11.638 6.56 15.84 4.202 4.2 9.9 6.56 15.84 6.56zm-2.8-14h5.6V44h-5.6v-5.6zm0-22.4h5.6v16.8h-5.6V16z"/>
</svg>
