<svg xmlns="http://www.w3.org/2000/svg" xmlns:xlink="http://www.w3.org/1999/xlink" width="31" height="31" viewBox="0 0 31 31">
    <defs>
        <path id="ko0zbac3fa" d="M0.283 0.26L21.05 0.26 21.05 21.027 0.283 21.027z"/>
    </defs>
    <g fill="none" fill-rule="evenodd">
        <g transform="translate(.484 .484) translate(7.85 1.478)">
            <mask id="2lx9a6w0gb" fill="#fff">
                <use xlink:href="#ko0zbac3fa"/>
            </mask>
            <path fill="#FFF" d="M21.05 10.643c0 5.735-4.649 10.384-10.384 10.384-5.734 0-10.383-4.65-10.383-10.384C.283 4.908 4.932.26 10.666.26c5.735 0 10.384 4.648 10.384 10.383" mask="url(#2lx9a6w0gb)"/>
        </g>
        <path fill="#133CC0" d="M8.832 16.952c-4.646 0-8.426-3.78-8.426-8.426V3.01c0-1.1.894-1.995 1.994-1.995h2.151c.298 0 .54.242.54.54 0 .297-.242.539-.54.539H2.4c-.505 0-.916.41-.916.916v5.516c0 4.051 3.296 7.348 7.348 7.348s7.348-3.297 7.348-7.348V3.01c0-.506-.411-.916-.916-.916h-1.677c-.298 0-.54-.242-.54-.54 0-.297.242-.539.54-.539h1.677c1.1 0 1.994.895 1.994 1.995v5.516c0 4.646-3.78 8.426-8.426 8.426" transform="translate(.484 .484)"/>
        <path fill="#133CC0" d="M15.545 29.924c-3.999 0-7.252-3.254-7.252-7.252v-6.26c0-.297.241-.538.54-.538.297 0 .538.241.538.539v6.259c0 3.404 2.77 6.173 6.174 6.173 3.404 0 6.174-2.77 6.174-6.173v-2.518c0-.297.241-.54.539-.54.298 0 .54.243.54.54v2.518c0 3.998-3.254 7.252-7.253 7.252" transform="translate(.484 .484)"/>
        <path fill="#F33" d="M5.516 1.554c0 .367-.298.665-.666.665-.368 0-.665-.298-.665-.665 0-.368.297-.666.665-.666.368 0 .666.298.666.666M13.862 1.555c0 .367-.299.665-.666.665-.368 0-.665-.298-.665-.665 0-.367.297-.666.665-.666.367 0 .666.299.666.666M25.837 17.194c0 1.928-1.563 3.491-3.492 3.491-1.928 0-3.491-1.563-3.491-3.491 0-1.929 1.563-3.492 3.491-3.492 1.929 0 3.492 1.563 3.492 3.492" transform="translate(.484 .484)"/>
    </g>
</svg>
