<svg xmlns="http://www.w3.org/2000/svg" width="32" height="31" viewBox="0 0 32 31">
    <g fill="none" transform="translate(.984 .969)">
        <circle cx="19.446" cy="11.164" r="10.492" fill="#FFF"/>
        <path fill="#133CC0" d="M12.46 29.004c-.135.001-.27-.025-.395-.076-.295-.123-.516-.229-.727-.341-1.1-.633-2.135-1.374-3.088-2.213l-.12-.098c-2.233-1.9-4.053-4.238-5.347-6.87-.574-1.141-1.035-2.336-1.377-3.567 0-.044-.033-.102-.047-.16-.127-.443-.244-.89-.364-1.315-.358-1.44-.567-2.913-.62-4.396C.33 8.951.28 7.934.228 6.921L.178 5.918v-.044l-.018-.09c-.002-.033-.002-.066 0-.099v-1.41c-.002-.335.236-.624.567-.686l.5-.087c.364-.062.727-.12 1.069-.189l.988-.185c.872-.16 1.773-.327 2.648-.541C6.946 2.34 8.933 1.533 11.847.193c.363-.168.363-.171.49-.171h.138c.209-.022.42.02.603.123l.084.062.04.03.363.17c.534.258 5.53 2.281 7.345 2.594l2.325.407 1.025.181c.335.057.579.35.574.69v1.196l-.13 1.79-.059 1.16c-.036.77-.076 1.645-.138 2.492-.138 1.55-.426 3.083-.861 4.577-.8 2.848-2.158 5.508-3.996 7.825-.961 1.197-2.042 2.292-3.226 3.27-.811.709-1.688 1.339-2.62 1.881-.278.153-.565.289-.86.407l-.124.055c-.09.036-.183.06-.28.069h-.08v.003zM1.247 5.634v.03c.015.064.025.13.03.196l.05 1.006c.05 1.017.098 2.038.142 3.055.055 1.408.254 2.807.595 4.174.106.418.218.854.364 1.3.008.042.02.082.036.12.32 1.164.751 2.294 1.286 3.376 1.435 2.76 3.092 4.897 5.086 6.539l.12.101c.897.792 1.87 1.493 2.906 2.093.194.103.393.197.596.28l.073-.033c.254-.109.515-.222.752-.363.878-.504 1.705-1.091 2.47-1.755 1.125-.927 2.154-1.965 3.07-3.099 1.742-2.2 3.029-4.726 3.785-7.429.417-1.423.695-2.883.828-4.36.058-.835.102-1.703.138-2.47l.04-1.17.098-1.78v-.842l-.683-.12c-.792-.138-1.565-.276-2.34-.407-2.059-.363-7.214-2.485-7.628-2.688l-.363-.178c-.054-.026-.106-.058-.153-.095h-.083l-.15.07C9.334 2.542 7.267 3.381 6.199 3.632c-.905.221-1.864.4-2.707.556l-.98.185c-.364.069-.727.13-1.09.192l-.179.03.004 1.038z"/>
        <path fill="#F33" d="M15.963 11.36h-2.936V8.483c0-.301-.244-.545-.545-.545-.3 0-.545.244-.545.545v2.877H9.006c-.301 0-.545.244-.545.545 0 .3.244.545.545.545h2.931v2.99c0 .3.244.544.545.544.301 0 .545-.244.545-.545v-2.99h2.936c.3 0 .545-.243.545-.544 0-.301-.244-.545-.545-.545z"/>
        <rect width="10.077" height="10.077" x="14.248" y="16.013" fill="#F33" rx="4"/>
        <circle cx="19.323" cy="19.523" r="1.548" fill="#FFF"/>
        <path fill="#FFF" d="M19.044 21.196h.57c1.405-.002 2.545 1.135 2.547 2.54 0 .154-.125.279-.28.28l-5.085.006c-.155 0-.28-.125-.28-.28-.002-1.404 1.135-2.544 2.539-2.546h-.01z"/>
    </g>
</svg>
