<svg xmlns="http://www.w3.org/2000/svg" xmlns:xlink="http://www.w3.org/1999/xlink" width="32" height="31" viewBox="0 0 32 31">
    <defs>
        <path id="6nlztmif2a" d="M0.266 0.26L21.033 0.26 21.033 21.027 0.266 21.027z"/>
    </defs>
    <g fill="none" fill-rule="evenodd">
        <g transform="translate(1.953 .969) translate(5.912 .51)">
            <mask id="7uqi3mjnmb" fill="#fff">
                <use xlink:href="#6nlztmif2a"/>
            </mask>
            <path fill="#FFF" d="M21.033 10.643c0 5.735-4.649 10.384-10.383 10.384-5.735 0-10.384-4.65-10.384-10.384C.266 4.908 4.915.26 10.65.26c5.734 0 10.383 4.648 10.383 10.383" mask="url(#7uqi3mjnmb)"/>
        </g>
        <path fill="#133CC0" d="M5.802 2.26c-.892 0-1.618.725-1.618 1.617v.368c0 .893.726 1.618 1.618 1.618h8.448c.892 0 1.618-.725 1.618-1.618v-.368c0-.892-.726-1.618-1.618-1.618H5.802zm8.448 4.682H5.802c-1.487 0-2.696-1.21-2.696-2.697v-.368c0-1.487 1.209-2.696 2.696-2.696h8.448c1.487 0 2.696 1.21 2.696 2.696v.368c0 1.487-1.21 2.697-2.696 2.697z" transform="translate(1.953 .969)"/>
        <path fill="#133CC0" d="M5.988 8.17h8.062V7.008H5.988V8.17zm8.601 1.079H5.45c-.298 0-.54-.242-.54-.54V6.47c0-.298.242-.54.54-.54h9.14c.298 0 .54.242.54.54v2.24c0 .298-.242.54-.54.54z" transform="translate(1.953 .969)"/>
        <path fill="#133CC0" d="M2.983 9.336c-.892 0-1.618.726-1.618 1.618v14.868c0 1.102.897 1.999 1.999 1.999h13.211c1.103 0 2-.897 2-2V11.336c0-1.102-.897-2-2-2H2.983zm13.592 19.563H3.364c-1.697 0-3.078-1.38-3.078-3.077V10.954c0-1.487 1.21-2.697 2.697-2.697h13.592c1.697 0 3.078 1.38 3.078 3.078v14.487c0 1.697-1.38 3.077-3.078 3.077z" transform="translate(1.953 .969)"/>
        <path fill="#FFF" d="M14.126 21.373l4.853-3.816c1.21-.952 2.961-.743 3.913.467s.743 2.962-.467 3.914l-4.853 3.817c-1.21.951-2.961.742-3.913-.468s-.743-2.962.467-3.914" transform="translate(1.953 .969)"/>
        <path fill="#133CC0" d="M14.46 21.797c-.974.767-1.144 2.182-.377 3.156.766.975 2.182 1.144 3.156.378l4.853-3.817c.974-.766 1.142-2.182.376-3.156-.37-.473-.904-.771-1.5-.843-.595-.071-1.184.095-1.656.466l-4.852 3.816zm1.393 5.092c-.986 0-1.962-.435-2.618-1.268-1.134-1.442-.884-3.537.558-4.671l4.852-3.817c.698-.55 1.569-.794 2.451-.69.882.107 1.67.55 2.22 1.247 1.134 1.442.884 3.538-.558 4.672l-4.852 3.817c-.609.478-1.333.71-2.053.71z" transform="translate(1.953 .969)"/>
        <path fill="#133CC0" d="M20.23 23.035L19.3 23.777 16.443 20.198 17.373 19.455z" transform="translate(1.953 .969)"/>
        <path fill="#F33" d="M9.28 10.921H4.286c-.794 0-1.438.644-1.438 1.439v4.994c0 .794.644 1.438 1.438 1.438H9.28c.794 0 1.438-.644 1.438-1.438V12.36c0-.795-.644-1.439-1.438-1.439" transform="translate(1.953 .969)"/>
        <path fill="#FFF" d="M4.716 15.42c-.297 0-.539-.24-.541-.537-.004-.3.237-.545.536-.548l4.133-.041c.292.006.545.237.548.537.003.299-.238.544-.537.547l-4.133.042h-.006z" transform="translate(1.953 .969)"/>
        <path fill="#FFF" d="M6.804 17.465c-.297 0-.54-.239-.542-.536l-.042-4.133c-.003-.3.237-.545.537-.548h.005c.297 0 .54.239.543.536l.04 4.134c.004.3-.236.544-.536.547h-.005z" transform="translate(1.953 .969)"/>
    </g>
</svg>
