<svg xmlns="http://www.w3.org/2000/svg" width="18" height="18" fill="none" viewBox="0 0 18 18">
    <path stroke="#F33" stroke-linecap="round" stroke-linejoin="round" stroke-width="1.2" d="M3 14L15 3"/>
    <path fill="#F33" d="M9.006 16l-4.24-4.1c-.838-.812-1.408-1.845-1.64-2.97-.231-1.125-.112-2.29.341-3.35.454-1.06 1.222-1.966 2.208-2.603C6.661 2.34 7.82 2 9.005 2c1.186 0 2.345.34 3.33.977.987.638 1.755 1.543 2.209 2.603.453 1.06.572 2.225.34 3.35-.23 1.125-.801 2.159-1.64 2.97L9.006 16zm3.296-5.012c.652-.63 1.097-1.434 1.276-2.309.18-.875.088-1.782-.265-2.606-.353-.824-.95-1.528-1.717-2.024-.767-.496-1.668-.76-2.59-.76-.923 0-1.824.264-2.59.76-.767.496-1.365 1.2-1.718 2.024-.353.824-.445 1.731-.265 2.606.18.875.624 1.679 1.276 2.31l3.297 3.189 3.296-3.19zm-3.296-1.9c-.354 0-.693-.136-.942-.378-.25-.242-.39-.57-.39-.911 0-.342.14-.67.39-.911.25-.242.588-.378.942-.378.353 0 .692.136.942.378.25.241.39.57.39.91 0 .343-.14.67-.39.912s-.59.378-.942.378z"/>
</svg>
