<svg xmlns="http://www.w3.org/2000/svg" width="100%" height="63%" viewBox="0 0 321 238">
    <g fill="none" transform="translate(23 1)">
        <path fill="#F18944" d="M210.772 101.946c-5.918-11.467-17.755-20.049-28.556-26.93-2.146-1.33-3.921-2.44-5.549-3.328-2.071-1.11-3.551-3.107-3.699-5.03-.074-1.11.222-2.664 1.924-3.996.665-.518 1.553-.74 2.663-.74 3.92 0 10.135 3.107 16.35 6.363.813.444 1.553.813 2.145 1.11-2.885-5.697-16.498-10.284-24.858-13.17-3.18-1.035-5.622-1.923-7.028-2.589-5.77-2.885-5.104-9.47-5.104-9.47 0-.073.074-.221.074-.295-6.955-1.776-14.205-2.737-21.75-2.737-48.089 0-87.15 38.988-87.15 87.15 0 5.548.517 11.023 1.553 16.275 5.326 2.146 8.952 5.179 10.875 8.952 5.919 11.467 17.756 20.049 28.557 26.93 2.145 1.33 3.92 2.44 5.548 3.328 2.072 1.11 3.551 3.107 3.7 5.031.073 1.11-.222 2.663-1.924 3.995-.666.518-1.554.74-2.663.74-3.921 0-10.136-3.107-16.35-6.363-.814-.443-1.554-.813-2.146-1.11 2.886 5.697 16.498 10.284 24.858 13.17 3.181 1.035 5.623 1.923 7.028 2.589 5.77 2.885 5.105 9.47 5.105 9.47-.074.37-.37.665-.74.665h-.37c7.694 2.22 15.758 3.403 24.118 3.403 48.088 0 87.15-38.988 87.15-87.15 0-5.77-.592-11.393-1.628-16.793-5.992-2.22-10.061-5.401-12.133-9.47z"/>
        <path fill="#E27030" d="M195.088 178.887c1.554 1.553 1.554 3.995 0 5.548-26.485 26.93-54.672 25.006-55.855 24.932-2.146-.148-3.773-2.072-3.625-4.217.147-2.146 2.071-3.773 4.216-3.625.296 0 25.82 1.183 49.642-22.564 1.553-1.628 4.069-1.628 5.622-.074 0-.074 0-.074 0 0z"/>
        <path fill="#FCA87B" d="M59.555 134.942c-2.146 0-3.921-1.776-3.921-3.921-.296-37.73 21.01-56.374 21.824-57.114 1.628-1.405 4.143-1.257 5.549.444 1.406 1.628 1.258 4.143-.444 5.549-.222.222-19.087 17.46-19.087 51.047 0 2.22-1.776 3.995-3.921 3.995z"/>
        <path fill="#F18944" d="M70.356 183.77s0 .073 0 0c0 .073 0 0 0 0zM203.078 71.614c.222.074.444.148.666.148-.37-.444-.74-.888-1.11-1.258.148.222.222.518.37.74.074.074.148.222.074.37zM53.414 174.818l-.517-.444c-.222.296-.222.74.074.961 5.4 4.957 12.28 7.103 17.385 8.434-.222-.296-.518-.592-.74-.961-4.956-1.332-11.319-3.478-16.202-7.99z"/>
        <path fill="#F18944" d="M70.504 183.4c.074-.149.222-.223.37-.223-.444-.074-.814-.222-1.258-.37.222.296.518.666.74.962h.074c-.074-.148 0-.222.074-.37zM52.009 145.373c-.074-.296-.148-.592-.148-.888-4.809-1.997-10.95-3.255-18.495-3.92-11.616-.962-22.343.147-22.417.147-.37.074-.666.37-.666.814.074.37.37.666.814.666 0 0 .296 0 .74-.074l-.814-.666s25.45-2.737 40.986 3.921z"/>
        <path fill="#F18944" d="M62.07 153.733c6.067 11.689 17.978 20.27 28.853 27.225 1.85 1.184 3.699 2.293 5.622 3.33 2.96 1.627 4.883 5.4 1.628 7.841-3.625 2.811-16.498-4.883-21.085-7.102.074.37.222.666.37.962.666.296 1.332.74 2.146 1.11 6.214 3.255 12.429 6.362 16.35 6.362 1.11 0 1.997-.222 2.663-.74 1.775-1.332 2.071-2.96 1.923-3.995-.148-1.923-1.553-3.921-3.699-5.03-1.627-.888-3.403-1.998-5.548-3.33-10.801-6.88-22.638-15.536-28.557-26.929-1.923-3.773-5.623-6.732-10.875-8.952.074.296.074.592.148.888 4.513 1.924 8.138 4.587 10.061 8.36zM69.542 182.808c-.222-.296-.518-.666-.74-.962-4.734-1.332-10.43-3.477-14.944-7.62-.296-.296-.74-.222-1.035.074v.074l.517.444c4.957 4.512 11.32 6.658 16.202 7.99z"/>
        <path fill="#F18944" d="M52.157 146.187c-.074-.296-.148-.592-.148-.888-15.536-6.658-40.986-3.92-40.986-3.92l.814.665c4.29-.37 26.633-1.924 40.32 4.143z"/>
        <path fill="#F18944" d="M71.17 183.103l5.179.888c.296.074.517.296.591.592 0 .148.074.296.148.518 4.587 2.22 17.46 9.913 21.085 7.102 3.255-2.515 1.332-6.288-1.628-7.842-1.923-1.036-3.773-2.145-5.622-3.329-10.801-6.954-22.786-15.536-28.853-27.225-1.923-3.773-5.622-6.51-10.135-8.434.074.296.148.592.148.888 4.143 1.85 7.472 4.365 9.321 7.842 6.067 11.763 18.126 20.493 29.075 27.52 2.145 1.406 3.921 2.442 5.623 3.404 1.627.888 2.81 2.515 2.959 3.921.074 1.036-.37 1.997-1.406 2.737-2.663 2.072-12.28-3.033-17.46-5.696-1.627-.888-2.959-1.554-3.772-1.924-.962-.37-2.294-.74-4.07-1.183-1.11-.296-2.293-.592-3.624-.962.221.296.517.666.74.962.443.147.887.221 1.257.37.222-.149.37-.149.444-.149zM44.093 174.522c2.663 3.033 6.658 8.507 11.17 14.056l1.407.592c-2.442-2.96-4.735-5.919-6.733-8.508-2.071-2.663-3.847-5.03-5.326-6.658-6.51-7.398-32.552-4.883-33.662-4.735-.37.074-.666.37-.666.814.074.37.37.666.814.666 0 0 .518-.074 1.332-.148l-1.406-.592s26.707-2.738 33.07 4.513zM108.752 210.994l.37.148-.296-.296-.074.148zM72.132 185.915c-.592-.666-1.184-1.332-1.776-2.072 0 .074 0 .222.074.296 2.22 4.661 4.883 8.064 11.393 11.985v-.814c-5.4-3.329-7.916-6.214-9.691-9.395z"/>
        <path fill="#F18944" d="M71.17 183.991c-.222-.074-.518-.148-.814-.222v.074c.592.666 1.184 1.406 1.776 2.072-.37-.666-.666-1.258-.962-1.924zM109.196 211.216l-.148-.074c4.217 4.513 4.735 8.36 4.365 9.322-.074.222-.518.148-1.331-.074-1.554-.37-4.291-1.406-7.695-2.811-8.877-3.625-22.12-9.47-29.148-11.541-6.436-1.924-13.835-9.766-20.049-17.46l-1.406-.592c6.585 8.138 14.353 16.72 21.233 18.717 5.179 1.554 13.76 5.18 21.38 8.36 11.098 4.661 15.167 6.215 16.646 6.215.222 0 .37 0 .518-.074.222-.074.37-.296.518-.444.444-1.184-.074-4.66-3.403-8.804h2.59c-.815-.222-1.554-.444-2.368-.74h-1.702z"/>
        <path fill="#F18944" d="M114.449 211.29c0-.074.666-6.584-5.105-9.47-1.331-.665-3.847-1.553-7.028-2.589-8.36-2.81-21.898-7.398-24.858-13.168-.37-.222-.666-.37-.961-.518 2.959 8.508 27.299 14.204 32.551 16.868 5.4 2.737 4.735 8.803 4.735 8.803h-2.811c.74.222 1.553.518 2.367.74h.37c.37 0 .666-.296.74-.666z"/>
        <path fill="#F18944" d="M76.2 184.731l.223.888c.295.148.591.296.961.518-.148-.296-.296-.666-.37-.962-.296-.222-.591-.37-.813-.444z"/>
        <path fill="#F18944" d="M76.2 184.731c-1.11-.444-3.033-.888-5.4-1.554-.148.074-.222.148-.37.222-.074.074-.148.222-.148.37.296.074.518.148.814.222 0-.074-.074-.074-.074-.148l5.179.888z"/>
        <path fill="#F18944" d="M77.014 185.1c-.074-.147-.074-.295-.148-.517-.074-.296-.295-.518-.591-.592l-5.18-.888h-.369c2.293.592 4.217 1.036 5.4 1.554l.888.444zM81.897 195.31s-.074 0 0 0l-.074.814c1.184.666 2.442 1.406 3.847 2.146-1.257-.962-2.515-1.924-3.773-2.96zM108.826 210.846l-.518-.517c-.591-.222-1.11-.37-1.701-.592.296.296.592.518.888.74l1.257.517.074-.148z"/>
        <path fill="#F18944" d="M94.918 201.82c-5.623-2.44-9.84-4.586-13.02-6.51 1.257 1.036 2.515 1.998 3.772 2.96 2.516 1.331 5.475 2.663 8.952 4.143 5.4 2.367 9.248 4.882 11.985 7.25.592.222 1.11.444 1.701.592-2.885-2.738-7.102-5.697-13.39-8.434zM108.826 210.846l.296.296.148.074h1.702l-1.998-.666-.148.296zM72.132 185.915c1.775 3.18 4.29 6.066 9.691 9.395-3.477-2.885-6.658-6.066-9.691-9.395z"/>
        <path fill="#F18944" d="M72.058 184.213l-.888-.222c.296.666.666 1.258.962 1.924 2.959 3.403 6.214 6.51 9.691 9.395v-.813c-5.548-3.478-7.768-6.437-9.47-9.692l3.256.518c1.775 6.954 16.424 11.91 26.19 15.24 2.958 1.036 5.548 1.85 6.805 2.515 3.995 1.998 4.365 5.919 4.365 7.472h-.518c.074.148.148.222.148.222l-3.18-.148-.37-.295-.149.295 1.998.666h2.737s.666-6.066-4.735-8.803c-5.252-2.59-29.592-8.286-32.551-16.868-.148-.074-.37-.148-.518-.222-.74-.37-2.146-.74-3.773-1.184zM112.155 220.39l-7.694-2.811c3.404 1.405 6.14 2.441 7.694 2.811zM75.313 206.038c7.028 2.071 20.27 7.916 29.148 11.54.074-.221.222-.443.296-.665-2.441-.962-5.178-2.146-7.768-3.255-7.62-3.182-16.276-6.807-21.528-8.36-5.919-1.776-12.873-9.026-18.865-16.202l-1.406-.592c6.362 7.768 13.686 15.61 20.123 17.534zM108.53 211.512c3.7 3.921 4.44 7.176 4.365 8.286-.222 0-.518-.074-.887-.222.147.444.221.74.221.74.814.222 1.258.222 1.332.074.37-.888-.148-4.735-4.365-9.322l-.37-.148-.296.592zM44.093 174.522c-6.289-7.177-33.07-4.513-33.07-4.513l1.406.592c2.293-.148 7.324-.518 12.725-.296 9.543.296 15.906 1.923 18.347 4.734 1.406 1.628 3.181 3.922 5.253 6.585 1.553 1.997 3.255 4.217 5.03 6.436l1.406.592c-4.513-5.697-8.434-11.171-11.097-14.13z"/>
        <path fill="#F18944" d="M104.831 216.987c-.148.222-.222.444-.296.666l7.694 2.811s0-.296-.221-.74c-1.554-.518-4.143-1.553-7.177-2.737zM104.461 217.579c.074 0 .074 0 0 0zM109.122 210.18l.296.37 3.181.148s-.074-.074-.148-.222h-2.959c-.148-.073-.222-.147-.37-.295zM71.096 183.843c0 .074.074.074.074.148l.888.222c1.627.444 3.033.814 3.92 1.11.149.074.297.148.519.222l-.222-.888-5.18-.814zM107.495 210.476l1.035 1.036.222-.518-1.257-.518zM81.823 195.31s.074 0 0 0c.074 0 0 0 0 0zM108.826 210.846l.148-.296-.666-.221.518.517zM108.308 210.329l.666.221.148-.295-2.811-2.59h.074c-2.737-2.22-6.362-4.439-11.171-6.51-5.919-2.516-10.21-4.735-13.317-6.732v.813l.074.074c3.181 1.924 7.324 4.07 13.02 6.51 6.215 2.738 10.432 5.697 13.317 8.509z"/>
        <path fill="#F18944" d="M106.385 207.665c-.074 0-.074 0 0 0l2.737 2.59v-.074c-.814-.814-1.701-1.628-2.737-2.516zM220.094 80.566l.518.443c.222-.296.222-.74-.074-.961-5.179-4.735-11.69-6.955-16.794-8.286.296.296.518.666.814.962 4.883 1.405 10.875 3.55 15.536 7.842z"/>
        <path fill="#F18944" d="M203.004 71.984c-.074.148-.222.222-.37.222.666.148 1.258.37 1.998.518-.296-.296-.518-.666-.814-.962-.222-.074-.444-.148-.666-.148-.074.148-.074.222-.148.37zM263.151 113.857c-.074-.37-.37-.666-.814-.666 0 0-.296 0-.74.074l.814.666s-24.118 2.59-39.728-3.403c.074.296.074.592.148.814 4.587 1.701 10.358 2.885 17.238 3.403 11.615.962 22.342-.148 22.416-.148.444 0 .74-.296.666-.74z"/>
        <path fill="#F18944" d="M211.364 101.65c-6.066-11.689-17.977-20.27-28.852-27.225-1.85-1.184-3.7-2.293-5.623-3.33-2.96-1.627-4.883-5.4-1.628-7.841 3.626-2.811 16.498 4.883 21.085 7.102-.074-.37-.222-.666-.37-.962-.666-.296-1.331-.74-2.145-1.11-6.215-3.255-12.43-6.362-16.35-6.362-1.11 0-1.998.222-2.663.74-1.776 1.332-2.072 2.96-1.924 3.995.148 1.924 1.554 3.921 3.7 5.03 1.627.889 3.402 1.998 5.548 3.33 10.8 6.88 22.638 15.536 28.556 26.93 2.072 4.068 6.14 7.25 12.133 9.395-.074-.296-.074-.592-.148-.814-5.03-1.924-9.173-4.735-11.319-8.878z"/>
        <path fill="#F18944" d="M222.535 109.714c.074.296.148.592.148.814 15.61 5.992 39.728 3.403 39.728 3.403l-.814-.666c-4.142.444-25.301 1.924-39.062-3.55zM204.632 72.724c.296.295.518.665.814.961 4.587 1.332 9.913 3.477 14.204 7.398.296.296.74.222 1.036-.074v-.074l-.518-.443c-4.735-4.217-10.727-6.363-15.536-7.768z"/>
        <path fill="#F18944" d="M212.03 101.28c-6.066-11.763-18.125-20.493-29.075-27.52-2.145-1.406-3.92-2.442-5.622-3.404-1.628-.888-2.811-2.515-2.96-3.92-.073-1.037.37-1.998 1.406-2.738 2.664-2.072 12.281 3.033 17.46 5.696 1.627.888 2.96 1.554 3.773 1.924.962.37 2.293.74 4.069 1.184 1.332.37 2.737.74 4.29 1.183-.295-.296-.517-.666-.813-.961-.666-.222-1.332-.37-1.997-.518-.074.074-.222.074-.37 0l-5.18-.888c-.295-.074-.517-.296-.59-.592 0-.148-.075-.296-.149-.518-4.587-2.22-17.46-9.913-21.085-7.102-3.255 2.515-1.331 6.288 1.628 7.842 1.924 1.036 3.773 2.22 5.623 3.33 10.8 6.953 22.786 15.535 28.852 27.224 2.146 4.143 6.289 6.954 11.393 8.878-.074-.296-.148-.592-.148-.814-4.66-1.701-8.507-4.439-10.505-8.286zM164.016 44.907h-1.11c.444.148.888.296 1.406.443l.074-.147c-.148-.148-.222-.222-.37-.296zM229.416 80.935c-2.664-3.033-6.659-8.507-11.171-14.056l-1.406-.592c2.441 2.96 4.735 5.919 6.732 8.508 2.072 2.663 3.847 5.03 5.327 6.658 6.51 7.398 32.552 4.883 33.661 4.735.37-.074.666-.37.666-.814-.074-.37-.37-.666-.814-.666 0 0-.518.074-1.331.148l1.405.592c0-.074-26.78 2.664-33.07-4.513zM164.756 44.389l-.37-.148.296.296.074-.148zM192.055 60.369c4.365 2.737 6.806 5.178 8.434 7.768.74.74 1.48 1.553 2.145 2.367-2.145-4.29-4.882-7.546-11.023-11.245v.814c.148.074.296.148.444.296z"/>
        <path fill="#F18944" d="M202.339 71.392c.222.074.517.148.813.222 0-.148 0-.222-.074-.37-.148-.222-.222-.518-.37-.74-.74-.814-1.405-1.628-2.145-2.367.666 1.035 1.184 2.145 1.776 3.255zM192.055 60.369c-.148-.074-.296-.222-.37-.296v.074c.074 0 .222.148.37.222zM164.238 44.167l.148.074c-4.217-4.513-4.735-8.36-4.365-9.322.074-.222.518-.148 1.332.074 1.554.37 4.29 1.406 7.694 2.811 8.878 3.625 22.12 9.47 29.149 11.541 6.436 1.924 13.834 9.766 20.049 17.46l1.405.592c-6.584-8.138-14.352-16.72-21.232-18.717-5.18-1.554-13.76-5.18-21.381-8.36-11.097-4.661-15.166-6.215-16.646-6.215-.222 0-.37 0-.518.074-.222.074-.37.296-.518.444-.443 1.184.074 4.661 3.404 8.804h-2.96c-.296 0-.517.148-.591.37.443.074.887.222 1.257.37h3.773z"/>
        <path fill="#F18944" d="M164.164 53.562c1.332.666 3.847 1.554 7.028 2.59 8.36 2.811 21.899 7.398 24.858 13.168.37.222.666.37.962.518-2.96-8.508-27.3-14.204-32.552-16.867-5.4-2.738-4.735-8.804-4.735-8.804h.666c-.444-.148-.888-.222-1.257-.37-.074.074-.074.148-.074.296 0 .074-.666 6.584 5.104 9.47z"/>
        <path fill="#F18944" d="M197.012 69.764c-.296-.148-.592-.296-.962-.518.148.296.296.666.37.962.296.148.592.296.814.37 0-.222-.074-.518-.222-.814zM197.234 70.652c1.11.444 3.033.888 5.4 1.554.148-.074.222-.148.37-.222.074-.074.148-.222.148-.37-.296-.074-.518-.148-.813-.222 0 .074.074.074.074.148l-5.18-.888z"/>
        <path fill="#F18944" d="M197.16 71.392l5.179.888h.37c-2.294-.592-4.217-1.036-5.401-1.554-.222-.074-.518-.222-.814-.37.074.148.074.296.148.518 0 .222.222.444.518.518zM191.611 59.999v-.814c-1.183-.74-2.515-1.48-4.069-2.22 1.48.962 2.812 1.998 4.07 3.034zM164.682 44.537c.444.444.962.961 1.48 1.405.592.222 1.257.444 1.85.666-.74-.592-1.332-1.11-1.924-1.701l-1.258-.518-.148.148z"/>
        <path fill="#F18944" d="M178.59 53.562c5.697 2.442 9.914 4.587 13.095 6.51V60c-1.331-1.036-2.663-2.072-4.069-3.033-2.441-1.258-5.326-2.59-8.73-4.07-4.734-2.07-8.285-4.216-10.875-6.288-.592-.222-1.257-.444-1.85-.666 2.738 2.516 6.733 5.179 12.43 7.62zM200.489 68.137c-1.702-2.59-4.069-5.031-8.434-7.768 2.96 2.367 5.845 4.956 8.434 7.768zM164.016 44.833l.37.296.296-.592-.296-.296-.148-.074h-3.773c.666.148 1.332.37 1.998.592l1.553.074z"/>
        <path fill="#F18944" d="M201.45 71.17l.889.222c-.518-1.11-1.11-2.22-1.85-3.255-2.663-2.812-5.475-5.4-8.434-7.768-.148-.074-.222-.148-.37-.222v.814c5.549 3.477 7.768 6.436 9.47 9.691l-3.255-.518c-1.776-6.954-16.424-11.91-26.19-15.24-2.959-1.036-5.548-1.85-6.806-2.515-3.995-1.998-4.365-5.919-4.365-7.472h.518c-.074-.148-.148-.222-.148-.222l1.554.074c-.666-.222-1.332-.37-1.998-.592h-.666s-.665 6.066 4.735 8.804c5.253 2.589 29.593 8.285 32.552 16.867.148.074.37.148.518.222.814.296 2.22.666 3.847 1.11zM161.353 34.993l7.694 2.811c-3.477-1.405-6.214-2.441-7.694-2.81zM198.196 49.345c-7.029-2.071-20.271-7.916-29.149-11.54-.074.221-.222.443-.296.665 2.441.962 5.179 2.146 7.768 3.255 7.62 3.182 16.276 6.807 21.529 8.36 5.918 1.776 12.872 9.026 18.865 16.202l1.405.592c-6.362-7.768-13.686-15.61-20.122-17.534zM164.978 43.87c-3.699-3.92-4.439-7.175-4.365-8.285.222 0 .518.074.888.222-.148-.444-.222-.74-.222-.74-.814-.222-1.258-.222-1.332-.074-.37.888.148 4.735 4.365 9.322l.37.148.296-.592zM229.416 80.935c6.288 7.177 33.07 4.513 33.07 4.513l-1.406-.592c-2.294.148-7.325.518-12.725.296-9.544-.296-15.906-1.923-18.347-4.734-1.406-1.628-3.182-3.921-5.253-6.585-1.554-1.997-3.255-4.217-5.03-6.436l-1.407-.592c4.44 5.623 8.434 11.097 11.098 14.13z"/>
        <path fill="#F18944" d="M168.677 38.47c.148-.222.222-.444.296-.666l-7.694-2.81s0 .295.222.739c1.554.444 4.143 1.48 7.176 2.737zM164.016 44.907l.296.296v-.074l-.296-.222-1.627-.148c.148.074.296.074.518.148h1.11z"/>
        <path fill="#F18944" d="M162.463 44.759l-1.554-.074s.074.074.148.222h1.924c-.222-.074-.37-.148-.518-.148zM202.413 71.54c0-.074-.074-.074-.074-.148l-.888-.222c-1.628-.444-3.033-.814-3.921-1.11-.148-.074-.296-.148-.518-.222l.222.888 5.179.814zM166.014 44.907l-1.036-1.036-.222.518 1.258.518zM166.088 45.942c-.518-.444-1.036-.961-1.48-1.405l-.296.592.296.295c.592.148 1.036.37 1.48.518z"/>
        <path fill="#F18944" d="M166.088 45.942c-.444-.148-.962-.296-1.406-.518l2.515 2.294h-.073c2.737 2.22 6.362 4.439 11.17 6.51 5.92 2.516 10.21 4.735 13.317 6.733v-.814c-3.18-1.924-7.398-4.07-13.094-6.51-5.623-2.516-9.618-5.18-12.43-7.695zM164.534 45.424c.074 0 .074 0 .148.074l-.296-.295v.073l.148.148z"/>
        <path fill="#F18944" d="M167.124 47.718s.073 0 0 0l-2.442-2.294c-.074 0-.074 0-.148-.074.74.814 1.628 1.554 2.59 2.368z"/>
        <path fill="#FCCE7A" d="M56.744 117.038h-6.14c-1.185 0-2.072-.962-2.072-2.071v-8.878c0-.37-.296-.592-.592-.592h-8.878c-1.184 0-2.071-.962-2.071-2.071v-6.14c0-1.184.961-2.072 2.071-2.072h8.878c.37 0 .592-.296.592-.592v-8.878c0-1.183.961-2.071 2.071-2.071h6.14c1.184 0 2.072.961 2.072 2.071v8.878c0 .37.296.592.592.592h8.878c1.183 0 2.071.962 2.071 2.071v6.14c0 1.184-.962 2.072-2.071 2.072h-8.878c-.37 0-.592.296-.592.592v8.878c0 1.11-.962 2.071-2.071 2.071zM38.988 96.62c-.37 0-.592.296-.592.592v6.14c0 .37.296.593.592.593h8.878c1.184 0 2.071.961 2.071 2.071v8.878c0 .37.296.592.592.592h6.14c.37 0 .592-.296.592-.592v-8.878c0-1.184.962-2.071 2.072-2.071h8.878c.37 0 .592-.296.592-.592v-6.14c0-.37-.296-.593-.592-.593h-8.878c-1.184 0-2.072-.961-2.072-2.071V85.67c0-.37-.295-.592-.591-.592h-6.14c-.37 0-.593.296-.593.592v8.878c0 1.184-.961 2.071-2.071 2.071h-8.878z"/>
        <path fill="#8D8D8D" d="M136.94 39.95c0-.74-.593-1.332-1.332-1.332h-4.661c-.74 0-1.332-.592-1.332-1.331v-4.735c0-.74-.592-1.332-1.332-1.332h-2.959c-.74 0-1.332.592-1.332 1.332v4.66c0 .74-.591 1.332-1.331 1.332H118c-.74 0-1.332.592-1.332 1.332v2.96c0 .739.592 1.33 1.332 1.33h4.66c.74 0 1.332.593 1.332 1.332v4.661c0 .74.592 1.332 1.332 1.332h2.96c.74 0 1.331-.592 1.331-1.332V45.5c0-.74.592-1.332 1.332-1.332h4.66c.74 0 1.332-.592 1.332-1.332V39.95z"/>
        <path fill="#F68A70" d="M179.626 221.056h-2.959c-1.036 0-1.85-.814-1.85-1.85v-4.66c0-.444-.37-.888-.887-.888h-4.661c-1.036 0-1.85-.814-1.85-1.85v-2.96c0-1.035.814-1.849 1.85-1.849h4.66c.445 0 .889-.37.889-.887v-4.661c0-1.036.813-1.85 1.85-1.85h2.958c1.036 0 1.85.814 1.85 1.85v4.66c0 .444.37.888.888.888h4.66c1.036 0 1.85.814 1.85 1.85v2.96c0 1.035-.814 1.849-1.85 1.849h-4.66c-.444 0-.888.37-.888.887v4.661c0 1.036-.814 1.85-1.85 1.85zm-10.357-13.02c-.444 0-.888.369-.888.887v2.96c0 .443.37.887.888.887h4.66c1.037 0 1.85.814 1.85 1.85v4.66c0 .444.37.888.888.888h2.96c.443 0 .887-.37.887-.888v-4.735c0-1.035.814-1.85 1.85-1.85h4.66c.444 0 .888-.369.888-.887v-2.96c0-.443-.37-.887-.888-.887h-4.66c-1.036 0-1.85-.814-1.85-1.85v-4.66c0-.444-.37-.888-.888-.888h-2.959c-.444 0-.888.37-.888.888v4.66c0 1.036-.813 1.85-1.85 1.85l-4.66.074zM64.808 44.907c0-.74-.74-1.332-1.702-1.332s-1.702-.74-1.702-1.702c0-.961-.591-1.701-1.331-1.701s-1.332.74-1.332 1.701c0 .962-.74 1.702-1.702 1.702-.961 0-1.701.592-1.701 1.332 0 .74.74 1.331 1.701 1.331.962 0 1.702.74 1.702 1.702s.592 1.701 1.332 1.701c.74 0 1.331-.74 1.331-1.701 0-.962.74-1.702 1.702-1.702s1.702-.592 1.702-1.331z"/>
        <path fill="#A6C5DB" d="M242.066 167.863c0-.74-.591-1.331-1.331-1.331h-.74c-.74 0-1.332-.592-1.332-1.332v-.74c0-.74-.592-1.331-1.331-1.331-.74 0-1.332.591-1.332 1.331v.74c0 .74-.592 1.332-1.332 1.332h-.74c-.74 0-1.331.592-1.331 1.331 0 .74.592 1.332 1.332 1.332h.74c.74 0 1.331.592 1.331 1.332v.74c0 .74.592 1.331 1.332 1.331.74 0 1.331-.592 1.331-1.332v-.74c0-.74.592-1.331 1.332-1.331h.74c.74-.074 1.331-.666 1.331-1.332z"/>
        <path fill="#FCCE7A" d="M237.332 137.161c0-.74-.592-1.332-1.332-1.332h-.74c-.74 0-1.331-.591-1.331-1.331v-.74c0-.74-.592-1.332-1.332-1.332-.74 0-1.332.592-1.332 1.332v.74c0 .74-.592 1.331-1.331 1.331h-.74c-.74 0-1.332.592-1.332 1.332 0 .74.592 1.332 1.332 1.332h.74c.74 0 1.331.592 1.331 1.331v.74c0 .74.592 1.332 1.332 1.332.74 0 1.332-.592 1.332-1.332v-.74c0-.74.591-1.331 1.331-1.331h.74c.666 0 1.332-.592 1.332-1.332z"/>
        <path fill="#606060" d="M100.392 69.098c-1.775 0-3.18-1.405-3.18-3.18 0-1.776 1.405-3.182 3.18-3.182 1.776 0 3.182 1.406 3.182 3.181 0 1.702-1.406 3.181-3.182 3.181zm0-5.474c-1.257 0-2.293 1.036-2.293 2.293 0 1.258 1.036 2.294 2.293 2.294 1.258 0 2.294-1.036 2.294-2.294-.074-1.331-1.11-2.293-2.294-2.293zM200.933 153.363c-1.776 0-3.181-1.406-3.181-3.181 0-1.776 1.405-3.181 3.18-3.181 1.776 0 3.182 1.405 3.182 3.18 0 1.776-1.406 3.182-3.181 3.182zm0-5.475c-1.258 0-2.294 1.036-2.294 2.294 0 1.257 1.036 2.293 2.294 2.293s2.293-1.036 2.293-2.293c-.074-1.258-1.035-2.294-2.293-2.294z"/>
        <path fill="#F46A6A" d="M50.307 215.433c-1.701 0-3.107-1.405-3.107-3.107 0-1.702 1.406-3.107 3.107-3.107 1.702 0 3.107 1.405 3.107 3.107 0 1.702-1.405 3.107-3.107 3.107zm0-5.474c-1.331 0-2.367 1.035-2.367 2.367s1.036 2.367 2.367 2.367c1.332 0 2.368-1.035 2.368-2.367s-1.036-2.367-2.368-2.367z"/>
        <path fill="#48B09D" d="M198.196 32.108c-1.702 0-3.108-1.406-3.108-3.107 0-1.702 1.406-3.108 3.108-3.108 1.701 0 3.107 1.406 3.107 3.108 0 1.701-1.406 3.107-3.107 3.107zm0-5.475c-1.332 0-2.368 1.036-2.368 2.368 0 1.331 1.036 2.367 2.368 2.367 1.331 0 2.367-1.036 2.367-2.367 0-1.332-1.036-2.368-2.367-2.368z"/>
        <g fill="#606060">
            <path d="M7.694 11.763v3.625c0 .222.148.37.37.37s.37-.148.37-.37v-3.625h-.74zM8.508 3.995V.37c0-.222-.148-.37-.37-.37s-.37.148-.37.37v3.625h.74zM4.29 7.472H.667c-.222 0-.37.148-.37.37s.148.37.37.37H4.29v-.37c-.074-.074-.074-.222 0-.37zM15.536 7.472h-3.625v.74h3.625c.222 0 .37-.148.37-.37 0-.148-.148-.37-.37-.37zM5.105 10.357l-2.516 2.516c-.148.148-.148.37 0 .518.074.074.148.148.296.148.074 0 .222-.074.296-.148l2.516-2.516c-.222-.148-.444-.37-.592-.518zM11.097 5.4l2.516-2.515c.148-.148.148-.37 0-.518-.148-.148-.37-.148-.518 0l-2.516 2.516.518.518zM10.58 10.875l2.515 2.516c.074.074.148.148.296.148.074 0 .222-.074.296-.148.147-.148.147-.37 0-.518l-2.59-2.516-.518.518zM5.623 4.883L3.107 2.367c-.148-.148-.37-.148-.518 0-.148.148-.148.37 0 .518l2.516 2.516.518-.518z" transform="translate(89.517 13.317)"/>
        </g>
        <g fill="#48B09D">
            <path d="M8.212 17.016c-.444 0-.74-.37-.74-.74V12.28l.37.074h.666l.37-.074v3.995c.074.37-.296.74-.666.74zm0-3.995v3.18-3.18zM7.472 5.327V1.332c0-.444.37-.74.74-.74s.74.37.74.74v3.995l-.37-.074h-.666l-.444.074zm.74-.74V1.406v3.18zM4.735 9.544H.74c-.444 0-.74-.37-.74-.74s.37-.74.74-.74h3.995l-.074.37v.74l.074.37zM.74 8.804H3.92.74zM15.61 9.544h-3.995l.074-.37v-.37-.37l-.074-.37h3.995c.444 0 .74.37.74.74s-.296.74-.74.74zm-3.181-.74h3.181-3.181zM2.96 14.796c-.223 0-.37-.074-.519-.222-.148-.148-.222-.296-.222-.518 0-.222.074-.37.222-.517l2.812-2.812.296.296c.148.148.296.37.517.518l.296.296-2.81 2.811c-.223.074-.445.148-.593.148zm2.219-3.033l-2.22 2.293 2.22-2.293c0 .074 0 .074 0 0zM11.171 6.88l-.296-.296c-.148-.148-.296-.37-.518-.518l-.296-.221 2.812-2.812c.296-.296.74-.296 1.035 0 .296.296.296.74 0 1.036L11.171 6.88zm0-1.11c0 .075 0 .075 0 0l2.294-2.219-2.294 2.22zM13.465 14.796c-.222 0-.37-.074-.518-.222l-2.812-2.811.296-.296c.148-.148.37-.296.518-.518l.296-.296 2.811 2.812c.148.148.222.296.222.517 0 .222-.074.37-.222.518-.222.222-.37.296-.591.296zm-2.294-2.959l2.294 2.293-2.294-2.293zM5.253 6.88L2.44 4.07c-.296-.296-.296-.74 0-1.036.296-.296.74-.296 1.036 0l2.811 2.812-.296.295c-.147.148-.37.296-.517.518l-.222.222zM2.959 3.551l2.22 2.294-2.22-2.294z" transform="translate(0 111.712)"/>
        </g>
        <g fill="#F0785F">
            <path d="M8.286 16.794c-.444 0-.74-.37-.74-.74v-3.995l.37.074h.666l.37-.074v3.995c.074.444-.296.74-.666.74zm0-3.921v3.18-3.18zM9.026 5.179l-.37-.074H7.99l-.37.074V1.184c0-.444.37-.74.74-.74s.74.37.74.74v3.995h-.074zm-.74-.814V1.184v3.18zM4.809 9.396H.814c-.444 0-.74-.37-.74-.74s.37-.74.74-.74h3.995l-.074.37v.74l.074.37zM.814 8.582h3.181H.814zM15.684 9.396h-3.995l.074-.37v-.37-.37l-.074-.37h3.995c.444 0 .74.37.74.74s-.296.74-.74.74zm-3.181-.74h3.181-3.181c0-.074 0-.074 0 0 0-.074 0 0 0 0zM3.033 14.648c-.222 0-.37-.074-.518-.222-.296-.296-.296-.74 0-1.035l2.812-2.812.222.296c.148.148.296.37.517.518l.296.222-2.81 2.811c-.149.148-.37.222-.519.222zm2.22-3.033l-2.294 2.293 2.294-2.293zM11.245 6.732l-.222-.296c-.148-.148-.296-.37-.518-.518l-.296-.221 2.812-2.812c.296-.296.813-.296 1.035 0 .148.148.222.296.222.518 0 .222-.074.37-.222.518l-2.81 2.811zm0-1.11l2.294-2.219-2.294 2.22zM13.539 14.648c-.222 0-.37-.074-.518-.222l-2.812-2.811.296-.222c.148-.148.37-.296.518-.518l.222-.296 2.811 2.812c.296.296.296.74 0 1.035-.148.148-.37.222-.517.222zm-2.294-3.033l2.294 2.293-2.294-2.293zM5.327 6.732L2.515 3.921c-.148-.148-.222-.296-.222-.518 0-.222.074-.37.222-.518.148-.148.296-.222.518-.222.222 0 .37.074.518.222l2.811 2.812-.296.221c-.148.148-.37.296-.517.518l-.222.296zM3.033 3.33l2.22 2.294-2.22-2.294z" transform="translate(257.455 134.646)"/>
        </g>
        <path fill="#F46A6A" d="M165.94 1.258c-4.365-2.072-6.363 2.367-6.51 2.663-.148-.37-2.146-4.809-6.51-2.663-4.514 2.145-2.22 9.025 6.51 14.278 8.803-5.179 11.097-12.059 6.51-14.278z"/>
        <path fill="#F0785F" d="M153.88 228.528c-2.219-1.036-3.18 1.184-3.254 1.332-.074-.148-1.036-2.368-3.255-1.332-2.294 1.11-1.11 4.513 3.255 7.102 4.365-2.59 5.548-6.066 3.255-7.102z"/>
        <g fill="#FFF">
            <path d="M52.379 88.186c0 .074 0 .074 0 0zM52.379 88.186h-.148C.296 57.336-13.317 16.424 13.687 3.55 39.58-8.729 51.49 17.46 52.305 19.605c.887-2.071 12.724-28.335 38.618-16.054 27.003 12.873 13.39 53.784-38.544 84.635zM52.379 88.186c-.074.074-.074.074 0 0-.074 0-.074 0 0 0z" transform="translate(85.078 90.997)"/>
        </g>
        <g fill="#F18944">
            <path d="M11.097 15.61H.517v-2.293l4.884-5.105C6.584 6.806 7.176 5.77 7.176 4.957c0-.666-.148-1.184-.444-1.48-.296-.37-.666-.518-1.257-.518-.518 0-.962.222-1.332.666-.37.444-.518 1.036-.518 1.702H.074c0-.962.222-1.776.666-2.59.444-.813 1.11-1.405 1.923-1.85C3.477.445 4.44.223 5.475.223c1.627 0 2.885.37 3.773 1.11.887.74 1.331 1.85 1.331 3.255 0 .592-.148 1.184-.37 1.775-.222.592-.591 1.184-1.035 1.776-.444.592-1.258 1.48-2.294 2.515l-1.997 2.294h5.992v2.663h.222zM22.12 9.618h1.554v2.737H22.12v3.255h-3.55v-3.255h-5.845l-.222-2.146L18.569.444h3.551v9.174zm-6.214 0h2.737V4.957l-.222.37-2.515 4.29zM31.146 6.14L32.996 2.441 36.029 2.441 32.922 7.99 36.103 13.613 32.996 13.613 31.146 9.839 29.297 13.613 26.189 13.613 29.371 7.99 26.263 2.441 29.297 2.441zM49.419 2.293L43.723 15.61 40.024 15.61 45.72 3.107 38.47 3.107 38.47.37 49.419.37z" transform="translate(112.451 123.549)"/>
        </g>
        <circle cx="88.629" cy="68.803" r="4.069" fill="#FCA87B"/>
    </g>
</svg>
