<svg xmlns="http://www.w3.org/2000/svg" width="100%" height="63%" viewBox="0 0 320 238">
    <defs>
        <linearGradient id="32io73680a" x1=".04%" x2="99.994%" y1="49.992%" y2="49.992%">
            <stop offset="0%" stop-color="#FCCE7A"/>
            <stop offset="100%" stop-color="#F18944"/>
        </linearGradient>
        <linearGradient id="dghmn7tplb" x1=".003%" x2="100.005%" y1="49.996%" y2="49.996%">
            <stop offset="0%" stop-color="#F18944"/>
            <stop offset="100%" stop-color="#E34618"/>
        </linearGradient>
    </defs>
    <g fill="none" fill-rule="evenodd" transform="translate(39.5 1.5)">
        <path fill="#F18944" fill-rule="nonzero" d="M46.97 100.86c3.93-.257 5.125.682 5.723-.086.94-1.281-1.965-4.527-6.32-12.042-3.587-6.234-3.843-7.857-3.587-9.223.513-3.16 3.16-6.064 6.149-7.089 3.843-1.28 5.295 1.538 8.967.77 2.733-.599 5.807-5.467 11.956-15.117 2.562-4.014 3.16-5.295 5.04-7.174 2.732-2.733 4.355-3.074 4.696-4.953.598-3.074-3.16-5.295-2.135-7.6.683-1.623 3.075-1.794 2.99-2.477-.172-1.11-6.748 0-7.943-2.477-.598-1.281.854-2.135.512-4.356-.427-2.903-2.989-3.245-3.16-5.465-.256-2.99 4.1-3.843 3.929-6.747-.086-1.196-.854-1.623-5.466-6.917-2.22-2.477-2.391-2.904-2.391-3.416 0-2.904 5.807-5.295 10.077-6.064 1.794-.342 5.551-.94 9.65.598 8.54 3.245 9.651 12.725 14.86 12.468 2.477-.085 2.477-2.305 6.833-3.33 1.537-.342 5.807-1.367 8.54 1.195 1.195 1.11 1.964 2.904 1.879 4.697-.171 3.16-2.904 3.331-4.612 7.601-.427 1.11-2.135 5.21-.598 8.967.598 1.452 1.367 2.05 1.11 3.16-.427 1.964-3.587 1.708-4.611 3.672-1.281 2.392.94 7.174 4.44 9.48 4.014 2.647 7.174.512 9.907 3.501 1.452 1.623 2.391 4.27 1.623 6.235-1.11 2.903-4.954 2.391-5.551 4.526-.854 2.818 4.697 8.199 11.443 10.42 7.43 2.39 9.65-1.282 16.398 1.707 3.416 1.537 3.501 2.733 10.162 6.149 3.075 1.537 5.38 2.477 8.37 2.733 2.05.17 5.21.427 7.088-1.537 1.196-1.196 1.366-2.733 1.708-5.637.598-4.953-.512-7.088.683-7.857 1.11-.768 3.502.171 4.697 1.623 1.88 2.22.342 4.355 1.538 6.49 2.562 4.356 13.408 2.819 19.13-.597 2.134-1.282 2.732-2.306 2.818-3.16.341-2.306-2.562-3.673-2.05-5.38.427-1.452 2.562-1.11 5.466-2.563 5.038-2.39 4.184-6.149 8.37-7.6 3.33-1.196 4.782.854 7.941-.854 2.733-1.452 2.733-3.502 4.356-3.502 2.477.086 2.989 5.039 7.088 6.149 1.623.427 2.05-.17 3.075.427 2.903 1.708 3.33 8.882.341 11.273-1.708 1.366-3.16-.085-7.088 1.11-.512.171-6.149 1.88-6.49 4.868-.171 2.05 2.39 2.904 2.134 5.21-.256 2.05-2.39 2.39-2.476 4.27-.086 1.879 1.964 2.135 2.391 4.099 0 0 .342 1.879-5.807 8.882-3.075 2.05-4.185 4.184-4.527 5.636-.768 3.075.77 5.551-.939 7.43-.683.769-1.964 1.537-2.733 1.11-1.366-.683-.17-4.27-1.366-10.419-.598-3.074-1.11-3.33-1.367-3.416-1.793-.427-3.843 7.43-7.515 7.43-1.366 0-2.306-.94-2.391-1.025-1.11-1.195-.94-2.989-.854-4.27.341-2.732 1.28-3.416 2.647-7.344.769-2.306 1.537-4.356.769-5.039-.683-.512-1.879.342-4.27 1.281-3.16 1.281-4.783 1.794-6.235 1.623-2.647-.427-4.782-2.818-5.892-4.783-1.025-1.879-.598-2.903-1.794-3.587-.94-.597-1.622-.256-5.038-.085-3.075.17-4.356 0-4.441.427-.171.512 1.879 1.025 4.184 3.33 1.196 1.196 1.794 1.794 1.794 2.563 0 2.135-4.27 2.903-4.27 5.038 0 .684.683 1.367 2.05 2.733 1.622 1.623 2.134 1.623 2.903 2.562.427.513 1.11 1.538 1.452 5.551.342 4.185-.256 4.356.085 6.747.598 4.356 2.904 6.405 2.135 7.174-.94.94-4.355-2.562-7.173-1.281-1.538.768-1.367 2.22-3.502 3.33-1.964.94-2.903.086-3.757.94-1.623 1.623 1.451 4.953.085 8.455-.769 1.964-2.477 2.903-4.868 4.27-4.526 2.562-6.49 1.366-9.053 3.587-2.39 2.05-1.024 3.416-3.501 6.832-2.391 3.33-4.1 2.647-8.967 6.917-2.477 2.22-4.185 3.672-5.637 6.235-2.135 3.757-1.537 5.636-3.757 7.002-2.22 1.367-3.843 0-6.235 1.794-1.708 1.28-1.451 2.306-3.074 3.074-2.306 1.11-4.014-.427-5.124.598-1.025.94-.17 3.245.683 6.234 2.135 6.833 3.245 10.249 2.99 12.298-.513 4.612-3.844 4.185-5.296 10.42-.94 4.184-.94 8.54-.94 8.54 0 2.647.257 4.526-1.024 6.063-1.196 1.366-2.647 1.452-2.818 2.477-.171 1.451 2.818 2.39 2.647 3.928-.085 1.025-1.537 1.623-2.135 1.879-3.501 1.452-5.466-1.11-7.942-.086-2.648 1.196-1.367 4.954-5.124 8.028-.683.513-2.306 1.964-4.527 1.879-4.44 0-7.43-5.807-7.942-6.832-2.904-5.551-.598-8.199-1.964-14.604-1.537-7.344-5.039-6.49-10.334-17.336-2.903-6.064-2.22-7.089-6.234-16.739-3.074-7.43-4.185-7.344-5.551-11.87-1.537-5.04-1.623-8.968-1.794-16.569-.17-7.088-.256-10.59.257-14.689.341-2.306.94-6.063.256-11.016-.342-2.477-.94-5.21-1.452-5.125-.427 0-.342 1.965-1.025 5.466-.683 3.929-1.11 5.893-2.22 7.088-2.818 2.99-8.797 1.538-9.138 1.452-3.416-.94-3.075-2.391-10.248-7.857-3.075-2.305-5.039-3.501-4.783-4.697.171-.94 1.537-1.366 4.1-2.135 2.22-.768 4.099-.94 6.234-2.476.768-.513.94-.769.854-1.025-.171-.683-2.904 0-6.405-.683-.684-.171-2.904-.598-5.38-2.05-1.623-1.025-3.844-2.306-4.27-4.697-.086-.342-.257-1.281.17-2.22.769-1.965 3.075-2.563 4.526-2.99 2.22-.597 2.648-.085 6.15-.512 3.415-.342 3.415-.854 6.063-1.025z"/>
        <path fill="url(#32io73680a)" fill-rule="nonzero" d="M208.892 45.263c-4.612-8.199-19.642-9.821-42.36-4.441-12.639 2.989-26.9 7.857-41.846 14.347.256.854.427 1.794.256 2.648 15.116-6.576 29.464-11.53 42.189-14.518 8.625-2.05 16.226-3.075 22.29-3.075 4.44 0 8.113.512 11.016 1.537 2.904 1.025 4.954 2.648 6.15 4.697 3.757 6.747-2.136 18.703-16.056 33.222l-2.05 2.05c-1.11 1.11-2.306 2.305-3.501 3.415-1.538 1.452-3.075 2.819-4.698 4.27-15.372 13.665-35.697 27.67-58.329 40.31-20.154 11.187-40.224 20.24-58.329 26.218-6.063 2.05-11.956 3.672-17.507 5.039-21.18 4.953-35.613 3.843-39.456-3.246-3.928-7.002 2.733-19.898 18.105-35.27 3.246-3.246 6.833-6.49 10.59-9.821-.256-.171-.512-.257-.768-.427-.427-.257-1.025-.598-1.538-.94-3.672 3.16-7.003 6.32-10.162 9.394C6.32 137.155-.256 150.734 4.355 158.932c2.819 5.039 9.565 7.6 19.557 7.6 6.32 0 14.006-1.024 22.888-3.074 5.466-1.28 11.102-2.903 17.08-4.867 18.447-6.064 38.943-15.202 59.44-26.646 20.325-11.273 38.772-23.741 53.546-36.04 3.246-2.732 6.32-5.465 9.224-8.112 1.537-1.452 2.989-2.819 4.355-4.185 1.623-1.537 3.075-3.16 4.441-4.697 2.733-2.99 5.21-5.893 7.26-8.711.939-1.366 1.878-2.647 2.647-3.843 5.465-8.711 7.003-15.97 4.099-21.094zM50.131 100.945c.854-.598 1.622-1.196 2.476-1.794-.256-.598-.683-1.366-1.28-2.22-1.88 1.366-3.758 2.818-5.637 4.184.341-.085.768-.085 1.195-.085 1.452-.256 2.477-.17 3.246-.085z"/>
        <path fill="url(#dghmn7tplb)" fill-rule="nonzero" d="M123.064 64.222c-1.282-.342-2.563-.683-3.844-1.11v.085c-.256.769 0 1.708.684 2.733.854.256 1.622.427 2.476.683 17.251 4.953 33.648 10.846 48.081 17.251.854-.256 1.623-.683 2.306-1.28.086-.086.171-.172.256-.342-14.945-6.747-31.94-12.896-49.96-18.02zm76.348 31.855c-1.708-1.025-3.501-2.135-5.294-3.16-.77.17-1.367.256-1.965.17-2.391-.341-4.44-2.39-5.55-4.27-2.734-1.451-5.552-2.818-8.456-4.184-2.135.085-2.989 0-3.074.341-.085.427 1.452.94 3.416 2.648 7.174 3.416 13.75 7.003 19.642 10.675.684.427 1.281.854 1.965 1.196.256-.684.683-1.367 1.024-2.392-.597-.341-1.11-.683-1.708-1.024zm16.483 12.127c.085 1.28.256 2.476-.086 3.501 5.295 5.295 8.114 10.163 8.114 14.348 0 .768-.086 1.537-.342 2.305-2.22 7.687-15.885 12.127-37.491 12.127h-.171c-8.113 0-17.08-.597-26.645-1.793-16.824-2.05-35.442-5.978-54.316-11.358-24.424-7.003-47.056-15.885-64.99-25.45-3.758-2.05-7.345-4.1-10.675-6.149C10.76 84.291 1.452 73.275 3.673 65.503c2.305-8.028 16.482-12.042 37.32-12.042 8.967 0 19.215.769 30.317 2.22.598-1.024 1.11-1.793 1.623-2.476-39.285-5.38-67.98-1.537-71.737 11.7-2.562 9.053 6.917 20.753 26.73 33.05 2.306 1.452 4.783 2.904 7.26 4.27 18.617 10.42 42.786 20.07 69.09 27.585 18.019 5.124 35.697 8.882 51.923 11.102 10.675 1.452 20.667 2.135 29.72 2.22h.256c11.615 0 20.924-1.28 27.756-3.586 6.746-2.391 10.931-5.893 12.212-10.334 1.793-6.063-1.879-13.237-10.248-21.008zm-4.612-3.929c-1.025-.854-2.135-1.622-3.245-2.476-.427.683-.854 1.451-1.366 2.22 1.793 1.281 3.501 2.647 5.038 3.928-.085-1.11-.17-2.305-.427-3.672z"/>
        <path stroke="#48B09D" d="M198.217 179.6c0-.855-.854-1.538-1.964-1.538-1.11 0-1.965-.854-1.965-1.964 0-1.11-.683-1.964-1.537-1.964-.854 0-1.537.854-1.537 1.964 0 1.11-.854 1.964-1.964 1.964-1.11 0-1.965.683-1.965 1.537 0 .854.854 1.537 1.965 1.537 1.11 0 1.964.855 1.964 1.965s.683 1.964 1.537 1.964c.854 0 1.537-.854 1.537-1.964 0-1.11.854-1.965 1.965-1.965 1.024 0 1.964-.683 1.964-1.537z"/>
        <path fill="#606060" fill-rule="nonzero" d="M186.26 160.896c-2.05 0-3.672-1.622-3.672-3.672s1.623-3.672 3.673-3.672 3.672 1.622 3.672 3.672c.085 1.964-1.623 3.672-3.672 3.672zm0-6.32c-1.451 0-2.647 1.196-2.647 2.648 0 1.452 1.196 2.648 2.648 2.648 1.451 0 2.647-1.196 2.647-2.648 0-1.537-1.196-2.647-2.647-2.647zM140.57 220.507c-2.049 0-3.671-1.623-3.671-3.673s1.622-3.672 3.672-3.672 3.672 1.623 3.672 3.672c.085 2.05-1.623 3.673-3.672 3.673zm0-6.32c-1.451 0-2.647 1.195-2.647 2.647 0 1.452 1.196 2.648 2.648 2.648 1.452 0 2.647-1.196 2.647-2.648 0-1.452-1.195-2.647-2.647-2.647z"/>
        <path fill="#F46A6A" fill-rule="nonzero" d="M23.058 72.762c-1.964 0-3.586-1.623-3.586-3.587 0-1.964 1.622-3.587 3.586-3.587 1.965 0 3.587 1.623 3.587 3.587 0 1.964-1.622 3.587-3.587 3.587zm0-6.32c-1.537 0-2.732 1.196-2.732 2.733 0 1.537 1.195 2.733 2.732 2.733 1.538 0 2.733-1.196 2.733-2.733 0-1.537-1.195-2.733-2.733-2.733z"/>
        <path fill="#48B09D" fill-rule="nonzero" d="M183.699 24.937c-1.965 0-3.587-1.622-3.587-3.587 0-1.964 1.622-3.586 3.587-3.586 1.964 0 3.586 1.622 3.586 3.586 0 1.965-1.622 3.587-3.586 3.587zm0-6.32c-1.538 0-2.733 1.196-2.733 2.733 0 1.538 1.195 2.733 2.733 2.733 1.537 0 2.732-1.195 2.732-2.733 0-1.537-1.28-2.732-2.732-2.732z"/>
        <g fill="#606060" fill-rule="nonzero">
            <path d="M8.796 14.262v4.185c0 .256.171.427.427.427.257 0 .427-.171.427-.427v-4.185h-.854zM9.65 5.38V1.196c0-.257-.17-.427-.427-.427-.256 0-.427.17-.427.427V5.38h.427c.171 0 .257-.085.427 0zM4.782 9.394H.598c-.256 0-.427.171-.427.427s.17.427.427.427h4.184v-.427-.427zM17.764 9.394h-4.1v.854h4.185c.256 0 .427-.17.427-.427 0-.256-.256-.427-.512-.427zM5.722 12.64l-2.904 2.903c-.17.17-.17.427 0 .598.086.085.171.17.342.17.085 0 .256-.085.341-.17l2.904-2.904c-.256-.17-.427-.341-.683-.598zM12.64 6.918l2.903-2.904c.17-.17.17-.427 0-.598-.17-.17-.427-.17-.598 0L12.042 6.32c.256.17.427.427.597.598zM12.042 13.237l2.903 2.904c.086.085.171.17.342.17.085 0 .256-.085.341-.17.171-.17.171-.427 0-.598l-2.903-2.904c-.256.257-.427.427-.683.598zM6.405 6.32L3.416 3.416c-.17-.17-.427-.17-.598 0-.17.17-.17.427 0 .598l2.904 2.904c.256-.171.427-.427.683-.598z" transform="translate(176.781 102.482)"/>
        </g>
        <g fill="#48B09D" fill-rule="nonzero">
            <path d="M9.48 18.96c-.513 0-.854-.428-.854-.855v-4.612l.427.086h.768l.427-.086v4.612c.086.427-.256.854-.768.854zm0-4.613v3.673-3.673zM10.334 5.551l-.427-.085h-.769l-.427.085V.854c0-.512.427-.854.854-.854s.854.427.854.854v4.697h-.085zm-.854-.94V.94v3.673zM5.551 10.334H.854C.342 10.334 0 9.907 0 9.48s.427-.854.854-.854h4.612l-.086.427v.854l.171.427zM.854 9.48h3.672H.854zM18.105 10.334h-4.612l.086-.427V9.48v-.427l-.086-.427h4.612c.513 0 .854.427.854.854s-.427.854-.854.854zm-3.758-.854h3.673-3.673zM3.416 16.397c-.256 0-.427-.085-.598-.256-.17-.17-.256-.342-.256-.598 0-.256.085-.427.256-.598L6.064 11.7l.341.342c.17.17.342.427.598.597l.342.342-3.246 3.245c-.256.086-.427.171-.683.171zm2.562-3.416l-2.562 2.562 2.562-2.562c.086 0 .086 0 0 0zM12.896 7.26l-.342-.342c-.17-.171-.342-.427-.598-.598l-.341-.342 3.245-3.245c.341-.342.94-.342 1.195 0 .342.341.342.854 0 1.195l-3.16 3.331zm.085-1.282c0 .086 0 .086 0 0l2.647-2.562-2.647 2.562zM15.543 16.397c-.256 0-.427-.085-.598-.256L11.7 12.896l.342-.342c.17-.17.427-.342.597-.598l.342-.341 3.245 3.245c.171.17.256.341.256.598 0 .256-.085.427-.256.597-.17.257-.427.342-.683.342zm-2.562-3.416l2.647 2.647-2.647-2.647zM6.064 7.26L2.818 4.013c-.341-.342-.341-.854 0-1.196.171-.17.342-.256.598-.256.256 0 .427.085.598.256l3.245 3.246-.341.256c-.171.17-.427.341-.598.598l-.256.341zM3.416 3.415l2.562 2.648-2.562-2.648z" transform="translate(33.307 17.934)"/>
        </g>
        <g fill="#F0785F" fill-rule="nonzero">
            <path d="M9.907 19.472c-.513 0-.854-.427-.854-.854v-4.612l.427.085h.768l.427-.085v4.612c.086.512-.256.854-.768.854zm0-4.527v3.673-3.673zM10.76 6.064l-.426-.086h-.769l-.427.086V1.452c0-.513.427-.854.854-.854s.854.427.854.854v4.612h-.085zm-.853-.94V1.452v3.672zM5.978 10.931H1.366c-.512 0-.854-.427-.854-.854s.427-.854.854-.854h4.612l-.085.427v.854l.085.427zm-4.612-.854H5.04 1.366zM18.532 10.931H13.92l.086-.427v-.427-.427l-.086-.427h4.612c.513 0 .854.427.854.854s-.427.854-.854.854zm-3.672-.854h3.672-3.672zM3.843 16.995c-.256 0-.427-.086-.598-.256-.341-.342-.341-.854 0-1.196l3.246-3.245.256.341c.17.171.341.427.598.598l.341.256-3.245 3.246c-.17.17-.342.256-.598.256zm2.648-3.502l-2.648 2.648 2.648-2.648zM13.323 7.857l-.257-.342c-.17-.17-.341-.427-.597-.597l-.342-.257 3.245-3.245c.342-.342.854-.342 1.196 0 .17.17.256.342.256.598 0 .256-.085.427-.256.598l-3.245 3.245zm.085-1.281l2.647-2.562-2.647 2.562zM15.97 16.995c-.256 0-.427-.086-.598-.256l-3.245-3.246.342-.341c.17-.171.427-.342.597-.598l.342-.342 3.245 3.246c.171.17.256.341.256.597 0 .257-.085.427-.256.598-.17.256-.427.342-.683.342zm-2.562-3.502l2.647 2.648-2.647-2.648zM6.49 7.857L3.246 4.612c-.341-.342-.341-.854 0-1.196.342-.342.854-.342 1.196 0l3.245 3.245-.341.257c-.171.17-.427.341-.598.597l-.256.342zM3.844 3.928l2.562 2.648-2.562-2.648z" transform="translate(130.664 21.35)"/>
        </g>
        <g fill="#606060" fill-rule="nonzero">
            <path d="M13.493 20.753v6.234c0 .341.257.683.684.683.341 0 .683-.256.683-.683v-6.234h-.683c-.257.085-.513 0-.684 0zM14.774 7.43V1.196c0-.342-.256-.684-.683-.684-.341 0-.683.257-.683.684V7.43h1.366zM7.43 13.493H1.196c-.342 0-.684.257-.684.684 0 .341.257.683.684.683H7.43v-.683-.684zM26.987 13.493h-6.234v1.367h6.234c.341 0 .683-.256.683-.683 0-.427-.342-.684-.683-.684zM8.967 18.361l-4.355 4.356c-.257.256-.257.683 0 .94.17.17.256.17.427.17.17 0 .341-.085.427-.17L9.82 19.3c-.256-.256-.598-.598-.854-.94zM19.3 9.907l4.356-4.356c.256-.256.256-.683 0-.94-.256-.256-.683-.256-.94 0l-4.355 4.356c.342.256.684.598.94.94zM18.361 19.3l4.356 4.356c.17.171.256.171.427.171.17 0 .341-.085.427-.17.256-.257.256-.684 0-.94l-4.356-4.356c-.17.342-.512.684-.854.94zM9.907 8.967L5.55 4.612c-.256-.257-.683-.257-.94 0-.256.256-.256.683 0 .94l4.356 4.355c.256-.342.598-.684.94-.94z" transform="translate(149.453 183.613)"/>
        </g>
        <path fill="#F46A6A" fill-rule="nonzero" d="M185.748 51.24c-2.818-1.366-4.1 1.538-4.184 1.709-.086-.256-1.367-3.075-4.185-1.708-2.904 1.366-1.452 5.807 4.185 9.223 5.636-3.416 7.088-7.857 4.184-9.223z"/>
        <path fill="#C9E4E0" fill-rule="nonzero" d="M49.96 178.062h1.793l-.512 1.196h-1.11c-.086 1.537-1.452 2.818-2.99 2.818l3.502 4.612h-1.452l-4.014-5.38v-.428h2.05c.94 0 1.708-.683 1.879-1.622h-3.843l.512-1.196h3.16c-.256-.512-.854-.854-1.452-.94h-2.221l.257-.597.256-.513h6.15l-.513 1.196h-1.88c.172.17.342.512.428.854z"/>
        <g fill-rule="nonzero">
            <path fill="#48B09D" d="M11.358 2.477c-.256-.854-.597-1.281-1.195-1.623C9.82.684 9.394.512 8.967.512c-1.28 0-2.306 1.025-2.306 2.306 0 .598.171 1.11.513 1.452H5.466v.854h3.501V4.27c-.854 0-1.452-.683-1.452-1.452 0-.854.684-1.452 1.452-1.452.513 0 .94.257 1.196.684 0 0 .341.427.341 1.366 0 .342 0 .854-.17 1.366-.598 2.392-2.392 4.1-4.612 4.1s-4.014-1.708-4.612-4.1c.427.342.854.513 1.452.513 1.281 0 2.306-1.025 2.306-2.306 0-1.281-1.025-2.306-2.306-2.306-.427 0-.854.086-1.196.342C.77 1.366.256 2.22.256 3.33c0 3.843 2.477 6.49 5.466 6.49 3.501-.17 6.405-3.757 5.636-7.344zm-8.71-1.11c.853 0 1.451.683 1.451 1.451 0 .854-.683 1.452-1.452 1.452-.854 0-1.451-.683-1.451-1.452 0-.768.683-1.452 1.451-1.452z" transform="translate(145.182 161.409)"/>
            <path fill="#00A07E" d="M8.967.512c.427 0 .854.086 1.196.342.598.342.94.769 1.195 1.623.769 3.587-2.135 7.173-5.55 7.173C2.732 9.65.341 7.003.341 3.16c0-1.11.597-1.964 1.11-2.306.341-.17.768-.342 1.195-.342 1.281 0 2.306 1.025 2.306 2.306 0 1.281-1.025 2.306-2.306 2.306-.512 0-1.024-.17-1.451-.512.597 2.39 2.39 4.099 4.611 4.099 2.22 0 4.014-1.708 4.612-4.1.17-.512.17-1.024.17-1.366 0-.854-.34-1.28-.34-1.366-.257-.427-.684-.683-1.196-.683-.854 0-1.452.683-1.452 1.451 0 .854.683 1.452 1.452 1.452v.854H5.55V4.1H7.26c-.341-.427-.512-.94-.512-1.452-.086-1.11.94-2.135 2.22-2.135m-6.32 3.843c.854 0 1.452-.683 1.452-1.451 0-.854-.683-1.452-1.452-1.452-.854 0-1.451.683-1.451 1.452 0 .768.683 1.451 1.451 1.451M8.967.256c-1.452 0-2.562 1.196-2.562 2.562 0 .427.086.854.342 1.196H5.295V5.38h4.014V4.014h-.256c-.684 0-1.196-.513-1.196-1.196 0-.683.512-1.195 1.196-1.195.341 0 .768.17.939.512l.085.085c0 .086.257.427.342 1.196 0 .427-.085.854-.17 1.281-.513 2.306-2.307 3.929-4.356 3.929-1.794 0-3.416-1.367-4.185-3.331.342.17.683.17 1.025.17 1.452 0 2.562-1.195 2.562-2.561 0-1.452-1.196-2.562-2.562-2.562-.427 0-.94.085-1.281.341C.854 1.025.17 1.964.17 3.245c0 1.88.598 3.673 1.708 4.868 1.025 1.196 2.476 1.879 4.1 1.879 1.707 0 3.33-.854 4.44-2.22 1.196-1.538 1.708-3.417 1.281-5.21-.256-.94-.598-1.366-1.281-1.793-.512-.342-.94-.513-1.452-.513zM2.647 4.1c-.683 0-1.195-.512-1.195-1.195 0-.684.512-1.196 1.195-1.196.684 0 1.196.512 1.196 1.196.085.597-.512 1.195-1.196 1.195z" transform="translate(145.182 161.409)"/>
        </g>
        <path fill="#F46A6A" fill-rule="nonzero" d="M25.791 137.667c-1.964 0-3.587-1.622-3.587-3.587 0-1.964 1.623-3.587 3.587-3.587 1.964 0 3.587 1.623 3.587 3.587 0 1.965-1.623 3.587-3.587 3.587zm0-6.32c-1.537 0-2.733 1.196-2.733 2.733 0 1.538 1.196 2.733 2.733 2.733 1.537 0 2.733-1.195 2.733-2.733 0-1.537-1.196-2.733-2.733-2.733z"/>
        <circle cx="60.977" cy="214.187" r="3.758" fill="#F18944" fill-rule="nonzero"/>
        <circle cx="22.204" cy="187.969" r="8.369" fill="#F18944" fill-rule="nonzero"/>
        <g fill="#FFF" fill-rule="nonzero">
            <g>
                <path d="M7.174 7.088h1.11v1.88h-1.11v2.305H4.697V8.967H.512L.342 7.43 4.612.512h2.476v6.576h.086zm-4.441 0h1.964v-3.33l-.17.256-1.794 3.074zM16.824 6.918c0 1.451-.342 2.562-.94 3.33-.683.769-1.537 1.196-2.732 1.196-1.196 0-2.135-.427-2.733-1.196-.683-.768-.94-1.879-.94-3.33V4.953c0-1.452.342-2.562.94-3.33.683-.769 1.537-1.196 2.733-1.196 1.195 0 2.135.427 2.733 1.196.683.768.94 1.878.94 3.33v1.965zm-2.477-2.22c0-.77-.085-1.367-.341-1.709-.256-.342-.513-.598-.94-.598-.427 0-.768.171-.939.513-.17.341-.256.854-.342 1.622V7.26c0 .769.086 1.367.342 1.794.256.427.512.597.94.597.426 0 .768-.17.939-.512.17-.342.341-.94.341-1.708V4.697zM25.535 6.918c0 1.451-.342 2.562-.94 3.33-.683.769-1.537 1.196-2.732 1.196-1.196 0-2.135-.427-2.733-1.196-.683-.768-.94-1.879-.94-3.33V4.953c0-1.452.342-2.562.94-3.33.683-.769 1.537-1.196 2.733-1.196 1.195 0 2.135.427 2.733 1.196.597.768.939 1.878.939 3.33v1.965zm-2.477-2.22c0-.77-.085-1.367-.341-1.709-.256-.342-.513-.598-.94-.598-.427 0-.768.171-.939.513-.17.341-.256.854-.342 1.622V7.26c0 .769.086 1.367.342 1.794.256.427.512.597.94.597.426 0 .768-.17.939-.512.17-.342.341-.94.341-1.708V4.697zM34.331 6.918c0 1.451-.341 2.562-.939 3.33-.683.769-1.537 1.196-2.733 1.196-1.195 0-2.135-.427-2.733-1.196-.598-.768-.94-1.879-.94-3.33V4.953c0-1.452.342-2.562.94-3.33C28.61.854 29.464.427 30.66.427c1.196 0 2.135.427 2.733 1.196.683.768.94 1.878.94 3.33v1.965zm-2.562-2.22c0-.77-.085-1.367-.341-1.709-.256-.342-.513-.598-.94-.598-.427 0-.768.171-.94.513-.17.341-.255.854-.34 1.622V7.26c0 .769.085 1.367.34 1.794.257.427.513.597.94.597.427 0 .769-.17.94-.512.17-.342.341-.94.341-1.708V4.697zM43.042 6.918c0 1.451-.341 2.562-.94 3.33-.682.769-1.536 1.196-2.732 1.196-1.196 0-2.135-.427-2.733-1.196-.683-.768-.94-1.879-.94-3.33V4.953c0-1.452.342-2.562.94-3.33C37.32.854 38.174.427 39.37.427c1.196 0 2.135.427 2.733 1.196.683.768.94 1.878.94 3.33v1.965zm-2.476-2.22c0-.77-.086-1.367-.342-1.709-.256-.342-.512-.598-.94-.598-.426 0-.768.171-.939.513-.17.341-.256.854-.341 1.622V7.26c0 .769.085 1.367.341 1.794.256.427.513.597.94.597.427 0 .768-.17.94-.512.17-.342.34-.94.34-1.708V4.697zM51.753 6.918c0 1.451-.341 2.562-.94 3.33-.682.769-1.536 1.196-2.732 1.196-1.196 0-2.135-.427-2.733-1.196-.683-.768-.94-1.879-.94-3.33V4.953c0-1.452.342-2.562.94-3.33.683-.769 1.537-1.196 2.733-1.196 1.196 0 2.135.427 2.733 1.196.683.768.94 1.878.94 3.33v1.965zm-2.476-2.22c0-.77-.086-1.367-.342-1.709-.256-.342-.512-.598-.94-.598-.426 0-.768.171-.939.513-.17.341-.256.854-.341 1.622V7.26c0 .769.085 1.367.341 1.794.256.427.513.597.94.597.427 0 .768-.17.939-.512.17-.342.342-.94.342-1.708V4.697zM57.561 5.209L60.037 5.209 60.037 7.345 57.561 7.345 57.561 10.248 55.255 10.248 55.255 7.345 52.693 7.345 52.693 5.209 55.255 5.209 55.255 2.391 57.561 2.391z" transform="translate(70.03 72.591) translate(0 17.08)"/>
            </g>
            <g>
                <path d="M7.43 12.042H3.587v-.513-.17-.598-.171c0-.171.085-.427.085-.598 0-.085 0-.17.086-.256.341-.94 1.024-1.623 1.964-1.964h.17c.086.085.257.17.342.17.086.086.171.086.171.086.17.085.256.085.427.17h.17c.172 0 .343.086.513 0h.257c.256 0 .512-.085.768-.17.17 0 .256-.086.342-.171.17-.085.427-.17.598-.085.085 0 .085 0 .17.085.171.085.257.17.427.17h.086c.085.086.256.172.341.257 0 .085.086.085.086.085l.256.257c0 .085.085.085.085.17.086.086.171.257.171.342 0 0 0 .085.086.085.085.171.085.257.17.427v2.221c0 .085-.085.085-.17.085H7.686c-.17.086-.256.086-.256.086zM4.953 4.185c.171-.598.513-1.11 1.025-1.538.256-.17.598-.341.94-.427h1.024c.171 0 .257.086.427.086.086 0 .086.085.171.085.086.086.17.086.342.171.085.085.085.085.17.085l.257.257c0 .085.085.085.085.17.086.086.171.171.171.342l.085.085c.086.171.086.257.171.427V4.1c0 .171 0 .342.086.513v.256c0 .256-.086.512-.171.768l-.256.513-.513.512-.512.257c-.256.085-.513.17-.769.17H7.43c-.17 0-.342 0-.512-.085h-.171c-.171-.085-.256-.085-.427-.17l-.086-.086c-.085-.086-.17-.171-.341-.171l-.086-.085-.341-.342-.086-.085c-.085-.086-.17-.257-.17-.342l-.086-.086c-.085-.17-.085-.256-.17-.427v-.17-.598-.256z" transform="translate(70.03 72.591) translate(23.058)"/>
                <path d="M11.188.512c.17 0 .341.086.512.086l.085.085c.086.086.257.171.342.171.085 0 .085.085.17.085l.257.257c0 .085.085.085.085.17.086.086.171.171.171.342 0 .085 0 .085.086.085.085.171.085.257.17.427 0 .086 0 .171.086.171 0 .171 0 .342.085.513v.256c0 .256-.085.512-.17.683-.086.085-.086.256-.171.342-.257.427-.598.768-1.025 1.024-.086.086-.256.086-.342.171-.256.086-.512.086-.683.171h-.256c-.086-.17.085-.342 0-.512v-.257-.512-.17c0-.172-.086-.257-.086-.428 0-.085 0-.085-.085-.17-.085-.171-.085-.342-.256-.428V2.99c-.086-.17-.171-.256-.256-.342 0-.085-.086-.085-.171-.17L9.48 2.22c0-.085-.086-.085-.171-.085-.086-.085-.256-.17-.342-.256 0-.086-.085-.086-.17-.086-.171-.085-.171-.085-.086-.256.342-.427.769-.683 1.281-.94.085 0 .17 0 .256-.085H11.188zM5.722 1.196l.256.256c0 .085.086.085.086.085 0 .086-.086.086-.171.086-.684.341-1.11.768-1.452 1.451-.17.257-.256.598-.342.94-.085.085 0 .17 0 .256-.085.17 0 .427 0 .598v.17c0 .086.086.257 0 .342-.085.086-.256 0-.341 0h-.171c-.17 0-.256-.085-.427-.085 0 0-.086 0-.086-.086-.085-.085-.256-.17-.341-.17-.086 0-.086-.086-.171-.086l-.256-.256c0-.085-.086-.085-.086-.17-.085-.086-.17-.172-.17-.342l-.086-.086c-.085-.17-.085-.256-.17-.427 0-.085 0-.17-.086-.17 0-.171 0-.342-.085-.513v-.17c0-.257.085-.513.17-.77.086-.17.171-.256.171-.426.256-.342.513-.598.854-.854.086-.086.256-.086.342-.171.256-.086.512-.171.768-.171h.257c.17 0 .341 0 .512.085.085 0 .085 0 .17.086.172.085.257.085.428.17l.085.086c.086.085.256.17.342.256-.086 0-.086.086 0 .086zM14.177 10.334s-.086 0 0 0H13.323 12.298c-.086 0-.171 0-.171-.086v-.17-.171c0-.171-.085-.342-.085-.513V9.31c0-.171-.086-.256-.171-.427 0-.086-.086-.086-.086-.171-.085-.17-.17-.256-.256-.342 0-.085 0-.085-.085-.085l-.256-.256-.171-.171-.256-.256c-.086-.086-.086-.086-.171-.086-.086-.085-.256-.17-.342-.256-.085-.085-.085-.085-.17-.085-.086 0-.086-.086 0-.171.085-.085.085-.085.085-.17.17-.257.341-.428.683-.342h.256c.256 0 .513 0 .683-.086.086 0 .257-.085.342-.085.085 0 .17-.086.256-.086.171-.085.342-.17.513-.085l.085.085c.085.086.256.086.342.171 0 .086.085.086.17.086.086.085.257.17.342.256l.085.085.257.256c0 .086 0 .086.085.086.085.085.17.256.17.341 0 0 0 .086.086.086.086.17.086.256.171.427 0 .085 0 .17.085.17 0 .171 0 .342.086.513v1.537l-.086.086h-.597zM.085 8.199c.086-.257.171-.598.257-.854.085-.171.17-.342.341-.513l.513-.512c.17-.086.341-.171.512-.342.085 0 .17-.085.17-.085.172-.086.257-.171.513-.086.086.086.171.086.171.086.085.085.256.17.427.17.085.086.085.086.17.086.172.085.342.085.513.085h.769c.085 0 .085 0 .085.086.086.17.171.256.256.341l.086.086c.085.085.085.17-.086.17-.17.086-.256.086-.341.171-.513.257-.94.684-1.196 1.196-.256.342-.341.683-.427 1.11 0 .086-.085.171-.085.256-.086.171-.086.257-.086.427 0 .086 0 .171-.17.171H.427.342c-.171 0-.257 0-.171-.17v-.171-.598-.171-.598C0 8.37 0 8.284.085 8.2z" transform="translate(70.03 72.591) translate(23.058)"/>
            </g>
        </g>
    </g>
</svg>
