<svg xmlns="http://www.w3.org/2000/svg" width="100%" height="63%" viewBox="0 0 320 238">
    <defs>
        <linearGradient id="hn8zwv0haa" x1=".454%" x2="98.496%" y1="46.05%" y2="46.05%">
            <stop offset="15.12%" stop-color="#FCA87B"/>
            <stop offset="47.69%" stop-color="#FCA87B" stop-opacity="0"/>
        </linearGradient>
        <linearGradient id="f5xbopk8bb" x1="-.046%" x2="99.975%" y1="50.008%" y2="50.008%">
            <stop offset="15.12%" stop-color="#FCA87B"/>
            <stop offset="47.69%" stop-color="#FCA87B" stop-opacity="0"/>
        </linearGradient>
    </defs>
    <g fill="none" transform="translate(47.5 8)">
        <g>
            <g fill="#DC6E2A">
                <path d="M53.786 58.036l2.085.083c-.695 0-1.39-.083-2.085-.083z" transform="translate(31.28 33.258) translate(4.345)"/>
                <path d="M159.706 6.984v13.22H139.2v123.971h-14.424V71.256h-37.71c10.34 8.73 16.77 21.452 16.77 35.67 0 26.44-22.68 49.555-58.131 47.809C1.39 152.49 0 87.553 0 87.553h8.168l11.556 4.905c-2.085 4.407-3.215 9.313-3.215 14.468 0 19.705 16.684 35.753 37.277 35.753s37.363-15.964 37.363-35.753c0-12.14-6.343-22.865-15.988-29.268-6.082-4.074-13.381-6.402-21.375-6.402v-13.22h2.085c6.17 0 11.817-2.162 16.162-5.654 5.474-4.407 8.95-10.975 8.95-18.375 0-13.22-11.21-20.704-25.112-20.704-8.168 0-17.03 4.573-21.636 9.396l-5.213-1.414C36.06 13.636 36.234.831 47.703.5c31.542-.998 46.748 13.22 46.748 33.59 0 9.23-3.476 17.628-9.297 24.03h39.535V20.204h-20.506V6.984h55.523z" transform="translate(31.28 33.258) translate(4.345)"/>
            </g>
            <g fill="#F18944">
                <path d="M49.963 58.036l2.085.083c-.695 0-1.39-.083-2.085-.083z" transform="translate(31.28 33.258)"/>
                <path d="M155.883 6.984v13.22h-20.506v123.971h-14.424V71.256H83.242c10.34 8.73 16.77 21.452 16.77 35.67 0 26.44-22.331 47.809-49.963 47.809-27.544 0-49.962-21.369-49.962-47.81 0-6.9 1.564-13.469 4.258-19.372L15.9 92.458c-2.085 4.407-3.215 9.313-3.215 14.468 0 19.705 16.683 35.753 37.277 35.753 20.593 0 37.363-15.964 37.363-35.753 0-12.14-6.343-22.865-15.988-29.268-6.083-4.074-13.381-6.402-21.375-6.402v-13.22h2.085c6.17 0 11.817-2.162 16.162-5.654 5.474-4.407 8.95-10.975 8.95-18.375 0-13.22-11.21-20.704-25.112-20.704-7.386 0-14.076 3.077-18.682 7.982l-10.253-8.314C30.151 5.32 40.491.499 52.048.499c21.288 0 38.58 13.22 38.58 33.59 0 9.23-3.476 17.628-9.298 24.03h39.536V20.204H100.36V6.984h55.523z" transform="translate(31.28 33.258)"/>
            </g>
            <path fill="url(#hn8zwv0haa)" d="M49.963 58.036l2.085.083c-.695 0-1.39-.083-2.085-.083z" transform="translate(31.28 33.258)"/>
            <path fill="url(#f5xbopk8bb)" d="M155.883 6.984v13.22h-20.506v123.971h-14.424V71.256H83.242c10.34 8.73 16.77 21.452 16.77 35.67 0 26.44-22.331 47.809-49.963 47.809-27.544 0-49.962-21.369-49.962-47.81 0-6.9 1.564-13.469 4.258-19.372L15.9 92.458c-2.085 4.407-3.215 9.313-3.215 14.468 0 19.705 16.683 35.753 37.277 35.753 20.593 0 37.363-15.964 37.363-35.753 0-12.14-6.343-22.865-15.988-29.268-6.083-4.074-13.381-6.402-21.375-6.402v-13.22h2.085c6.17 0 11.817-2.162 16.162-5.654 5.474-4.407 8.95-10.975 8.95-18.375 0-13.22-11.21-20.704-25.112-20.704-7.386 0-14.076 3.077-18.682 7.982l-10.253-8.314C30.151 5.32 40.491.499 52.048.499c21.288 0 38.58 13.22 38.58 33.59 0 9.23-3.476 17.628-9.298 24.03h39.536V20.204H100.36V6.984h55.523z" transform="translate(31.28 33.258)"/>
        </g>
        <path fill="#606060" d="M72.641 51.384c-2.085 0-3.736-1.58-3.736-3.575 0-1.996 1.65-3.575 3.736-3.575 2.086 0 3.737 1.58 3.737 3.575s-1.651 3.575-3.737 3.575zm0-6.153c-1.477 0-2.693 1.165-2.693 2.578 0 1.413 1.216 2.578 2.693 2.578s2.694-1.165 2.694-2.578c-.087-1.413-1.217-2.578-2.694-2.578zM190.727 146.17c-2.086 0-3.737-1.579-3.737-3.574 0-1.996 1.651-3.576 3.737-3.576 2.085 0 3.736 1.58 3.736 3.576 0 1.995-1.651 3.575-3.736 3.575zm0-6.152c-1.478 0-2.694 1.164-2.694 2.578 0 1.413 1.216 2.577 2.694 2.577 1.477 0 2.693-1.164 2.693-2.577 0-1.414-1.216-2.578-2.693-2.578z"/>
        <path fill="#F46A6A" d="M31.802 186.164c-1.998 0-3.65-1.58-3.65-3.492s1.652-3.492 3.65-3.492c1.999 0 3.65 1.58 3.65 3.492s-1.651 3.492-3.65 3.492zm0-6.153c-1.564 0-2.78 1.164-2.78 2.66 0 1.498 1.216 2.662 2.78 2.662 1.564 0 2.78-1.164 2.78-2.661s-1.303-2.66-2.78-2.66z"/>
        <path fill="#48B09D" d="M187.512 9.894c-1.999 0-3.65-1.58-3.65-3.492s1.651-3.492 3.65-3.492c1.998 0 3.649 1.58 3.649 3.492 0 1.913-1.65 3.492-3.65 3.492zm0-6.152c-1.564 0-2.78 1.164-2.78 2.66 0 1.497 1.216 2.66 2.78 2.66 1.564 0 2.78-1.163 2.78-2.66 0-1.496-1.216-2.66-2.78-2.66z"/>
        <g fill="#606060">
            <path d="M8.95 13.72v4.073c0 .25.174.416.434.416s.435-.166.435-.416V13.72H8.95zM9.819 4.989V.915c0-.25-.174-.416-.435-.416-.26 0-.434.166-.434.416v4.074h.869zM4.866 8.897H.608c-.26 0-.434.166-.434.415 0 .25.174.416.434.416h4.258v-.416-.415zM18.16 8.897h-4.257v.831h4.257c.261 0 .435-.166.435-.416 0-.166-.174-.415-.435-.415zM5.909 12.14l-2.955 2.826c-.173.167-.173.416 0 .582.087.083.174.167.348.167.087 0 .26-.084.347-.167l2.955-2.827c-.26-.166-.522-.415-.695-.582zM12.947 6.569L15.9 3.742c.174-.167.174-.416 0-.582-.174-.167-.434-.167-.608 0l-2.954 2.827.608.582zM12.339 12.721l2.954 2.827c.087.083.174.167.347.167.087 0 .261-.084.348-.167.174-.166.174-.415 0-.582l-2.954-2.827c-.261.167-.522.416-.695.582zM6.517 5.987L3.563 3.16c-.174-.167-.435-.167-.609 0-.173.166-.173.415 0 .582L5.91 6.569c.173-.167.434-.416.608-.582z" transform="translate(185.079 93.124)"/>
        </g>
        <g fill="#48B09D">
            <path d="M10.34 18.708c-.521 0-.869-.416-.869-.832v-4.49l.435.084h.782l.434-.083v4.49c.087.498-.26.83-.782.83zm0-4.407v3.575-3.575zM11.209 5.654l-.434-.083h-.782l-.435.083v-4.49c0-.499.435-.831.869-.831s.869.415.869.831v4.49h-.087zm-.869-.915V1.164v3.575zM6.256 10.393H1.564c-.521 0-.869-.415-.869-.831s.435-.832.869-.832h4.692l-.087.416v.832l.087.415zM1.564 9.48H5.3 1.564zM19.116 10.393h-4.692l.087-.415v-.416-.416l-.087-.416h4.692c.521 0 .869.416.869.832s-.434.831-.869.831zm-3.823-.831h3.736-3.736zM4.17 16.297c-.26 0-.434-.084-.607-.25-.174-.166-.261-.332-.261-.582 0-.25.087-.416.26-.582l3.302-3.16.348.333c.174.166.348.416.608.582l.348.333-3.302 3.16c-.26.082-.521.166-.695.166zm2.608-3.41l-2.694 2.578 2.694-2.577zM13.816 7.4l-.348-.333c-.174-.166-.347-.415-.608-.582l-.348-.332 3.302-3.16c.348-.332.956-.332 1.217 0 .347.333.347.832 0 1.164L13.816 7.4zm0-1.247l2.693-2.495-2.693 2.495zM16.51 16.297c-.261 0-.435-.084-.609-.25l-3.302-3.16.348-.332c.174-.166.434-.333.608-.582l.348-.333 3.301 3.16c.174.166.261.333.261.582 0 .25-.087.416-.26.582-.261.25-.435.333-.696.333zm-2.694-3.41l2.693 2.578-2.693-2.577zM6.864 7.4L3.563 4.24c-.348-.332-.348-.831 0-1.164.173-.166.347-.249.608-.249.26 0 .434.083.608.25l3.302 3.159-.348.25c-.173.166-.434.332-.608.581l-.26.333zM4.171 3.575l2.607 2.578L4.17 3.575z" transform="translate(43.446 97.28)"/>
        </g>
        <g fill="#F0785F">
            <path d="M9.993 19.04c-.522 0-.87-.415-.87-.831v-4.49l.435.083h.782l.435-.083v4.49c.086.416-.348.831-.782.831zm0-4.49v3.576-3.575zM10.861 5.903l-.434-.083h-.782l-.435.083v-4.49c0-.498.435-.831.87-.831.434 0 .868.416.868.831v4.49h-.087zm-.868-.831V1.497v3.575zM5.909 10.643H1.216c-.52 0-.868-.416-.868-.832 0-.415.434-.831.868-.831H5.91l-.087.416v.831l.087.416zM1.216 9.81h3.737-3.737zM18.682 10.643H13.99l.086-.416v-.416-.415l-.086-.416h4.692c.521 0 .869.416.869.831 0 .416-.348.832-.87.832zm-3.737-.832h3.737-3.737zM3.823 16.546c-.26 0-.434-.083-.608-.25-.348-.332-.348-.83 0-1.163l3.302-3.16.26.333c.174.166.348.415.609.582l.347.25-3.302 3.159c-.173.166-.434.25-.608.25zm2.607-3.409l-2.694 2.578 2.694-2.578zM13.468 7.65l-.26-.333c-.174-.166-.348-.416-.609-.582l-.347-.25 3.302-3.16c.347-.332.868-.332 1.216 0 .174.167.26.333.26.583 0 .25-.086.416-.26.582l-3.302 3.16zm0-1.248l2.694-2.494-2.694 2.494zM16.162 16.546c-.26 0-.435-.083-.608-.25l-3.302-3.159.347-.333c.174-.166.435-.332.608-.582l.348-.332 3.302 3.16c.174.166.26.332.26.581 0 .25-.086.416-.26.582-.26.25-.435.333-.695.333zm-2.694-3.326l2.694 2.578-2.694-2.578c0-.083 0-.083 0 0zM6.517 7.65L3.215 4.49c-.348-.333-.348-.832 0-1.164.348-.333.869-.333 1.216 0l3.302 3.16-.347.249c-.174.166-.435.332-.608.582l-.261.332zM3.823 3.907L6.43 6.485 3.823 3.908z" transform="translate(144.24 13.303)"/>
        </g>
        <g fill="#606060">
            <path d="M13.642 20.37v6.07c0 .333.26.666.695.666.348 0 .695-.25.695-.666v-6.07h-.695c-.26.084-.434 0-.695 0zM14.945 7.4V1.33c0-.332-.26-.665-.695-.665-.347 0-.695.25-.695.665V7.4h1.39zM7.56 13.22H1.216c-.347 0-.695.25-.695.665 0 .333.261.666.695.666H7.56v-.666c-.087-.166 0-.415 0-.665zM27.37 13.22h-6.342v1.331h6.343c.347 0 .695-.25.695-.666 0-.332-.26-.665-.695-.665zM9.037 18.043l-4.432 4.24c-.26.25-.26.665 0 .915.174.166.26.166.435.166.173 0 .347-.083.434-.166l4.432-4.24c-.261-.333-.609-.583-.87-.915zM19.55 9.728l4.432-4.24c.26-.25.26-.666 0-.915-.26-.25-.695-.25-.956 0l-4.431 4.24.956.915zM18.595 18.957l4.431 4.24c.174.167.26.167.435.167.173 0 .347-.083.434-.166.26-.25.26-.665 0-.915l-4.431-4.24c-.174.332-.522.582-.87.914zM9.993 8.897L5.56 4.657c-.26-.25-.695-.25-.956 0-.26.249-.26.664 0 .914l4.432 4.24c.26-.332.608-.665.956-.914z" transform="translate(42.577)"/>
        </g>
        <g>
            <path fill="#48B09D" d="M28.14 5.434c-.638-2.015-1.403-3.053-2.87-3.846-.83-.489-1.851-.733-2.936-.733-3.19 0-5.743 2.442-5.743 5.495 0 1.344.51 2.565 1.276 3.48h-4.084v2.016h8.55V9.77c-1.977 0-3.636-1.588-3.636-3.48 0-1.894 1.659-3.481 3.637-3.481 1.276 0 2.36.61 2.999 1.526.064.061.893 1.038.957 3.114 0 .855-.064 1.893-.447 3.176-1.403 5.556-5.87 9.586-11.23 9.586S4.786 16.12 3.382 10.625c.957.732 2.17 1.16 3.51 1.16 3.19 0 5.743-2.443 5.743-5.496 0-3.053-2.553-5.495-5.743-5.495-1.085 0-2.042.305-2.936.733C2.49 2.32 1.15 4.397 1.15 6.96c0 9.098 5.998 15.265 13.464 15.265 8.359 0 15.378-8.365 13.528-16.792zM6.893 2.81c1.978 0 3.637 1.587 3.637 3.48s-1.66 3.48-3.637 3.48c-1.979 0-3.638-1.587-3.638-3.48S4.85 2.81 6.892 2.81z" transform="translate(118.172 188.742)"/>
            <path fill="#00A07E" d="M22.334.794c1.085 0 2.042.305 2.935.733 1.468.793 2.233 1.831 2.872 3.846 1.85 8.427-5.17 16.853-13.528 16.853-7.466 0-13.464-6.167-13.464-15.265 0-2.565 1.403-4.64 2.807-5.434.83-.489 1.85-.733 2.936-.733 3.19 0 5.743 2.442 5.743 5.495s-2.553 5.496-5.743 5.496c-1.34 0-2.553-.428-3.51-1.16 1.404 5.556 5.87 9.586 11.23 9.586s9.828-4.091 11.231-9.586c.383-1.222.447-2.32.447-3.176-.064-2.076-.893-3.053-.957-3.114-.638-.916-1.787-1.526-3-1.526-1.977 0-3.636 1.587-3.636 3.48s1.659 3.48 3.637 3.48v2.016h-8.487V9.77h4.084c-.83-.916-1.276-2.137-1.276-3.48C16.59 3.235 19.143.793 22.334.793M6.892 9.77c1.978 0 3.637-1.588 3.637-3.48 0-1.894-1.66-3.481-3.637-3.481-1.979 0-3.638 1.587-3.638 3.48S4.85 9.77 6.892 9.77M22.334.184c-3.51 0-6.381 2.748-6.381 6.106 0 .977.255 2.015.765 2.87H13.21V12.395h9.763V9.16h-.638c-1.66 0-3-1.283-3-2.87 0-1.588 1.34-2.87 3-2.87.957 0 1.787.427 2.36 1.098v.062l.128.183c.064.122.702 1.038.766 2.747 0 .916-.127 1.954-.383 2.992-1.34 5.374-5.743 9.16-10.592 9.16-4.467 0-8.487-3.115-10.146-7.694.765.305 1.595.488 2.425.488 3.51 0 6.38-2.747 6.38-6.106 0-3.358-2.87-6.106-6.38-6.106-1.149 0-2.234.306-3.255.855C2.106 1.954.51 4.152.51 7.083c0 4.457 1.468 8.548 4.084 11.418 2.617 2.87 6.126 4.397 10.019 4.397 4.084 0 8.04-1.893 10.911-5.252 3-3.541 4.212-8.06 3.255-12.273-.638-2.137-1.532-3.297-3.127-4.213-1.085-.672-2.17-.977-3.318-.977zM6.892 9.16c-1.66 0-3-1.282-3-2.87 0-1.587 1.34-2.87 3-2.87 1.659 0 2.999 1.283 2.999 2.87 0 1.588-1.404 2.87-3 2.87z" transform="translate(118.172 188.742)"/>
        </g>
        <path fill="#FCCE7A" d="M38.232 57.787c-.695 0-1.303.582-1.303 1.247V70.84h-3.91c.087-.582.087-1.164.087-1.746 0-4.323-1.13-7.566-3.39-9.561-1.998-1.746-4.778-2.495-8.254-2.162-5.648.499-6.864 3.409-6.864 5.737 0 1.33.521 2.494 1.477 3.409 1.39 1.33 3.736 1.995 6.343 1.912 3.997-.166 5.127-2.827 5.213-4.24 0-.665-.52-1.247-1.216-1.247-.695 0-1.303.498-1.39 1.164 0 .415-.261 1.829-2.694 1.829-1.912.083-3.562-.416-4.431-1.247-.435-.416-.696-.998-.696-1.58 0-.832 0-2.91 4.519-3.243 2.693-.25 4.779.25 6.256 1.497 1.738 1.496 2.52 4.074 2.52 7.732 0 .582 0 1.164-.087 1.746H14.598c-6.083 0-6.952 2.744-6.952 4.407 0 3.742 5.735 6.236 11.036 6.236 4.518 0 11.556-1.83 13.728-8.148h4.519V81.4c0 .665.608 1.247 1.303 1.247s1.304-.582 1.304-1.247V59.034c0-.665-.609-1.247-1.304-1.247zm-19.55 21.202c-4.171 0-8.429-1.913-8.429-3.742 0-1.58 2.346-1.912 4.345-1.912H29.63c-2.607 5.487-9.993 5.654-10.948 5.654z"/>
        <path fill="#F0785F" d="M203.413 85.308c-.174 0-.435-.083-.522-.166-2.433-1.996-3.475-4.906-2.867-7.484.174-.748 1.043-3.409 3.65-4.406 1.477-.582 3.475-.5 4.952.083 1.304-.333 3.041-.416 4.692.582.522.332 1.043.748 1.478 1.33.434-.499 1.042-.998 1.65-1.247 1.912-.915 4.084-.582 5.388.166 1.65.998 2.606 2.994 2.693 5.405 0 2.245-.869 4.24-2.172 5.072-1.043.665-2.433.748-3.562.25-1.738-.75-2.433-2.911-2.26-4.574.261-2.328 2.086-3.658 2.607-3.99.435-.25.956-.167 1.217.249.26.415.173.914-.261 1.164-.26.166-1.738 1.08-1.825 2.743-.087.915.174 2.495 1.217 2.91.608.25 1.39.167 1.911-.166.87-.582 1.477-2.078 1.39-3.741 0-1.83-.695-3.326-1.824-3.991-.87-.5-2.346-.749-3.737-.084-.868.416-1.39 1.165-1.65 1.58l.086 7.234c0 .25-.086.416-.26.582-.348.333-.87.333-1.217 0l-.174-.166h-.086v-.582c0-.333 0-.915-.087-1.913 0-1.33-.087-3.076-.087-5.155-.26-.499-.695-1.164-1.477-1.663-.609-.332-1.304-.582-2.086-.499.174.25.26.416.348.666.347 1.164-.087 2.41-1.13 3.575 1.217.416 2.173 1.247 2.346 2.245.174.748 0 1.496-.608 2.162-.695.914-1.998 1.663-3.128 1.746-2.433.25-4.605-2.079-5.127-4.407-.521-2.494.956-4.906 2.955-6.236-.609 0-1.217.083-1.738.25-1.825.665-2.52 2.66-2.607 3.242-.521 1.996.435 4.24 2.346 5.904.174.166.26.332.26.582 0 .249-.086.415-.173.582-.087 0-.26.166-.521.166zm11.47-1.33v.166l-.087-4.074v1.829c0 .998 0 1.58.086 1.912v.167zm-6.517-8.897c-.261.083-.522.166-.609.25-1.824.914-3.475 2.91-2.954 5.071.348 1.58 1.825 3.243 3.215 3.16.695-.083 1.477-.5 1.912-1.081.173-.25.347-.499.26-.832-.174-.582-1.216-1.33-2.693-1.164-.435.084-.782-.166-.956-.498-.174-.333 0-.749.347-.998 1.39-.832 2.26-2.162 1.999-3.077 0-.415-.174-.665-.521-.831zm-.435 4.24c-.174.083-.26.167-.434.333.26-.083.608-.083.869-.083l-.609-.083.174-.167zm.608-5.155l.087.083c.087 0 .174.084.174.084l-.26-.167zm-.173-.083l-.261.166c.087 0 .087-.083.174-.083l.087-.083z"/>
        <path fill="#F46A6A" d="M167.527 221.501c-1.999 0-3.65-1.58-3.65-3.492s1.651-3.492 3.65-3.492c1.998 0 3.649 1.58 3.649 3.492s-1.564 3.492-3.65 3.492zm0-6.153c-1.564 0-2.78 1.164-2.78 2.661s1.216 2.66 2.78 2.66c1.564 0 2.78-1.163 2.78-2.66s-1.216-2.66-2.78-2.66z"/>
        <path fill="#A6C5DB" d="M122.517 25.11c-.087-.166-.174-.416-.26-.665-.435.582-1.13.831-1.912.831s-1.39-.249-1.912-.665c-.521-.415-.782-.998-.782-1.663 0-.831.348-1.496.956-1.912.608-.416 1.564-.665 2.78-.665h.782v-.416c0-.748-.347-1.08-.956-1.08-.608 0-.868.249-.868.83h-2.52c0-.748.347-1.33.956-1.829.695-.498 1.477-.665 2.52-.665 1.042 0 1.824.25 2.432.749.609.498.87 1.164.87 1.995v3.409c0 .665.086 1.247.347 1.58v.083h-2.433v.083zm-1.477-1.58c.347 0 .608-.083.782-.166.174-.166.347-.25.434-.416v-1.247h-.695c-.869 0-1.303.333-1.303 1.081 0 .25.087.416.26.499.087.166.261.25.522.25z"/>
        <ellipse cx="186.903" cy="187.744" fill="#F18944" rx="3.823" ry="3.658"/>
        <ellipse cx="8.515" cy="113.411" fill="#F18944" rx="8.515" ry="8.148"/>
    </g>
</svg>
