<svg xmlns="http://www.w3.org/2000/svg" width="100%" height="63%" viewBox="0 0 320 238">
    <g fill="none" fill-rule="evenodd" transform="translate(32.5)">
        <path fill="#F18944" fill-rule="nonzero" d="M184.4 132.2l-81-81c-3.5-3.5-8.4-5.5-13.4-5.3L56.3 47c-4.2.1-7.6 3.5-7.7 7.7l-1.1 33.7c-.2 5 1.7 9.8 5.3 13.4l81 81c3.4 3.4 8.9 3.4 12.2 0l38.3-38.3c3.4-3.4 3.4-8.9.1-12.3zM61.2 60.9c2.3-3.2 6.9-3.1 9.2 0 1.4 1.9 1.4 4.6 0 6.5-2.3 3.2-7 3.2-9.2 0-1.5-1.9-1.4-4.6 0-6.5z"/>
        <path fill="#FCA87B" fill-rule="nonzero" d="M69.6 68.3c-2.4 2.3-6.4 2-8.4-.9-1.4-1.9-1.4-4.6 0-6.5.1-.2.3-.4.4-.5L50.8 49.5c-1.3 1.4-2.1 3.2-2.2 5.2l-1.1 33.7c-.2 5 1.8 9.8 5.3 13.4l81 81c3.4 3.4 8.9 3.4 12.2 0l19-19-95.4-95.5z"/>
        <path fill="#606060" fill-rule="nonzero" d="M84.3 49c-2.4 0-4.3-1.9-4.3-4.3s1.9-4.3 4.3-4.3 4.3 1.9 4.3 4.3c.1 2.4-1.9 4.3-4.3 4.3zm0-7.4c-1.7 0-3.1 1.4-3.1 3.1 0 1.7 1.4 3.1 3.1 3.1 1.7 0 3.1-1.4 3.1-3.1 0-1.7-1.4-3.1-3.1-3.1zM171.4 237.2c-2.4 0-4.3-1.9-4.3-4.3s1.9-4.3 4.3-4.3 4.3 1.9 4.3 4.3c.1 2.3-1.9 4.3-4.3 4.3zm0-7.4c-1.7 0-3.1 1.4-3.1 3.1 0 1.7 1.4 3.1 3.1 3.1 1.7 0 3.1-1.4 3.1-3.1 0-1.8-1.4-3.1-3.1-3.1z"/>
        <path fill="#F46A6A" fill-rule="nonzero" d="M169.1 188.8c-2.3 0-4.2-1.9-4.2-4.2 0-2.3 1.9-4.2 4.2-4.2 2.3 0 4.2 1.9 4.2 4.2 0 2.3-1.9 4.2-4.2 4.2zm0-7.4c-1.8 0-3.2 1.4-3.2 3.2 0 1.8 1.4 3.2 3.2 3.2 1.8 0 3.2-1.4 3.2-3.2 0-1.8-1.5-3.2-3.2-3.2z"/>
        <path fill="#48B09D" fill-rule="nonzero" d="M136.1 23.3c-2.3 0-4.2-1.9-4.2-4.2 0-2.3 1.9-4.2 4.2-4.2 2.3 0 4.2 1.9 4.2 4.2 0 2.3-1.9 4.2-4.2 4.2zm0-7.4c-1.8 0-3.2 1.4-3.2 3.2 0 1.8 1.4 3.2 3.2 3.2 1.8 0 3.2-1.4 3.2-3.2 0-1.8-1.4-3.2-3.2-3.2z"/>
        <g fill="#606060" fill-rule="nonzero">
            <path d="M10.1 16.6v4.9c0 .3.2.5.5.5s.5-.2.5-.5v-4.9h-.5c-.2 0-.4.1-.5 0zM11.1 6.2V1.3c0-.3-.2-.5-.5-.5s-.5.2-.5.5v4.9h1zM5.4 10.9H.5c-.3 0-.5.2-.5.5s.2.5.5.5h4.9v-.5-.5zM20.6 10.9h-4.9v1h4.9c.3 0 .5-.2.5-.5.1-.3-.2-.5-.5-.5zM6.5 14.7l-3.4 3.4c-.2.2-.2.5 0 .7.1.1.2.2.4.2.1 0 .3-.1.4-.2l3.4-3.4c-.3-.1-.6-.4-.8-.7zM14.6 8.1L18 4.7c.2-.2.2-.5 0-.7-.2-.2-.5-.2-.7 0l-3.4 3.4c.3.2.5.4.7.7zM13.9 15.5l3.4 3.4c.1.1.2.2.4.2.1 0 .3-.1.4-.2.2-.2.2-.5 0-.7l-3.4-3.4c-.3.2-.5.5-.8.7zM7.3 7.4L3.9 4c-.2-.2-.5-.2-.7 0-.2.2-.2.5 0 .7l3.4 3.4c.1-.3.4-.5.7-.7z" transform="translate(214 99)"/>
        </g>
        <g fill="#48B09D" fill-rule="nonzero">
            <path d="M11.9 22.1c-.6 0-1-.5-1-1v-5.4l.5.1h.9l.5-.1v5.4c.1.6-.3 1-.9 1zm0-5.3v4.3-4.3zM12.9 6.4l-.5-.1h-.9l-.5.1V1c0-.6.5-1 1-1s1 .5 1 1v5.4h-.1zm-1-1.1V1v4.3zM7.2 12.1H1.8c-.6 0-1-.5-1-1s.5-1 1-1h5.4l-.1.5v1l.1.5zm-5.4-1h4.3-4.3zM22 12.1h-5.4l.1-.5v-.5-.5l-.1-.5H22c.6 0 1 .5 1 1s-.5 1-1 1zm-4.4-1h4.3-4.3zM4.8 19.2c-.3 0-.5-.1-.7-.3-.2-.2-.3-.4-.3-.7 0-.3.1-.5.3-.7l3.8-3.8.4.4c.2.2.4.5.7.7l.4.4L5.6 19c-.3.1-.5.2-.8.2zm3-4.1l-3.1 3.1 3.1-3.1c.1 0 0 0 0 0zM15.9 8.5l-.4-.4c-.2-.2-.4-.5-.7-.7l-.4-.4 3.8-3.8c.4-.4 1.1-.4 1.4 0 .4.4.4 1 0 1.4l-3.7 3.9zm0-1.5c.1 0 .1 0 0 0L19 4l-3.1 3zM19 19.2c-.3 0-.5-.1-.7-.3l-3.8-3.8.4-.4c.2-.2.5-.4.7-.7l.4-.4 3.8 3.8c.2.2.3.4.3.7 0 .3-.1.5-.3.7-.3.3-.5.4-.8.4zm-3.1-4.1l3.1 3.1-3.1-3.1c.1 0 0 0 0 0zM7.9 8.5L4.1 4.7c-.4-.4-.4-1 0-1.4.2-.2.4-.3.7-.3.3 0 .5.1.7.3l3.8 3.8-.4.3c-.2.2-.5.4-.7.7l-.3.4zM4.8 3.9l3 3.1-3-3.1z" transform="translate(45)"/>
        </g>
        <g fill="#F0785F" fill-rule="nonzero">
            <path d="M12 22.7c-.6 0-1-.5-1-1v-5.4l.5.1h.9l.5-.1v5.4c.1.6-.3 1-.9 1zm0-5.3v4.3-4.3zM13 7l-.5-.1h-.9L11 7V1.6c0-.6.5-1 1-1s1 .5 1 1V7zm-1-1.1V1.6v4.3zM7.3 12.7H1.9c-.6 0-1-.5-1-1s.5-1 1-1h5.4l-.1.5v1l.1.5zm-5.4-1h4.3-4.3zM22.1 12.7h-5.4l.1-.5v-.5-.5l-.1-.5h5.4c.6 0 1 .5 1 1s-.5 1-1 1zm-4.4-1H22h-4.3zM4.9 19.8c-.3 0-.5-.1-.7-.3-.4-.4-.4-1 0-1.4L8 14.3l.3.4c.2.2.4.5.7.7l.4.3-3.8 3.8c-.2.2-.4.3-.7.3zm3-4.1l-3.1 3.1 3.1-3.1c.1 0 0 0 0 0zM16 9.1l-.3-.4c-.2-.2-.4-.5-.7-.7l-.4-.3 3.8-3.8c.4-.4 1-.4 1.4 0 .2.2.3.4.3.7 0 .3-.1.5-.3.7L16 9.1zm0-1.5c.1 0 .1 0 0 0l3.1-3-3.1 3zM19.1 19.8c-.3 0-.5-.1-.7-.3l-3.8-3.8.4-.4c.2-.2.5-.4.7-.7l.4-.4 3.8 3.8c.2.2.3.4.3.7 0 .3-.1.5-.3.7-.3.3-.5.4-.8.4zM16 15.7l3.1 3.1-3.1-3.1c.1 0 0 0 0 0zM8 9.1L4.2 5.3c-.4-.4-.4-1 0-1.4.4-.4 1-.4 1.4 0l3.8 3.8L9 8c-.2.2-.5.4-.7.7l-.3.4zM4.9 4.5l3 3.1-3-3.1z" transform="translate(224 33)"/>
        </g>
        <g fill="#606060" fill-rule="nonzero">
            <path d="M15.1 24.1v7.3c0 .4.3.8.8.8.4 0 .8-.3.8-.8v-7.3h-.8c-.3.1-.5.1-.8 0zM16.6 8.5V1.2c0-.4-.3-.8-.8-.8-.4 0-.8.3-.8.8v7.3h1.6zM8.1 15.6H.8c-.4 0-.8.3-.8.8 0 .4.3.8.8.8h7.3v-.8c-.1-.3 0-.6 0-.8zM30.9 15.6h-7.3v1.6h7.3c.4 0 .8-.3.8-.8s-.3-.8-.8-.8zM9.8 21.3l-5.1 5.1c-.3.3-.3.8 0 1.1.2.2.3.2.5.2s.4-.1.5-.2l5.1-5.1c-.3-.3-.7-.7-1-1.1zM21.9 11.4L27 6.3c.3-.3.3-.8 0-1.1-.3-.3-.8-.3-1.1 0l-5.1 5.1c.4.3.8.7 1.1 1.1zM20.8 22.4l5.1 5.1c.2.2.3.2.5.2s.4-.1.5-.2c.3-.3.3-.8 0-1.1l-5.1-5.1c-.2.4-.6.8-1 1.1zM10.9 10.3L5.8 5.2c-.3-.3-.8-.3-1.1 0-.3.3-.3.8 0 1.1l5.1 5.1c.3-.4.7-.8 1.1-1.1z" transform="translate(98 169)"/>
        </g>
        <path fill="#C9E4E0" fill-rule="nonzero" d="M146.7 211.9h4.9l-1.4 3.2H147c-.3 4.3-4 7.7-8.4 7.7h-.1l9.7 12.8h-4L133 220.8v-1.2h5.6c2.6 0 4.8-2 5.1-4.5H133l1.4-3.2h8.8c-.8-1.5-2.3-2.5-4.1-2.6h-6l.7-1.7.6-1.5h17.1l-1.4 3.2h-4.9c.7.8 1.2 1.7 1.5 2.6z"/>
        <path fill="#FFF" fill-rule="nonzero" d="M112 95.8l6.9-6.9 2.6 6.4-4.5 4.5c5.6 6.6 5.3 16.5-.9 22.8l-.1.1 31.9 4.4-5.7 5.7-36.8-5.1-1.7-1.7 7.9-7.9c3.7-3.7 4-9.6.9-13.6l-15.2 15.2-2.6-6.4 12.4-12.4c-3.2-.9-6.8-.2-9.5 2.1l-.6.6-.6.6-7.3 7.3-1.4-3.4-1.2-3.1 24.2-24.2 2.6 6.4-6.9 6.9c1.9.2 3.8.7 5.6 1.7z"/>
        <path fill="#FCCE7A" fill-rule="nonzero" d="M189.4 61.9h-3c-.5 0-1-.2-1.3-.7l-7.9-10.4c-.2-.2-.2-.5-.2-.7 0-.5.4-.9.9-.9h3.6c1.7 0 3.1-1.2 3.5-2.8h-6.6c-.4 0-.7-.2-.9-.5-.2-.3-.2-.7-.1-1l.6-1.5h6.2c-.6-.8-1.5-1.3-2.6-1.4h-3.9c-.2 0-.5-.1-.6-.3-.1-.2-.2-.4-.1-.7l.9-2h12c.3 0 .7.2.8.5.2.3.2.6.1 1l-.7 1.6h-3.3c.3.4.5.9.7 1.4h2.5c.3 0 .6.2.8.4.2.3.2.6.1.9l-.7 1.6H187.9c-.4 3.1-2.9 5.6-6.1 5.8l7.6 9.7zm-11.5-12.2c-.2 0-.3.1-.3.3 0 .1 0 .3.1.4l7.9 10.4c.2.3.5.4.8.4h1.8l-7.3-9.7h.6c3.2 0 5.8-2.4 6.1-5.6v-.3h2.5l.6-1.3V44c-.1-.1-.2-.2-.3-.2h-2.9l-.1-.2c-.2-.7-.5-1.3-1-1.9l-.4-.5h4.1l.5-1.2c.1-.1 0-.3 0-.4-.1-.1-.2-.2-.4-.2h-11.6l-.7 1.7v.1s0 .1.1.1h3.9c1.4.1 2.6.9 3.3 2.1l.2.4h-6.9l-.5 1.1c-.1.2 0 .3 0 .5.1.1.2.2.4.2h7.2v.3c-.3 2.1-2.1 3.7-4.2 3.7h-3.5v.1z"/>
        <path fill="#F46A6A" fill-rule="nonzero" d="M37 140.2c-2.3 0-4.2-1.9-4.2-4.2 0-2.3 1.9-4.2 4.2-4.2 2.3 0 4.2 1.9 4.2 4.2 0 2.3-1.9 4.2-4.2 4.2zm0-7.4c-1.8 0-3.2 1.4-3.2 3.2 0 1.8 1.4 3.2 3.2 3.2 1.8 0 3.2-1.4 3.2-3.2 0-1.8-1.4-3.2-3.2-3.2z"/>
        <circle cx="54.3" cy="206.1" r="4.4" fill="#F18944" fill-rule="nonzero"/>
        <circle cx="10.6" cy="108.3" r="9.8" fill="#F18944" fill-rule="nonzero"/>
        <g fill="#F18944" fill-rule="nonzero">
            <path d="M56.9 73.1c3.5 9.5 30.9 17.1 30.9 17.1l-1.2-1.1c-2.4-.7-7.4-2.3-12.7-4.6-9.3-4-15-8-16.3-11.7-.8-2.1-1.6-5.1-2.7-8.5-.8-2.6-1.6-5.4-2.5-8.3l-1.2-1.1c2.4 7.3 4.2 14.2 5.7 18.2zM47.8 69.2l.4.6c.3-.2.5-.6.3-1-3.4-7-9.4-11.7-14-15 .1.4.3.8.4 1.2 4.4 3.3 9.8 7.9 12.9 14.2z" transform="translate(165 105)"/>
            <path d="M34.2 54.1c-.1.1-.3.1-.4.1.4.3.8.5 1.1.8-.1-.4-.3-.8-.4-1.2-.1.1-.2.3-.3.3zM37.9 98.8c-.1.3-.1.6-.2.9 4 3.8 9.6 7.5 16.7 11 11.1 5.4 22.1 8.4 22.2 8.5.4.1.8-.1.9-.5.1-.4-.1-.8-.5-.9 0 0-.3-.1-.8-.2l.6.9c.1-.1-26.1-7.2-38.9-19.7z" transform="translate(165 105)"/>
            <path d="M31.1 86.7c-1.5-13.9-10-27-18-38-1.4-1.9-2.8-3.7-4.2-5.5-2.3-2.7-2.7-7.2 1.4-8.4C15 33.4 24.7 46 28.4 50v-1.1c-.5-.6-1.1-1.2-1.7-1.9-4.9-5.6-9.8-11-13.7-12.5-1.1-.4-2-.5-2.9-.3-2.3.7-3.1 2.1-3.5 3.2-.6 2 .1 4.5 1.7 6.4 1.3 1.5 2.6 3.3 4.2 5.4 8 11 16.4 24 17.9 37.6.5 4.5 2.9 8.8 7.3 13 .1-.3.1-.6.2-.9-3.7-3.7-6.3-7.8-6.8-12.2zM34.9 55.1c.1.4.3.8.4 1.2 4.1 3.1 9 7.4 11.8 13.2.2.4.6.5 1 .3l-.4-.6c-3-6.3-8.4-10.9-12.8-14.1z" transform="translate(165 105)"/>
            <path d="M38 97.9c-.1.3-.1.6-.2.9 12.8 12.5 39 19.6 39 19.6l-.6-.9c-4.3-1.3-27-8.3-38.2-19.6z" transform="translate(165 105)"/>
            <path d="M33.4 54.1l-4.8-2.8c-.3-.2-.4-.5-.4-.8 0-.2.1-.4.1-.5-3.7-4-13.4-16.5-18.1-15.2C6 36 6.5 40.5 8.8 43.2c1.5 1.8 2.9 3.6 4.2 5.5 8 11 16.5 24.1 18 38 .5 4.5 3.1 8.6 6.8 12.2.1-.3.1-.6.2-.9-3.4-3.4-5.7-7.2-6.2-11.4-1.5-13.9-10-27.2-18.2-38.3-1.6-2.2-3-3.9-4.3-5.5-1.3-1.5-1.8-3.5-1.4-5 .3-1.1 1.1-1.8 2.4-2.2 3.5-1 11 7.7 15.1 12.4 1.3 1.5 2.3 2.7 3 3.3.8.8 2 1.6 3.6 2.8 1 .7 2.1 1.5 3.2 2.3-.1-.4-.3-.8-.4-1.2-.4-.3-.8-.6-1.1-.8 0-.2-.2-.2-.3-.3zM56.9 73.1c-1.5-4-3.3-10.9-5.6-18.2l-1.2-1.1c1.3 3.9 2.4 7.7 3.4 11 1 3.4 1.9 6.4 2.7 8.6 3.6 9.8 30.3 17.3 31.4 17.6.4.1.8-.1.9-.5.1-.4-.1-.8-.5-.9 0 0-.5-.1-1.4-.4l1.2 1.1s-27.4-7.7-30.9-17.2zM7 12.2l-.3-.3c.1.1.1.3.2.4l.1-.1zM33.6 51.1c.3.9.7 1.8 1 2.7 0-.1.1-.2.1-.3-.4-5.4-1.7-9.9-6.6-16.2l-.3.8c3.9 5.3 5.2 9.1 5.8 13z" transform="translate(165 105)"/>
            <path d="M33.8 53.3c.2.2.5.3.7.5-.3-.9-.6-1.8-1-2.7.2.7.2 1.5.3 2.2zM6.7 11.8C4.4 5.8 5.3 1.8 6 1c.1-.2.6.1 1.3.6 1.4 1 3.7 3.1 6.5 5.7 7.4 7 18.2 17.8 24.4 22.6 5.6 4.4 9.9 15 13.1 25l1.2 1.1c-3.4-10.6-7.7-22-13.8-26.7-4.5-3.5-11.6-10.4-17.9-16.4C11.6 4.1 8.2.9 6.7.3 6.5.2 6.3.2 6.2.2c-.3 0-.5.1-.7.3-.9 1-1.7 4.6 0 10l-2.6-1c.7.5 1.4 1.1 2 1.6l1.8.7z" transform="translate(165 105)"/>
            <path d="M1.6 9.7c0 .1-3.2 6.3 1.4 11.4 1.1 1.2 3.2 3 5.9 5.2 7.2 6 18.8 15.8 19.5 22.5.3.3.6.6.8.9.4-9.6-21.5-24.5-25.7-29.1-4.3-4.7-1.3-10.5-1.3-10.5l2.7 1.1c-.7-.5-1.4-1.1-2-1.6l-.4-.2c-.3-.2-.8 0-.9.3z" transform="translate(165 105)"/>
            <path d="M29.1 50.7c.1-.3.1-.6.1-1-.2-.2-.5-.5-.8-.9v1.1c.3.4.5.6.7.8zM29.1 50.7c.9.9 2.7 2.1 4.7 3.6.1 0 .3 0 .4-.1l.3-.3c-.2-.2-.5-.3-.7-.5v.2l-4.7-2.9z" transform="translate(165 105)"/>
            <path d="M28.4 50c0 .2 0 .4-.1.5-.1.3.1.6.4.8l4.8 2.8c.1.1.2.1.4.1-2.1-1.5-3.8-2.7-4.7-3.6-.3-.1-.5-.3-.8-.6zM27.6 38l.4-.8c-.9-1.1-1.9-2.3-3-3.6.9 1.4 1.7 2.9 2.6 4.4zM6.9 12.3c.1.2.2.5.3.8.5.4.9.8 1.4 1.2-.2-.4-.4-.7-.5-1.1l-1.1-1-.1.1z" transform="translate(165 105)"/>
            <path d="M17.2 26.6c4.7 4.6 8 8.3 10.4 11.4-.8-1.5-1.7-3-2.6-4.4-2-2.2-4.3-4.7-7.2-7.6-4.5-4.4-7.3-8.3-9.1-11.7-.5-.4-.9-.8-1.4-1.2 1.7 3.8 4.7 8.4 9.9 13.5zM6.9 12.3c-.1-.1-.1-.3-.2-.4l-.1-.1-1.7-.7c.6.5 1.1.9 1.7 1.4l.3-.2zM33.6 51.1c-.5-3.9-1.9-7.6-6-13 2.3 4.1 4.3 8.5 6 13z" transform="translate(165 105)"/>
            <path d="M33 52.7c.3.2.5.4.8.6-.1-.8-.1-1.5-.2-2.2-1.7-4.5-3.6-8.8-6-13l-.3.8c4.2 5.6 5.2 9.3 5.7 13.2l-3-1.8c.9-7.6-11.7-18.1-20-25.1-2.6-2.1-4.8-4-5.8-5.1-3.1-3.5-2-7.5-1.5-9l.5.2V11l3.1 1.4.2.4.3-.3c-.6-.5-1.1-.9-1.7-1.4L2.4 10s-3 5.7 1.3 10.5c4.2 4.6 26 19.6 25.7 29.1.1.2.3.3.4.4.5.8 1.8 1.7 3.2 2.7zM7.3 1.6l6.5 5.7C11 4.7 8.7 2.6 7.3 1.6z" transform="translate(165 105)"/>
            <path d="M38.2 29.9c-6.2-4.8-17-15.6-24.4-22.6l-.5.5c2 1.9 4.3 4.1 6.4 6.2 6.3 6.1 13.5 13 18 16.5 5.2 4 9.3 13.8 12.4 23.3l1.2 1.1c-3.3-10-7.5-20.6-13.1-25zM7.5 11.8C5.4 6.5 5.9 3 6.4 1.9c.2.1.5.3.8.6 0-.5.1-.8.1-.8-.7-.5-1.1-.7-1.3-.6-.7.8-1.7 4.7.7 10.8l.3.3.5-.4z" transform="translate(165 105)"/>
            <path d="M13.2 7.8c.2-.2.4-.3.5-.5L7.2 1.6s-.1.3-.1.8c1.4 1 3.6 3.1 6.1 5.4zM6.3 12.9l-.2-.5L3 11v.3l3 1.2c.2.1.3.2.3.4zM33.8 53.5v-.2c-.3-.2-.5-.4-.8-.6-1.4-1-2.7-1.9-3.4-2.6l-.4-.4c0 .3 0 .6-.1 1l4.7 2.8zM8.1 13.2l-.6-1.5-.4.4 1 1.1zM6.9 12.3l-.3.3c.2.2.4.3.6.5-.1-.3-.2-.6-.3-.8z" transform="translate(165 105)"/>
            <path d="M7.2 13.1c-.2-.2-.4-.3-.6-.5l-.3.3 1.8 3.6H8c1.9 3.2 4.6 6.8 8.5 10.7 4.9 4.8 8.2 8.6 10.6 11.8l.3-.8v-.1C25 35 21.7 31.3 17 26.7c-5-5.2-8-9.8-9.8-13.6z" transform="translate(165 105)"/>
            <path d="M8.1 16.4c.1 0 .1 0 0 0l-1.7-3.6c.4 1.2 1 2.4 1.7 3.6z" transform="translate(165 105)"/>
        </g>
        <path fill="#FFF" fill-rule="nonzero" d="M177.6 151.7l6.6-5.7s-2.7-2.9-4.7-4-2.8-2.3-5.7-.4c-2.9 1.9 1.8 7.6 1.8 7.6l2 2.5z"/>
        <path stroke="#F18944" stroke-linecap="round" stroke-linejoin="round" stroke-width="2" d="M25.8 22.5c-11.2 11.1-10.4 27.7-1.9 35.1 4.5 3.9 10.1-1 24.4 1.9 11.8 2.4 16.1 7.3 20.3 4.6 3.7-2.4 2.4-7.4 5.3-17 2.3-7.6 5.9-13.3 8.4-16.8"/>
    </g>
</svg>
