<svg xmlns="http://www.w3.org/2000/svg" width="100%" height="63%" viewBox="0 0 320 238">
    <g fill="none">
        <path fill="#F18944" d="M174.94 155.288c-16.972 34.837-64.246 68.094-64.246 68.094S63.49 190.125 46.45 155.288C29.41 120.452 34.081 50.847 34.081 50.847c42.807-25.355 110.213-26.935 153.227 0 0 0 4.604 69.605-12.368 104.441z" transform="translate(49 7)"/>
        <path fill="#E2773B" d="M174.94 155.288c-16.972 34.837-64.246 68.094-64.246 68.094S63.49 190.125 46.45 155.288C29.41 120.452 34.081 50.847 34.081 50.847c42.807-25.355 110.213-26.935 153.227 0 0 0 4.604 69.605-12.368 104.441z" transform="translate(49 7)"/>
        <path fill="#FCA87B" d="M110.694 31.401V223.52S63.49 190.263 46.45 155.426C29.41 120.589 34.081 50.984 34.081 50.984c21.438-12.712 48.991-19.445 76.613-19.583z" transform="translate(49 7)"/>
        <path fill="#F18944" d="M164.564 149.517c-14.292 29.89-53.87 58.404-53.87 58.404s-39.577-28.515-53.87-58.404c-14.291-29.89-10.375-89.6-10.375-89.6 35.868-21.713 92.417-23.088 128.49 0 0 0 3.917 59.71-10.375 89.6z" opacity=".81" transform="translate(49 7)"/>
        <path fill="#606060" d="M71.323 61.085c-1.924 0-3.505-1.58-3.505-3.505 0-1.924 1.58-3.504 3.505-3.504 1.924 0 3.504 1.58 3.504 3.504s-1.58 3.505-3.504 3.505zm0-6.047c-1.375 0-2.474 1.1-2.474 2.474s1.1 2.473 2.474 2.473 2.473-1.1 2.473-2.473c0-1.375-1.168-2.474-2.473-2.474zM181.536 153.502c-1.924 0-3.504-1.58-3.504-3.504s1.58-3.505 3.504-3.505 3.504 1.58 3.504 3.505c0 1.923-1.58 3.504-3.504 3.504zm0-5.978c-1.374 0-2.473 1.1-2.473 2.474s1.099 2.473 2.473 2.473c1.374 0 2.474-1.1 2.474-2.473 0-1.375-1.1-2.474-2.474-2.474z" transform="translate(49 7)"/>
        <path fill="#F46A6A" d="M54.076 206.204c-1.855 0-3.436-1.512-3.436-3.436 0-1.855 1.512-3.435 3.436-3.435 1.855 0 3.436 1.511 3.436 3.435 0 1.924-1.512 3.436-3.436 3.436zm0-5.978c-1.443 0-2.611 1.168-2.611 2.61 0 1.444 1.168 2.612 2.611 2.612 1.443 0 2.611-1.168 2.611-2.611 0-1.443-1.168-2.611-2.61-2.611z" transform="translate(49 7)"/>
        <path fill="#48B09D" d="M178.582 20.545c-1.856 0-3.436-1.512-3.436-3.436s1.512-3.435 3.436-3.435c1.855 0 3.435 1.511 3.435 3.435 0 1.924-1.58 3.436-3.435 3.436zm0-5.978c-1.443 0-2.611 1.168-2.611 2.61 0 1.444 1.168 2.612 2.61 2.612 1.444 0 2.612-1.168 2.612-2.611 0-1.443-1.237-2.611-2.611-2.611z" transform="translate(49 7)"/>
        <g fill="#606060">
            <path d="M8.795 12.78v3.917c0 .206.206.412.412.412s.413-.206.413-.412V12.78h-.413c-.137 0-.274.07-.412 0zM9.62 4.329V.412C9.62.206 9.413 0 9.207 0s-.412.206-.412.412V4.33h.825zM4.947 8.177H1.031c-.206 0-.413.206-.413.412s.207.412.413.412h3.916V8.59v-.412zM17.384 8.177h-3.917V9h3.917c.206 0 .412-.206.412-.412 0-.275-.206-.412-.412-.412zM5.91 11.269l-2.818 2.817c-.137.137-.137.412 0 .618.069.069.206.138.275.138.137 0 .206-.069.275-.138l2.817-2.817c-.138-.206-.344-.412-.55-.618zM12.506 5.91l2.817-2.818c.137-.137.137-.412 0-.618-.138-.138-.413-.138-.619 0L11.887 5.29l.619.618zM11.887 11.887l2.817 2.817c.069.069.206.138.275.138.138 0 .206-.069.275-.138.137-.137.137-.412 0-.618l-2.817-2.817c-.138.206-.344.412-.55.618zM6.528 5.29L3.71 2.475c-.137-.138-.412-.138-.618 0-.137.137-.137.412 0 .618l2.817 2.817.619-.618z" transform="translate(49 7) translate(59.092)"/>
        </g>
        <g fill="#48B09D">
            <path d="M9.413 18.552c-.48 0-.824-.343-.824-.824V13.33l.412.069h.756l.412-.069v4.398c.069.48-.343.824-.756.824zm-.068-4.329v3.505-3.505c.068 0 .068 0 0 0zM10.238 5.84l-.412-.068H9.07l-.412.068V1.443c0-.481.343-.825.824-.825.481 0 .825.344.825.825V5.84h-.069zm-.825-.893V1.443v3.504zM5.634 10.444H1.237c-.481 0-.825-.343-.825-.824 0-.481.344-.825.825-.825h4.397l-.068.412v.687l.068.55zm-4.397-.893H4.74 1.237zM17.521 10.444h-4.397l.069-.412v-.344-.343l-.07-.412h4.398c.481 0 .825.343.825.824 0 .275-.344.687-.825.687zm-3.504-.824h3.504-3.504c0-.07 0 0 0 0zM3.642 16.216c-.206 0-.413-.069-.55-.275-.137-.137-.206-.343-.206-.55 0-.206.069-.412.206-.55l3.092-3.091.275.343c.137.206.343.344.55.55l.343.275L4.26 16.01c-.206.069-.412.206-.618.206zm2.473-3.367l-2.473 2.474 2.473-2.474zM12.643 7.49l-.275-.344c-.137-.206-.343-.344-.55-.55l-.343-.275 3.092-3.092c.343-.343.824-.343 1.168 0 .344.344.344.825 0 1.169L12.643 7.49zm0-1.169l2.474-2.473-2.474 2.473zM15.185 16.216c-.206 0-.412-.069-.55-.275l-3.091-3.092.343-.275c.206-.137.344-.343.55-.55l.275-.343 3.092 3.092c.137.137.275.344.275.55 0 .206-.07.412-.275.55-.206.206-.413.343-.619.343zm-2.542-3.298l2.474 2.473-2.474-2.473c0-.069 0-.069 0 0zM6.115 7.49L3.023 4.398c-.343-.344-.343-.825 0-1.169.138-.137.344-.274.55-.274.206 0 .412.068.55.274l3.092 3.092-.344.275c-.206.138-.343.344-.55.55l-.206.344zM3.642 3.848L6.115 6.32 3.642 3.848z" transform="translate(49 7) translate(0 107.877)"/>
        </g>
        <g fill="#F0785F">
            <path d="M9.276 18.002c-.48 0-.824-.343-.824-.824V12.78l.412.07h.756l.412-.07v4.398c.069.48-.275.824-.756.824zm0-4.328v3.504-3.504zM10.1 5.29l-.412-.068h-.755l-.413.069V.893c0-.48.344-.824.825-.824.48 0 .824.343.824.824v4.398h-.068zm-.824-.892V.893v3.505zM5.497 9.894H1.099c-.48 0-.824-.343-.824-.824 0-.481.343-.825.824-.825h4.398l-.069.413v.687l.069.55zm-4.329-.893h3.504-3.504zM17.453 9.894h-4.398l.069-.412V9.14v-.344l-.069-.55h4.398c.48 0 .824.344.824.825 0 .48-.343.824-.824.824zm-3.505-.824h3.505-3.505zM3.504 15.666c-.206 0-.412-.068-.55-.275-.343-.343-.343-.824 0-1.168l3.093-3.092.274.344c.138.206.344.343.55.55l.344.274-3.092 3.092c-.138.138-.344.275-.619.275zM5.978 12.3l-2.474 2.474 2.474-2.474c.069 0 .069 0 0 0zM12.574 6.94l-.275-.344c-.137-.206-.343-.343-.55-.55l-.343-.274 3.092-3.092c.344-.344.825-.344 1.168 0 .138.137.275.343.275.55 0 .206-.069.412-.275.55l-3.092 3.16zm0-1.168l2.474-2.474-2.474 2.474zM15.048 15.666c-.206 0-.412-.068-.55-.275L11.406 12.3l.344-.274c.206-.138.343-.344.55-.55l.274-.344 3.092 3.092c.138.138.275.344.275.55 0 .206-.069.412-.275.55-.137.206-.343.343-.618.343zm-2.474-3.298l2.474 2.474-2.474-2.474c0-.069 0 0 0 0zM6.047 6.94L2.955 3.848c-.344-.344-.344-.825 0-1.168.343-.344.824-.344 1.168 0l3.092 3.092-.344.275c-.206.137-.343.343-.55.55l-.274.343zM3.573 3.298l2.474 2.474-2.474-2.474z" transform="translate(49 7) translate(202.7 136.05)"/>
        </g>
        <g fill="#606060">
            <path d="M12.85 19.72v5.91c0 .343.274.618.617.618.344 0 .619-.275.619-.619V19.72h-1.237zM14.086 7.077V1.168c0-.343-.275-.618-.619-.618-.343 0-.618.275-.618.618v5.91h.618c.207-.07.413-.07.619 0zM7.146 12.78h-5.91c-.343 0-.618.275-.618.619 0 .343.275.618.619.618h5.909V13.4v-.619zM25.698 12.78H19.79v1.237h5.91c.343 0 .618-.275.618-.618 0-.344-.275-.619-.619-.619zM8.589 17.384l-4.191 4.191c-.275.275-.275.619 0 .894.137.137.274.206.412.206.137 0 .343-.069.412-.206l4.191-4.192c-.274-.275-.55-.55-.824-.893zM18.415 9.345l4.191-4.192c.275-.274.275-.618 0-.893s-.618-.275-.893 0L17.52 8.452c.344.274.619.55.894.893zM17.521 18.277l4.192 4.192c.137.137.275.206.412.206.138 0 .344-.069.412-.206.275-.275.275-.619 0-.894l-4.191-4.191c-.206.344-.481.618-.825.893zM9.482 8.452L5.291 4.26c-.275-.275-.619-.275-.893 0-.275.275-.275.619 0 .893l4.191 4.192c.275-.344.55-.619.893-.893z" transform="translate(49 7) translate(175.215 195.141)"/>
        </g>
        <path fill="#C9E4E0" d="M156.388 188.476h5.703l-1.58 3.71H156.8c-.412 5.085-4.604 9.002-9.757 9.002h-.069l11.338 14.979h-4.673l-13.055-17.315v-1.443h6.528c3.092 0 5.634-2.268 5.978-5.222h-12.506l1.58-3.71h10.238c-.962-1.719-2.748-2.887-4.81-3.093h-7.008l.825-1.993.755-1.786h19.996l-1.58 3.71h-5.704c.618 1.031 1.168 2.062 1.512 3.161z" transform="translate(49 7)"/>
        <path fill="#FCCE7A" d="M20.682 67.681h-4.054c-.687 0-1.374-.344-1.786-.893L3.985 52.496c-.206-.275-.343-.619-.343-.962 0-.687.55-1.237 1.237-1.237h4.947c2.336 0 4.329-1.65 4.81-3.848H5.703c-.48 0-.962-.275-1.237-.687-.275-.412-.343-.962-.137-1.374l.893-2.062h8.589c-.824-1.099-2.13-1.786-3.504-1.924H5.016c-.344 0-.618-.137-.825-.412-.206-.275-.206-.618-.068-.893l1.168-2.749h16.49c.482 0 .894.207 1.169.619.275.412.275.893.137 1.305l-.893 2.2h-4.535c.412.618.687 1.236.962 1.923h3.367c.412 0 .824.206 1.1.618.274.344.274.825.137 1.237l-.962 2.268-.344.069h-2.886c-.55 4.26-4.054 7.626-8.314 7.97l9.963 13.124zM4.947 51.053c-.275 0-.48.206-.48.48 0 .207.068.344.137.482L15.39 66.307c.275.343.688.55 1.169.55h2.404L9.001 53.594h.825c4.329 0 7.97-3.367 8.314-7.627v-.343h3.367l.756-1.787c.068-.137.068-.344-.07-.48-.068-.138-.274-.207-.411-.207h-3.917l-.069-.275c-.275-.962-.756-1.786-1.374-2.611l-.48-.687h5.633l.688-1.718c.068-.206.068-.412-.07-.55-.137-.137-.274-.274-.48-.274H5.772l-.962 2.336v.137s.069.069.137.069h5.428c1.924.137 3.642 1.237 4.535 2.886l.344.618H5.772l-.687 1.58c-.069.207-.069.413.068.619.138.206.344.275.55.275h9.895v.48c-.344 2.887-2.818 5.017-5.704 5.017H4.947z" transform="translate(49 7)"/>
        <g fill="#FCCE7A">
            <path d="M15.391 10.856h1.237c.206 0 .344.207.275.413l-.275.687h-1.1c-.137 1.511-1.373 2.748-2.954 2.748l3.436 4.535h-1.1c-.206 0-.412-.068-.48-.275l-3.711-4.878c-.069-.069-.069-.138-.069-.275s.138-.275.275-.275h1.718c.962 0 1.718-.687 1.786-1.58H11.2c-.275 0-.412-.275-.344-.481l.275-.619h3.092c-.275-.55-.824-.893-1.443-.893h-1.786c-.138 0-.206-.137-.206-.275l.137-.343.206-.55h5.566c.275 0 .412.275.343.481l-.274.687h-1.718c.069.275.275.55.343.893z" transform="translate(49 7) translate(30.233 151.166)"/>
            <path d="M13.811 24.53c-5.772 0-10.513-4.672-10.513-10.513 0-5.84 4.673-10.444 10.513-10.444s10.444 4.672 10.444 10.444c0 5.772-4.672 10.513-10.444 10.513zm0-20.201c-5.36 0-9.688 4.329-9.688 9.688 0 5.36 4.329 9.689 9.688 9.689 5.36 0 9.688-4.33 9.688-9.689-.068-5.29-4.397-9.688-9.688-9.688z" transform="translate(49 7) translate(30.233 151.166)"/>
            <path d="M13.811 27.416C6.459 27.416.412 21.438.412 14.017.412 6.665 6.39.618 13.811.618c7.42 0 13.399 5.978 13.399 13.4 0 7.42-6.047 13.398-13.399 13.398zm0-25.973c-6.94 0-12.574 5.634-12.574 12.574 0 6.94 5.634 12.574 12.574 12.574 6.94 0 12.574-5.634 12.574-12.574 0-6.94-5.634-12.574-12.574-12.574z" transform="translate(49 7) translate(30.233 151.166)"/>
        </g>
        <g fill="#48B09D">
            <path d="M13.055 7.42h1.58c.275 0 .482.276.344.55l-.343.825H13.26c-.137 1.924-1.717 3.367-3.71 3.367l4.26 5.634h-1.374c-.275 0-.481-.137-.619-.343l-4.603-6.047c-.069-.069-.138-.206-.138-.343 0-.207.138-.344.344-.344h2.061c1.168 0 2.13-.893 2.268-1.993H7.764c-.343 0-.55-.343-.412-.618l.344-.756h3.848c-.344-.618-1.031-1.1-1.787-1.168H7.421c-.138 0-.275-.206-.206-.344l.137-.412.275-.687h6.871c.275 0 .481.275.412.55l-.343.824h-2.13c.275.481.48.894.618 1.306z" transform="translate(49 7) translate(192.393 101.693)"/>
            <path d="M11.063 22.263C5.016 22.263.137 17.384.137 11.337.137 5.291 5.016.412 11.063.412c6.046 0 10.925 4.879 10.925 10.925-.069 6.047-4.948 10.926-10.925 10.926zm0-21.026C5.497 1.237.962 5.772.962 11.337c0 5.566 4.535 10.101 10.1 10.101 5.566 0 10.101-4.535 10.101-10.1 0-5.566-4.535-10.101-10.1-10.101z" transform="translate(49 7) translate(192.393 101.693)"/>
        </g>
        <path fill="#F7F7F7" d="M102.724 139.141c-1.374 0-2.68-.55-3.71-1.512L75.72 114.955c-2.061-2.062-2.13-5.36-.068-7.49 2.06-2.061 5.359-2.13 7.49-.069l19.445 18.965 44.387-46.518c1.993-2.13 5.36-2.199 7.421-.206 2.13 1.992 2.199 5.36.206 7.42l-48.098 50.366c-.962 1.031-2.336 1.58-3.71 1.65 0 .068-.07.068-.07.068z" transform="translate(49 7)"/>
    </g>
</svg>
