<?xml version="1.0" encoding="UTF-8"?>
<svg width="100%" height="100%" viewBox="0 0 360 492" version="1.1" xmlns="http://www.w3.org/2000/svg" xmlns:xlink="http://www.w3.org/1999/xlink">
    <!-- Generator: Sketch 63.1 (92452) - https://sketch.com -->
    <title>Landing2@1x</title>
    <desc>Created with Sketch.</desc>
    <defs>
        <rect id="path-1" x="0" y="0" width="344" height="472" rx="8"></rect>
        <filter x="-4.4%" y="-3.2%" width="108.7%" height="106.4%" filterUnits="objectBoundingBox" id="filter-2">
            <feOffset dx="0" dy="0" in="SourceAlpha" result="shadowOffsetOuter1"></feOffset>
            <feGaussianBlur stdDeviation="5" in="shadowOffsetOuter1" result="shadowBlurOuter1"></feGaussianBlur>
            <feColorMatrix values="0 0 0 0 0.847058824   0 0 0 0 0.847058824   0 0 0 0 0.847058824  0 0 0 1 0" type="matrix" in="shadowBlurOuter1"></feColorMatrix>
        </filter>
    </defs>
    <g id="Page-1" stroke="none" stroke-width="1" fill="none" fill-rule="evenodd">
        <g id="0b.-Landing2" transform="translate(0.000000, -74.000000)">
            <g id="Landing2" transform="translate(8.000000, 84.000000)">
                <g id="Mask">
                    <use fill="black" fill-opacity="1" filter="url(#filter-2)" xlink:href="#path-1"></use>
                    <use fill="#B4DBD5" fill-rule="evenodd" xlink:href="#path-1"></use>
                </g>
                <line x1="45.5" y1="113" x2="299.5" y2="112.5" id="Line-Copy" stroke="#FFFFFF" opacity="0.8" stroke-linecap="square"></line>
                <g id="Group" transform="translate(26.000000, 152.000000)">
                    <g id="Insurance-Shield" transform="translate(0.000000, 168.000000)">
                        <g id="Health-Insurance">
                            <path d="M68.2187044,22.4461717 C68.1781132,20.3561009 68.1407693,18.3832152 68.1407693,16.4745407 C68.1407693,14.9784224 66.9149144,13.7664381 65.4016737,13.7664381 C53.6870471,13.7664381 44.7667202,10.4370933 37.332032,3.2903994 C36.8010988,2.77831599 36.1126717,2.52307692 35.4242446,2.52307692 C34.7341938,2.52307692 34.0457667,2.77831599 33.5132099,3.2903994 C26.0785217,10.4370933 17.1614421,13.7664381 5.44681554,13.7664381 C3.93519844,13.7664381 2.7077199,14.9784224 2.7077199,16.4745407 C2.7077199,18.3832152 2.67037597,20.3577061 2.62978475,22.447777 C2.25472186,41.8876834 1.74002517,68.5128103 34.5263668,79.7481451 C34.8169999,79.8476723 35.1189986,79.8974359 35.4226209,79.8974359 L35.4242446,79.8974359 C35.7278669,79.8974359 36.0298656,79.8476723 36.3188751,79.7481451 C69.108464,68.5128103 68.5937673,41.8860781 68.2187044,22.4461717 L68.2187044,22.4461717 Z" id="Path" fill="#EFEFEF" fill-rule="nonzero"></path>
                            <path d="M36.10098,79.7481451 C35.813835,79.8476723 35.5137847,79.8974359 35.2121212,79.8974359 L35.2121212,2.52307692 C35.8961069,2.52307692 36.5800926,2.77831599 37.1076005,3.2903994 C44.4943234,10.4370933 53.3571003,13.7664381 64.9961495,13.7664381 C66.4996275,13.7664381 67.7175737,14.9784224 67.7175737,16.4745407 C67.7175737,18.3832152 67.7546767,20.3561009 67.795006,22.4461717 C68.1676492,41.8860781 68.6790253,68.5128103 36.10098,79.7481451 L36.10098,79.7481451 Z" id="Path" fill="#E5E5E9" fill-rule="nonzero"></path>
                            <path d="M70.3410671,22.2398938 L70.3394481,22.1614264 C70.3005922,20.1180721 70.2633554,18.186814 70.2633554,16.3292192 C70.2633554,13.5140023 67.9481936,11.2256376 65.1036206,11.2256376 C54.0944597,11.2256376 45.7388303,8.12057181 38.8079158,1.45564973 C37.7992824,0.485216576 36.505706,0 35.2121296,0 C33.9169341,0 32.6217387,0.485216576 31.6131053,1.45564973 C24.6838099,8.12057181 16.3281805,11.2256376 5.32063847,11.2256376 C2.47606555,11.2256376 0.160903748,13.5140023 0.160903748,16.3292192 C0.160903748,18.2268484 0.12366688,20.177323 0.0831920235,22.2414951 C-0.102992317,31.8817717 -0.334508496,43.879272 3.73564308,54.7702222 C5.97471215,60.7593641 9.36326714,65.9638324 13.8090254,70.2379018 C18.8732394,75.1076827 25.50464,78.9701988 33.5202806,81.718158 C34.0658816,81.9055189 34.6341486,82 35.2105106,82 L35.2121296,82 C35.7884915,82 36.3567585,81.9055189 36.9007406,81.718158 C44.9163812,78.9701988 51.5494007,75.1076827 56.6136147,70.2379018 C61.059373,65.962231 64.447928,60.7577628 66.686997,54.7702222 C70.7587676,43.879272 70.5272514,31.8801703 70.3410671,22.2398938 L70.3410671,22.2398938 Z M62.1311472,53.103191 C57.8391934,64.5882514 49.0658635,72.4638128 35.3076502,77.1798617 C35.2768893,77.1910714 35.2461284,77.1974769 35.2121296,77.1974769 C35.1781307,77.1974769 35.1441318,77.1910714 35.1117519,77.1798617 C21.3567766,72.4638128 12.5850657,64.5882514 8.29149294,53.1047924 C4.54028323,43.0641722 4.75237148,32.0515174 4.94017481,22.3327735 C4.98064967,20.2445807 5.01788654,18.2716869 5.01788654,16.3292192 C5.01788654,16.1642776 5.15388206,16.0297621 5.32063847,16.0297621 C17.6735647,16.0297621 27.1042063,12.4923251 35.0000413,4.89860563 C35.0583251,4.84255751 35.1344178,4.81373277 35.2105106,4.81373277 L35.2121296,4.81373277 C35.2882223,4.81373277 35.362696,4.84255751 35.4225988,4.89860563 C43.3168148,12.4923251 52.7490754,16.0297621 65.1036206,16.0297621 C65.2703771,16.0297621 65.4063726,16.1642776 65.4063726,16.3292192 C65.4063726,18.2316525 65.4436094,20.1853298 65.4824653,22.2527048 L65.4840843,22.3311721 C65.5261781,24.4994337 65.569891,26.7333516 65.569891,29.0057025 C65.569891,36.9164942 65.0469558,45.3028942 62.1311472,53.103191 L62.1311472,53.103191 Z" id="Shape" fill="#97CEC5" fill-rule="nonzero"></path>
                            <path d="M51.7575758,34.5000811 L51.7575758,44.1358163 C51.7575758,45.0242288 51.0317459,45.7452593 50.1337954,45.7452593 L41.4853788,45.7452593 L41.4853788,54.3187621 C41.4853788,55.2071747 40.7579252,55.9282051 39.8615984,55.9282051 L30.1400254,55.9282051 C29.2436986,55.9282051 28.516245,55.2071747 28.516245,54.3187621 L28.516245,45.7452593 L19.8662046,45.7452593 C18.9682541,45.7452593 18.2424242,45.0242288 18.2424242,44.1358163 L18.2424242,34.5000811 C18.2424242,33.6116686 18.9682541,32.8906381 19.8662046,32.8906381 L28.516245,32.8906381 L28.516245,24.3171353 C28.516245,23.4287228 29.2436986,22.7076923 30.1400254,22.7076923 L39.8617608,22.7076923 C40.7580876,22.7076923 41.4855412,23.4287228 41.4855412,24.3171353 L41.4855412,32.8906381 L50.1339578,32.8906381 C51.0317459,32.8906381 51.7575758,33.6116686 51.7575758,34.5000811 Z" id="Path" fill="#FF8787" fill-rule="nonzero"></path>
                            <path d="M51.7575758,34.5000811 L51.7575758,44.1358163 C51.7575758,45.0242288 51.0409337,45.7452593 50.1543496,45.7452593 L41.6154066,45.7452593 L41.6154066,54.3187621 C41.6154066,55.2071747 40.8971613,55.9282051 40.0121804,55.9282051 L35.2121212,55.9282051 L35.2121212,22.7076923 L40.0121804,22.7076923 C40.8971613,22.7076923 41.6154066,23.4287228 41.6154066,24.3171353 L41.6154066,32.8906381 L50.1543496,32.8906381 C51.0409337,32.8906381 51.7575758,33.6116686 51.7575758,34.5000811 Z" id="Path" fill="#F66A6A" fill-rule="nonzero"></path>
                            <path d="M66.6869961,54.7702222 C64.4479266,60.7577628 61.0593708,65.962231 56.6136115,70.2379018 C51.5493962,75.1076827 44.9163751,78.9701988 36.9007326,81.718158 C36.3567504,81.9055189 35.7884833,82 35.2121212,82 L35.2121212,77.1974769 C35.2461201,77.1974769 35.276881,77.1910714 35.3076419,77.1798617 C49.0658584,72.4638128 57.8391904,64.5882514 62.1311452,53.103191 C65.0469546,45.3028942 65.5698898,36.9164942 65.5698898,29.0057025 C65.5698898,26.7333516 65.526177,24.4994337 65.4840831,22.3311721 L65.4824641,22.2527048 C65.4436083,20.1853298 65.4063714,18.2316525 65.4063714,16.3292192 C65.4063714,16.1642776 65.2703758,16.0297621 65.1036194,16.0297621 C52.7490712,16.0297621 43.3168084,12.4923251 35.4225905,4.89860563 C35.3626877,4.84255751 35.288214,4.81373277 35.2121212,4.81373277 L35.2121212,0 C36.5056979,0 37.7992747,0.485216576 38.8079083,1.45564973 C45.7388244,8.12057181 54.0944558,11.2256376 65.1036194,11.2256376 C67.948193,11.2256376 70.2633553,13.5140023 70.2633553,16.3292192 C70.2633553,18.186814 70.3005922,20.1180721 70.3394481,22.1614264 L70.3410671,22.2398938 C70.5272515,31.8801703 70.7587677,43.879272 66.6869961,54.7702222 Z" id="Path" fill="#47B29F" fill-rule="nonzero"></path>
                        </g>
                    </g>
                    <g id="stethoscope" transform="translate(5.000000, 0.000000)">
                        <g transform="translate(0.000000, 6.513043)">
                            <g id="Group" transform="translate(14.546154, 0.000000)" fill="#FFFFFF" fill-rule="nonzero">
                                <path d="M23.1995599,54.8728073 C13.3350114,54.8728073 4.84477555,48.7028859 3.01165163,40.2019192 C3.00231844,40.1587585 2.99531855,40.1154119 2.99043983,40.0716932 L0.180724552,14.3293633 C-0.180724552,11.0182744 1.07501412,7.70755765 3.6257333,5.24610037 C6.17645248,2.78464309 9.81448862,1.3728073 13.6069467,1.3728073 C14.5124785,1.3728073 15.246619,2.01668181 15.246619,2.81087432 C15.246619,3.60506683 14.5124785,4.24894134 13.6069467,4.24894134 C10.7365656,4.24894134 7.98327376,5.31735259 6.05278767,7.18032842 C4.12230158,9.04330425 3.17180074,11.5490384 3.44543298,14.0549585 L6.24793625,39.730315 C7.816549,46.8417704 14.933957,51.9963012 23.1995599,51.9963012 C31.4651627,51.9963012 38.5825707,46.8419564 40.1511835,39.730315 L42.9536867,14.0549585 C43.2271068,11.5490384 42.2768181,9.04330425 40.346332,7.18032842 C38.4158459,5.31735259 35.6623419,4.24894134 32.792173,4.24894134 C31.8866412,4.24894134 31.1525007,3.60506683 31.1525007,2.81087432 C31.1525007,2.01668181 31.8866412,1.3728073 32.792173,1.3728073 C36.5846311,1.3728073 40.2226672,2.78464309 42.7733864,5.24610037 C45.3241056,7.70755765 46.5798443,11.0182744 46.2183952,14.3293633 L43.4086799,40.0716932 C43.4038012,40.1154119 43.3968013,40.1587585 43.3874681,40.2019192 C41.554132,48.7028859 33.0641083,54.8728073 23.1995599,54.8728073 Z" id="Path"></path>
                                <path d="M17.0585311,5.46809853 L11.9091541,5.46809853 C10.4264491,5.46809853 9.22458841,4.2805843 9.22458841,2.81557822 L9.22458841,2.65252031 C9.22458841,1.18751423 10.4264491,0 11.9091541,0 L17.0585311,0 C18.541236,0 19.7430967,1.18751423 19.7430967,2.65252031 L19.7430967,2.81557822 C19.7433089,4.2805843 18.541236,5.46809853 17.0585311,5.46809853 Z" id="Path"></path>
                                <path d="M34.4895414,5.46809853 L29.3401644,5.46809853 C27.8574594,5.46809853 26.6555987,4.2805843 26.6555987,2.81557822 L26.6555987,2.65252031 C26.6555987,1.18751423 27.8574594,0 29.3401644,0 L34.4895414,0 C35.9722464,0 37.1741071,1.18751423 37.1741071,2.65252031 L37.1741071,2.81557822 C37.1743192,4.2805843 35.9722464,5.46809853 34.4895414,5.46809853 Z" id="Path"></path>
                            </g>
                            <path d="M31.6189509,0 L31.5408846,0 L31.5408846,0.0862319396 C31.5408846,1.58191744 30.3613542,2.7943 28.9061975,2.7943 L23.9307692,2.7943 L23.9307692,2.87454064 C23.9307692,4.37022614 25.1102996,5.5826087 26.5654563,5.5826087 L31.6191591,5.5826087 C33.0743157,5.5826087 34.2538462,4.37022614 34.2538462,2.87454064 L34.2538462,2.70806806 C34.2538462,1.21238256 33.0741076,0 31.6189509,0 Z" id="Path" fill="#172A3A" fill-rule="nonzero"></path>
                            <path d="M48.9806976,0 L48.9026312,0 L48.9026312,0.0862319396 C48.9026312,1.58191744 47.7231008,2.7943 46.2679442,2.7943 L41.2923077,2.7943 L41.2923077,2.87454064 C41.2923077,4.37022614 42.4718381,5.5826087 43.9269947,5.5826087 L48.9806976,5.5826087 C50.4358542,5.5826087 51.6153846,4.37022614 51.6153846,2.87454064 L51.6153846,2.70806806 C51.6155928,1.21238256 50.4358542,0 48.9806976,0 Z" id="Path" fill="#172A3A" fill-rule="nonzero"></path>
                            <path d="M53.5069249,33.5348828 L53.0926439,37.7633114 C51.6389368,44.9198015 45.1959842,50.0988103 37.7176483,50.0988103 C30.2393124,50.0988103 23.7963598,44.9198015 22.3426527,37.7633114 L21.9283717,33.5348828 C21.8707085,32.9457352 21.3351434,32.5138045 20.7323401,32.5701614 L16.3658992,32.9788006 C15.7630959,33.0351575 15.3211536,33.5585901 15.3788167,34.1477377 L15.8224613,38.6758351 L15.8503353,38.8205745 C17.5595902,47.6525896 24.6121551,54.3960733 33.3569525,56.1038319 C33.9767781,56.224864 34.4278699,56.7487125 34.4278699,57.3665584 L34.4278699,84.8739078 C34.4278699,89.9225264 30.2005866,94.1418048 25.0355856,94.0552939 C20.0188916,93.9712785 15.9641722,89.9566316 15.9641722,85.0338282 L15.9641722,72.932907 L9.38461538,72.932907 L9.38461538,84.8366832 C9.38461538,93.3442823 16.3354718,100.403656 25.0398412,100.486215 C33.8295349,100.569607 41.0074267,93.6054787 41.0074267,85.0338282 L41.0074267,57.3665584 C41.0074267,56.7487125 41.4583057,56.224864 42.0783442,56.1038319 C50.8229288,54.3960733 57.8757064,47.6525896 59.5849613,38.8205745 L59.6128354,38.6758351 L60.0564799,34.1477377 C60.114143,33.5585901 59.6722007,33.0351575 59.0693974,32.9788006 L54.7029565,32.5701614 C54.1001532,32.5138045 53.5645881,32.9457352 53.5069249,33.5348828 L53.5069249,33.5348828 Z" id="Path" fill="#FEB5B5" fill-rule="nonzero"></path>
                            <path d="M59.0684199,32.9778112 L56.8939803,32.7745652 L56.6035156,35.7349328 L56.575619,35.8795741 C55.0246991,43.8820223 49.0776249,50.1685171 41.4580359,52.5440848 C39.3792112,53.1922692 37.9833193,55.0973369 37.9833193,57.2270559 L37.9833193,82.0615161 C37.9833193,90.6273589 30.7996404,97.5867684 22.0028599,97.5034334 C18.4930065,97.4701825 15.2691459,96.3039078 12.6692308,94.3684987 C15.5272421,98.0103015 19.9742916,100.391896 25.0116404,100.439694 C33.8084209,100.523029 40.9920998,93.5636195 40.9920998,84.9977768 L40.9920998,57.3490451 C40.9920998,56.7316178 41.4433423,56.2081242 42.0638806,56.0871741 C50.8155156,54.3805726 57.8739795,47.6416579 59.5846124,38.815627 L59.612509,38.6709857 L60.0565112,34.1459563 C60.1140079,33.5572078 59.6717093,33.0341299 59.0684199,32.9778112 L59.0684199,32.9778112 Z" id="Path" fill="#F98585" fill-rule="nonzero"></path>
                            <ellipse id="Oval" fill="#FFFFFF" fill-rule="nonzero" cx="12.6692308" cy="71.1782609" rx="12.6692308" ry="12.5608696"></ellipse>
                            <path d="M18.1930306,59.92 C18.8955656,61.4905286 19.2887913,63.2272451 19.2887913,65.0557309 C19.2887913,72.0617558 13.5603475,77.7412036 6.49388241,77.7412036 C4.64941167,77.7412036 2.89792351,77.3513412 1.31384615,76.6548151 C3.30274562,81.1011272 7.79099993,84.2043478 13.0127835,84.2043478 C20.0792486,84.2043478 25.8076923,78.5249001 25.8076923,71.5188751 C25.8076923,66.341754 22.6779114,61.8918882 18.1930306,59.92 Z" id="Path" fill="#E5E5E5" fill-rule="nonzero"></path>
                            <ellipse id="Oval" fill="#E5E5E5" fill-rule="nonzero" cx="12.9038462" cy="70.9456522" rx="6.33461538" ry="6.28043478"></ellipse>
                            <path d="M15.6423521,65.3165217 C16.0571772,66.1480757 16.2915058,67.0838617 16.2915058,68.0742753 C16.2915058,71.5149788 13.4780843,74.3043368 10.0076982,74.3043368 C9.0087404,74.3043368 8.0646704,74.0722217 7.22615385,73.6609447 C8.25234443,75.7179576 10.3893794,77.1330435 12.8608078,77.1330435 C16.3311939,77.1330435 19.1446154,74.3438948 19.1446154,70.9029819 C19.1444043,68.452692 17.7168995,66.3339352 15.6423521,65.3165217 Z" id="Path" fill="#172A3A" fill-rule="nonzero"></path>
                        </g>
                    </g>
                    <text id="Financial-Protection" font-family="Roboto-Medium, Roboto" font-size="18" font-weight="400" fill="#172A3A">
                        <tspan x="84" y="200">Financial Protection</tspan>
                    </text>
                    <text id="Primary-Care" font-family="Roboto-Medium, Roboto" font-size="18" font-weight="400" fill="#172A3A">
                        <tspan x="84" y="42">Primary Care</tspan>
                    </text>
                    <text id="Dedicated-Care-team" font-family="Roboto-Regular, Roboto" font-size="14" font-weight="normal" fill="#172A3A">
                        <tspan x="84" y="67">Dedicated Care team of Doctors </tspan>
                        <tspan x="84" y="83">& Health Assistants available 24x7</tspan>
                    </text>
                    <text id="Budget-friendly-paym" font-family="Roboto-Regular, Roboto" font-size="14" font-weight="normal" fill="#172A3A">
                        <tspan x="84" y="225">Budget friendly payment plans</tspan>
                        <tspan x="84" y="241">with 24x7 claim support</tspan>
                    </text>
                </g>
                <text id="Assurance-of-good-he" fill="#172A3A" font-family="Roboto-Medium, Roboto" font-size="21" font-weight="400">
                    <tspan x="52" y="55">Assurance of good health</tspan>
                </text>
                <text id="&amp;-financial-protecti" fill="#172A3A" font-family="Roboto-Medium, Roboto" font-size="21" font-weight="400">
                    <tspan x="71" y="82">& financial protection</tspan>
                </text>
            </g>
        </g>
    </g>
</svg>