<?xml version="1.0" encoding="UTF-8"?>
<svg width="100%" height="100%" viewBox="0 0 360 492" version="1.1" 
	xmlns="http://www.w3.org/2000/svg" 
	xmlns:xlink="http://www.w3.org/1999/xlink">
	<!-- Generator: Sketch 63.1 (92452) - https://sketch.com -->
	<title>Landing1@1x</title>
	<desc>Created with Sketch.</desc>
	<defs>
		<linearGradient x1="25%" y1="75%" x2="25%" y2="25%" id="linearGradient-1">
			<stop stop-color="#FFE6B1" offset="0%"></stop>
			<stop stop-color="#FFD07A" offset="100%"></stop>
		</linearGradient>
		<rect id="path-2" x="0" y="0" width="344" height="472" rx="8"></rect>
		<filter x="-4.4%" y="-3.2%" width="108.7%" height="106.4%" filterUnits="objectBoundingBox" id="filter-3">
			<feOffset dx="0" dy="0" in="SourceAlpha" result="shadowOffsetOuter1"></feOffset>
			<feGaussianBlur stdDeviation="5" in="shadowOffsetOuter1" result="shadowBlurOuter1"></feGaussianBlur>
			<feColorMatrix values="0 0 0 0 0.847058824   0 0 0 0 0.847058824   0 0 0 0 0.847058824  0 0 0 1 0" type="matrix" in="shadowBlurOuter1"></feColorMatrix>
		</filter>
	</defs>
	<g id="Page-1" stroke="none" stroke-width="1" fill="none" fill-rule="evenodd">
		<g id="0a.-Landing1" transform="translate(0.000000, -74.000000)">
			<g id="Landing1" transform="translate(8.000000, 84.000000)">
				<g id="Background">
					<use fill="black" fill-opacity="1" filter="url(#filter-3)" xlink:href="#path-2"></use>
					<use fill="url(#linearGradient-1)" fill-rule="evenodd" xlink:href="#path-2"></use>
				</g>
				<g id="Group-3" transform="translate(72.500000, 429.000000)">
					<g id="Reliance_icon" transform="translate(121.500000, 0.000000)">
						<g id="Reliance_icon-01">
							<path d="M0,0 L80,0 L80,27.4960707 L0,27.4960707 L0,0 Z M48.828125,11.9854667 C48.984375,12.1343059 49.0828125,12.2165591 49.1710937,12.3050792 C50.9486979,14.1036826 52.7247396,15.9030693 54.4992187,17.7032394 C54.7882813,17.9970008 55.096875,18.1615072 55.5078125,17.9923007 C55.9046875,17.8285776 55.9476562,17.4901644 55.9468853,17.11885 C55.9427083,14.9254312 55.9427083,12.7320125 55.9468853,10.5385937 L55.9468853,9.50612019 L54.4015625,9.50612019 L54.4015625,15.2301598 C54.2296875,15.073487 54.1265625,14.9810501 54.0289063,14.8846963 C52.2653646,13.1278723 50.5007813,11.3718317 48.7351563,9.61657449 C48.5847468,9.4575259 48.3936961,9.34291044 48.1828125,9.28521158 C47.6265625,9.17397392 47.29375,9.52022073 47.2921875,10.1704127 C47.2880208,12.6630765 47.2880208,15.1562624 47.2921875,17.6499707 C47.2986164,17.7373434 47.3106201,17.8242135 47.328125,17.9100474 L48.828125,17.9100474 L48.828125,11.9854667 Z M14.4726562,15.1024715 C15.6953125,14.7319404 16.38125,13.977561 16.5335938,12.7476798 C16.7195313,11.2357875 15.9382813,9.95890448 14.5570313,9.62205803 C14.1510185,9.53140594 13.7362687,9.48595689 13.3203125,9.48653609 C12.0960938,9.46851872 10.8726563,9.47635236 9.6484375,9.47948581 C8.93984375,9.47948581 8.68046875,9.73956261 8.6796875,10.4453734 C8.6796875,12.8079988 8.6796875,15.1706241 8.6796875,17.5332494 C8.6796875,17.6601544 8.69140625,17.786276 8.69921875,17.9296315 L10.234375,17.9296315 L10.234375,15.2356433 C11.0046875,15.2356433 11.73125,15.2278097 12.4570312,15.2442603 C12.5617188,15.2442603 12.6867188,15.3484477 12.7609375,15.4377512 C13.3859375,16.1921306 13.9929687,16.9559103 14.6132812,17.7095063 C14.6914062,17.8050767 14.8046875,17.9343317 14.9054688,17.9382485 C15.509375,17.9593994 16.1148437,17.9484323 16.8203125,17.9484323 L14.4726562,15.1024715 Z M73.4421875,14.3755098 C73.409375,13.8271551 73.40625,13.3469531 73.3476562,12.8714512 C73.2179687,11.828794 72.9117187,10.8511559 72.103125,10.1179273 C70.5640625,8.72432307 67.6101563,9.02121797 66.3726563,10.7446184 C65.1914062,12.3935993 65.175,14.2031698 65.9398438,16.0260574 C66.3867188,17.0906489 67.228125,17.7659085 68.3492188,18.0150182 C69.8578125,18.3502979 71.2960938,18.122339 72.628125,17.3139076 C72.778125,17.2230374 72.9140625,17.1094496 73.06875,17.000562 C72.7835938,16.5626616 72.521875,16.1639295 72.2546875,15.7471799 C71.3398438,16.4655245 70.3507813,16.7820035 69.2367188,16.7310849 C68.0601563,16.6785995 67.021875,15.5905071 67.0539062,14.3755098 L73.4421875,14.3755098 Z M25.303125,14.3833434 C25.303125,13.9329092 25.3328125,13.5412273 25.2976563,13.1565957 C25.1921875,12.0316852 24.8898438,10.9905947 24.0632813,10.1484785 C22.7390625,8.79874264 19.0234375,8.76897481 17.828125,11.4982144 C17.225,12.8761514 17.203125,14.2877731 17.7148438,15.6923444 C18.1976563,17.0279798 19.15625,17.8442449 20.5601563,18.0753372 C22.0125,18.3150466 23.38125,18.0573199 24.6359375,17.2645556 C24.7523438,17.1901361 24.8578125,17.0969158 24.9851563,16.9997787 L24.1757813,15.7510967 C23.5054688,16.2594998 22.8078125,16.5822457 22.0171875,16.7021004 C20.3351563,16.957477 19.0421875,15.997073 18.9523438,14.3833434 L25.303125,14.3833434 Z M44.8054687,17.6256864 C44.8632812,17.743191 45.059375,17.9225813 45.1515625,17.9280648 C45.6640625,17.9570493 46.0890625,17.9374652 46.6492187,17.9374652 C46.5648437,17.7478911 46.5117187,17.6170694 46.4507812,17.4909478 C45.2695312,15.0661756 44.0864583,12.6424479 42.9015625,10.2197646 C42.7015625,9.81241545 42.4984375,9.39253243 42.2210937,9.0400187 C41.603125,8.25665486 40.4875,8.2472545 39.840625,9.01103424 C39.6230358,9.28632263 39.4394136,9.58696264 39.29375,9.90641911 C38.5421875,11.4237949 37.803125,12.9482209 37.0617187,14.4710802 C36.5085937,15.6061744 35.9585937,16.7428353 35.3632812,17.967233 L35.79375,17.9570493 L36.7195312,17.9531325 C37.015625,17.9656663 37.15,17.846595 37.2734375,17.5896516 L40.996875,9.91973629 L40.996875,9.91973629 M64.7742188,9.47870245 C63.9460938,9.47870245 63.1664063,9.47008545 62.3875,9.47870245 C61.7117188,9.48731945 61.0257813,9.4473679 60.3632813,9.55155529 C58.2578125,9.88213483 56.8984375,11.624336 56.9773438,13.8099211 C57.0601563,16.126328 58.3421875,17.6969725 60.4484375,17.8716626 C61.8546875,17.9876005 63.2804688,17.9108308 64.696875,17.9186645 C64.7179687,17.9186645 64.7390625,17.8928134 64.7671875,17.8747961 L64.7671875,16.5078262 C64.1273437,16.5078262 63.5171875,16.5078262 62.9070313,16.5078262 C62.296875,16.5078262 61.6835938,16.5172265 61.0726563,16.4984258 C59.603125,16.4529907 58.7023438,15.657093 58.540625,14.2023864 C58.3367188,12.3646148 59.1835938,10.8527226 61.3898438,10.9122583 C62.378125,10.9388926 63.3679688,10.9177418 64.3585938,10.9169585 C64.4960938,10.9169585 64.6328125,10.905208 64.7765625,10.8989411 L64.7742188,9.47870245 Z M27.890625,16.4890254 L27.890625,9.46303517 C27.4273437,9.46303517 27.0117187,9.44893463 26.6,9.475569 C26.5148438,9.48105254 26.3851562,9.63224176 26.3710938,9.73016224 C26.3382812,9.95968785 26.3625,10.2001805 26.3625,10.4351897 C26.3625,12.64062 26.3638021,14.8457892 26.3664062,17.0506973 C26.3664062,17.6296032 26.6492187,17.9429487 27.1703125,17.9445155 C28.8109375,17.949999 30.4515625,17.9445155 32.0921875,17.9445155 C32.1708948,17.9394822 32.2491879,17.9292766 32.3265625,17.9139643 L32.3265625,16.4890254 L27.890625,16.4890254 Z M34.728125,17.9343317 L34.728125,9.49201964 L33.234375,9.49201964 L33.234375,17.9343317 L34.728125,17.9343317 Z" id="Shape" fill="#145AB1" fill-rule="nonzero"></path>
							<path d="M47.2921875,10.1704127 C47.2921875,9.51708728 47.6265625,9.17397392 48.1828125,9.28521158 C48.3936961,9.34291044 48.5847468,9.4575259 48.7351563,9.61657449 C50.5059896,11.3666093 52.2705729,13.1226499 54.0289063,14.8846963 C54.1265625,14.9810501 54.2296875,15.0711369 54.4015625,15.2301598 L54.4015625,9.50612019 L55.9421875,9.50612019 L55.9421875,10.5409438 C55.9421875,12.7343626 55.9421875,14.9277813 55.9421875,17.1212001 C55.9421875,17.4925145 55.9,17.8309277 55.503125,17.9946507 C55.0921875,18.1638573 54.7835938,17.9993509 54.4945313,17.7055895 C52.7236979,15.9033304 50.9476563,14.1039437 49.1664063,12.3074293 C49.0796875,12.2204759 48.984375,12.1358726 48.828125,11.9854667 L48.828125,17.9084807 L47.296875,17.9084807" id="Path" fill="#F5FAFB" fill-rule="nonzero"></path>
							<path d="M14.4726562,15.1024715 L16.8164062,17.9507824 C16.1132812,17.9507824 15.5054688,17.9617495 14.9015625,17.9405986 C14.8007813,17.9366818 14.6875,17.8074268 14.609375,17.7118564 C13.9890625,16.9559103 13.3789062,16.1921306 12.7570313,15.4401013 C12.6828125,15.3507978 12.5578125,15.2497439 12.453125,15.2466104 C11.7273438,15.2301598 11.0007813,15.2379934 10.2304688,15.2379934 L10.2304688,17.9319816 L8.69921875,17.9319816 C8.69140625,17.7886261 8.6796875,17.6625045 8.6796875,17.5355995 C8.6796875,15.1729742 8.6796875,12.8103489 8.6796875,10.4477235 C8.6796875,9.74269606 8.93984375,9.48340263 9.6484375,9.48183591 C10.8726562,9.48183591 12.0960937,9.47086881 13.3203125,9.48888618 C13.7362687,9.48830698 14.1510185,9.53375603 14.5570313,9.62440813 C15.9382813,9.96125458 16.7195313,11.2381376 16.5335938,12.7500298 C16.38125,13.977561 15.6953125,14.7319404 14.4726562,15.1024715 Z M10.2414063,13.7872036 C11.3976563,13.7872036 12.5125,13.7872036 13.628125,13.7872036 C13.7837869,13.7805455 13.9378134,13.7526087 14.0859375,13.704167 C14.7890625,13.4973589 15.0546875,13.0430079 14.9984375,12.1531066 C14.9554688,11.4715801 14.6132813,11.0563972 13.9046875,11.0078287 C12.9078125,10.9428095 11.9054688,10.9623936 10.90625,10.9475096 C10.6890625,10.9475096 10.4726563,10.9475096 10.2398438,10.9475096 L10.2414063,13.7872036 Z" id="Shape" fill="#F5FAFB" fill-rule="nonzero"></path>
							<path d="M73.4421875,14.3755098 L67.0539062,14.3755098 C67.021875,15.5905071 68.0601562,16.6785995 69.2367187,16.7310849 C70.3507812,16.7820035 71.3398438,16.4655245 72.2546875,15.7471799 C72.5242188,16.1631461 72.7835938,16.5618783 73.06875,17.000562 C72.9125,17.1125831 72.778125,17.2261708 72.628125,17.3139076 C71.3,18.122339 69.8578125,18.3502979 68.3492187,18.0150182 C67.228125,17.7659085 66.3867188,17.0906489 65.9398437,16.0260574 C65.175,14.2031698 65.1914062,12.3935993 66.3726562,10.7446184 C67.6101562,9.02121797 70.5640625,8.72197298 72.103125,10.1179273 C72.9117188,10.8511559 73.2179687,11.828794 73.3476562,12.8714512 C73.40625,13.3469531 73.409375,13.8287218 73.4421875,14.3755098 Z M67.0453125,12.9654549 C68.565625,12.9654549 70.0585938,12.9654549 71.5515625,12.9654549 C71.6296875,12.9654549 71.703125,12.9521377 71.7773437,12.9450874 C71.8140625,11.7473241 71.0234375,10.7775197 69.9539062,10.692133 C68.3507812,10.5644447 67.2507812,11.4049941 67.0453125,12.9670216 L67.0453125,12.9654549 Z" id="Shape" fill="#F5FAFB" fill-rule="nonzero"></path>
							<path d="M25.303125,14.3833434 L18.9523437,14.3833434 C19.0421875,16.0002064 20.3351562,16.957477 22.0171875,16.7021004 C22.8078125,16.5822457 23.5054687,16.2594998 24.1757812,15.7510967 L24.9851562,16.9989953 C24.8578125,17.0961324 24.7507812,17.1893527 24.6359375,17.2637723 C23.38125,18.0565365 22.0125,18.3142632 20.5601562,18.0745539 C19.1539062,17.8395447 18.1976562,17.0271964 17.7148437,15.6915611 C17.20625,14.2869897 17.225,12.8753681 17.828125,11.4974311 C19.0234375,8.76819145 22.7390625,8.79795928 24.0632812,10.1476952 C24.8898437,10.9898113 25.1921875,12.0277684 25.2976562,13.1558123 C25.3328125,13.5412273 25.303125,13.9329092 25.303125,14.3833434 Z M19,12.9356871 L23.7242187,12.9356871 C23.5328125,11.2757391 22.7414062,10.5761952 21.21875,10.6936998 C19.9921875,10.7877034 18.9710937,11.8170435 19,12.9356871 Z" id="Shape" fill="#F5FAFB" fill-rule="nonzero"></path>
							<path d="M46.6492187,17.9390319 L45.1515625,17.9296315 C44.9882812,17.9296315 44.8632812,17.7447577 44.8054687,17.6272531 C43.6609375,15.286562 41.3828125,10.5996961 41.3828125,10.5996961 L40.9921875,9.92130302 L40.9921875,9.92130302 C39.8203125,12.3340636 38.4320312,15.1698407 37.26875,17.5912184 C37.1453125,17.8481617 37.0109375,17.967233 36.7148438,17.9546992 C36.41875,17.9421654 35.7890625,17.958616 35.7890625,17.958616 L35.3585937,17.9687997 C35.9539062,16.7436187 36.5039062,15.6077411 37.0570312,14.4726469 C37.7984375,12.9497876 38.5375,11.4253616 39.2890625,9.90798583 C39.4368959,9.58676878 39.6231606,9.28478228 39.84375,9.00868415 C40.490625,8.2449044 41.60625,8.25195468 42.2242187,9.03766861 C42.5015625,9.39018234 42.7046875,9.81006535 42.9046875,10.2174146" id="Path" fill="#F5FAFB" fill-rule="nonzero"></path>
							<path d="M64.7742188,9.47870245 L64.7742188,10.9005078 C64.6304688,10.9067747 64.49375,10.9185252 64.35625,10.9185252 C63.3679688,10.9185252 62.378125,10.9404594 61.3875,10.913825 C59.18125,10.8527226 58.334375,12.3646148 58.5382813,14.2039531 C58.7,15.6586598 59.6007813,16.4545574 61.0703125,16.4999925 C61.68125,16.5187933 62.2929688,16.5086095 62.9046875,16.5093929 C63.5164063,16.5101763 64.125,16.5093929 64.7648437,16.5093929 L64.7648437,17.8787129 C64.7367187,17.8967303 64.715625,17.9225813 64.6945312,17.9225813 C63.278125,17.9147476 61.8539062,17.9915173 60.4460938,17.8755794 C58.3367188,17.7008893 57.0578125,16.1302448 56.975,13.8138379 C56.896875,11.6282528 58.2554688,9.88605165 60.3609375,9.55547211 C61.0234375,9.45128472 61.709375,9.49123627 62.3851563,9.48261927 C63.1664063,9.47008545 63.9460938,9.47870245 64.7742188,9.47870245 Z" id="Path" fill="#F5FAFB" fill-rule="nonzero"></path>
							<path d="M27.16875,17.9390319 C26.6476562,17.9390319 26.3664062,17.6256864 26.3648437,17.0452138 C26.3601562,14.8397834 26.3588542,12.6346142 26.3609375,10.4297062 C26.3609375,10.194697 26.3367187,9.95968785 26.3695312,9.7246787 C26.3835937,9.62675822 26.5132812,9.475569 26.5984375,9.47008545 C27.0101562,9.44345108 27.4257812,9.45755163 27.8890625,9.45755163 L27.8890625,16.4835419 L32.3195312,16.4835419 L32.3195312,17.9390319" id="Path" fill="#F5FAFB" fill-rule="nonzero"></path>
							<polygon id="Path" fill="#F5FAFB" fill-rule="nonzero" points="34.7265625 17.9343317 33.234375 17.9343317 33.234375 9.49201964 34.7265625 9.49201964"></polygon>
							<path d="M10.2414063,13.7872036 L10.2414063,10.9435928 C10.4757813,10.9435928 10.690625,10.9435928 10.9078125,10.9435928 C11.9070313,10.9584767 12.909375,10.9388926 13.90625,11.0039118 C14.6132813,11.0501303 14.9554688,11.4676632 15,12.1491898 C15.05625,13.0390911 14.7921875,13.4934421 14.0875,13.7002502 C13.9393759,13.7486918 13.7853494,13.7766287 13.6296875,13.7832867 C12.5125,13.7872036 11.3976563,13.7872036 10.2414063,13.7872036 Z" id="Path" fill="#145AB1" fill-rule="nonzero"></path>
							<path d="M67.0453125,12.9670216 C67.2507812,11.4049941 68.3507812,10.5644447 69.9539062,10.6952665 C71.0234375,10.7806532 71.8140625,11.7504576 71.7773437,12.9482209 C71.6992187,12.9552712 71.6273437,12.9685884 71.5515625,12.9685884 C70.0585937,12.967805 68.565625,12.9670216 67.0453125,12.9670216 Z" id="Path" fill="#145AB1" fill-rule="nonzero"></path>
							<path d="M19,12.9356871 C18.9710937,11.8170435 19.9921875,10.7877034 21.21875,10.6936998 C22.7414063,10.5761952 23.5328125,11.2757391 23.7242187,12.9356871 L19,12.9356871 Z" id="Path" fill="#145AB1" fill-rule="nonzero"></path>
							<polyline id="Path" fill="#D90F15" fill-rule="nonzero" points="38.3304687 17.9601827 39.9351562 17.9601827 41.0898437 15.3703819 42.3226562 17.9601827 43.8484375 17.9601827 41.109375 12.1914914"></polyline>
						</g>
					</g>
					<text id="*in-partnership-with" font-family="CircularStd-Book, Circular Std" font-size="13" font-weight="300" fill="#172A3A">
						<tspan x="0.137" y="18">*in partnership with</tspan>
					</text>
				</g>
				<g id="Group-4" transform="translate(39.000000, 158.000000)">
					<g id="Insurance-Text" transform="translate(12.000000, 64.000000)" fill="#172A3A">
						<text id="Insurance*" font-family="CircularStd-Medium, Circular Std" font-size="14" font-weight="400">
							<tspan x="8" y="14">Insurance*</tspan>
						</text>
						<text id="Upto-₹-50,000" font-family="CircularStd-Book, Circular Std" font-size="13" font-weight="300">
							<tspan x="0.772589844" y="31">Upto </tspan>
							<tspan x="32.2975898" y="31" font-family="Roboto-Regular, Roboto" font-weight="normal">₹</tspan>
							<tspan x="39.0134102" y="31"> 50,000</tspan>
						</text>
					</g>
					<g id="Flat-Text" transform="translate(137.000000, 189.000000)" fill="#172A3A">
						<text id="Medicines-&amp;-Lab-test" font-family="CircularStd-Book, Circular Std" font-size="13" font-weight="300">
							<tspan x="0.4425" y="31">Medicines & Lab tests</tspan>
						</text>
						<text id="Flat-20%-Off" font-family="CircularStd-Medium, Circular Std" font-size="14" font-weight="400">
							<tspan x="26" y="14">Flat 20% Off</tspan>
						</text>
					</g>
					<g id="Awareness-Text" transform="translate(0.000000, 189.000000)" fill="#172A3A">
						<text id="Health-tips-&amp;-more" font-family="CircularStd-Book, Circular Std" font-size="13" font-weight="300">
							<tspan x="0.3745" y="31">Health tips & more</tspan>
						</text>
						<text id="Awareness" font-family="CircularStd-Medium, Circular Std" font-size="14" font-weight="400">
							<tspan x="20" y="14">Awareness</tspan>
						</text>
					</g>
					<g id="Teleconsultation-text" transform="translate(143.000000, 64.000000)" fill="#172A3A">
						<text id="24x7-in-11-languages" font-family="CircularStd-Book, Circular Std" font-size="13" font-weight="300">
							<tspan x="0.2925" y="31">24x7 in 11 languages</tspan>
						</text>
						<text id="Teleconsultation" font-family="CircularStd-Medium, Circular Std" font-size="14" font-weight="400">
							<tspan x="6" y="14">Teleconsultation</tspan>
						</text>
					</g>
					<g id="Awareness" transform="translate(28.000000, 125.000000)">
						<g>
							<path d="M33.8810456,21.0606061 C30.2570293,21.0642794 28.7759174,24.0263648 28.665015,24.1567681 C28.2458495,24.6439442 27.6881692,24.7440425 27.122341,24.1452889 C25.1758921,20.6716917 20.4944559,20.0104914 17.6938327,22.8554893 C16.5644397,24.0029473 15.9429339,25.5260037 15.9442897,27.1441077 C15.9515345,33.9287571 21.8492749,39.2853976 27.6433556,42.0592246 C27.7298142,42.1005495 27.8230627,42.1212121 27.9167638,42.1212121 C28.010465,42.1212121 28.1046188,42.1005495 28.19153,42.0587654 C29.1126983,41.6152102 31.5149784,40.362603 33.918164,38.3142597 C37.8653815,34.949485 39.864792,31.1829393 39.8607242,27.1193127 C39.8570967,23.7784146 37.175071,21.0606061 33.8810456,21.0606061 Z" id="Path" fill="#FF8787" fill-rule="nonzero"></path>
							<path d="M19.5490104,27.0903539 C19.547188,25.4828119 20.1727289,23.9696971 21.3099101,22.829729 C22.0293046,22.1085247 22.8717116,21.6154052 23.7601345,21.3362295 C21.7231405,20.700785 19.3799823,21.1501122 17.7051915,22.829729 C16.5680104,23.9696971 15.9429251,25.4828119 15.9442897,27.0903539 C15.951126,33.8307173 21.887157,39.152393 27.7188553,41.908114 C27.8063307,41.9491692 27.9001847,41.969697 27.9944942,41.969697 C28.0888036,41.969697 28.1831132,41.9491692 28.2705886,41.9076579 C28.6045445,41.7489107 29.132131,41.4857008 29.7827298,41.1193967 C24.4913747,38.2021915 19.5553889,33.2363281 19.5490104,27.0903539 Z" id="Path" fill="#F66A6A" fill-rule="nonzero"></path>
							<path d="M25.1058889,7.22674552 C25.4015441,7.11740078 25.7175737,7.09335406 26.0222841,7.1523366 L25.1756146,6.38284064 C24.8532463,6.09019627 24.4403252,5.92867472 24.0133683,5.92867472 L14.4283456,5.92867472 C13.8429212,5.92867472 13.2968872,5.7549029 12.8341621,5.45454545 C12.0997781,6.28937598 11.8199698,7.50986196 12.2084416,8.652763 C12.7676057,10.2979236 14.4976185,11.1586157 16.0727859,10.5746881 L25.1058889,7.22674552 Z" id="Path" fill="#F0A479" fill-rule="nonzero"></path>
							<path d="M15.8023136,8.652763 C15.481221,7.71085639 15.6161071,6.71677285 16.0857108,5.92867472 L14.4357394,5.92867472 C13.8485077,5.92867472 13.3007879,5.7549029 12.8366342,5.45454545 C12.099983,6.28937598 11.8193108,7.50986196 12.2089819,8.652763 C12.7694182,10.2979236 14.5052262,11.1586157 16.0852567,10.5746881 L16.9972145,10.2375798 C16.4622114,9.8723415 16.033028,9.32924798 15.8023136,8.652763 Z" id="Path" fill="#E5966E" fill-rule="nonzero"></path>
							<path d="M39.258534,9.14062919 L29.4375859,1.93814476 C27.7665143,0.680066899 25.7375502,0 23.6523394,0 L14.5322073,0 C12.8325586,0 11.4000818,1.40361039 11.4322876,3.1184223 C11.4635861,4.78060451 12.8089713,6.11831329 14.4641668,6.11831329 L24.0669321,6.11831329 C24.4946793,6.11831329 24.9083648,6.27437179 25.2313298,6.55765661 L29.2194031,10.0586737 C29.3128453,10.140593 29.2284752,10.2952784 29.1109921,10.2563782 C27.907131,9.85685029 26.5304474,10.1703401 25.6159847,11.1693886 C24.3985155,12.499775 24.506473,14.6621679 25.796065,15.921161 L35.5448902,25.435232 C36.6530412,26.5166573 38.1340535,27.1212121 39.676302,27.1212121 L48.8857939,27.1212121 L48.8857939,12.7080054 C45.4202706,12.4434842 42.0849313,11.2133229 39.258534,9.14062919 L39.258534,9.14062919 Z" id="Path" fill="#F7B594" fill-rule="nonzero"></path>
							<g id="Group" transform="translate(11.431755, 0.000000)" fill="#F0A479" fill-rule="nonzero">
								<path d="M3.6513329,3.11159656 C3.61917263,1.40053811 5.04917609,0 6.74642763,0 L3.16258616,0 C1.46533461,0 0.0348781047,1.40053811 0.0670384908,3.11159656 C0.0982928933,4.77014051 1.44178054,6.10492125 3.09464168,6.10492125 L6.67848316,6.10492125 C5.02562202,6.10492125 3.68258731,4.77014051 3.6513329,3.11159656 Z" id="Path"></path>
								<path d="M27.7294751,25.3795583 L17.9948522,15.8863121 C16.7107027,14.6337279 16.6001798,12.4856578 17.8041548,11.1572699 L16.5571483,10.0686221 C15.7010487,10.0996741 14.857632,10.461339 14.2311844,11.1453971 C13.0154324,12.4724149 13.1227846,14.6300747 14.4110107,15.8863121 L24.1456336,25.3795583 C25.2522217,26.4586165 26.7315982,27.061848 28.2712187,27.061848 L31.8550602,27.061848 C30.3154397,27.061848 28.8360632,26.4586165 27.7294751,25.3795583 Z" id="Path"></path>
								<path d="M24.9709319,17.9320932 C25.3065773,17.5658619 25.2843821,16.9945957 24.9211059,16.6557632 L17.8526218,10.0663389 C17.9029007,10.1503621 17.8254441,10.2686338 17.7208096,10.2339286 C16.9842922,9.98962211 16.1825482,10.0138244 15.4618844,10.2978592 L23.704448,17.9818677 C24.0677242,18.3207003 24.6348334,18.2987812 24.9709319,17.9320932 Z" id="Path"></path>
							</g>
							<path d="M52.5023106,9.84848485 L49.9727467,9.84848485 C49.2061982,9.84848485 48.5849582,10.4681901 48.5849582,11.232845 L48.5849582,28.7676138 C48.5849582,29.5318099 49.2061982,30.1515152 49.9727467,30.1515152 L52.5023106,30.1515152 C53.3295576,30.1515152 54,29.4827289 54,28.6575255 L54,11.3424746 C54,10.5172712 53.3295576,9.84848485 52.5023106,9.84848485 Z" id="Path" fill="#47B29F" fill-rule="nonzero"></path>
							<path d="M52.2767152,28.7676138 L52.2767152,11.232845 C52.2767152,10.6608446 52.6146035,10.1704931 53.097493,9.95949059 C52.9278775,9.88839188 52.7425984,9.84848485 52.5479209,9.84848485 L50.0860347,9.84848485 C49.3399949,9.84848485 48.735376,10.4681901 48.735376,11.232845 L48.735376,28.7676138 C48.735376,29.5318099 49.3399949,30.1515152 50.0860347,30.1515152 L52.5479209,30.1515152 C52.7425984,30.1515152 52.9278775,30.1120668 53.097493,30.0409682 C52.615051,29.8299657 52.2767152,29.3396142 52.2767152,28.7676138 L52.2767152,28.7676138 Z" id="Path" fill="#97CEC5" fill-rule="nonzero"></path>
							<path d="M28.8936822,52.7732545 C28.5980192,52.8825992 28.2819815,52.9066459 27.9777159,52.8476634 L28.8244074,53.6171594 C29.1463313,53.9098037 29.5592632,54.0713253 29.986684,54.0713253 L39.5719567,54.0713253 C40.1569435,54.0713253 40.7029917,54.2450971 41.165729,54.5454545 C41.9005847,53.710624 42.1799478,52.490138 41.7914657,51.347237 C41.2327398,49.7020764 39.5026819,48.8413843 37.9270206,49.4253119 L28.8936822,52.7732545 Z" id="Path" fill="#F0A479" fill-rule="nonzero"></path>
							<path d="M41.4771792,51.0026518 C41.5398807,50.9794181 41.6030367,50.9593733 41.6657382,50.9406953 C40.9755668,49.5639859 39.4043929,48.8911202 37.9618028,49.4259504 L28.8968844,52.7875451 C28.6001878,52.8973357 28.2830452,52.9214805 27.9777159,52.8622574 L28.826913,53.6348912 C29.1504167,53.9287289 29.5647922,54.0909091 29.9932529,54.0909091 L33.1496856,54.0909091 L41.4771792,51.0026518 Z" id="Path" fill="#E5966E" fill-rule="nonzero"></path>
							<path d="M14.7411289,50.8593708 L24.5626496,58.0618552 C26.2332879,59.3199331 28.2627301,60 30.3475125,60 L39.4677552,60 C41.167878,60 42.5999184,58.5963896 42.5677122,56.8815777 C42.5364133,55.2193955 41.191012,53.8816867 39.53625,53.8816867 L29.9333684,53.8816867 C29.5051624,53.8816867 29.0919255,53.7256282 28.7689566,53.4423434 L24.7803814,49.9408687 C24.6873918,49.859407 24.7717628,49.704264 24.8887937,49.7431642 C26.0926693,50.142692 27.4693697,49.8296599 28.3838434,48.8301538 C29.6013273,47.500225 29.4938223,45.3378321 28.2037611,44.078839 L18.4548177,34.564768 C17.3466533,33.4833427 15.8656232,32.8787879 14.323356,32.8787879 L5.11420613,32.8787879 L5.11420613,47.2919946 C8.57977132,47.5565158 11.915151,48.7866771 14.7411289,50.8593708 L14.7411289,50.8593708 Z" id="Path" fill="#F7B594" fill-rule="nonzero"></path>
							<path d="M28.3661779,58.0618552 L18.5551735,50.8593708 C16.5659664,49.3994695 14.3243704,48.3569445 11.9626969,47.7761875 C10.1841918,47.3386749 8.9381054,45.720427 8.9381054,43.8715239 L8.9381054,32.8787879 L5.11420613,32.8787879 L5.11420613,47.2919946 C8.57606064,47.5565158 11.907869,48.7866771 14.7308211,50.8593708 L24.5418255,58.0618552 C26.2106751,59.3199331 28.2379443,60 30.3204944,60 L34.1448468,60 C32.0622966,60 30.0350274,59.3199331 28.3661779,58.0618552 L28.3661779,58.0618552 Z" id="Path" fill="#F0A479" fill-rule="nonzero"></path>
							<path d="M18.3476748,41.6666667 C18.1054951,41.6666667 17.8646785,41.7646963 17.687474,41.9580074 C17.3503307,42.3253898 17.3725949,42.8984515 17.7370004,43.238349 L24.8274574,49.8484848 C24.7774765,49.7641976 24.8547196,49.6455541 24.9596793,49.6803684 C25.6989407,49.9254428 26.5027227,49.9011644 27.2256267,49.6162368 L18.9574404,41.9080764 C18.7847795,41.746373 18.5657728,41.6666667 18.3476748,41.6666667 Z" id="Path" fill="#F0A479" fill-rule="nonzero"></path>
							<path d="M1.49768943,50.1515152 L4.02725345,50.1515152 C4.79380182,50.1515152 5.41504178,49.5318239 5.41504178,48.7671863 L5.41504178,31.2328136 C5.41504178,30.4681761 4.79380182,29.8484848 4.02725345,29.8484848 L1.49768943,29.8484848 C0.670442444,29.8484848 0,30.5177146 0,31.3424407 L0,48.6575592 C0,49.4827439 0.670442444,50.1515152 1.49768943,50.1515152 L1.49768943,50.1515152 Z" id="Path" fill="#47B29F" fill-rule="nonzero"></path>
							<path d="M3.59114615,48.6575592 L3.59114615,31.3424407 C3.59114615,30.7167865 3.9724104,30.1814943 4.51253482,29.959488 C4.34732019,29.8879322 4.16576579,29.8484848 3.97513378,29.8484848 L1.47830672,29.8484848 C0.661765752,29.8484848 0,30.5177146 0,31.3424407 L0,48.6575592 C0,49.4827439 0.661765752,50.1515152 1.47830672,50.1515152 L3.97513378,50.1515152 C4.16576579,50.1515152 4.34732019,50.1120677 4.51208085,50.0409706 C3.9724104,49.8185056 3.59114615,49.2832134 3.59114615,48.6575592 L3.59114615,48.6575592 Z" id="Path" fill="#97CEC5" fill-rule="nonzero"></path>
						</g>
					</g>
					<g id="Medicines" transform="translate(182.000000, 125.000000)">
						<g id="002-pills" transform="translate(6.784539, 26.341463)">
							<path d="M3.24828339,0.729763341 C2.75810268,0.988198386 2.24654693,1.35400535 1.80807055,1.78749094 C1.37883749,2.21212397 1.00333074,2.71957055 0.738165168,3.21131104 C-0.523826339,5.5329432 -0.167961482,8.50480366 1.80807055,10.4586298 C2.37970738,11.0234746 7.50710762,16.0927997 8.25234409,16.8292683 C8.28498427,16.6102411 8.38608228,16.4060631 8.54870553,16.2452907 L16.4323253,8.45140325 C16.5949486,8.29063092 16.8014773,8.19068362 17.0230263,8.15841495 C16.2645026,7.40823942 11.2994369,2.49968654 10.5790417,1.78749094 C8.60272075,-0.166049747 5.59664486,-0.51786411 3.24828339,0.729763341 L3.24828339,0.729763341 Z" id="Path" fill="#E4EAF8" fill-rule="nonzero"></path>
							<path d="M3.43275071,8.87807263 C1.45161039,6.92845681 1.09487772,3.9632854 2.35994672,1.64637125 C2.45897474,1.46400437 2.57305974,1.27935792 2.69959558,1.09756098 C2.3909292,1.30557323 2.08747479,1.54948892 1.81268634,1.81990478 C1.38240655,2.24362276 1.00598409,2.74997583 0.740171885,3.24065666 C-0.525186652,5.55728588 -0.168453983,8.52274223 1.81268634,10.472358 C2.38542762,11.0359856 7.52562108,16.0943868 8.27238534,16.8292683 C8.30539466,16.610713 8.40673921,16.406975 8.56975903,16.2465492 L9.74506579,15.0899442 C8.63375091,13.9963129 3.97653642,9.41320546 3.43275071,8.87807263 Z" id="Path" fill="#D8DCE5" fill-rule="nonzero"></path>
							<path d="M16.3233869,8.23184416 L8.44997389,16.015641 C8.03860519,16.4226127 8.03860519,17.0819809 8.44997389,17.4886674 L15.103416,24.0663792 C17.6783651,26.6120199 21.8918656,26.6120199 24.4668146,24.0663792 C27.0417636,21.5207386 27.0417636,17.3551966 24.4668146,14.809556 L17.8133725,8.23184416 C17.4020037,7.82515764 16.735044,7.82515764 16.3233869,8.23184416 L16.3233869,8.23184416 Z" id="Path" fill="#FF8787" fill-rule="nonzero"></path>
							<path d="M16.6977878,22.5835644 L10.0595977,15.9890487 C9.64917196,15.5810196 9.64917196,14.9199382 10.0595977,14.5121951 L8.44926664,16.1120006 C8.03884094,16.5197438 8.03884094,17.1811111 8.44926664,17.5888543 L15.0874568,24.18337 C17.6565032,26.7356246 21.860345,26.7356246 24.4293914,24.18337 C24.7036801,23.9108741 24.9486116,23.6195064 25.1644737,23.3138421 C22.59111,25.1066537 18.9922577,24.8633231 16.6977878,22.5835644 L16.6977878,22.5835644 Z" id="Path" fill="#F66A6A" fill-rule="nonzero"></path>
							<path d="M16.3252307,8.2319129 L8.45004342,16.0174638 C8.03858202,16.4245273 8.03858202,17.0840441 8.45004342,17.4908222 L9.26084755,18.2926829 L18.6266447,9.03348829 L17.8155521,8.2319129 C17.4040906,7.82513473 16.7369806,7.82513473 16.3252307,8.2319129 L16.3252307,8.2319129 Z" id="Path" fill="#FEB5B5" fill-rule="nonzero"></path>
							<path d="M9.25273026,18.4146341 L10.8552632,16.8056329 L10.0504164,15.9975376 C9.64197821,15.5871632 9.64197821,14.9222819 10.0504164,14.5121951 L8.4478835,16.1209087 C8.0388725,16.5315707 8.03973171,17.196452 8.4478835,17.6062512 L9.25273026,18.4146341 Z" id="Path" fill="#F85151" fill-rule="nonzero"></path>
							<path d="M28.6921416,22.0003204 C25.9943831,19.3332265 21.6207485,19.3332265 18.92299,22.0003204 C16.2252314,24.6671306 16.2252314,28.991335 18.92299,31.6584289 C21.6207485,34.3252391 25.9943831,34.3252391 28.6921416,31.6584289 C31.3899002,28.991335 31.3899002,24.6671306 28.6921416,22.0003204 L28.6921416,22.0003204 Z" id="Path" fill="#CBE6E2" fill-rule="nonzero"></path>
							<path d="M21.600419,20.4005329 C21.588581,20.3888785 21.5764543,20.3775082 21.5643277,20.3658537 C20.604299,20.6941694 19.7023051,21.2356772 18.9354371,21.9909456 C16.2210824,24.6629527 16.2210824,28.9955839 18.9354371,31.6678752 C19.7023051,32.4228593 20.604299,32.9643672 21.5643277,33.2926829 C21.5761656,33.2810284 21.588581,33.2699424 21.600419,33.258288 C25.2011761,29.7133304 25.2011761,23.9452062 21.600419,20.4005329 L21.600419,20.4005329 Z" id="Path" fill="#47B29F" fill-rule="nonzero"></path>
							<path d="M18.9314567,31.649828 C21.6405043,34.3281061 26.0327287,34.3281061 28.7417763,31.649828 L18.9314567,21.9512195 C16.2224092,24.6292126 16.2224092,28.97155 18.9314567,31.649828 L18.9314567,31.649828 Z" id="Path" fill="#47B29F" fill-rule="nonzero"></path>
							<path d="M18.93832,21.9512195 C16.2201214,24.6326188 16.2201214,28.9804794 18.93832,31.6621639 C19.7065632,32.4198019 20.6095453,32.9632132 21.5712226,33.2926829 C21.5830773,33.2809875 21.5952212,33.2698625 21.6070759,33.2581671 C23.2979626,31.5897091 24.1960293,29.4308974 24.3009868,27.2415634 L18.93832,21.9512195 Z" id="Path" fill="#149982" fill-rule="nonzero"></path>
							<path d="M19.9341016,22.0003204 C17.2363011,19.3332265 12.8623114,19.3332265 10.1647978,22.0003204 C7.46699723,24.6671306 7.46699723,28.991335 10.1647978,31.6584289 C12.8623114,34.3252391 17.2363011,34.3252391 19.9341016,31.6584289 C22.6316152,28.991335 22.6316152,24.6671306 19.9341016,22.0003204 L19.9341016,22.0003204 Z" id="Path" fill="#CBE6E2" fill-rule="nonzero"></path>
							<path d="M12.4217919,31.6596265 C9.73247885,28.9918904 9.73247885,24.6666446 12.4217919,21.9991922 C13.4773781,20.9517915 14.7909964,20.3175621 16.1595395,20.0925313 C14.0417877,19.7443436 11.7918731,20.378573 10.1584322,21.9991922 C7.46911911,24.6666446 7.46911911,28.9918904 10.1584322,31.6596265 C11.7918731,33.279962 14.0417877,33.9141914 16.1595395,33.5660037 C14.7909964,33.3409729 13.4773781,32.7067435 12.4217919,31.6596265 L12.4217919,31.6596265 Z" id="Path" fill="#97CEC5" fill-rule="nonzero"></path>
							<path d="M10.1732825,31.649828 C12.882396,34.3281061 17.2744392,34.3281061 19.9835526,31.649828 L10.1732825,21.9512195 C7.46416901,24.6292126 7.46416901,28.97155 10.1732825,31.649828 L10.1732825,31.649828 Z" id="Path" fill="#47B29F" fill-rule="nonzero"></path>
							<path d="M16.1595395,33.5561759 C14.7922795,33.3304029 13.4798928,32.6940821 12.4252964,31.6435119 C10.1280481,29.3550342 9.79680768,25.8514255 11.4281455,23.2104801 L10.1640587,21.9512195 C5.50211376,26.5950811 9.48385839,34.6585628 16.1595395,33.5561759 L16.1595395,33.5561759 Z" id="Path" fill="#149982" fill-rule="nonzero"></path>
						</g>
						<g id="003-flask">
							<path d="M10.1512708,7.631955 C10.1512708,8.461795 9.47088947,9.1344322 8.63149539,9.1344322 C7.79161961,9.1344322 7.11123812,8.461795 7.11123812,7.631955 C7.11123812,6.80211512 7.79161961,6.12947793 8.63149539,6.12947793 C9.47088947,6.12947793 10.1512708,6.80211512 10.1512708,7.631955 Z" id="Path" fill="#FFC850" fill-rule="nonzero"></path>
							<path d="M5.07732188,2.44855183 C5.07732188,3.80144817 3.96857011,4.89758 2.60057948,4.89758 C1.23258886,4.89758 0.123355263,3.80144817 0.123355263,2.44855183 C0.123355263,1.09613183 1.23258886,-5.19909319e-15 2.60057948,-5.19909319e-15 C3.96857011,-5.19909319e-15 5.07732188,1.09613183 5.07732188,2.44855183 Z" id="Path" fill="#FFC850" fill-rule="nonzero"></path>
							<path d="M9.58846246,7.631955 C9.58846246,7.30754573 9.69302529,7.00838415 9.86986665,6.76305256 C9.59424474,6.38004951 9.14274511,6.12947793 8.63149539,6.12947793 C7.79210144,6.12947793 7.11123812,6.80211512 7.11123812,7.631955 C7.11123812,8.461795 7.79210144,9.1344322 8.63149539,9.1344322 C9.14274511,9.1344322 9.59424474,8.88386049 9.86986665,8.5013339 C9.69302529,8.25552585 9.58846246,7.95588793 9.58846246,7.631955 Z" id="Path" fill="#FEB644" fill-rule="nonzero"></path>
							<path d="M2.60057948,2.44855183 C2.60057948,1.54296878 3.09930099,0.754096829 3.83895074,0.330602195 C3.4741854,0.121474878 3.05207899,-5.19909319e-15 2.60057948,-5.19909319e-15 C1.23258886,-5.19909319e-15 0.123355263,1.09613183 0.123355263,2.44855183 C0.123355263,3.80144817 1.23258886,4.89758 2.60057948,4.89758 C3.05207899,4.89758 3.4741854,4.77610512 3.83895074,4.56745427 C3.09930099,4.14348317 2.60057948,3.35461122 2.60057948,2.44855183 Z" id="Path" fill="#FEB644" fill-rule="nonzero"></path>
							<polygon id="Path" fill="#E4EAF8" fill-rule="nonzero" points="1.67541501 13.4370237 11.8975188 13.4370237 11.8975188 23.8133574 1.67541501 23.8133574"></polygon>
							<polygon id="Path" fill="#D8DCE5" fill-rule="nonzero" points="1.67541501 13.4370237 5.48834556 13.4370237 5.48834556 23.8133574 1.67541501 23.8133574"></polygon>
							<path d="M11.8975188,27.1365282 L1.67541501,27.1365282 L1.67541501,54.9471227 C1.67541501,57.7377096 3.96375148,60 6.7864669,60 C9.60918232,60 11.8975188,57.7377096 11.8975188,54.9471227 L11.8975188,27.1365282 Z" id="Path" fill="#FFD07A" fill-rule="nonzero"></path>
							<path d="M5.48834556,54.9471227 L5.48834556,27.1365282 L1.67541501,27.1365282 L1.67541501,54.9471227 C1.67541501,57.7377096 3.96375148,60 6.7864669,60 C7.46058417,60 8.1038625,59.8699505 8.6926912,59.6355755 C6.81489646,58.8881478 5.48834556,57.0712652 5.48834556,54.9471227 L5.48834556,54.9471227 Z" id="Path" fill="#FFE6B1" fill-rule="nonzero"></path>
							<path d="M5.63049313,35.0395388 C5.63049313,35.8693788 4.95011188,36.542016 4.11023598,36.542016 C3.2708419,36.542016 2.59046053,35.8693788 2.59046053,35.0395388 C2.59046053,34.2096989 3.2708419,33.5365854 4.11023598,33.5365854 C4.95011188,33.5365854 5.63049313,34.2096989 5.63049313,35.0395388 Z" id="Path" fill="#FEB644" fill-rule="nonzero"></path>
							<path d="M10.6528834,41.1509146 C10.6528834,42.5033345 9.54364984,43.5994663 8.17565921,43.5994663 C6.80766859,43.5994663 5.69891682,42.5033345 5.69891682,41.1509146 C5.69891682,39.7984946 6.80766859,38.7018863 8.17565921,38.7018863 C9.54364984,38.7018863 10.6528834,39.7984946 10.6528834,41.1509146 Z" id="Path" fill="#FEB644" fill-rule="nonzero"></path>
							<path d="M5.10045111,35.0395388 C5.10045111,34.7251333 5.19874971,34.4331173 5.36547212,34.1920732 C5.09177763,33.7966844 4.63208647,33.5365854 4.11023598,33.5365854 C3.2708419,33.5365854 2.59046053,34.2096989 2.59046053,35.0395388 C2.59046053,35.8693788 3.2708419,36.542016 4.11023598,36.542016 C4.63208647,36.542016 5.09177763,36.2823932 5.36547212,35.8865282 C5.19826789,35.6454839 5.10045111,35.3539443 5.10045111,35.0395388 Z" id="Path" fill="#F9972D" fill-rule="nonzero"></path>
							<path d="M8.20890728,41.1509146 C8.20890728,40.2520007 8.7004009,39.4683688 9.43041353,39.0424923 C9.06227516,38.8276485 8.6343866,38.7018863 8.17565921,38.7018863 C6.80766859,38.7018863 5.69891682,39.7984946 5.69891682,41.1509146 C5.69891682,42.5033345 6.80766859,43.5994663 8.17565921,43.5994663 C8.6343866,43.5994663 9.06227516,43.4741806 9.43041353,43.2593368 C8.7004009,42.8334602 8.20890728,42.0498284 8.20890728,41.1509146 Z" id="Path" fill="#F9972D" fill-rule="nonzero"></path>
							<path d="M12.5436883,10.2391388 L1.0297273,10.2391388 C0.504985609,10.2391388 0.0795062911,10.6602515 0.0795062911,11.1790206 L0.0795062911,12.873952 C0.0795062911,13.3931974 0.504985609,13.8138339 1.0297273,13.8138339 L12.5436883,13.8138339 C13.06843,13.8138339 13.4939093,13.3931974 13.4939093,12.873952 L13.4939093,11.1790206 C13.4939093,10.6602515 13.06843,10.2391388 12.5436883,10.2391388 Z" id="Path" fill="#D8DCE5" fill-rule="nonzero"></path>
							<path d="M12.5436883,11.4686548 L1.0297273,11.4686548 C0.620631168,11.4686548 0.272730839,11.2123666 0.138774671,10.8541349 C0.101189803,10.9556022 0.0795062911,11.0646913 0.0795062911,11.1790206 L0.0795062911,12.873952 C0.0795062911,13.3931974 0.504985609,13.8138339 1.0297273,13.8138339 L12.5436883,13.8138339 C13.06843,13.8138339 13.4939093,13.3931974 13.4939093,12.873952 L13.4939093,11.1790206 C13.4939093,11.0646913 13.4722258,10.9551257 13.434641,10.8541349 C13.3006849,11.2123666 12.9527845,11.4686548 12.5436883,11.4686548 Z" id="Path" fill="#C3C8D1" fill-rule="nonzero"></path>
							<polygon id="Path" fill="#FEB644" fill-rule="nonzero" points="1.67541501 23.561833 11.8975188 23.561833 11.8975188 27.2565739 1.67541501 27.2565739"></polygon>
							<polygon id="Path" fill="#FFD07A" fill-rule="nonzero" points="1.67541501 23.561833 5.48834556 23.561833 5.48834556 27.2565739 1.67541501 27.2565739"></polygon>
						</g>
					</g>
					<g id="Teleconsultation" transform="translate(183.000000, 0.000000)">
						<g>
							<g id="007-smartphone-1" fill-rule="nonzero">
								<path d="M33.7754876,59.8976546 L2.48736702,59.8976546 C1.1633422,59.8976546 0.0835549645,58.8230277 0.0835549645,57.5053305 L0.0835549645,2.39232409 C0.0835549645,1.07462687 1.1633422,0 2.48736702,0 L33.7754876,0 C35.0995124,0 36.1792996,1.07462687 36.1792996,2.39232409 L36.1792996,57.5053305 C36.1792996,58.8358209 35.0995124,59.8976546 33.7754876,59.8976546 Z" id="Path" fill="#908F8F"></path>
								<rect id="Rectangle" fill="#FFFFFF" x="0.0835549645" y="6.8315565" width="36.1085993" height="44.8272921"></rect>
								<g id="Group" transform="translate(13.497340, 2.558635)" fill="#E5E5E5">
									<ellipse id="Oval" cx="0.86768617" cy="0.857142857" rx="1" ry="1"></ellipse>
									<ellipse id="Oval" cx="3.37433511" cy="0.857142857" rx="1" ry="1"></ellipse>
									<ellipse id="Oval" cx="5.89383865" cy="0.857142857" rx="1" ry="1"></ellipse>
									<ellipse id="Oval" cx="8.40048759" cy="0.857142857" rx="1" ry="1"></ellipse>
									<path d="M7.84773936,54.9722814 L2.23027482,54.9722814 C1.79321809,54.9722814 1.43328901,54.6140725 1.43328901,54.1791045 L1.43328901,52.2857143 C1.43328901,51.8507463 1.79321809,51.4925373 2.23027482,51.4925373 L7.84773936,51.4925373 C8.2847961,51.4925373 8.64472518,51.8507463 8.64472518,52.2857143 L8.64472518,54.1791045 C8.64472518,54.6140725 8.2847961,54.9722814 7.84773936,54.9722814 Z" id="Path"></path>
								</g>
							</g>
							<g id="005-stethoscope" transform="translate(4.627660, 14.840085)" fill-rule="nonzero">
								<g id="Group" transform="translate(3.085106, 0.000000)">
									<path d="M1.6442499,19.7707056 L1.6442499,17.1873334 C1.6442499,15.5593872 2.97733084,14.234908 4.61584979,14.234908 C6.25436875,14.234908 7.58744969,15.5593872 7.58744969,17.1873334 L7.58744969,22.6109388 C7.58744969,25.0275517 9.56626989,26.9936034 11.9985775,26.9936034 C14.430885,26.9936034 16.4097053,25.0275517 16.4097053,22.6109388 L16.4097053,22.0401717 L18.8443477,16.3308665 L17.3785529,15.7138623 L15.613741,19.8523718 L13.8489821,15.7138623 L12.3831874,16.3308665 L14.8177767,22.0401717 L14.8177767,22.6109388 C14.8177767,24.1554264 13.5530957,25.411947 11.9985775,25.411947 C10.4440593,25.411947 9.1793782,24.1554264 9.1793782,22.6109388 L9.1793782,17.1873334 C9.1793782,14.6872618 7.13215813,12.6532516 4.61584979,12.6532516 C2.09954145,12.6532516 0.0523213838,14.6872618 0.0523213838,17.1873334 L0.0523213838,19.7707056 L1.6442499,19.7707056 Z" id="Path" fill="#FF8787"></path>
									<path d="M15.613741,19.8523718 L15.613741,25.1177061 C16.1146148,24.4068043 16.4097053,23.5426926 16.4097053,22.6109916 L16.4097053,22.0402245 L18.8443477,16.3309192 L17.3785529,15.713915 L15.613741,19.8523718 Z" id="Path" fill="#FEB5B5"></path>
									<path d="M19.3282409,1.05443763 L20.5866073,1.05443763 C21.6788294,1.05443763 22.6825404,1.55134137 23.3402722,2.41766733 C23.998004,3.28399329 24.2031505,4.3793431 23.903072,5.42281458 L21.7904767,12.769187 C21.4038503,14.113595 20.6056574,15.2692059 19.4821804,16.1112271 C18.3587033,16.9531955 17.0210589,17.3982737 15.6137941,17.3982737 C14.2065293,17.3982737 12.8688317,16.9532483 11.7453547,16.1112271 C10.6218777,15.2692586 9.82368473,14.113595 9.43705836,12.769187 L7.32446309,5.42281458 C7.02438457,4.37939582 7.22953109,3.28409873 7.88726289,2.41772005 C8.54499469,1.55134137 9.54865255,1.05443763 10.6408747,1.05443763 L11.8991881,1.05443763 L11.8991881,2.63609408 L10.6408747,2.63609408 C10.0527632,2.63609408 9.51230352,2.90365763 9.15815249,3.37014084 C8.80400146,3.83662405 8.69352162,4.42642374 8.85510236,4.98828083 L10.9676976,12.3346533 C11.5572418,14.3847436 13.4677683,15.8165645 15.613741,15.8165645 C17.7597137,15.8165645 19.6702402,14.3847436 20.2597844,12.334706 L22.3723796,4.98833356 C22.5339604,4.42647646 22.4234805,3.83667677 22.0693295,3.37019356 C21.7151785,2.90365763 21.1747187,2.63609408 20.5865542,2.63609408 L19.3281878,2.63609408 L19.3281878,1.05443763 L19.3282409,1.05443763 Z" id="Path" fill="#474545"></path>
									<path d="M20.5865542,1.05443763 L19.3281878,1.05443763 L19.3281878,2.63609408 L20.5865542,2.63609408 C21.1746657,2.63609408 21.7151254,2.90365763 22.0692764,3.37014084 C22.4234275,3.83662405 22.5339073,4.42642374 22.3723266,4.98828083 L20.2597313,12.3346533 C19.6702402,14.3847436 17.7597137,15.8165645 15.613741,15.8165645 L15.613741,17.3982209 C17.0210058,17.3982209 18.3587033,16.9531955 19.4821273,16.1111744 C20.6056043,15.2692059 21.4037973,14.1135423 21.7904236,12.7691343 L23.9030189,5.42276186 C24.2030974,4.37929038 23.9979509,3.28399329 23.3402191,2.41761461 C22.6824873,1.55123592 21.6788294,1.05443763 20.5865542,1.05443763 L20.5865542,1.05443763 Z" id="Path" fill="#908F8F"></path>
									<path d="M11.8992411,3.69053172 C11.4596566,3.69053172 11.1032769,3.33645156 11.1032769,2.89970349 L11.1032769,0.790828225 C11.1032769,0.354080157 11.4596566,0 11.8992411,0 C12.3388257,0 12.6952054,0.354080157 12.6952054,0.790828225 L12.6952054,2.89970349 C12.6952054,3.33645156 12.3388257,3.69053172 11.8992411,3.69053172 Z" id="Path" fill="#47B29F"></path>
									<path d="M19.3282409,3.69053172 C18.8886563,3.69053172 18.5322766,3.33645156 18.5322766,2.89970349 L18.5322766,0.790828225 C18.5322766,0.354080157 18.8886563,0 19.3282409,0 C19.7678254,0 20.1242051,0.354080157 20.1242051,0.790828225 L20.1242051,2.89970349 C20.1242051,3.33645156 19.7678254,3.69053172 19.3282409,3.69053172 Z" id="Path" fill="#47B29F"></path>
								</g>
								<g id="Group" transform="translate(0.000000, 18.933902)">
									<ellipse id="Oval" fill="#97CEC5" cx="3.98492908" cy="3.96588486" rx="3.18794326" ry="3.17270789"></ellipse>
									<g fill="#47B29F">
										<path d="M3.98492908,7.93176972 C1.78763918,7.93176972 0,6.15267377 0,3.96588486 C0,1.77909595 1.78763918,0 3.98492908,0 C6.18221897,0 7.96985816,1.77909595 7.96985816,3.96588486 C7.96985816,6.15267377 6.18221897,7.93176972 3.98492908,7.93176972 Z M3.98492908,1.58635394 C2.66655514,1.58635394 1.59397163,2.65381151 1.59397163,3.96588486 C1.59397163,5.27795821 2.66655514,6.34541578 3.98492908,6.34541578 C5.30330301,6.34541578 6.37588652,5.27795821 6.37588652,3.96588486 C6.37588652,2.65381151 5.30330301,1.58635394 3.98492908,1.58635394 Z" id="Shape"></path>
										<ellipse id="Oval" cx="3.98492908" cy="3.96588486" rx="1" ry="1"></ellipse>
									</g>
								</g>
							</g>
						</g>
					</g>
					<g id="Health-Insurance_intro" transform="translate(28.000000, 0.000000)">
						<g id="Health-Insurance">
							<path d="M51.0319743,16.2749448 C51.0015215,14.7461552 50.9735049,13.3030811 50.9735049,11.9069745 C50.9735049,10.8126335 50.0538313,9.92612342 48.9185521,9.92612342 C40.1298829,9.92612342 33.4375824,7.49086254 27.8598532,2.26338836 C27.461531,1.88882317 26.945052,1.70212766 26.4285731,1.70212766 C25.910876,1.70212766 25.394397,1.88882317 24.9948567,2.26338836 C19.4171275,7.49086254 12.7272632,9.92612342 3.93859402,9.92612342 C2.8045329,9.92612342 1.88364116,10.8126335 1.88364116,11.9069745 C1.88364116,13.3030811 1.85562462,14.7473294 1.82517185,16.276119 C1.54378826,30.4955063 1.15764715,49.9705482 25.7549578,58.1886731 C25.9729996,58.2614726 26.1995682,58.2978723 26.4273549,58.2978723 L26.4285731,58.2978723 C26.6563598,58.2978723 26.8829284,58.2614726 27.0997521,58.1886731 C51.699499,49.9705482 51.3133579,30.4943321 51.0319743,16.2749448 L51.0319743,16.2749448 Z" id="Path" fill="#EFEFEF" fill-rule="nonzero"></path>
							<path d="M27.0957554,58.1886731 C26.8802223,58.2614726 26.6550023,58.2978723 26.4285714,58.2978723 L26.4285714,1.70212766 C26.9419761,1.70212766 27.4553809,1.88882317 27.8513321,2.26338836 C33.3958609,7.49086254 40.0483268,9.92612342 48.784683,9.92612342 C49.9132047,9.92612342 50.8274041,10.8126335 50.8274041,11.9069745 C50.8274041,13.3030811 50.8552539,14.7461552 50.8855254,16.2749448 C51.1652341,30.4943321 51.5490768,49.9705482 27.0957554,58.1886731 L27.0957554,58.1886731 Z" id="Path" fill="#E5E5E9" fill-rule="nonzero"></path>
							<path d="M52.7947153,16.273093 L52.7935002,16.2156779 C52.7643368,14.7205406 52.7363886,13.3074249 52.7363886,11.9482092 C52.7363886,9.88829434 50.9987364,8.21388119 48.863733,8.21388119 C40.6007716,8.21388119 34.3294269,5.94188181 29.1274067,1.06510956 C28.3703736,0.355036519 27.3994757,0 26.4285777,0 C25.4564646,0 24.4843515,0.355036519 23.7273184,1.06510956 C18.5265133,5.94188181 12.2551686,8.21388119 3.9934224,8.21388119 C1.858419,8.21388119 0.120766828,9.88829434 0.120766828,11.9482092 C0.120766828,13.3367184 0.0928185767,14.7638949 0.0624400423,16.2742647 C-0.0773012164,23.3281256 -0.251066434,32.1067844 2.80379899,40.0757724 C4.48433952,44.4580713 7.02763043,48.2662188 10.3644087,51.3935867 C14.1653709,54.956841 19.14259,57.7830723 25.1587549,59.7937742 C25.5682576,59.9308675 25.9947722,60 26.4273625,60 L26.4285777,60 C26.861168,60 27.2876826,59.9308675 27.6959701,59.7937742 C33.7121351,57.7830723 38.6905693,54.956841 42.4915316,51.3935867 C45.8283098,48.2650471 48.3716007,44.4568996 50.0521412,40.0757724 C53.1082218,32.1067844 52.9344566,23.3269539 52.7947153,16.273093 L52.7947153,16.273093 Z M46.6327334,38.8559934 C43.4113936,47.2596961 36.8265425,53.0223021 26.500271,56.4730696 C26.4771833,56.4812717 26.4540957,56.4859587 26.4285777,56.4859587 C26.4030597,56.4859587 26.3775418,56.4812717 26.3532389,56.4730696 C16.0293978,53.0223021 9.44576177,47.2596961 6.22320684,38.8571652 C3.40772426,31.5103699 3.56690778,23.4523298 3.70786418,16.3410538 C3.73824271,14.8131078 3.76619097,13.369527 3.76619097,11.9482092 C3.76619097,11.8275202 3.86826284,11.7290942 3.9934224,11.7290942 C13.2649511,11.7290942 20.3431497,9.1407257 26.2693942,3.58434558 C26.3131393,3.54333477 26.3702509,3.52224349 26.4273625,3.52224349 L26.4285777,3.52224349 C26.4856893,3.52224349 26.5415858,3.54333477 26.5865461,3.58434558 C32.5115754,9.1407257 39.5909891,11.7290942 48.863733,11.7290942 C48.9888925,11.7290942 49.0909644,11.8275202 49.0909644,11.9482092 C49.0909644,13.3402336 49.1189127,14.7697535 49.1480761,16.2824669 L49.1492912,16.339882 C49.1808849,17.9264149 49.2136937,19.5609889 49.2136937,21.2236847 C49.2136937,27.0120689 48.821203,33.1484592 46.6327334,38.8559934 L46.6327334,38.8559934 Z" id="Shape" fill="#97CEC5" fill-rule="nonzero"></path>
							<path d="M38.9087302,25.2057308 L38.9087302,32.2410777 C38.9087302,32.8897351 38.3649906,33.4161816 37.6923106,33.4161816 L31.2135384,33.4161816 L31.2135384,39.67596 C31.2135384,40.3246173 30.6685825,40.8510638 29.9971189,40.8510638 L22.714415,40.8510638 C22.0429514,40.8510638 21.4979955,40.3246173 21.4979955,39.67596 L21.4979955,33.4161816 L15.0180069,33.4161816 C14.3453268,33.4161816 13.8015873,32.8897351 13.8015873,32.2410777 L13.8015873,25.2057308 C13.8015873,24.5570735 14.3453268,24.0306269 15.0180069,24.0306269 L21.4979955,24.0306269 L21.4979955,17.7708486 C21.4979955,17.1221912 22.0429514,16.5957447 22.714415,16.5957447 L29.9972405,16.5957447 C30.6687041,16.5957447 31.2136601,17.1221912 31.2136601,17.7708486 L31.2136601,24.0306269 L37.6924322,24.0306269 C38.3649906,24.0306269 38.9087302,24.5570735 38.9087302,25.2057308 Z" id="Path" fill="#FF8787" fill-rule="nonzero"></path>
							<path d="M38.9087302,25.2057308 L38.9087302,32.2410777 C38.9087302,32.8897351 38.3681704,33.4161816 37.6994242,33.4161816 L31.2585395,33.4161816 L31.2585395,39.67596 C31.2585395,40.3246173 30.7167705,40.8510638 30.0492336,40.8510638 L26.4285714,40.8510638 L26.4285714,16.5957447 L30.0492336,16.5957447 C30.7167705,16.5957447 31.2585395,17.1221912 31.2585395,17.7708486 L31.2585395,24.0306269 L37.6994242,24.0306269 C38.3681704,24.0306269 38.9087302,24.5570735 38.9087302,25.2057308 Z" id="Path" fill="#F66A6A" fill-rule="nonzero"></path>
							<path d="M50.0521406,40.0757724 C48.3715997,44.4568996 45.8283081,48.2650471 42.4915291,51.3935867 C38.690566,54.956841 33.7121306,57.7830723 27.6959642,59.7937742 C27.2876766,59.9308675 26.8611619,60 26.4285714,60 L26.4285714,56.4859587 C26.4540894,56.4859587 26.4771771,56.4812717 26.5002648,56.4730696 C36.8265387,53.0223021 43.4113914,47.2596961 46.6327319,38.8559934 C48.8212021,33.1484592 49.2136928,27.0120689 49.2136928,21.2236847 C49.2136928,19.5609889 49.180884,17.9264149 49.1492903,16.339882 L49.1480752,16.2824669 C49.1189118,14.7697535 49.0909635,13.3402336 49.0909635,11.9482092 C49.0909635,11.8275202 48.9888916,11.7290942 48.863732,11.7290942 C39.590986,11.7290942 32.5115706,9.1407257 26.5865398,3.58434558 C26.5415796,3.54333477 26.4856831,3.52224349 26.4285714,3.52224349 L26.4285714,0 C27.3994696,0 28.3703678,0.355036519 29.1274011,1.06510956 C34.3294225,5.94188181 40.6007687,8.21388119 48.863732,8.21388119 C50.9987359,8.21388119 52.7363885,9.88829434 52.7363885,11.9482092 C52.7363885,13.3074249 52.7643368,14.7205406 52.7935002,16.2156779 L52.7947153,16.273093 C52.9344566,23.3269539 53.1082219,32.1067844 50.0521406,40.0757724 Z" id="Path" fill="#47B29F" fill-rule="nonzero"></path>
						</g>
					</g>
				</g>
				<text id="A-fully-comprehensiv" font-family="CircularStd-Bold, Circular Std" font-size="21" font-weight="bold" fill="#172A3A">
					<tspan x="63.0625" y="55">A fully comprehensive</tspan>
					<tspan x="46.6615" y="82">Coronavirus Support Plan</tspan>
				</text>
				<line x1="45.5" y1="113" x2="299.5" y2="112.5" id="Line-Copy" stroke="#FFFFFF" opacity="0.8" stroke-linecap="square"></line>
			</g>
		</g>
	</g>
</svg>